<svg width="246" height="246" viewBox="0 0 246 246" fill="none" xmlns="http://www.w3.org/2000/svg">
<path d="M195.988 39.1439C208.357 48.8337 209.619 63.9309 221.732 72.2091L209.721 81.5726C197.378 73.4832 196.346 58.1972 183.977 48.5074L195.988 39.1439Z" fill="#BA94E8"/>
<path d="M27.9485 133.199C40.3178 142.888 41.5794 157.986 53.6925 166.264L41.6818 175.627C29.3391 167.538 28.307 152.252 15.9377 142.562L27.9485 133.199Z" fill="#F3B0C3"/>
<path d="M144.308 180.97C138.423 195.521 124.272 200.907 119.684 214.857L107.386 205.892C111.747 191.787 126.124 186.556 132.01 172.005L144.308 180.97Z" fill="#BA94E8"/>
<path d="M152.976 32.4366C147.091 46.9875 132.94 52.3731 128.352 66.3236L116.054 57.3582C120.414 43.2537 134.792 38.0221 140.678 23.4713L152.976 32.4366Z" fill="url(#paint0_linear_3466_32475)"/>
<path d="M92.2109 118.142L81.5296 107.289L92.3647 96.5898L103.046 107.443L92.2109 118.142Z" fill="#F3B0C3"/>
<path d="M179.428 149.227L168.746 138.374L179.582 127.674L190.263 138.527L179.428 149.227Z" fill="url(#paint1_linear_3466_32475)"/>
<path d="M81.1855 60.8965L70.5042 50.0436L81.3393 39.3442L92.0207 50.1971L81.1855 60.8965Z" fill="#BA94E8"/>
<path d="M164.697 84.9859C164.69 85.9765 164.303 86.9263 163.575 87.6831L155.913 95.2487C154.419 96.724 152.023 96.7069 150.55 95.2104C149.077 93.714 149.095 91.3137 150.589 89.8384L158.25 82.2728C159.744 80.7975 162.14 80.8146 163.613 82.3111C164.368 83.0785 164.704 84.0334 164.697 85.024L164.697 84.9859Z" fill="#F3B0C3"/>
<path d="M76.4257 194.85C76.4187 195.84 76.0315 196.79 75.3034 197.547L67.6418 205.112C66.1478 206.588 63.7515 206.571 62.2787 205.074C60.8059 203.578 60.823 201.177 62.317 199.702L69.9786 192.137C71.4726 190.661 73.8689 190.678 75.3417 192.175C76.097 192.942 76.4325 193.897 76.4255 194.888L76.4257 194.85Z" fill="#F3B0C3"/>
<path d="M202 188.125C201.993 189.116 201.606 190.065 200.878 190.822L193.216 198.388C191.722 199.863 189.326 199.846 187.853 198.35C186.38 196.853 186.397 194.453 187.891 192.978L195.553 185.412C197.047 183.937 199.443 183.954 200.916 185.45C201.671 186.218 202.007 187.173 202 188.163L202 188.125Z" fill="url(#paint2_linear_3466_32475)"/>
<path d="M52.2508 80.4492C52.2437 81.4398 51.856 82.4658 51.0521 83.184C49.5203 84.6209 47.1243 84.5657 45.6898 83.0314L38.4418 75.2832C37.0073 73.7489 37.0624 71.3489 38.5942 69.912C40.126 68.4751 42.522 68.5303 43.9565 70.0646L51.2045 77.8128C51.884 78.5415 52.2576 79.4967 52.2508 80.4492Z" fill="#BA94E8"/>
<path d="M93.573 153.137C93.566 154.128 93.1783 155.154 92.3743 155.872C90.8426 157.309 88.4466 157.254 87.0121 155.719L79.764 147.971C78.3296 146.437 78.3847 144.037 79.9165 142.6C81.4483 141.163 83.8443 141.218 85.2788 142.753L92.5268 150.501C93.2063 151.23 93.5798 152.185 93.573 153.137Z" fill="url(#paint3_linear_3466_32475)"/>
<path d="M146.905 142.087C146.898 143.078 146.51 144.103 145.706 144.822C144.175 146.259 141.779 146.203 140.344 144.669L133.096 136.921C131.662 135.387 131.717 132.987 133.249 131.55C134.78 130.113 137.176 130.168 138.611 131.702L145.859 139.45C146.538 140.179 146.912 141.134 146.905 142.087Z" fill="#BA94E8"/>
<defs>
<linearGradient id="paint0_linear_3466_32475" x1="129.888" y1="35.0974" x2="134.702" y2="72.4469" gradientUnits="userSpaceOnUse">
<stop stop-color="#49BEFF" stop-opacity="0.3"/>
<stop offset="1" stop-color="#C852FF" stop-opacity="0.28"/>
</linearGradient>
<linearGradient id="paint1_linear_3466_32475" x1="175.69" y1="137.349" x2="186.134" y2="145.721" gradientUnits="userSpaceOnUse">
<stop stop-color="#49BEFF" stop-opacity="0.3"/>
<stop offset="1" stop-color="#C852FF" stop-opacity="0.28"/>
</linearGradient>
<linearGradient id="paint2_linear_3466_32475" x1="192.463" y1="188.424" x2="193.921" y2="201.726" gradientUnits="userSpaceOnUse">
<stop stop-color="#49BEFF" stop-opacity="0.3"/>
<stop offset="1" stop-color="#C852FF" stop-opacity="0.28"/>
</linearGradient>
<linearGradient id="paint3_linear_3466_32475" x1="84.27" y1="145.743" x2="85.7715" y2="159.104" gradientUnits="userSpaceOnUse">
<stop stop-color="#49BEFF" stop-opacity="0.3"/>
<stop offset="1" stop-color="#C852FF" stop-opacity="0.28"/>
</linearGradient>
</defs>
</svg>
