<svg width="76" height="76" viewBox="0 0 76 76" fill="none" xmlns="http://www.w3.org/2000/svg">
<circle cx="38" cy="38" r="38" fill="#BBD0FF" fill-opacity="0.56"/>
<g clip-path="url(#clip0_2919_21621)">
<path d="M31.2529 55.1047L26.5858 53.1057C26.2821 52.9735 26.0235 52.7557 25.8415 52.4789C25.6595 52.2022 25.562 51.8784 25.5609 51.5472V50.9712L25.5439 50.8865C26.5661 50.6843 27.4773 50.1111 28.102 49.2771L28.1782 49.1162C28.9169 49.6204 29.7644 49.9426 30.6515 50.0564L30.6431 50.1242V52.6991C30.644 53.5391 30.8535 54.3657 31.2529 55.1047ZM38.2663 52.4196V54.3593L35.8862 55.1555L35.0561 54.7998C34.7524 54.6675 34.4937 54.4498 34.3117 54.173C34.1297 53.8962 34.0322 53.5725 34.0312 53.2412V49.5482C34.2229 49.4567 34.4095 49.3549 34.5902 49.2433C34.9468 50.0003 35.4583 50.6741 36.0915 51.2212C36.7247 51.7683 37.4656 52.1766 38.2663 52.4196Z" fill="white"/>
<path d="M39.9599 52.6653C40.7376 52.6673 41.5079 52.5148 42.2262 52.2167C42.9445 51.9186 43.5965 51.4809 44.1443 50.9289L44.1951 50.9712V54.0629C44.1937 54.4007 44.0914 54.7304 43.9012 55.0097C43.711 55.2889 43.4417 55.5049 43.1278 55.6299L39.9599 56.9004L35.8857 55.1556L38.2659 54.3594V52.4197C38.8157 52.5829 39.3864 52.6657 39.9599 52.6653ZM50.9713 46.9733V50.768C50.9711 51.0831 50.8831 51.392 50.717 51.6598C50.5509 51.9277 50.3133 52.1439 50.0311 52.2841L47.5832 53.5123V49.2772L47.5239 49.0824C48.862 48.7493 50.0655 48.013 50.9713 46.9733Z" fill="white"/>
<path d="M47.5832 49.2771V53.9527C47.5836 54.8484 47.3472 55.7284 46.8979 56.5034C46.4487 57.2783 45.8027 57.9208 45.0252 58.3657L41.654 60.2885L39.96 56.9003L43.1278 55.6298C43.4417 55.5048 43.711 55.2888 43.9012 55.0096C44.0914 54.7304 44.1937 54.4006 44.1951 54.0628V50.9711L44.1443 50.9288C44.6328 50.4437 45.0314 49.8759 45.3216 49.2517C45.508 49.2602 45.6943 49.2771 45.8892 49.2771C46.4399 49.2775 46.9887 49.2121 47.5239 49.0823L47.5832 49.2771Z" fill="#9A6948"/>
<g filter="url(#filter0_d_2919_21621)">
<path d="M35.8857 55.1556L39.9599 56.9005L41.6539 60.2886L43.348 64.5237H36.5718V58.5945L33.7258 57.3748C32.8125 56.9802 32.0343 56.3276 31.4866 55.497C30.9389 54.6665 30.6456 53.6941 30.6426 52.6992V50.1243L30.651 50.0565C30.9279 50.105 31.2086 50.1276 31.4896 50.1243C32.3688 50.1225 33.2367 49.9258 34.0307 49.5483V53.2413C34.0318 53.5726 34.1293 53.8963 34.3113 54.1731C34.4933 54.4498 34.7519 54.6676 35.0556 54.7999L35.8857 55.1556Z" fill="#9A6948"/>
</g>
<path d="M33.9295 35.4283C33.1141 36.205 32.5781 37.2293 32.4049 38.342C32.1021 38.2953 31.7964 38.2698 31.4901 38.2658C30.219 38.2648 28.9812 38.6723 27.9593 39.4282C26.9374 40.1841 26.1855 41.2484 25.8144 42.4641C25.4433 43.6798 25.4727 44.9826 25.8983 46.1803C26.324 47.378 27.1232 48.4073 28.1782 49.1162L28.102 49.2772C27.4773 50.1111 26.5661 50.6844 25.5439 50.8865C25.2712 50.9449 24.9928 50.9733 24.7139 50.9712C23.8539 50.9695 23.0148 50.706 22.3082 50.2158C21.6016 49.7256 21.061 49.0318 20.7582 48.2269C20.3962 48.3553 20.0158 48.424 19.6317 48.4302C18.7331 48.4302 17.8713 48.0732 17.2359 47.4378C16.6005 46.8024 16.2436 45.9406 16.2436 45.042C16.2436 44.9235 16.269 44.8133 16.2775 44.7032C15.5135 44.3778 14.862 43.8349 14.4042 43.1422C13.9463 42.4494 13.7021 41.6373 13.7021 40.8069C13.7021 39.9765 13.9463 39.1644 14.4042 38.4716C14.862 37.7789 15.5135 37.236 16.2775 36.9106C16.269 36.8005 16.2436 36.6903 16.2436 36.5718C16.2378 35.8454 16.4205 35.1299 16.7737 34.4952C17.1269 33.8605 17.6387 33.3282 18.259 32.9502C18.8793 32.5722 19.5869 32.3615 20.313 32.3386C21.039 32.3156 21.7586 32.4813 22.4015 32.8194C22.6469 32.1802 23.0801 31.6301 23.644 31.2416C24.2079 30.8531 24.8761 30.6442 25.5609 30.6426L25.6286 30.6341C25.8269 32.0471 26.5295 33.3407 27.6068 34.2763C28.684 35.2119 30.0633 35.7263 31.4901 35.7247C32.2596 35.7235 33.0217 35.5739 33.7347 35.2843C33.796 35.337 33.8612 35.3851 33.9295 35.4283Z" fill="#2F5224"/>
<path d="M55.2063 24.7133C55.207 25.5951 55.0103 26.4658 54.6307 27.2617C54.2511 28.0575 53.6982 28.7583 53.0125 29.3127C52.3594 29.07 51.6679 28.9466 50.9712 28.9485C49.3987 28.9485 47.8905 29.5732 46.7786 30.6851C45.6667 31.797 45.042 33.3052 45.042 34.8777C45.046 35.1784 45.0715 35.4784 45.1182 35.7755C44.0004 35.8982 42.9313 36.3001 42.0096 36.9444C41.6684 36.2176 41.1593 35.5823 40.5243 35.0908C39.8893 34.5993 39.1466 34.2658 38.3574 34.1177C37.5682 33.9697 36.7552 34.0113 35.9852 34.2391C35.2153 34.467 34.5105 34.8745 33.929 35.4282C33.8606 35.3851 33.7955 35.337 33.7342 35.2843C33.0212 35.5739 32.2591 35.7235 31.4895 35.7247C30.0627 35.7263 28.6835 35.2118 27.6062 34.2762C26.529 33.3406 25.8264 32.047 25.6281 30.6341C25.5796 30.3572 25.5569 30.0765 25.5603 29.7955C25.5615 29.5091 25.5842 29.2231 25.6281 28.94C25.6027 28.94 25.5857 28.9485 25.5603 28.9485C24.4371 28.9485 23.3599 28.5023 22.5656 27.708C21.7714 26.9138 21.3252 25.8366 21.3252 24.7133C21.3252 23.5901 21.7714 22.5129 22.5656 21.7186C23.3599 20.9244 24.4371 20.4782 25.5603 20.4782C25.5942 20.4782 25.6196 20.4867 25.645 20.4867C25.5909 20.2047 25.5625 19.9183 25.5603 19.6312C25.5603 18.5079 26.0065 17.4307 26.8008 16.6365C27.595 15.8422 28.6722 15.396 29.7955 15.396C30.3761 15.3953 30.9503 15.5165 31.4811 15.7518C32.2595 14.4404 33.5142 13.4802 34.9835 13.0715C36.4527 12.6627 38.023 12.837 39.3669 13.558C40.2147 12.7828 41.2699 12.2711 42.4037 12.0855C43.5374 11.8999 44.7006 12.0483 45.7515 12.5126C46.8023 12.977 47.6952 13.7371 48.3213 14.7004C48.9473 15.6636 49.2795 16.7883 49.2771 17.9371C49.2763 18.2208 49.2536 18.504 49.2094 18.7841H49.2771C50.8496 18.7841 52.3578 19.4088 53.4697 20.5208C54.5816 21.6327 55.2063 23.1408 55.2063 24.7133Z" fill="#5CB34F"/>
<path d="M38.2659 52.4196C37.4651 52.1766 36.7242 51.7684 36.091 51.2212C35.4578 50.6741 34.9464 50.0003 34.5898 49.2433C34.4091 49.3549 34.2225 49.4567 34.0307 49.5482C33.2367 49.9257 32.3688 50.1224 31.4897 50.1242C31.2086 50.1276 30.9279 50.1049 30.6511 50.0564C29.764 49.9426 28.9165 49.6205 28.1778 49.1162C27.1228 48.4073 26.3235 47.378 25.8979 46.1803C25.4723 44.9826 25.4429 43.6798 25.8139 42.4641C26.185 41.2483 26.937 40.184 27.9589 39.4282C28.9808 38.6723 30.2186 38.2648 31.4897 38.2658C31.796 38.2698 32.1017 38.2953 32.4044 38.342C32.5777 37.2293 33.1137 36.205 33.9291 35.4283C34.5106 34.8746 35.2154 34.467 35.9853 34.2391C36.7553 34.0113 37.5684 33.9697 38.3576 34.1178C39.1467 34.2658 39.8894 34.5993 40.5244 35.0908C41.1594 35.5823 41.6685 36.2176 42.0097 36.9444C42.9315 36.3002 44.0005 35.8982 45.1183 35.7755C45.0716 35.4785 45.0461 35.1784 45.0421 34.8777C45.0421 33.3052 45.6668 31.7971 46.7787 30.6851C47.8907 29.5732 49.3988 28.9485 50.9713 28.9485C51.6681 28.9467 52.3595 29.07 53.0126 29.3127C53.1601 29.3632 53.3044 29.4226 53.4446 29.4906C54.1547 29.1134 54.9503 28.9265 55.754 28.9479C56.5577 28.9693 57.3422 29.1983 58.0312 29.6127C58.7201 30.0271 59.2901 30.6128 59.6857 31.3128C60.0813 32.0127 60.289 32.8031 60.2886 33.6071C60.2868 34.5716 59.9881 35.512 59.4331 36.3007C60.2517 36.6847 60.9716 37.2508 61.5378 37.9557C62.104 38.6607 62.5015 39.4858 62.6998 40.3679C62.8982 41.25 62.8922 42.1659 62.6822 43.0453C62.4723 43.9248 62.064 44.7446 61.4886 45.442C60.9132 46.1395 60.1859 46.6961 59.3623 47.0692C58.5388 47.4424 57.6408 47.6223 56.737 47.5952C55.8332 47.568 54.9477 47.3345 54.148 46.9126C53.3483 46.4906 52.6558 45.8913 52.1233 45.1606C51.8368 45.8215 51.4481 46.4333 50.9713 46.9732C50.0655 48.013 48.862 48.7493 47.5239 49.0823C46.9887 49.2122 46.4399 49.2776 45.8891 49.2772C45.6943 49.2772 45.508 49.2602 45.3216 49.2518C44.8441 50.271 44.0863 51.1332 43.1368 51.7377C42.1874 52.3421 41.0855 52.6639 39.9599 52.6653C39.3863 52.6657 38.8157 52.5829 38.2659 52.4196Z" fill="#7BC24F"/>
<path d="M56.9008 43.348C55.9703 43.3474 55.0529 43.1278 54.223 42.707C53.3931 42.2861 52.6739 41.6758 52.1235 40.9255C51.8371 41.5864 51.4483 42.1981 50.9716 42.7381C50.0658 43.7779 48.8623 44.5142 47.5242 44.8472C46.989 44.9771 46.4402 45.0425 45.8894 45.0421C45.6946 45.0421 45.5083 45.0251 45.3219 45.0166C44.8444 46.0359 44.0866 46.8981 43.1371 47.5026C42.1877 48.107 41.0858 48.4288 39.9602 48.4302C38.8319 48.4316 37.7267 48.1101 36.7752 47.5038C35.8236 46.8974 35.0654 46.0315 34.5901 45.0082C34.4094 45.1198 34.2227 45.2216 34.031 45.3131C33.237 45.6906 32.3691 45.8873 31.4899 45.8891C31.2089 45.8925 30.9282 45.8698 30.6514 45.8213C29.7643 45.7075 28.9167 45.3853 28.1781 44.8811C27.1672 44.1999 26.3906 43.224 25.9538 42.0859C25.4743 43.3365 25.4332 44.7128 25.8372 45.9898C26.2412 47.2668 27.0665 48.369 28.1781 49.1163C28.9167 49.6205 29.7643 49.9427 30.6514 50.0565C30.9282 50.1049 31.2089 50.1276 31.4899 50.1242C32.3691 50.1225 33.237 49.9257 34.031 49.5482C34.2227 49.4568 34.4094 49.355 34.5901 49.2433C35.0654 50.2666 35.8236 51.1326 36.7752 51.7389C37.7267 52.3453 38.8319 52.6667 39.9602 52.6653C41.0858 52.6639 42.1877 52.3422 43.1371 51.7377C44.0866 51.1332 44.8444 50.271 45.3219 49.2518C45.5083 49.2603 45.6946 49.2772 45.8894 49.2772C46.4402 49.2776 46.989 49.2122 47.5242 49.0824C48.8623 48.7493 50.0658 48.013 50.9716 46.9733C51.4483 46.4333 51.8371 45.8216 52.1235 45.1606C52.9669 46.3252 54.2056 47.1427 55.608 47.4603C57.0104 47.7779 58.4804 47.5739 59.7432 46.8863C61.0061 46.1988 61.9753 45.0748 62.4697 43.7246C62.964 42.3744 62.9497 40.8903 62.4293 39.5499C62.0001 40.6679 61.2419 41.6294 60.2549 42.3075C59.2678 42.9856 58.0983 43.3484 56.9008 43.348Z" fill="#44853B"/>
<path d="M59.4537 36.3118L59.4156 36.3177C59.2384 37.4888 58.6333 38.5527 57.7173 39.3036C56.8013 40.0546 55.6394 40.4393 54.4563 40.3834C53.6944 40.3935 52.9396 40.2359 52.2454 39.922C51.5512 39.608 50.9344 39.1453 50.4388 38.5666C50.1924 39.0697 49.865 39.5289 49.4698 39.926C48.6769 40.7225 47.6701 41.2721 46.5713 41.5083C46.1195 41.6054 45.6587 41.6542 45.1966 41.654C45.0322 41.654 44.8755 41.6413 44.7188 41.6345C44.469 42.1109 44.1336 42.5372 43.7295 42.8923C42.7577 43.7439 41.5064 44.2077 40.2143 44.1951C39.7337 44.1956 39.2551 44.1335 38.7905 44.0104C38.1396 43.846 37.5294 43.5498 36.9977 43.1401C36.4659 42.7304 36.0238 42.2159 35.6988 41.6286C35.5489 41.7133 35.3922 41.787 35.2287 41.8573C34.5522 42.142 33.8257 42.2888 33.0917 42.2892C32.8558 42.2918 32.6201 42.2748 32.387 42.2384C31.6507 42.1563 30.941 41.9155 30.3067 41.5328C29.3979 41.0002 28.7035 40.1671 28.3432 39.1773C27.2542 39.8619 26.4171 40.8818 25.958 42.0834C26.3948 43.2215 27.1714 44.1974 28.1823 44.8786C28.921 45.3828 29.7685 45.705 30.6556 45.8188C30.931 45.8679 31.2103 45.8914 31.4899 45.8891C32.3691 45.8873 33.237 45.6906 34.031 45.3131C34.2227 45.2217 34.4094 45.1199 34.5901 45.0082C35.0654 46.0315 35.8236 46.8975 36.7752 47.5038C37.7267 48.1102 38.8319 48.4316 39.9602 48.4302C41.0858 48.4288 42.1877 48.1071 43.1371 47.5026C44.0866 46.8981 44.8444 46.0359 45.3219 45.0167C45.5083 45.0251 45.6946 45.0421 45.8894 45.0421C46.4402 45.0425 46.989 44.9771 47.5242 44.8473C48.8623 44.5142 50.0658 43.7779 50.9716 42.7382C51.4484 42.1982 51.8371 41.5865 52.1235 40.9255C52.7516 41.7832 53.5991 42.456 54.5768 42.8732C55.5546 43.2905 56.6266 43.4368 57.6804 43.2969C58.7343 43.157 59.731 42.7359 60.566 42.078C61.401 41.42 62.0434 40.5494 62.4259 39.5576C61.8906 38.133 60.8258 36.9702 59.4537 36.3118Z" fill="#5CB34F"/>
<path d="M31.2529 55.1048C31.064 54.7537 30.9173 54.3815 30.8159 53.996L26.9255 52.3265C26.7731 52.2605 26.6431 52.1518 26.5513 52.0135C26.4594 51.8752 26.4096 51.7133 26.4079 51.5472V50.607C26.131 50.7315 25.8413 50.8253 25.544 50.8866C25.2712 50.9449 24.9928 50.9733 24.7139 50.9713V51.5472C24.7149 52.0441 24.861 52.5299 25.1343 52.9449C25.4075 53.3599 25.796 53.686 26.2521 53.8833L30.92 55.884C31.0113 55.9233 31.1088 55.9463 31.208 55.9518L31.8679 55.9865C31.632 55.7154 31.4259 55.4198 31.2529 55.1048ZM37.4193 52.0817V53.7495L35.6177 54.3526C35.5046 54.3907 35.4009 54.4523 35.3133 54.5334C35.2257 54.6144 35.1563 54.713 35.1094 54.8227L35.8853 55.1556L37.0568 55.657L38.534 55.1624C38.7026 55.1062 38.8492 54.9985 38.9532 54.8543C39.0572 54.7102 39.1132 54.5371 39.1133 54.3594V52.6043C38.5237 52.5247 37.9513 52.3481 37.4193 52.0817ZM51.7959 45.7781C51.5652 46.2051 51.2888 46.6058 50.9717 46.9733C50.7136 47.2657 50.4302 47.5347 50.1247 47.7771V50.768C50.1252 50.9265 50.0811 51.0821 49.9976 51.2168C49.914 51.3516 49.7943 51.4602 49.6521 51.5303L47.5836 52.5645V53.9528C47.5836 54.09 47.5675 54.2239 47.5565 54.3594H47.5836C47.7154 54.3596 47.8454 54.3288 47.9631 54.2696L50.4102 53.0414C50.8339 52.832 51.1905 52.5079 51.4395 52.1061C51.6885 51.7043 51.8199 51.2407 51.8188 50.768V45.8891C51.8142 45.8516 51.8065 45.8144 51.7959 45.7781Z" fill="#5D241D"/>
<path d="M41.349 62.8295C40.9572 62.8297 40.5775 62.6941 40.2745 62.4457C39.9715 62.1974 39.7639 61.8517 39.6871 61.4675L39.1129 58.5944L32.988 55.5315C32.7924 55.4339 32.6278 55.2836 32.5128 55.0976C32.3977 54.9117 32.3367 54.6974 32.3366 54.4787V53.8434C32.3366 53.5309 32.4608 53.2313 32.6817 53.0103C32.9027 52.7893 33.2024 52.6652 33.5149 52.6652H34.0307V49.5481C33.2367 49.9256 32.3688 50.1223 31.4896 50.1241C31.2086 50.1275 30.9279 50.1048 30.651 50.0564L30.6426 50.1241V52.6991C30.6456 53.694 30.9389 54.6663 31.4866 55.4969C32.0343 56.3274 32.8125 56.9801 33.7258 57.3747L36.5718 58.5944V64.5236H43.348L42.6704 62.8295H41.349ZM47.5238 49.0823C46.9886 49.2121 46.4398 49.2775 45.8891 49.2771C45.6943 49.2771 45.5079 49.2602 45.3216 49.2517C45.0313 49.8759 44.6327 50.4437 44.1442 50.9288L44.195 50.9711V54.0628C44.1937 54.4006 44.0913 54.7304 43.9011 55.0096C43.711 55.2888 43.4416 55.5048 43.1278 55.6298L39.9599 56.9003L41.6539 60.2885L43.4954 59.2381L43.3895 59.0806C43.1495 58.7202 43.0566 58.2816 43.1298 57.8549C43.2031 57.4282 43.4369 57.0457 43.7834 56.786L44.8726 55.9686C45.1882 55.7319 45.4444 55.425 45.6208 55.0722C45.7972 54.7193 45.8891 54.3302 45.8891 53.9357V52.6652C45.8891 52.2159 46.0676 51.785 46.3853 51.4673C46.703 51.1496 47.1338 50.9711 47.5831 50.9711V49.2771L47.5238 49.0823Z" fill="#714226"/>
<path d="M55.6302 28.9484C54.8683 28.947 54.1177 29.1331 53.4448 29.4905C53.3046 29.4226 53.1603 29.3632 53.0129 29.3127C52.3597 29.07 51.6683 28.9466 50.9715 28.9484C49.399 28.9484 47.8909 29.5731 46.779 30.6851C45.667 31.797 45.0423 33.3051 45.0423 34.8776C45.0463 35.1784 45.0718 35.4784 45.1186 35.7755C44.0007 35.8981 42.9317 36.3001 42.01 36.9444C41.5461 35.9613 40.7788 35.1532 39.821 34.6391C38.8633 34.1249 37.7658 33.9319 36.6901 34.0884C35.6144 34.2449 34.6174 34.7427 33.8459 35.5085C33.0744 36.2742 32.5692 37.2675 32.4047 38.342L32.3369 38.3335V40.8746L32.4047 40.8831C32.578 39.7704 33.1139 38.746 33.9293 37.9693C34.5108 37.4156 35.2156 37.008 35.9856 36.7802C36.7555 36.5523 37.5686 36.5107 38.3578 36.6588C39.147 36.8069 39.8897 37.1404 40.5247 37.6318C41.1596 38.1233 41.6687 38.7586 42.01 39.4855C42.9317 38.8412 44.0007 38.4392 45.1186 38.3166C45.0718 38.0195 45.0463 37.7194 45.0423 37.4187C45.0423 35.8462 45.667 34.3381 46.779 33.2262C47.8909 32.1142 49.399 31.4895 50.9715 31.4895C51.6683 31.4877 52.3597 31.6111 53.0129 31.8538C53.1603 31.9043 53.3046 31.9637 53.4448 32.0316C54.0574 31.7068 54.7348 31.5228 55.4276 31.4931C56.1203 31.4633 56.811 31.5886 57.4492 31.8598C58.0874 32.1309 58.657 32.5411 59.1164 33.0604C59.5759 33.5798 59.9136 34.1951 60.105 34.8616C60.3062 34.1698 60.343 33.4407 60.2123 32.7322C60.0817 32.0238 59.7872 31.3557 59.3525 30.7813C58.9178 30.2068 58.3548 29.7419 57.7086 29.4237C57.0623 29.1055 56.3505 28.9427 55.6302 28.9484Z" fill="#8EE05B"/>
<path d="M48.5001 26.7462C47.531 26.0136 46.4053 25.5156 45.2113 25.2912C44.0174 25.0668 42.7877 25.1222 41.6188 25.4529C40.4498 25.7836 39.3734 26.3807 38.474 27.1974C37.5746 28.014 36.8767 29.028 36.435 30.1597C36.4672 29.0196 35.2187 28.2963 34.1074 28.0371C32.3515 27.6412 30.5188 27.7588 28.8279 28.3759C28.4657 28.5494 28.0864 28.6848 27.6962 28.7799C27.2609 28.8417 26.8111 28.7884 26.3698 28.8646C26.1164 28.91 25.8661 28.9708 25.6202 29.0467C25.5839 29.2947 25.5641 29.5449 25.5609 29.7955C25.5575 30.0765 25.5802 30.3572 25.6286 30.6341C25.8269 32.047 26.5295 33.3406 27.6067 34.2762C28.684 35.2118 30.0633 35.7263 31.4901 35.7247C32.2596 35.7234 33.0217 35.5739 33.7347 35.2842C33.796 35.3369 33.8611 35.3851 33.9295 35.4282C34.511 34.8745 35.2158 34.467 35.9858 34.2391C36.7557 34.0112 37.5688 33.9696 38.358 34.1177C39.1472 34.2658 39.8899 34.5993 40.5248 35.0908C41.1598 35.5822 41.6689 36.2176 42.0102 36.9444C42.9319 36.3001 44.0009 35.8982 45.1188 35.7755C45.072 35.4784 45.0465 35.1784 45.0425 34.8777C45.0425 33.3051 45.6672 31.797 46.7791 30.6851C47.8911 29.5732 49.3992 28.9485 50.9717 28.9485C51.6685 28.9466 52.3599 29.07 53.0131 29.3127C54.1226 28.4114 54.8677 27.1385 55.1103 25.7298C54.0167 25.3015 52.8293 25.1699 51.6684 25.3484C50.5075 25.5269 49.4145 26.0091 48.5001 26.7462Z" fill="#44853B"/>
<path d="M53.5873 20.6477C53.3078 20.6477 53.0282 20.635 52.7479 20.6536C50.8981 20.7133 49.1428 21.4846 47.8478 22.8067C47.2324 22.1947 46.4974 21.7163 45.6887 21.4013C44.88 21.0863 44.015 20.9416 43.1478 20.9762C42.2806 21.0108 41.4298 21.2239 40.6488 21.6023C39.8677 21.9807 39.1731 22.5161 38.6084 23.1752C37.9694 22.6427 37.2231 22.2541 36.4204 22.0359C35.6177 21.8177 34.7774 21.775 33.9567 21.9106C33.136 22.0463 32.3542 22.3572 31.6644 22.8221C30.9746 23.2871 30.3931 23.8951 29.9594 24.605C29.484 24.1986 28.933 23.89 28.3381 23.6968C27.7432 23.5037 27.1161 23.4297 26.4925 23.4793C25.2442 23.5865 24.0463 24.0213 23.0197 24.7397C22.4871 25.1057 21.9932 25.5251 21.5459 25.9916C21.8147 26.8467 22.3486 27.5942 23.0704 28.1258C23.7922 28.6574 24.6644 28.9456 25.5608 28.9485C25.5862 28.9485 25.6032 28.9401 25.6286 28.9401C25.6235 28.9748 25.6286 29.0104 25.6201 29.0451C25.866 28.9692 26.1164 28.9084 26.3697 28.863C26.811 28.7868 27.2608 28.8401 27.6962 28.7783C28.0863 28.6831 28.4656 28.5477 28.8278 28.3743C30.5187 27.7571 32.3514 27.6395 34.1073 28.0354C35.2186 28.2895 36.4671 29.018 36.435 30.1581C36.8768 29.0265 37.5748 28.0127 38.4743 27.1963C39.3738 26.3798 40.4502 25.7829 41.6192 25.4523C42.7881 25.1217 44.0177 25.0666 45.2116 25.2911C46.4054 25.5156 47.531 26.0137 48.5 26.7463C49.4141 26.0098 50.5065 25.5279 51.6667 25.3494C52.8269 25.1709 54.0137 25.3022 55.1068 25.7298C55.2745 24.8225 55.2236 23.8883 54.9585 23.0046C54.6933 22.1208 54.2216 21.3129 53.5822 20.6477H53.5873Z" fill="#52A147"/>
<path d="M18.0062 45.7519C18.1885 44.985 18.4202 44.2307 18.7 43.4937C18.243 43.3827 17.8405 43.1124 17.5649 42.7314C17.2242 42.306 16.9963 41.8015 16.9022 41.2647C16.8082 40.7278 16.8512 40.1759 17.0271 39.6601C17.2214 39.1428 17.5594 38.6917 18.0012 38.3599C18.219 38.1938 18.4598 38.0603 18.7161 37.9635C18.8855 37.8999 19.4089 37.872 19.4682 37.7221C19.5207 37.5891 19.1057 36.997 19.0447 36.8547C18.8908 36.5218 18.7606 36.1785 18.6551 35.8272C18.439 35.1325 18.3647 34.4015 18.4365 33.6775C18.4741 33.3685 18.5446 33.0644 18.6466 32.7703C17.9287 33.1133 17.3223 33.6521 16.8971 34.3247C16.472 34.9972 16.2455 35.7761 16.2436 36.5718C16.2436 36.6904 16.269 36.8005 16.2775 36.9106C15.5135 37.236 14.862 37.7789 14.4042 38.4717C13.9463 39.1644 13.7021 39.9765 13.7021 40.8069C13.7021 41.6373 13.9463 42.4494 14.4042 43.1422C14.862 43.8349 15.5135 44.3778 16.2775 44.7033C16.269 44.8134 16.2436 44.9235 16.2436 45.0421C16.2435 45.6203 16.3921 46.1888 16.6749 46.6931C16.9578 47.1974 17.3655 47.6205 17.8589 47.922C17.8089 47.1953 17.8585 46.4651 18.0062 45.7519Z" fill="#39632C"/>
<path d="M33.7349 35.2843C33.0219 35.5739 32.2598 35.7235 31.4902 35.7247C30.0634 35.7263 28.6842 35.2119 27.6069 34.2763C26.5297 33.3407 25.8271 32.0471 25.6288 30.6341L25.561 30.6426C24.8908 30.6447 24.2362 30.8456 23.6802 31.2198C23.1241 31.594 22.6916 32.1248 22.4372 32.7449C22.7023 33.6148 23.0462 34.4627 23.3918 35.3046C23.5036 35.579 23.6163 35.8535 23.7509 36.1178C23.9606 36.5677 24.2373 36.9833 24.5717 37.3502C24.2348 37.5673 23.9173 37.8133 23.623 38.0854C23.3375 38.3756 23.0879 38.6989 22.8793 39.0485C22.463 39.7487 22.1954 40.5272 22.0933 41.3354C21.9426 42.9574 22.2197 44.5906 22.8971 46.072C21.9724 46.6645 21.2795 47.5569 20.9346 48.5996C21.2799 49.3086 21.8171 49.9067 22.4851 50.3259C23.1532 50.7451 23.9253 50.9687 24.714 50.9712C24.993 50.9733 25.2713 50.9449 25.5441 50.8865C26.5662 50.6844 27.4774 50.1111 28.1021 49.2772L28.1784 49.1162C27.1233 48.4073 26.3241 47.378 25.8985 46.1803C25.4729 44.9826 25.4435 43.6798 25.8145 42.4641C26.1856 41.2484 26.9375 40.1841 27.9595 39.4282C28.9814 38.6723 30.2191 38.2648 31.4902 38.2658C31.7966 38.2698 32.1022 38.2953 32.405 38.342C32.5783 37.2293 33.1143 36.205 33.9297 35.4283C33.8613 35.3851 33.7962 35.337 33.7349 35.2843Z" fill="#233D1B"/>
<path d="M22.8974 46.0753C22.22 44.5939 21.9429 42.9607 22.0936 41.3388C22.1957 40.5305 22.4633 39.752 22.8796 39.0518C23.0882 38.7022 23.3378 38.3789 23.6233 38.0887C23.9176 37.8166 24.235 37.5706 24.572 37.3535C24.2376 36.9866 23.9609 36.5711 23.7512 36.1211C23.6201 35.8552 23.5003 35.5839 23.3921 35.3079C23.0465 34.466 22.7026 33.6139 22.4375 32.7482C22.4265 32.7736 22.4121 32.7973 22.4019 32.8227C21.8253 32.5142 21.183 32.3487 20.5291 32.3403C19.8752 32.3319 19.2288 32.4808 18.6445 32.7745C18.5424 33.0685 18.472 33.3726 18.4344 33.6816C18.3626 34.4056 18.4369 35.1367 18.653 35.8314C18.7585 36.1826 18.8887 36.526 19.0426 36.8588C19.1078 37.0011 19.5229 37.5932 19.4661 37.7262C19.4068 37.8761 18.8834 37.9041 18.7139 37.9676C18.4577 38.0644 18.2169 38.1979 17.9991 38.364C17.5573 38.6959 17.2193 39.1469 17.025 39.6642C16.8491 40.1801 16.8061 40.732 16.9001 41.2688C16.9941 41.8057 17.2221 42.3101 17.5628 42.7355C17.8384 43.1166 18.2409 43.3869 18.6979 43.4978C18.4175 44.2348 18.1852 44.9891 18.0024 45.756C17.8565 46.4681 17.8083 47.1968 17.8593 47.9219C18.3913 48.2533 19.0053 48.4294 19.6321 48.4301C20.0162 48.4239 20.3967 48.3552 20.7587 48.2268C20.8086 48.3572 20.8739 48.4809 20.9349 48.6029C21.2798 47.5602 21.9727 46.6678 22.8974 46.0753Z" fill="#2F5224"/>
<path d="M23.0193 24.7396C23.798 24.2083 24.6685 23.826 25.5866 23.6122C25.6486 22.5372 26.1187 21.5264 26.901 20.7865C27.6833 20.0465 28.7187 19.6333 29.7955 19.6312C30.3761 19.6304 30.9503 19.7516 31.4811 19.9869C32.2595 18.6755 33.5142 17.7153 34.9835 17.3066C36.4527 16.8979 38.023 17.0722 39.3669 17.7931C40.0348 17.1811 40.8345 16.7308 41.7041 16.477C42.5737 16.2231 43.49 16.1726 44.3823 16.3292C45.2746 16.4858 46.1189 16.8453 46.8502 17.3801C47.5814 17.9149 48.1799 18.6106 48.5995 19.4135C49.0128 19.0467 49.2771 18.7841 49.2771 18.7841H49.2094C49.2536 18.504 49.2763 18.2208 49.2771 17.9371C49.2795 16.7883 48.9473 15.6636 48.3213 14.7004C47.6952 13.7371 46.8023 12.977 45.7515 12.5126C44.7006 12.0483 43.5374 11.8999 42.4037 12.0855C41.2699 12.2711 40.2147 12.7828 39.3669 13.558C38.023 12.837 36.4527 12.6627 34.9835 13.0715C33.5142 13.4802 32.2595 14.4404 31.4811 15.7518C30.9503 15.5165 30.3761 15.3953 29.7955 15.396C28.6722 15.396 27.595 15.8422 26.8008 16.6365C26.0065 17.4307 25.5603 18.5079 25.5603 19.6312C25.5625 19.9183 25.5909 20.2047 25.645 20.4867C25.6196 20.4867 25.5942 20.4782 25.5603 20.4782C24.4371 20.4782 23.3599 20.9244 22.5656 21.7186C21.7714 22.5129 21.3252 23.5901 21.3252 24.7133C21.3294 25.3502 21.4813 25.9773 21.769 26.5455C21.681 26.3662 21.6054 26.1811 21.5429 25.9915C21.991 25.525 22.4857 25.1055 23.0193 24.7396Z" fill="#7BC24F"/>
</g>
<defs>
<filter id="filter0_d_2919_21621" x="20.6426" y="44.5483" width="32.7051" height="34.9755" filterUnits="userSpaceOnUse" color-interpolation-filters="sRGB">
<feFlood flood-opacity="0" result="BackgroundImageFix"/>
<feColorMatrix in="SourceAlpha" type="matrix" values="0 0 0 0 0 0 0 0 0 0 0 0 0 0 0 0 0 0 127 0" result="hardAlpha"/>
<feOffset dy="5"/>
<feGaussianBlur stdDeviation="5"/>
<feComposite in2="hardAlpha" operator="out"/>
<feColorMatrix type="matrix" values="0 0 0 0 0 0 0 0 0 0 0 0 0 0 0 0 0 0 0.15 0"/>
<feBlend mode="normal" in2="BackgroundImageFix" result="effect1_dropShadow_2919_21621"/>
<feBlend mode="normal" in="SourceGraphic" in2="effect1_dropShadow_2919_21621" result="shape"/>
</filter>
<clipPath id="clip0_2919_21621">
<rect width="54.2098" height="54.2098" fill="white" transform="translate(11.1611 11.1608)"/>
</clipPath>
</defs>
</svg>
