<svg width="76" height="76" viewBox="0 0 76 76" fill="none" xmlns="http://www.w3.org/2000/svg">
<circle cx="38" cy="38" r="38" fill="#D8D7D7"/>
<g clip-path="url(#clip0_2919_22212)">
<path d="M45.2874 20.4219C43.7406 19.7989 42.1079 19.3907 40.3892 19.2189H40.2389L40.1315 19.1974H39.9596L39.8522 19.1759H39.7018L39.6159 19.1544H39.1647L39.0573 19.1329H37.9617L37.8543 19.1544H37.4676C37.4246 19.1759 37.3602 19.1759 37.2957 19.1759H37.1238L36.9735 19.1974H36.9305L36.8231 19.2189H36.6512L36.5868 19.2403H36.4364C36.2216 19.2833 35.9853 19.3048 35.7704 19.3478H35.7489C35.6415 19.3478 35.5341 19.3692 35.4267 19.3907C33.2999 19.7559 31.2805 20.4864 29.4759 21.5175C29.0892 21.7324 28.724 21.9687 28.3803 22.205H28.3588C27.9077 22.5272 27.4351 22.8495 27.0054 23.2147C26.7261 23.4295 26.4468 23.6658 26.189 23.9236C25.9742 24.0955 25.7594 24.3103 25.566 24.5037C24.7712 25.2985 24.0408 26.1793 23.3963 27.1031C23.2029 27.4039 23.0096 27.6831 22.8377 27.9839C22.6014 28.3706 22.3651 28.7788 22.1717 29.1869C22.0214 29.5092 21.8495 29.8099 21.7206 30.1537C21.0761 31.6145 20.625 33.1613 20.3887 34.794C20.3457 35.1377 20.3027 35.4814 20.2598 35.8466C20.2598 35.9111 20.2598 35.9755 20.2383 36.0615C20.2383 36.2118 20.2168 36.3622 20.2168 36.5126V36.5341C20.1953 36.8349 20.1953 37.1571 20.1953 37.4579V38.0594L20.2168 38.1238V38.532L20.2383 38.575V38.8542L20.2598 38.8972V39.0261C20.3242 39.8639 20.4531 40.7018 20.6465 41.5181L20.9042 42.5493C21.4843 44.5257 22.3651 46.3518 23.5037 47.9845L24.1482 48.8223C24.5778 49.3809 25.029 49.8965 25.5231 50.3906C25.7809 50.6484 26.0601 50.9062 26.3179 51.1425C27.521 52.2166 28.8744 53.1404 30.3352 53.8708C30.7434 54.0641 31.1301 54.2575 31.5598 54.4294H31.5383C31.6242 54.4508 31.7102 54.4938 31.7961 54.5153L31.8176 54.5368C31.9465 54.5797 32.0754 54.6227 32.2257 54.6872C32.3761 54.7301 32.505 54.7946 32.6339 54.8375H32.6554C32.7843 54.8805 32.9347 54.9235 33.0636 54.9664H33.0851C33.214 55.0094 33.3643 55.0524 33.4932 55.0953H33.5147C33.6651 55.1383 33.794 55.1813 33.9444 55.2242C34.0948 55.2672 34.2451 55.2887 34.374 55.3316H34.3955C34.5459 55.3531 34.6748 55.3961 34.8252 55.4176C34.9756 55.4605 35.1259 55.482 35.2763 55.5035H35.2978C35.4267 55.5465 35.5771 55.568 35.7275 55.5894H35.7489C35.8993 55.6109 36.0282 55.6324 36.1786 55.6539H36.2001C36.3505 55.6754 36.5008 55.6968 36.6512 55.6968C36.8016 55.7183 36.952 55.7398 37.1024 55.7398H37.1238C37.2742 55.7613 37.4246 55.7613 37.575 55.7828H37.5965C37.8972 55.7828 38.2195 55.8043 38.5202 55.8043C38.6921 55.8043 38.8425 55.8043 38.9929 55.7828H39.487C39.6373 55.7613 39.7877 55.7613 39.9381 55.7398C40.0885 55.7398 40.2389 55.7183 40.3892 55.6968H40.4107C40.5611 55.6968 40.7115 55.6754 40.8404 55.6539H40.8834C41.0123 55.6324 41.1626 55.6109 41.313 55.5894H41.3345C41.4634 55.568 41.6138 55.5465 41.7642 55.5035H41.7856C42.0649 55.4605 42.3657 55.3961 42.6664 55.3316C42.8168 55.2887 42.9672 55.2672 43.0961 55.2242H43.1176C43.2465 55.1813 43.3969 55.1383 43.5258 55.0953H43.5687C43.6976 55.0524 43.8265 55.0094 43.9769 54.9664C44.1273 54.9235 44.2562 54.8805 44.4066 54.8375C44.5569 54.7946 44.6858 54.7301 44.8147 54.6872H44.8362C44.9651 54.6227 45.1155 54.5797 45.2444 54.5368V54.5153C45.3948 54.4723 45.5237 54.4079 45.6526 54.3649H45.674C45.8029 54.3005 45.9318 54.236 46.0822 54.1716C46.2111 54.1071 46.34 54.0641 46.4689 53.9997L46.4904 53.9782L46.8771 53.7849L47.2638 53.5915C47.3282 53.5486 47.3927 53.5271 47.4356 53.4841C47.8223 53.2693 48.209 53.033 48.5742 52.7967C49.1328 52.4314 49.6699 52.0448 50.164 51.6151C50.4647 51.4003 50.7225 51.1425 51.0018 50.9062C51.1737 50.7558 51.3241 50.5839 51.4959 50.4335C52.3982 49.5098 53.2145 48.5001 53.9235 47.4044C54.1168 47.1037 54.3102 46.8029 54.482 46.5022C54.7398 46.051 54.9761 45.5999 55.191 45.1273C55.3414 44.805 55.4703 44.4828 55.5992 44.1605C56.0718 42.936 56.4155 41.6685 56.6303 40.3581L56.6518 40.2292L56.6733 40.1217V40.1003C56.6948 39.9928 56.6948 39.8639 56.7163 39.7565V39.735C56.7377 39.5847 56.7592 39.4128 56.7807 39.2624V39.112L56.8022 39.0046V38.8328L56.8237 38.7683V38.489C56.8452 38.4031 56.8452 38.3172 56.8452 38.2312V37.866L56.8666 37.8231V37.4364C56.8666 37.0712 56.8452 36.706 56.8237 36.3622C56.7377 34.9229 56.4799 33.5265 56.0933 32.1945C55.9858 31.8508 55.8784 31.5071 55.7495 31.1634C55.0836 29.3588 54.1383 27.6831 52.9782 26.2008C52.7634 25.9215 52.5486 25.6423 52.3123 25.3845C52.0545 25.0837 51.7752 24.7829 51.4959 24.5037C51.367 24.3748 51.2166 24.2459 51.0877 24.117C50.8085 23.8592 50.5507 23.6229 50.2714 23.3866C49.1113 22.4198 47.8438 21.6035 46.4904 20.9375C46.0822 20.7656 45.6955 20.5723 45.2874 20.4219Z" fill="#D9D9D9"/>
<path d="M41.7208 23.0858C43.4179 22.5916 45.0077 21.8612 46.49 20.9375C46.0818 20.7656 45.6951 20.5723 45.2869 20.4219C44.0839 21.1093 42.7734 21.6679 41.42 22.0761C39.7658 22.5487 38.0472 22.8065 36.2426 22.8065C34.8892 22.8065 33.5573 22.6561 32.2898 22.3768C31.323 22.162 30.3778 21.8827 29.4755 21.5175C29.0888 21.7323 28.7236 21.9686 28.3584 22.205C29.54 22.7205 30.786 23.1287 32.0749 23.408C33.4069 23.7088 34.8033 23.8591 36.2426 23.8591C38.1331 23.8591 39.9807 23.6013 41.7208 23.0858Z" fill="#999999"/>
<path d="M45.8453 25.1482C43.783 25.6638 41.3554 25.9645 38.756 25.9645C36.0706 25.9645 33.5786 25.6423 31.4733 25.1052C29.6257 24.6326 28.079 23.9666 27.0048 23.2147C26.7255 23.4296 26.4463 23.6659 26.1885 23.9237C27.3915 24.8259 29.1102 25.5778 31.194 26.1149C33.3853 26.695 35.9847 27.0172 38.756 27.0172C41.4413 27.0172 43.9548 26.7164 46.0817 26.1794C48.1225 25.6853 49.8412 24.9548 51.0872 24.117C50.8079 23.8592 50.5501 23.6229 50.2708 23.3866C49.1537 24.0955 47.6284 24.7185 45.8453 25.1482Z" fill="#939393"/>
<path d="M46.7484 28.2201C44.1489 29.0365 41.0554 29.5736 37.7041 29.7239C34.589 29.8528 31.6674 29.638 29.1324 29.1439C26.7907 28.6713 24.8358 27.9838 23.3964 27.103C23.2031 27.4038 23.0098 27.6831 22.8379 27.9838C24.3632 28.9291 26.4685 29.681 28.939 30.1751C31.5385 30.6907 34.5461 30.927 37.747 30.7766C41.2058 30.6262 44.4067 30.0677 47.0706 29.2298C49.5626 28.435 51.625 27.3823 52.9784 26.2007C52.7636 25.9215 52.5488 25.6422 52.3124 25.3844C51.0664 26.48 49.133 27.4682 46.7484 28.2201Z" fill="#999999"/>
<path d="M48.2531 33.6125C44.9662 34.1066 41.1422 34.171 37.082 33.6984C33.9884 33.3547 31.0882 32.7532 28.5103 31.9368C26.0397 31.1634 23.8915 30.2397 22.1728 29.187C22.001 29.4878 21.8506 29.81 21.7217 30.1537C23.5048 31.2064 25.696 32.1731 28.188 32.9465C30.8304 33.7629 33.7951 34.4074 36.9531 34.7511C41.1207 35.2237 45.0521 35.1593 48.4035 34.6652C51.5614 34.1925 54.2038 33.3547 56.0943 32.1946C55.9869 31.8509 55.8795 31.5072 55.7506 31.1634C53.989 32.302 51.3896 33.1614 48.2531 33.6125Z" fill="#939393"/>
<path d="M56.8237 36.3622C54.3746 36.7919 42.6879 38.7253 38.7351 36.9852C34.6318 35.1592 23.1385 34.8369 20.3887 34.7939C20.3457 35.1377 20.3027 35.4814 20.2598 35.8466C22.7733 35.8896 34.3311 36.1903 38.3054 37.9519C42.4516 39.778 54.0524 37.909 56.8666 37.4363C56.8666 37.0711 56.8452 36.7059 56.8237 36.3622Z" fill="#999999"/>
<path d="M48.7881 41.3247C46.0598 40.5084 43.0092 39.8639 39.7653 39.4987C35.791 39.0475 32.01 39.069 28.6801 39.4557C25.5221 39.8209 22.7723 40.5299 20.6455 41.5181L20.9033 42.5493C22.9442 41.5825 25.651 40.8736 28.809 40.5084C32.0529 40.1217 35.7695 40.1217 39.6579 40.5513C42.8374 40.9166 45.8235 41.5396 48.4874 42.3344C51.0653 43.1293 53.321 44.0745 55.19 45.1272C55.3404 44.805 55.4693 44.4827 55.5982 44.1605C53.6862 43.0648 51.3876 42.1196 48.7881 41.3247Z" fill="#939393"/>
<path d="M47.9954 44.3539C45.31 43.8383 42.195 43.6234 38.9296 43.7738C35.5783 43.9242 32.4633 44.4183 29.7994 45.1917C27.2429 45.9006 25.0946 46.8674 23.5049 47.9845C23.7197 48.2638 23.9131 48.543 24.1494 48.8223C25.6317 47.7911 27.6511 46.8888 30.0787 46.2014C32.6781 45.471 35.7287 44.9769 38.9726 44.8265C42.1735 44.6976 45.1811 44.8909 47.8021 45.385C50.2511 45.8362 52.3564 46.5451 53.9247 47.4044C54.118 47.1037 54.3114 46.8029 54.4832 46.5022C52.8076 45.5784 50.5733 44.8265 47.9954 44.3539Z" fill="#999999"/>
<path d="M45.6305 48.6933C43.3533 48.1347 40.6894 47.8125 37.8322 47.8125C35.2757 47.8125 32.8481 48.0703 30.7213 48.5214C28.6804 48.9726 26.8974 49.6171 25.5225 50.3904C25.7803 50.6482 26.0595 50.906 26.3173 51.1424C27.5633 50.4979 29.1316 49.9608 30.9362 49.5741C32.9985 49.123 35.3402 48.8652 37.8322 48.8652C40.6035 48.8652 43.1814 49.1659 45.3727 49.7245C47.3276 50.1971 48.9603 50.8416 50.1634 51.615C50.4641 51.4001 50.7219 51.1424 51.0012 50.906C49.6693 49.9823 47.8217 49.2304 45.6305 48.6933Z" fill="#939393"/>
<path d="M44.793 51.6364C43.4181 51.3357 42.0002 51.1853 40.5393 51.1853C38.6703 51.1853 36.8658 51.4431 35.1256 51.9157C33.4285 52.3669 31.8173 53.0328 30.335 53.8707C30.7431 54.064 31.1298 54.2574 31.538 54.4292C32.7625 53.8062 34.0515 53.2906 35.4049 52.9254C37.0376 52.4958 38.7563 52.2594 40.5393 52.2594C41.9357 52.2594 43.2892 52.3883 44.5781 52.6676C45.5663 52.861 46.5116 53.1402 47.4354 53.484C47.8221 53.2691 48.2087 53.0328 48.574 52.7965C47.3709 52.3024 46.1034 51.8942 44.793 51.6364Z" fill="#999999"/>
<path d="M21.0546 41.3248C21.0117 41.1744 20.9687 41.0025 20.9042 40.8521C20.8183 40.5084 20.7324 40.1647 20.6465 39.7995C20.4531 38.9831 20.3242 38.1668 20.2598 37.3074V37.1785L20.2383 37.1571V36.8563L20.2168 36.8133V36.5985C20.1953 36.8993 20.1953 37.1785 20.1953 37.4578V38.0593L20.2168 38.1238V38.532L20.2383 38.5749V38.8542L20.2598 38.8972V39.0261C20.3242 39.8639 20.4531 40.7017 20.6465 41.5181C20.7754 41.4536 20.9257 41.3892 21.0546 41.3248Z" fill="#999999"/>
<path d="M21.0537 41.3248C20.9248 41.3893 20.7744 41.4537 20.6455 41.5182L20.9033 42.5494C21.0752 42.4849 21.247 42.399 21.4189 42.3345C21.29 41.9908 21.1611 41.6686 21.0537 41.3248Z" fill="#9BA1AA"/>
<path d="M21.4189 42.3346C21.247 42.399 21.0752 42.485 20.9033 42.5494C21.4834 44.5259 22.3642 46.3519 23.5028 47.9846C23.7176 48.2639 23.9109 48.5432 24.1472 48.8224C24.5769 49.381 25.028 49.8966 25.5221 50.3907C25.8874 50.1759 26.2955 49.9825 26.7252 49.7892C26.5963 49.6818 26.4674 49.5529 26.317 49.4454C26.0592 49.1876 25.7799 48.9298 25.5221 48.6721C25.3718 48.5217 25.2214 48.3713 25.0925 48.2209C24.7488 48.4143 24.4265 48.6291 24.1472 48.8224L23.5028 47.9846C23.782 47.7913 24.0828 47.5979 24.3836 47.426C24.2976 47.3186 24.2117 47.2112 24.1472 47.1253C23.9109 46.846 23.7176 46.5667 23.5028 46.266C22.6649 45.0629 21.956 43.731 21.4189 42.3346Z" fill="#999999"/>
<path d="M23.5049 47.9845L24.1494 48.8223C24.4286 48.6289 24.7509 48.4141 25.0946 48.2208C24.8583 47.963 24.622 47.6837 24.3857 47.4259C24.0849 47.5978 23.7842 47.7911 23.5049 47.9845Z" fill="#999999"/>
<path d="M26.7255 49.7892L25.5225 50.3907C25.7803 50.6485 26.0595 50.9063 26.3173 51.1426C26.747 50.9278 27.1981 50.7344 27.6922 50.5411C27.3485 50.3048 27.0477 50.047 26.7255 49.7892Z" fill="#9BA1AA"/>
<path d="M27.6923 50.541C27.1982 50.7344 26.747 50.9277 26.3174 51.1425C27.5204 52.2167 28.8738 53.1404 30.3347 53.8709C30.9362 53.5271 31.5377 53.2264 32.1607 52.9471C32.0533 52.9041 31.9244 52.8612 31.817 52.8182H31.7955L31.5377 52.7108C31.1296 52.5389 30.7429 52.3671 30.3347 52.1522C29.4109 51.7011 28.5086 51.1425 27.6923 50.541Z" fill="#999999"/>
<path d="M32.161 52.9471C31.538 53.2264 30.9365 53.5272 30.335 53.8709C30.7431 54.0643 31.1298 54.2576 31.5595 54.4295C32.2469 54.0643 32.9988 53.742 33.7507 53.4627C33.6648 53.4413 33.6004 53.4198 33.5144 53.3983H33.4929C33.3641 53.3553 33.2137 53.3124 33.0848 53.2694H33.0633C32.9344 53.2264 32.784 53.162 32.6551 53.119H32.6336C32.5047 53.076 32.3758 53.0331 32.2255 52.9686C32.204 52.9686 32.1825 52.9686 32.161 52.9471Z" fill="#999999"/>
<path d="M33.7518 53.4626C32.9999 53.7419 32.248 54.0641 31.5605 54.4293H31.5391L31.7969 54.5153L31.8183 54.5367C31.9472 54.5797 32.0761 54.6227 32.2265 54.6871C32.3769 54.7301 32.5058 54.7945 32.6347 54.8375H32.6562C32.7851 54.8805 32.9355 54.9234 33.0643 54.9664H33.0858C33.2147 55.0094 33.3651 55.0523 33.494 55.0953H33.5155C33.6659 55.1383 33.7948 55.1812 33.9451 55.2242C34.0955 55.2672 34.2459 55.2886 34.3748 55.3316H34.3963C34.5467 55.3531 34.6756 55.3961 34.8259 55.4175C34.9763 55.4605 35.1267 55.482 35.2771 55.5035H35.2986C35.4275 55.5464 35.5779 55.5679 35.7282 55.5894H35.7497C35.9001 55.6109 36.029 55.6324 36.1794 55.6539H36.2009C36.3512 55.6753 36.5016 55.6968 36.652 55.6968C36.8024 55.7183 36.9528 55.7398 37.1031 55.7398H37.1246C37.275 55.7613 37.4254 55.7613 37.5758 55.7827H37.5972C37.898 55.7827 38.2202 55.8042 38.521 55.8042C38.6929 55.8042 38.8433 55.8042 38.9936 55.7827H39.4877C39.6381 55.7613 39.7885 55.7613 39.9389 55.7398C40.0893 55.7398 40.2396 55.7183 40.39 55.6968H40.4115C40.5619 55.6968 40.7123 55.6753 40.8412 55.6539H40.8841C41.013 55.6324 41.1634 55.6109 41.3138 55.5894H41.3353C41.4642 55.5679 41.6145 55.5464 41.7649 55.5035H41.7864C42.0657 55.4605 42.3665 55.3961 42.6672 55.3316C42.8176 55.2886 42.968 55.2672 43.0969 55.2242H43.1184C43.2472 55.1812 43.3976 55.1383 43.5265 55.0953H43.5695C43.6984 55.0523 43.8273 55.0094 43.9777 54.9664C44.128 54.9234 44.2569 54.8805 44.4073 54.8375C44.5577 54.7945 44.6866 54.7301 44.8155 54.6871H44.837C44.9659 54.6227 45.1163 54.5797 45.2452 54.5367V54.5153C45.3955 54.4723 45.5244 54.4078 45.6533 54.3649H45.6748C45.8037 54.3004 45.9326 54.236 46.083 54.1715C46.2119 54.1071 46.3408 54.0641 46.4697 53.9997L46.4912 53.9782L46.8779 53.7848L47.2646 53.5915L47.4364 53.4841C46.7275 53.2263 45.9971 52.99 45.2452 52.8181C45.1163 52.8611 44.9659 52.9255 44.837 52.9685H44.8155C44.6866 53.0329 44.5577 53.0759 44.4073 53.1189C44.2569 53.1618 44.128 53.2263 43.9777 53.2692C43.8273 53.3122 43.6984 53.3552 43.5695 53.3767L43.5265 53.3981C43.3976 53.4411 43.2472 53.4626 43.1184 53.5056H43.0969C42.968 53.5485 42.8176 53.5915 42.6672 53.613C42.3665 53.6774 42.0657 53.7419 41.7864 53.8063H41.7649C41.6145 53.8278 41.4642 53.8493 41.3353 53.8708H41.3138C41.1634 53.8923 41.013 53.9137 40.8841 53.9352H40.8412C40.7123 53.9567 40.5619 53.9782 40.4115 53.9997H40.39C40.2396 53.9997 40.0893 54.0212 39.9389 54.0212V54.0426C39.7885 54.0426 39.6381 54.0641 39.4877 54.0641H39.4663C39.3159 54.0641 39.1655 54.0856 39.0151 54.0856H38.521C38.2202 54.0856 37.898 54.0856 37.5972 54.0641H37.5758C37.4254 54.0641 37.275 54.0426 37.1246 54.0426L37.1031 54.0212C36.9528 54.0212 36.8024 53.9997 36.652 53.9997L36.2009 53.9352H36.1794C36.029 53.9137 35.9001 53.8923 35.7497 53.8708H35.7282C35.5779 53.8493 35.4275 53.8278 35.2986 53.8063H35.2771C35.1267 53.7634 34.9763 53.7419 34.8259 53.7204C34.6756 53.6774 34.5467 53.6559 34.3963 53.613H34.3748C34.2459 53.5915 34.0955 53.5485 33.9451 53.5056C33.8807 53.4841 33.8163 53.4841 33.7518 53.4626ZM46.7704 52.1307C47.372 52.324 47.9735 52.5603 48.575 52.7966C49.1336 52.4314 49.6706 52.0447 50.1647 51.6151C49.7781 51.3788 49.3269 51.121 48.8543 50.9061C48.7684 50.9706 48.6609 51.035 48.575 51.0995C48.2098 51.3358 47.8231 51.5506 47.4364 51.7869L47.2646 51.8729C47.1357 51.9373 47.0068 52.0018 46.8779 52.0877C46.8349 52.1092 46.7919 52.1092 46.7704 52.1307Z" fill="#999999"/>
<path d="M48.575 52.7967L46.7704 52.1307C46.663 52.1737 46.5771 52.2382 46.4911 52.2811H46.4696L46.083 52.4745C45.9326 52.5174 45.8037 52.5819 45.6748 52.6463H45.6533C45.5244 52.7108 45.3955 52.7537 45.2451 52.8182C45.3096 52.7967 45.6318 52.9041 46.0185 53.0115C46.4267 53.1404 46.8134 53.2693 47.2215 53.3982C47.329 53.4412 47.3934 53.4627 47.4364 53.4842C47.8231 53.2693 48.2098 53.033 48.575 52.7967Z" fill="#999999"/>
<path d="M48.8535 50.9061C49.3261 51.1209 49.7773 51.3787 50.164 51.615C50.4647 51.4002 50.7225 51.1424 51.0018 50.9061C50.6366 50.6483 50.2499 50.412 49.8202 50.1971L48.8535 50.9061Z" fill="#9BA1AA"/>
<path d="M49.8203 50.1971C50.25 50.412 50.6367 50.6483 51.0019 50.9061C51.1737 50.7557 51.3241 50.5838 51.496 50.4335C52.3983 49.5097 53.2146 48.5 53.9235 47.4044C54.1169 47.1036 54.3102 46.8028 54.4821 46.5021C54.7399 46.0509 54.9762 45.5998 55.191 45.1272C54.9547 44.9983 54.7399 44.8694 54.5036 44.762L54.4821 44.7834C54.3102 45.1057 54.1169 45.4065 53.9235 45.7072L53.6658 46.0939C53.945 46.2228 54.2243 46.3517 54.4821 46.5021C54.3102 46.8028 54.1169 47.1036 53.9235 47.4044C53.6443 47.254 53.3435 47.1036 53.0427 46.9532C52.5486 47.5762 52.0331 48.1563 51.496 48.7148C51.3241 48.8867 51.1737 49.0371 51.0019 49.1874C50.7226 49.4452 50.4648 49.6815 50.164 49.9179C50.0566 50.0038 49.9277 50.1112 49.8203 50.1971Z" fill="#999999"/>
<path d="M53.043 46.9533C53.3437 47.1037 53.6445 47.2541 53.9238 47.4045C54.1171 47.1037 54.3105 46.8029 54.4823 46.5022C54.2245 46.3518 53.9453 46.2229 53.666 46.094C53.4726 46.3948 53.2578 46.674 53.043 46.9533Z" fill="#999999"/>
<path d="M54.5039 44.7621C54.7402 44.8696 54.955 44.9985 55.1914 45.1274C55.3417 44.8051 55.4706 44.4829 55.5995 44.1606C55.4062 44.0317 55.1914 43.9243 54.998 43.8169C54.8476 44.1391 54.6758 44.4399 54.5039 44.7621Z" fill="#9BA1AA"/>
<path d="M54.998 43.8168C55.1914 43.9242 55.4062 44.0317 55.5996 44.1606C56.0722 42.936 56.4159 41.6685 56.6307 40.3581L56.6522 40.2292L56.6737 40.1218V40.1003C56.6952 39.9929 56.6952 39.864 56.7167 39.7566V39.7351C56.7382 39.5847 56.7596 39.4128 56.7811 39.2624V39.1121L56.8026 39.0047V38.8328L56.8241 38.7683V38.4891L56.8456 38.2313V37.8661L56.8671 37.8231V37.4364H56.7811V37.5438C56.7596 37.6942 56.7382 37.8661 56.7167 38.0164V38.0379C56.6952 38.1668 56.6952 38.2742 56.6737 38.4031L56.6522 38.5105V38.532L56.6307 38.6394C56.4159 39.9714 56.0722 41.2389 55.5996 42.4419C55.4707 42.7642 55.3418 43.1079 55.1914 43.4301L54.998 43.8168Z" fill="#999999"/>
<path d="M19.7973 18.6014C19.7973 23.2518 23.1189 23.2518 23.1189 23.2518C19.7973 23.2518 19.7973 28.5665 19.7973 28.5665C19.7973 23.2518 16.4756 23.2518 16.4756 23.2518C19.7973 23.2518 19.7973 18.6014 19.7973 18.6014Z" fill="#D9D9D9"/>
<path d="M55.9369 49.4266C55.9369 54.077 59.2586 54.077 59.2586 54.077C55.9369 54.077 55.9369 59.3917 55.9369 59.3917C55.9369 54.077 52.6152 54.077 52.6152 54.077C55.9369 54.077 55.9369 49.4266 55.9369 49.4266Z" fill="#D9D9D9"/>
</g>
<defs>
<clipPath id="clip0_2919_22212">
<rect width="46.7692" height="43.049" fill="white" transform="translate(14.3496 16.4756)"/>
</clipPath>
</defs>
</svg>
