<svg width="24" height="25" viewBox="0 0 24 25" fill="none" xmlns="http://www.w3.org/2000/svg">
<path d="M12 8.91943V2.91943L10 4.91943" stroke="#999999" stroke-width="1.5" stroke-linecap="round" stroke-linejoin="round"/>
<path d="M12 2.91943L14 4.91943" stroke="#999999" stroke-width="1.5" stroke-linecap="round" stroke-linejoin="round"/>
<path d="M7 12.9194C3 12.9194 3 14.7094 3 16.9194V17.9194C3 20.6794 3 22.9194 8 22.9194H16C20 22.9194 21 20.6794 21 17.9194V16.9194C21 14.7094 21 12.9194 17 12.9194C16 12.9194 15.72 13.1294 15.2 13.5194L14.18 14.5994C13 15.8594 11 15.8594 9.81 14.5994L8.8 13.5194C8.28 13.1294 8 12.9194 7 12.9194Z" stroke="#999999" stroke-width="1.5" stroke-miterlimit="10" stroke-linecap="round" stroke-linejoin="round"/>
<path d="M5 12.9194V10.9194C5 8.90943 5 7.24943 8 6.95943" stroke="#999999" stroke-width="1.5" stroke-miterlimit="10" stroke-linecap="round" stroke-linejoin="round"/>
<path d="M19 12.9194V10.9194C19 8.90943 19 7.24943 16 6.95943" stroke="#999999" stroke-width="1.5" stroke-miterlimit="10" stroke-linecap="round" stroke-linejoin="round"/>
</svg>
