<svg width="76" height="76" viewBox="0 0 76 76" fill="none" xmlns="http://www.w3.org/2000/svg">
<circle cx="38" cy="38" r="38" fill="#BBD0FF" fill-opacity="0.56"/>
<g clip-path="url(#clip0_3093_39055)">
<path d="M54.666 22.2284V59.8386H21.666V17.184H53.511L54.666 22.2284Z" fill="#84B5CB"/>
<path d="M33.9585 17.184C30.9266 18.1774 28.2007 19.9482 26.0465 22.324C23.8922 24.6998 22.3831 27.5996 21.666 30.7407V17.184H33.9585ZM33.9585 38.5113C30.9266 39.5046 28.2007 41.2755 26.0465 43.6513C23.8922 46.0271 22.3831 48.9268 21.666 52.068V38.5113H33.9585ZM50.4585 38.5113C47.4266 39.5046 44.7007 41.2755 42.5465 43.6513C40.3922 46.0271 38.8831 48.9268 38.166 52.068V38.5113H50.4585ZM50.4585 17.184C47.4266 18.1774 44.7007 19.9482 42.5465 22.324C40.3922 24.6998 38.8831 27.5996 38.166 30.7407V17.184H50.4585Z" fill="#9FC9D3"/>
<path d="M25.3325 24.6022C25.1512 24.6022 24.974 24.5478 24.8233 24.4459C24.6726 24.344 24.5551 24.1992 24.4858 24.0298C24.4164 23.8603 24.3983 23.6739 24.4336 23.4941C24.469 23.3142 24.5562 23.149 24.6844 23.0193L27.4344 20.2375C27.6073 20.0686 27.8388 19.9752 28.0792 19.9773C28.3195 19.9794 28.5494 20.0769 28.7194 20.2488C28.8894 20.4207 28.9858 20.6533 28.9879 20.8964C28.9899 21.1396 28.8975 21.3738 28.7306 21.5487L25.9806 24.3305C25.8087 24.5044 25.5756 24.6022 25.3325 24.6022ZM25.3325 29.2386C25.1512 29.2385 24.974 29.1841 24.8233 29.0822C24.6726 28.9803 24.5551 28.8355 24.4858 28.6661C24.4164 28.4967 24.3983 28.3103 24.4336 28.1304C24.469 27.9506 24.5562 27.7854 24.6844 27.6557L32.0177 20.2375C32.1906 20.0686 32.4222 19.9752 32.6625 19.9773C32.9029 19.9794 33.1328 20.0769 33.3027 20.2488C33.4727 20.4207 33.5691 20.6533 33.5712 20.8964C33.5733 21.1396 33.4809 21.3738 33.3139 21.5487L25.9806 28.9669C25.8087 29.1408 25.5756 29.2385 25.3325 29.2386ZM41.8325 45.9295C41.6512 45.9294 41.474 45.875 41.3233 45.7731C41.1726 45.6712 41.0551 45.5264 40.9858 45.357C40.9164 45.1876 40.8983 45.0012 40.9336 44.8214C40.969 44.6415 41.0562 44.4763 41.1844 44.3466L43.9344 41.5648C44.1073 41.3959 44.3388 41.3024 44.5792 41.3045C44.8195 41.3067 45.0494 41.4042 45.2194 41.5761C45.3894 41.748 45.4858 41.9806 45.4879 42.2237C45.4899 42.4668 45.3975 42.7011 45.2306 42.876L42.4806 45.6578C42.3087 45.8317 42.0756 45.9294 41.8325 45.9295ZM41.8325 50.5658C41.6512 50.5658 41.474 50.5114 41.3233 50.4095C41.1726 50.3076 41.0551 50.1628 40.9858 49.9934C40.9164 49.824 40.8983 49.6376 40.9336 49.4577C40.969 49.2779 41.0562 49.1127 41.1844 48.983L48.5177 41.5648C48.6906 41.3959 48.9222 41.3024 49.1625 41.3045C49.4029 41.3067 49.6328 41.4042 49.8027 41.5761C49.9727 41.748 50.0691 41.9806 50.0712 42.2237C50.0733 42.4668 49.9809 42.7011 49.8139 42.876L42.4806 50.2942C42.3087 50.4681 42.0756 50.5658 41.8325 50.5658Z" fill="white"/>
<path d="M56.5006 37.584H39.084V15.3295H37.2507V37.584H19.834V39.4386H37.2507V61.6931H39.084V39.4386H56.5006V37.584Z" fill="#4482C3"/>
<path d="M58.3333 19.0571V61.6931C58.3319 62.1845 58.1383 62.6554 57.7948 63.0028C57.4513 63.3503 56.9858 63.5462 56.5 63.5476H19.8333C19.3475 63.5462 18.8821 63.3503 18.5386 63.0028C18.1951 62.6554 18.0015 62.1845 18 61.6931V15.3295C18.0015 14.8381 18.1951 14.3672 18.5386 14.0197C18.8821 13.6722 19.3475 13.4764 19.8333 13.4749H56.5C56.0599 14.8947 55.2604 16.1734 54.1808 17.184H21.6667V59.8386H54.6667V19.0386L58.3333 19.0571Z" fill="#ECF0F1"/>
<path d="M61.6812 19.2351C60.5419 19.6718 59.5078 20.3493 58.6479 21.2224C57.7879 22.0954 57.122 23.144 56.6945 24.2981C56.6605 24.3869 56.6003 24.463 56.5221 24.5161C56.4439 24.5691 56.3514 24.5965 56.2572 24.5944C56.1631 24.5924 56.0718 24.5611 55.9959 24.5047C55.9199 24.4484 55.863 24.3697 55.8328 24.2795C55.4007 23.1302 54.733 22.0866 53.8735 21.2171C53.014 20.3477 51.9823 19.6722 50.8462 19.2351C50.7546 19.2058 50.6747 19.1478 50.618 19.0694C50.5612 18.9911 50.5307 18.8965 50.5307 18.7993C50.5307 18.7022 50.5612 18.6076 50.618 18.5292C50.6747 18.4509 50.7546 18.3928 50.8462 18.3635C51.9844 17.9302 53.0181 17.2561 53.8781 16.3862C54.7381 15.5162 55.4045 14.4706 55.8328 13.3191C55.8618 13.2265 55.9192 13.1457 55.9967 13.0883C56.0741 13.0309 56.1676 13 56.2637 13C56.3597 13 56.4532 13.0309 56.5307 13.0883C56.6081 13.1457 56.6655 13.2265 56.6945 13.3191C57.1232 14.4733 57.7919 15.521 58.6554 16.3912C59.5188 17.2615 60.5569 17.9341 61.6995 18.3635C61.7873 18.3979 61.8626 18.4587 61.915 18.5379C61.9674 18.617 61.9945 18.7106 61.9925 18.8058C61.9905 18.9011 61.9595 18.9934 61.9038 19.0702C61.8481 19.147 61.7704 19.2046 61.6812 19.2351ZM49.7352 29.6558C48.4706 30.2818 47.4481 31.3161 46.8293 32.5953C46.7956 32.6778 46.7383 32.7484 46.6649 32.7981C46.5915 32.8477 46.5051 32.8742 46.4168 32.8742C46.3285 32.8742 46.2422 32.8477 46.1687 32.7981C46.0953 32.7484 46.0381 32.6778 46.0043 32.5953C45.3875 31.3146 44.3645 30.2798 43.0985 29.6558C43.0172 29.6213 42.9478 29.5633 42.899 29.4891C42.8503 29.4149 42.8242 29.3277 42.8242 29.2386C42.8242 29.1494 42.8503 29.0623 42.899 28.988C42.9478 28.9138 43.0172 28.8558 43.0985 28.8213C44.3645 28.1973 45.3875 27.1625 46.0043 25.8818C46.0384 25.7996 46.0958 25.7294 46.1691 25.6801C46.2425 25.6307 46.3287 25.6044 46.4168 25.6044C46.505 25.6044 46.5911 25.6307 46.6645 25.6801C46.7379 25.7294 46.7952 25.7996 46.8293 25.8818C47.4481 27.1611 48.4706 28.1953 49.7352 28.8213C49.8168 28.8554 49.8865 28.9133 49.9356 28.9876C49.9847 29.0619 50.0109 29.1492 50.0109 29.2386C50.0109 29.3279 49.9847 29.4152 49.9356 29.4895C49.8865 29.5638 49.8168 29.6217 49.7352 29.6558Z" fill="#F3D55B"/>
</g>
<defs>
<clipPath id="clip0_3093_39055">
<rect width="44" height="51" fill="white" transform="translate(18 13)"/>
</clipPath>
</defs>
</svg>
