<svg width="76" height="77" viewBox="0 0 76 77" fill="none" xmlns="http://www.w3.org/2000/svg">
<circle cx="38" cy="38.5" r="38" fill="#BBD0FF" fill-opacity="0.56"/>
<path d="M61.6131 26.5572C60.1997 23.9902 53.9732 24.4181 46.6542 26.7941C44.2095 24.8994 41.1459 23.7763 37.8226 23.7763C29.8465 23.7763 23.3832 30.2396 23.3832 38.2156C23.3832 38.6206 23.3985 39.0255 23.4367 39.4227C17.5082 44.3352 13.5125 49.6831 14.9259 52.2501C16.3698 54.8782 22.2372 54.6337 29.7931 52.1049C30.4654 51.8757 31.1453 51.6312 31.8482 51.3638V51.3715C33.6741 52.1966 35.691 52.655 37.8226 52.655C45.1415 52.655 51.1923 47.2078 52.132 40.1409C52.6133 39.7742 53.0794 39.4075 53.5301 39.0407C59.7108 34.0137 63.057 29.1853 61.6131 26.5572ZM26.9816 48.6059C22.5123 50.2331 19.3799 50.7145 18.7917 49.6525C18.211 48.5829 20.4877 46.0465 24.2389 43.151C24.9647 45.1374 26.1107 46.9174 27.5775 48.3919C27.3712 48.4607 27.1802 48.5371 26.9816 48.6059ZM52.132 34.7701C52.0556 34.8312 51.9792 34.8923 51.8952 34.9534C51.4215 32.9136 50.52 31.0342 49.2823 29.4222C53.7135 27.8178 56.8076 27.3518 57.3959 28.4061C57.9841 29.4756 55.8985 31.8669 52.132 34.7701Z" fill="#8A6DD4"/>
<path d="M61.6131 26.5572C63.057 29.1853 59.7108 34.0137 53.5301 39.0407C53.0794 39.4074 52.6133 39.7742 52.132 40.1409C49.2747 42.3182 45.9132 44.5185 42.2078 46.5584C38.6324 48.5218 35.118 50.1415 31.8482 51.3638C31.1453 51.6312 30.4654 51.8757 29.7931 52.1049C22.2372 54.6337 16.3698 54.8782 14.9259 52.2501C13.5125 49.6831 17.5082 44.3352 23.4367 39.4227C23.536 40.7215 23.8187 41.9744 24.2389 43.151C20.4877 46.0465 18.211 48.5829 18.7917 49.6525C19.3799 50.7144 22.5123 50.2331 26.9816 48.6058C27.1802 48.5371 27.3712 48.4607 27.5775 48.3919C31.1377 47.0626 35.4771 45.0457 40.0228 42.5398C44.7061 39.9652 48.8316 37.2988 51.8952 34.9534C51.9792 34.8923 52.0556 34.8312 52.132 34.7701C55.8985 31.8669 57.9841 29.4756 57.3959 28.406C56.8076 27.3517 53.7135 27.8178 49.2823 29.4222C48.5184 28.4366 47.6398 27.5504 46.6542 26.794C53.9732 24.418 60.1997 23.9902 61.6131 26.5572Z" fill="#FFD37B"/>
<path d="M49.2819 29.4222C50.5196 31.0342 51.4211 32.9136 51.8948 34.9534C48.8312 37.2989 44.7057 39.9652 40.0224 42.5398C35.4767 45.0457 31.1373 47.0626 27.5771 48.3919C26.0978 46.9073 24.9587 45.1191 24.2385 43.151C23.8183 41.9745 23.5356 40.7215 23.4363 39.4227C23.3981 39.0255 23.3828 38.6206 23.3828 38.2156C23.3828 30.2396 29.8461 23.7763 37.8221 23.7763C41.1455 23.7763 44.2091 24.8994 46.6538 26.7941C47.6394 27.5504 48.518 28.4366 49.2819 29.4222ZM48.984 34.327C48.984 33.7845 48.5409 33.3414 48.0061 33.3414C47.4636 33.3414 47.0205 33.7845 47.0205 34.327C47.0205 34.8694 47.4636 35.3125 48.0061 35.3125C48.5409 35.3125 48.984 34.8694 48.984 34.327ZM42.8492 36.8557C42.8492 36.2216 42.3373 35.7098 41.7032 35.7098C41.0691 35.7098 40.5572 36.2216 40.5572 36.8557C40.5572 37.4899 41.0691 38.0017 41.7032 38.0017C42.3373 38.0017 42.8492 37.4899 42.8492 36.8557ZM34.6974 32.7531C34.6974 32.7531 31.9013 32.7531 31.9013 28.8339C31.9013 28.8339 31.9013 32.7531 29.0974 32.7531C29.0974 32.7531 31.9013 32.7531 31.9013 37.2377C31.9013 37.2377 31.9013 32.7531 34.6974 32.7531ZM42.2074 46.5584C45.9128 44.5185 49.2743 42.3182 52.1316 40.1409C51.1919 47.2078 45.1411 52.655 37.8221 52.655C35.6906 52.655 33.6737 52.1966 31.8478 51.3715V51.3638C35.1176 50.1415 38.632 48.5218 42.2074 46.5584Z" fill="#8A6DD4"/>
<path d="M48.007 33.3414C48.2617 33.3515 48.5026 33.4597 48.6792 33.6434C48.8559 33.8271 48.9545 34.0721 48.9545 34.327C48.9545 34.5818 48.8559 34.8268 48.6792 35.0105C48.5026 35.1943 48.2617 35.3025 48.007 35.3125C47.4646 35.3125 47.0215 34.8694 47.0215 34.327C47.0215 33.7845 47.4646 33.3414 48.007 33.3414Z" fill="#64B0F5"/>
<path d="M41.7046 38.0017C42.3375 38.0017 42.8506 37.4887 42.8506 36.8558C42.8506 36.2229 42.3375 35.7098 41.7046 35.7098C41.0717 35.7098 40.5586 36.2229 40.5586 36.8558C40.5586 37.4887 41.0717 38.0017 41.7046 38.0017Z" fill="#FF9375"/>
<path d="M35.6828 54.7712C36.2252 54.7712 36.6607 55.2067 36.6607 55.7491C36.6607 56.2915 36.2252 56.7346 35.6828 56.7346C35.1404 56.7346 34.6973 56.2915 34.6973 55.7491C34.6973 55.2067 35.1404 54.7712 35.6828 54.7712Z" fill="#64B0F5"/>
<path d="M31.9015 28.8339C31.9015 32.7531 34.6977 32.7531 34.6977 32.7531C31.9015 32.7531 31.9015 37.2377 31.9015 37.2377C31.9015 32.7531 29.0977 32.7531 29.0977 32.7531C31.9015 32.7531 31.9015 28.8339 31.9015 28.8339Z" fill="#FFD37B"/>
<path d="M27.951 60.1573C29.0058 60.1573 29.8609 59.3022 29.8609 58.2474C29.8609 57.1925 29.0058 56.3374 27.951 56.3374C26.8961 56.3374 26.041 57.1925 26.041 58.2474C26.041 59.3022 26.8961 60.1573 27.951 60.1573Z" fill="#FF9375"/>
<path d="M21.4586 16.6101C21.4586 21.958 25.2785 21.958 25.2785 21.958C21.4586 21.958 21.4586 28.0699 21.4586 28.0699C21.4586 21.958 17.6387 21.958 17.6387 21.958C21.4586 21.958 21.4586 16.6101 21.4586 16.6101Z" fill="#FFD37B"/>
<path d="M18.4562 56.5666C18.9987 56.5666 19.4341 57.0021 19.4341 57.5445C19.4341 58.0869 18.9987 58.53 18.4562 58.53C17.9138 58.53 17.4707 58.0869 17.4707 57.5445C17.4707 57.0021 17.9138 56.5666 18.4562 56.5666Z" fill="#64B0F5"/>
</svg>
