<svg width="76" height="76" viewBox="0 0 76 76" fill="none" xmlns="http://www.w3.org/2000/svg">
<circle cx="38" cy="38" r="38" fill="#BBD0FF" fill-opacity="0.56"/>
<path d="M20.427 34.6024C14.6775 34.6024 10 39.2799 10 45.0294C10 50.7789 14.6775 55.4564 20.427 55.4564C26.1766 55.4564 30.8541 50.7788 30.8541 45.0294C30.8541 39.28 26.1766 34.6024 20.427 34.6024ZM20.427 52.1753C16.4868 52.1753 13.2812 48.9696 13.2812 45.0294C13.2812 41.0892 16.4868 37.8836 20.427 37.8836C24.3673 37.8836 27.5728 41.0893 27.5728 45.0294C27.5728 48.9695 24.3673 52.1753 20.427 52.1753Z" fill="#41495A"/>
<path d="M20.4277 34.6024V37.8836C24.368 37.8836 27.5735 41.0893 27.5735 45.0294C27.5735 48.9695 24.3679 52.1752 20.4277 52.1752V55.4564C26.1772 55.4564 30.8548 50.7788 30.8548 45.0294C30.8548 39.28 26.1772 34.6024 20.4277 34.6024Z" fill="#141E32"/>
<path d="M30.9711 34.3694C30.3346 34.3694 29.729 33.9968 29.4624 33.3747L26.4495 26.3455C26.0925 25.5126 26.4783 24.5482 27.3112 24.1912C28.1439 23.8343 29.1084 24.2199 29.4654 25.0527L32.4783 32.0819C32.8353 32.9148 32.4495 33.8793 31.6167 34.2363C31.4128 34.324 31.1931 34.3693 30.9711 34.3694Z" fill="#006E8C"/>
<path d="M55.5735 34.6024C49.824 34.6024 45.1465 39.28 45.1465 45.0294C45.1465 50.7788 49.824 55.4564 55.5735 55.4564C61.323 55.4564 66.0006 50.7789 66.0006 45.0294C66.0006 39.2799 61.3229 34.6024 55.5735 34.6024ZM55.5735 52.1753C51.6333 52.1753 48.4277 48.9696 48.4277 45.0295C48.4277 41.0894 51.6333 37.8837 55.5735 37.8837C59.5138 37.8837 62.7193 41.0892 62.7193 45.0294C62.7193 48.9696 59.5137 52.1753 55.5735 52.1753Z" fill="#41495A"/>
<path d="M49.9008 27.2363C49.7105 26.9566 49.4383 26.7426 49.1216 26.6236C48.8049 26.5046 48.4591 26.4864 48.1317 26.5715L30.5588 31.1404C30.2346 31.2247 29.944 31.4062 29.726 31.6605L19.1822 43.9616C18.978 44.1998 18.8463 44.4916 18.8029 44.8024C18.7595 45.1131 18.8061 45.4299 18.9372 45.7149C19.0683 46 19.2784 46.2415 19.5427 46.4108C19.8069 46.5801 20.1141 46.67 20.4279 46.6699H36.2435C36.502 46.6699 36.7567 46.6089 36.9871 46.4917C37.2175 46.3746 37.4169 46.2047 37.5691 45.9959L49.8702 29.1259C50.0696 28.8525 50.1795 28.5242 50.185 28.1859C50.1905 27.8477 50.0912 27.516 49.9008 27.2363ZM23.995 43.3888L30.502 35.7973L33.7555 43.3888H23.995ZM36.616 41.7339L33.2313 33.836L44.5139 30.9024L36.616 41.7339Z" fill="#4BB4D2"/>
<path d="M32.7284 27.3398H25.6992C24.7932 27.3398 24.0586 26.6053 24.0586 25.6992C24.0586 24.7932 24.7932 24.0586 25.6992 24.0586H32.7284C33.6345 24.0586 34.369 24.7932 34.369 25.6992C34.369 26.6053 33.6345 27.3398 32.7284 27.3398Z" fill="#F7785A"/>
<path d="M48.1309 26.5716L36.6152 29.5657V32.956L44.513 30.9026L36.6152 41.7339V46.6266C36.9982 46.5374 37.3364 46.3137 37.5683 45.9961L49.8694 29.1261C50.0687 28.8528 50.1787 28.5245 50.1842 28.1862C50.1897 27.8479 50.0904 27.5162 49.9 27.2365C49.7097 26.9567 49.4376 26.7426 49.1209 26.6236C48.8041 26.5045 48.4583 26.4864 48.1309 26.5716Z" fill="#2691AF"/>
<path d="M57.0883 44.3984L48.3019 23.3109C47.9534 22.4746 46.9928 22.0791 46.1565 22.4275C45.3201 22.7761 44.9246 23.7365 45.2731 24.5729L54.0595 45.6604C54.408 46.4968 55.3686 46.8923 56.2049 46.5438C57.0413 46.1954 57.4368 45.2348 57.0883 44.3984Z" fill="#006E8C"/>
<path d="M53.6139 21.6658C53.3273 20.8064 52.3987 20.3414 51.5386 20.6283L46.2667 22.3854C45.4071 22.672 44.9426 23.6011 45.2292 24.4607C45.5158 25.3202 46.4443 25.7851 47.3045 25.4982L52.5763 23.7411C53.4359 23.4545 53.9004 22.5254 53.6139 21.6658Z" fill="#2691AF"/>
<path d="M55.5723 34.6024V37.8836C59.5125 37.8836 62.7181 41.0893 62.7181 45.0294C62.7181 48.9695 59.5124 52.1752 55.5723 52.1752V55.4564C61.3218 55.4564 65.9993 50.7788 65.9993 45.0294C65.9993 39.28 61.3217 34.6024 55.5723 34.6024Z" fill="#141E32"/>
</svg>
