<svg width="76" height="76" viewBox="0 0 76 76" fill="none" xmlns="http://www.w3.org/2000/svg">
<circle cx="38" cy="38" r="38" fill="#D9D8D8"/>
<g clip-path="url(#clip0_2919_22113)">
<path d="M52.6742 27.6238C53.0742 28.1513 53.4434 28.7015 53.7801 29.2715C54.3206 30.1746 54.7753 31.1264 55.1384 32.1142C55.6217 33.4124 55.9384 34.7666 56.081 36.1445C56.242 37.5717 56.217 39.0138 56.0068 40.4345C54.6616 49.7662 46.0064 56.2406 36.6747 54.8955C34.1555 54.5323 31.7495 53.6105 29.6326 52.1974C27.5157 50.7844 25.7416 48.9158 24.44 46.7286C23.2642 44.7452 22.501 42.5447 22.1962 40.2592C21.8914 37.9737 22.0512 35.6502 22.6661 33.4279C25.1931 24.3427 34.6067 19.0261 43.692 21.5531C47.266 22.5472 50.4191 24.6782 52.6742 27.6238Z" fill="#EDEDED"/>
<path d="M30.3851 23.3263C33.3596 21.5492 36.8079 20.7279 40.2641 20.9735C36.5604 23.8533 36.9093 25.1374 32.4188 28.3215C27.8319 31.565 26.7854 30.7114 22.666 33.428C23.8359 29.1893 26.6026 25.5686 30.3851 23.3263Z" fill="#939393"/>
<path d="M53.7796 29.2715C54.32 30.1746 54.7748 31.1264 55.1379 32.1142C55.6212 33.4124 55.9379 34.7666 56.0805 36.1445L56.0211 36.1519C53.119 37.3914 51.0928 36.7605 48.7696 37.5696C46.4464 38.3786 45.4519 39.2544 44.4573 41.2139C43.4627 43.1734 43.8858 45.2145 41.1544 46.788C38.8238 48.1314 37.5323 47.1146 35.4467 47.7158C33.361 48.317 28.069 50.7292 28.069 50.7292L27.928 50.8999C26.5495 49.7051 25.3717 48.2967 24.4395 46.7286C23.9078 45.8345 23.4605 44.8927 23.1035 43.9156L23.482 43.782C23.482 43.782 26.8369 43.782 28.9745 42.2901C31.1121 40.7982 31.9879 37.191 36.2928 35.3503C40.5977 33.5096 41.9263 35.0237 44.6428 34.2667C47.3 33.5319 51.8127 30.0063 52.6737 27.6238C53.0737 28.1513 53.4429 28.7015 53.7796 29.2715Z" fill="#939393"/>
<path d="M56.0803 36.1445C56.2412 37.5717 56.2163 39.0138 56.006 40.4346C50.5433 43.6336 51.1519 44.9399 45.4665 48.2131C39.6771 51.5457 38.5193 50.4991 32.7299 53.8317C30.9764 53.1301 29.3531 52.1391 27.9277 50.8999L28.0688 50.7292C28.0688 50.7292 33.3608 48.3244 35.4465 47.7158C37.5321 47.1072 38.8236 48.1314 41.1542 46.788C43.8855 45.2145 43.4625 43.1734 44.457 41.2139C45.4516 39.2544 46.4388 38.3786 48.7694 37.5696C51.0999 36.7606 53.1188 37.3915 56.0209 36.152L56.0803 36.1445Z" fill="#939393"/>
<path d="M52.6741 27.6238C51.8132 30.0063 47.3004 33.5319 44.6433 34.2667C41.9267 35.0237 40.5982 33.5096 36.2933 35.3503C31.9884 37.191 31.1125 40.8057 28.9749 42.2901C26.8373 43.7745 23.4825 43.782 23.4825 43.782L23.104 43.9156C22.5713 42.4859 22.2367 40.99 22.1094 39.4696C28.0769 35.573 29.0566 36.6047 35.3506 32.3888C41.6447 28.173 41.0658 26.8815 46.959 22.8364C49.1929 23.9925 51.1443 25.6271 52.6741 27.6238Z" fill="#EDEDED"/>
<path d="M46.959 22.8365C41.0658 26.8816 41.6521 28.1657 35.3507 32.3889C29.0492 36.6122 28.0769 35.573 22.1094 39.4697C21.9287 37.4387 22.1173 35.3918 22.6661 33.428C26.7854 30.7115 27.8319 31.565 32.4189 28.3215C36.9093 25.1374 36.5605 23.8533 40.2642 20.9735C42.5994 21.1318 44.8777 21.7658 46.959 22.8365Z" fill="#616161"/>
<path d="M45.467 48.2131C51.1525 44.9399 50.5438 43.6336 56.0066 40.4346C54.6607 49.7662 46.0049 56.2398 36.6733 54.8938C35.3212 54.6988 33.9975 54.3422 32.7305 53.8317C38.5198 50.4991 39.6777 51.5457 45.467 48.2131Z" fill="#616161"/>
<path d="M35.8154 39.5157C34.5047 40.2988 34.0163 41.7149 33.5888 42.9648C33.388 43.8369 32.961 44.6408 32.3507 45.2954C29.8227 47.318 25.69 47.5577 24.999 47.5837C25.3228 48.068 25.6709 48.5357 26.0418 48.985C27.3652 48.8996 30.7386 48.484 33.2763 46.454C34.1213 45.6355 34.7153 44.593 34.9886 43.4488C35.3709 42.3414 35.7308 41.2963 36.5747 40.7909C37.7365 40.1056 39.2336 40.4885 39.9236 41.6474C40.0343 41.8311 40.1073 42.0349 40.1384 42.2471C40.1695 42.4593 40.158 42.6755 40.1048 42.8832C40.0522 43.0934 39.9583 43.291 39.8286 43.4646C39.6988 43.6381 39.5359 43.7841 39.3492 43.8941C38.8575 44.1901 38.219 44.0316 37.923 43.54L37.913 43.523C37.8333 43.3882 37.8098 43.2275 37.8474 43.0755C37.885 42.9235 37.9808 42.7923 38.1141 42.7102C38.1766 42.6738 38.2508 42.6629 38.3212 42.6798C38.388 42.6968 38.445 42.7402 38.4793 42.8001L39.7611 42.0519C39.6456 41.8523 39.4913 41.6779 39.3074 41.5388C39.1234 41.3998 38.9136 41.2989 38.6901 41.2421C38.4656 41.1848 38.2319 41.1725 38.0026 41.2058C37.7733 41.2392 37.5529 41.3176 37.3541 41.4366C36.3729 42.0295 36.0548 43.3037 36.6423 44.2882C37.3508 45.4884 38.8982 45.8869 40.0984 45.1783L40.1099 45.1715C41.5921 44.2954 42.0833 42.3838 41.2073 40.9016L41.1988 40.8873C40.089 39.0246 37.6812 38.4112 35.8154 39.5157Z" fill="#616161"/>
<path d="M20.5578 59.5245H19.0733V57.2979C19.0733 56.0681 18.0765 55.0712 16.8467 55.0712V53.5868C18.0765 53.5868 19.0733 52.5899 19.0733 51.3601V49.1334H20.5578V51.3601C20.5578 52.5899 21.5547 53.5868 22.7845 53.5868V55.0712C21.5547 55.0712 20.5578 56.0681 20.5578 57.2979V59.5245ZM19.0733 54.329C19.3542 54.5405 19.604 54.7904 19.8156 55.0712C20.0271 54.7904 20.2769 54.5405 20.5578 54.329C20.2769 54.1174 20.0271 53.8676 19.8156 53.5868C19.604 53.8676 19.3542 54.1174 19.0733 54.329Z" fill="#939393"/>
<path d="M57.6691 17.96H59.1535V19.4445H57.6691V17.96ZM54.7002 17.96H56.1846V19.4445H54.7002V17.96ZM56.1846 16.4756H57.6691V17.96H56.1846V16.4756ZM56.1846 19.4445H57.6691V20.9289H56.1846V19.4445Z" fill="#EDEDED"/>
<path d="M56.9268 56.5556C57.3367 56.5556 57.669 56.2233 57.669 55.8134C57.669 55.4035 57.3367 55.0712 56.9268 55.0712C56.5169 55.0712 56.1846 55.4035 56.1846 55.8134C56.1846 56.2233 56.5169 56.5556 56.9268 56.5556Z" fill="black"/>
</g>
<defs>
<clipPath id="clip0_2919_22113">
<rect width="43.049" height="43.049" fill="white" transform="translate(16.4756 16.4756)"/>
</clipPath>
</defs>
</svg>
