<svg width="76" height="76" viewBox="0 0 76 76" fill="none" xmlns="http://www.w3.org/2000/svg">
<circle cx="38" cy="38" r="38" fill="#BBD0FF" fill-opacity="0.56"/>
<g clip-path="url(#clip0_3093_39068)">
<path d="M25.9219 21.4375V58H49.0781V21.4375H25.9219ZM36.2812 56.1719H27.75V41.5469H36.2812V56.1719ZM36.2812 37.8906H27.75V23.2656H36.2812V37.8906ZM47.25 56.1719H38.7188V41.5469H47.25V56.1719ZM47.25 37.8906H38.7188V23.2656H47.25V37.8906Z" fill="#AF6328"/>
<path d="M46.0312 36.6719V24.4844L47.25 23.2656V37.8906H38.7188L39.9375 36.6719H46.0312Z" fill="#7F4122"/>
<path d="M41.1562 25.7031V35.4531L39.9375 36.6719H46.0312V24.4844L44.8125 25.7031H41.1562Z" fill="#A25425"/>
<path d="M39.9375 24.4844H46.0312L47.25 23.2656H38.7188V37.8906L39.9375 36.6719V24.4844ZM30.1875 25.7031V35.4531L28.9688 36.6719H35.0625V24.4844L33.8438 25.7031H30.1875Z" fill="#A25425"/>
<path d="M28.9688 24.4844H35.0625L36.2812 23.2656H27.75V37.8906L28.9688 36.6719V24.4844Z" fill="#A25425"/>
<path d="M41.1562 25.7031V35.4531L39.9375 36.6719V24.4844H46.0312L44.8125 25.7031H41.1562Z" fill="#AF6328"/>
<path d="M35.0625 36.6719V24.4844L36.2812 23.2656V37.8906H27.75L28.9688 36.6719H35.0625Z" fill="#7F4122"/>
<path d="M30.1875 25.7031V35.4531L28.9688 36.6719V24.4844H35.0625L33.8438 25.7031H30.1875Z" fill="#AF6328"/>
<path d="M30.1875 43.9844V53.7344L28.9688 54.9531H35.0625V42.7656L33.8438 43.9844H30.1875Z" fill="#A25425"/>
<path d="M28.9688 42.7656H35.0625L36.2812 41.5469H27.75V56.1719L28.9688 54.9531V42.7656Z" fill="#A25425"/>
<path d="M35.0625 54.9531V42.7656L36.2812 41.5469V56.1719H27.75L28.9688 54.9531H35.0625Z" fill="#7F4122"/>
<path d="M30.1875 43.9844V53.7344L28.9688 54.9531V42.7656H35.0625L33.8438 43.9844H30.1875Z" fill="#AF6328"/>
<path d="M41.1562 43.9844V53.7344L39.9375 54.9531H46.0312V42.7656L44.8125 43.9844H41.1562Z" fill="#A25425"/>
<path d="M39.9375 42.7656H46.0312L47.25 41.5469H38.7188V56.1719L39.9375 54.9531V42.7656Z" fill="#A25425"/>
<path d="M46.0312 54.9531V42.7656L47.25 41.5469V56.1719H38.7188L39.9375 54.9531H46.0312Z" fill="#7F4122"/>
<path d="M41.1562 43.9844V53.7344L39.9375 54.9531V42.7656H46.0312L44.8125 43.9844H41.1562Z" fill="#AF6328"/>
<path d="M46.6406 39.1094H42.9844C42.8228 39.1094 42.6678 39.1736 42.5535 39.2879C42.4392 39.4021 42.375 39.5571 42.375 39.7188C42.375 39.8804 42.4392 40.0354 42.5535 40.1496C42.6678 40.2639 42.8228 40.3281 42.9844 40.3281H46.0312C46.0312 40.4897 46.0955 40.6447 46.2097 40.759C46.324 40.8733 46.479 40.9375 46.6406 40.9375C46.8022 40.9375 46.9572 40.8733 47.0715 40.759C47.1858 40.6447 47.25 40.4897 47.25 40.3281V39.7188C47.25 39.5571 47.1858 39.4021 47.0715 39.2879C46.9572 39.1736 46.8022 39.1094 46.6406 39.1094Z" fill="#F6B74E"/>
<path d="M46.0312 40.3281H42.9844L43.5938 40.9375H46.6406C46.479 40.9375 46.324 40.8733 46.2097 40.759C46.0955 40.6447 46.0312 40.4897 46.0312 40.3281Z" fill="#7F4122"/>
<path d="M51.5156 56.1719H56.3906V58H51.5156V56.1719ZM18.6094 56.1719H23.4844V58H18.6094V56.1719Z" fill="#D0D7DA"/>
<path d="M51.5156 54.9531H56.3906V56.1719H51.5156V54.9531ZM18.6094 54.9531H23.4844V56.1719H18.6094V54.9531Z" fill="#E2E4E6"/>
<path d="M23.4844 19V58H25.9219V21.4375H49.0781V58H51.5156V19H23.4844Z" fill="#A25425"/>
</g>
<defs>
<clipPath id="clip0_3093_39068">
<rect width="39" height="39" fill="white" transform="translate(18 19)"/>
</clipPath>
</defs>
</svg>
