<svg width="76" height="77" viewBox="0 0 76 77" fill="none" xmlns="http://www.w3.org/2000/svg">
<circle cx="38" cy="38.5" r="38" fill="#BBD0FF" fill-opacity="0.56"/>
<g clip-path="url(#clip0_3093_37819)">
<path d="M38.1684 60.5C50.4116 60.5 60.3367 50.6337 60.3367 38.4631C60.3367 26.2925 50.4116 16.4263 38.1684 16.4263C25.9251 16.4263 16 26.2925 16 38.4631C16 50.6337 25.9251 60.5 38.1684 60.5Z" fill="#89C8FD"/>
<path fill-rule="evenodd" clip-rule="evenodd" d="M36.8945 16.462C48.545 17.1181 57.7891 26.7176 57.7891 38.4631C57.7891 50.2088 48.545 59.8082 36.8945 60.4643C37.3161 60.488 37.7408 60.5001 38.1683 60.5001C50.4115 60.5001 60.3367 50.6338 60.3367 38.4632C60.3367 26.2927 50.4115 16.4264 38.1683 16.4264C37.7435 16.4263 37.3187 16.4382 36.8945 16.462Z" fill="#60B6FF"/>
<path fill-rule="evenodd" clip-rule="evenodd" d="M37.1308 52.9558C37.6209 49.0165 41.5185 48.2347 41.8764 43.5474C42.0876 40.7814 34.0974 38.519 33.2095 38.5892C29.5555 38.8782 30.1052 39.5002 28.0655 36.2491C25.5079 32.1724 32.011 34.5986 32.5273 31.9701C32.9534 29.8014 34.6348 29.4545 35.8121 28.7235C36.7539 28.1386 38.4717 27.9612 39.7654 27.6151C40.8236 27.332 40.8077 26.1294 40.9441 25.1817C41.2432 23.1052 40.7926 22.7931 38.9577 22.5333C35.9024 22.1006 36.9267 19.9921 32.8158 20.8524C28.7464 21.704 29.906 21.3991 25.8083 20.1658C22.4372 22.4203 19.7231 25.5713 18.0117 29.275C20.2897 36.0459 24.9686 37.3397 25.7684 38.1595C26.4604 38.8688 27.4468 39.4123 27.472 41.6525C27.553 48.8514 30.8438 43.8822 32.3202 52.1104C33.7177 59.8982 36.5598 57.5445 37.1308 52.9558ZM46.2579 40.2865C41.305 37.0583 46.7855 34.7081 45.8318 32.667C45.6819 32.3463 46.7921 30.8652 47.5176 31.0993C49.1817 31.6363 53.4321 31.7064 54.0566 31.5362C54.8377 31.3233 56.0756 28.3665 53.3929 28.262C52.8197 28.2397 48.1671 28.8875 47.8994 28.3665C47.6341 27.7059 47.1042 25.2581 48.2984 24.1727C49.6738 22.9227 52.4373 22.4772 52.9384 22.0304C57.4783 26.0656 60.3358 31.9326 60.3358 38.4629C60.3358 43.2115 58.8249 47.6092 56.2549 51.2071C54.6931 52.6891 51.663 52.5296 52.0854 50.8402C52.7919 48.014 52.3283 47.2263 52.3657 45.4636C52.5077 38.7686 49.5515 41.4876 46.2579 40.2865Z" fill="#BAEB6C"/>
<path fill-rule="evenodd" clip-rule="evenodd" d="M51.1445 22.7322C55.2448 26.7313 57.7884 32.3019 57.7884 38.4631C57.7884 43.6335 55.9971 48.388 52.9978 52.1468C53.9314 52.3782 55.3434 52.0724 56.2551 51.2072C58.8251 47.6094 60.336 43.2116 60.336 38.463C60.336 31.9327 57.4785 26.0658 52.9386 22.0305C52.7061 22.2379 51.9865 22.4449 51.1445 22.7322Z" fill="#96D629"/>
<path d="M60.1087 22.1098C61.2226 22.1098 62.1256 21.2122 62.1256 20.1049C62.1256 18.9976 61.2226 18.1 60.1087 18.1C58.9948 18.1 58.0918 18.9976 58.0918 20.1049C58.0918 21.2122 58.9948 22.1098 60.1087 22.1098Z" fill="#EDEDED"/>
<path d="M48.4685 12.7616C49.0413 12.7616 49.5011 13.2187 49.5011 13.7881C49.5011 14.3575 49.0413 14.8227 48.4685 14.8227C47.8957 14.8227 47.4277 14.3575 47.4277 13.7881C47.4277 13.2187 47.8957 12.7616 48.4685 12.7616Z" fill="#F3D25B"/>
</g>
<defs>
<clipPath id="clip0_3093_37819">
<rect width="55" height="53" fill="white" transform="translate(16 7.5)"/>
</clipPath>
</defs>
</svg>
