<svg width="76" height="76" viewBox="0 0 76 76" fill="none" xmlns="http://www.w3.org/2000/svg">
<circle cx="38" cy="38" r="38" fill="#DBDADA"/>
<g clip-path="url(#clip0_2919_21849)">
<path d="M51.3464 38.3375C51.512 38.1684 51.6904 38.0074 51.8778 37.8523L52.8243 40.8683C51.4916 41.6863 50.6054 43.1299 50.6054 44.7756C50.6054 47.3267 52.7319 49.3943 55.355 49.3943C57.9777 49.3943 60.1041 47.3267 60.1041 44.7757C60.1041 42.524 58.3469 40.5532 56.1536 40.1451L60.2889 38.7702C62.0337 40.1777 63.2449 42.3989 63.2449 44.7761C63.2449 49.0136 59.7123 52.4491 55.355 52.4491C51.8152 52.4491 48.6208 50.0851 47.6211 46.9629C47.8462 44.1871 49.3735 40.3523 51.3464 38.3375Z" fill="#576574"/>
<path d="M53.0166 51.0959C50.604 49.5263 49.5674 46.5668 50.4304 43.8714C50.9071 42.3828 51.6078 40.8766 52.443 39.6532L51.8778 37.8523C51.6922 38.0049 51.515 38.1669 51.3468 38.3375C49.3735 40.3522 47.8462 44.1871 47.6211 46.9629C48.6208 50.0855 51.8152 52.4491 55.355 52.4491C55.723 52.4491 56.085 52.4227 56.4399 52.375C55.2015 52.2071 54.0318 51.756 53.0166 51.0959Z" fill="#3E4B5A"/>
<path d="M55.0366 36.1756C55.1803 36.1685 55.3241 36.1647 55.468 36.1643C57.4813 36.1643 59.4003 36.8951 60.8812 38.0034C61.1582 38.2106 61.0863 38.6349 60.7556 38.7448L55.4948 40.4939L54.1338 36.558L55.0366 36.1756Z" fill="#616161"/>
<path d="M57.209 36.3461C56.6426 36.2288 56.0596 36.1642 55.4679 36.1642C55.3231 36.1642 55.1795 36.1689 55.0366 36.1755L54.1338 36.558L55.4948 40.4937L58.3184 39.5549L57.209 36.3461Z" fill="#616161"/>
<path d="M24.0163 30.9277L27.1891 33.464C27.5409 33.7452 27.9526 33.9468 28.3944 34.0541C28.8362 34.1614 29.297 34.1718 29.7435 34.0845L31.4514 36.5364L28.4566 36.7202C27.5288 36.7773 26.6135 36.489 25.8964 35.9137L20.9414 31.9384L24.0163 30.9277Z" fill="#576574"/>
<path d="M29.0987 35.9137L24.7999 32.4647C24.5136 32.2351 24.5981 31.7892 24.9495 31.6736L24.0163 30.9277L20.9414 31.9384L25.8964 35.9137C26.6135 36.4889 27.5288 36.7773 28.4566 36.7202L30.4506 36.5977C29.9556 36.4645 29.495 36.2314 29.0987 35.9137Z" fill="#3E4B5A"/>
<path d="M46.8997 30.184C45.8132 30.6018 41.7919 32.7713 39.5719 33.8718C38.6026 34.3523 37.8236 35.1306 37.3557 36.0857L36.8603 37.0979L31.1299 30.6388C35.2406 25.1936 38.0508 26.5432 41.7787 27.365C44.4364 27.9507 47.4649 29.9728 47.4649 29.9728C47.2779 29.9794 47.0886 30.1115 46.8997 30.184Z" fill="#616161"/>
<path d="M36.6842 29.4546C37.8787 28.1121 38.9689 27.3474 40.0176 26.9525C37.0989 26.2836 34.5698 26.0822 31.1299 30.6388L36.8603 37.0979L37.3557 36.0859C37.7131 35.3573 38.2534 34.7279 38.9267 34.2558L36.6849 31.7291C36.1057 31.076 36.1037 30.1067 36.6841 29.4546H36.6842Z" fill="#616161"/>
<path d="M21.7083 37.1027C24.4567 37.1027 26.8753 38.4699 28.2882 40.5418L25.4069 41.8797C24.5361 40.8297 23.2035 40.1571 21.7083 40.1571C19.0856 40.1571 16.9592 42.2252 16.9592 44.7757C16.9592 47.3267 19.0857 49.3943 21.7083 49.3943C24.1391 49.3943 26.1422 47.6178 26.4227 45.3277L29.5878 45.1784C29.3725 49.2289 25.9273 52.4491 21.7083 52.4491C17.351 52.4491 13.8184 49.0136 13.8184 44.7761C13.8184 40.5382 17.351 37.1027 21.7083 37.1027Z" fill="#576574"/>
<path d="M16.5534 44.7761C16.5534 40.9908 19.3726 37.8479 23.0799 37.2193C22.627 37.1418 22.1681 37.1028 21.7083 37.1027C17.351 37.1027 13.8184 40.5382 13.8184 44.7761C13.8184 49.0136 17.351 52.4491 21.7083 52.4491C22.1751 52.4491 22.6318 52.4077 23.0764 52.3318C19.3707 51.7021 16.5534 48.5599 16.5534 44.7761Z" fill="#3E4B5A"/>
<path d="M15.4261 26.0896H17.0529C17.7637 26.0896 18.4488 26.3514 18.9696 26.8226L20.9411 28.6056L24.1438 31.1654L21.1203 32.0977C20.0697 32.3503 18.7841 31.9146 18.0948 31.1035L14.8488 27.2822C14.4453 26.8069 14.7926 26.0896 15.4261 26.0896Z" fill="#D9D9D9"/>
<path d="M21.2398 31.1035L17.9938 27.2822C17.7181 26.9576 17.7935 26.5201 18.0707 26.2751C17.746 26.1525 17.4008 26.0896 17.0525 26.0896H15.4261C14.7926 26.0896 14.4453 26.8069 14.8488 27.2822L18.0947 31.1035C18.784 31.915 20.0696 32.3503 21.1202 32.0977L22.1213 31.7888C21.7805 31.6121 21.475 31.3804 21.2398 31.1035Z" fill="#999999"/>
<path d="M34.5605 44.3819C34.2924 43.8447 34.1567 43.2675 34.1567 42.6664C34.1567 42.0506 34.2996 41.4602 34.5817 40.9113L34.6077 40.8606L32.8881 38.3922L20.978 43.8289L20.9776 43.8293C20.0187 44.2741 20.3641 45.7091 21.452 45.6596L31.0407 45.2158L30.9687 45.082C30.9046 44.9627 30.9098 44.8224 30.9827 44.7054C31.0559 44.5881 31.1791 44.5209 31.321 44.5209H34.6299L34.5605 44.3819Z" fill="#D9D9D9"/>
<path d="M26.045 43.8293L26.0453 43.8289L34.1107 40.1473L32.8881 38.3922L20.978 43.8289L20.9776 43.8293C20.0187 44.2741 20.3641 45.7091 21.452 45.6596L25.8504 45.4561C25.3402 45.0523 25.3262 44.1626 26.045 43.8293Z" fill="#EDEDED"/>
<path d="M33.511 33.2025L36.8596 36.8079L35.5974 39.3845C35.0449 39.7681 34.5974 40.2773 34.2939 40.8678L29.5986 34.1278L33.511 33.2025Z" fill="#EDEDED"/>
<path d="M33.6728 35.7909C33.2289 35.1535 33.5751 34.2814 34.344 34.0996L33.511 33.2025L29.5986 34.1278L34.2939 40.8679C34.5974 40.2774 35.0449 39.7681 35.5974 39.3845L35.8361 38.8968L33.6728 35.7909Z" fill="#939393"/>
<path d="M50.0512 31.3282C49.9449 31.3709 49.8382 31.4144 49.7319 31.4578L48.9106 29.0524L46.7381 27.6676C46.1162 27.2712 45.9488 26.4687 46.3633 25.8751C46.7781 25.2813 47.6178 25.121 48.2393 25.5174L50.802 27.151C51.0536 27.3105 51.2422 27.5482 51.3371 27.8253L52.0887 30.0256C51.6158 30.5189 50.9559 30.966 50.0512 31.3282ZM54.1227 36.3613L56.7941 44.3269C57.0283 45.0248 56.6361 45.7751 55.9185 46.0029C55.7778 46.0477 55.6353 46.0686 55.4946 46.0686C54.9192 46.0686 54.3837 45.7124 54.1955 45.1514L51.7361 37.8176C52.4253 37.2469 53.2468 36.7657 54.1227 36.3613Z" fill="#576574"/>
<path d="M50.9497 29.0523L48.7769 27.6675C48.1554 27.2715 47.9876 26.4691 48.4024 25.8753C48.4439 25.8165 48.4905 25.7612 48.5416 25.71L48.2394 25.5174C47.618 25.1214 46.7783 25.2816 46.3634 25.8753C45.9486 26.4691 46.1164 27.2714 46.7379 27.6675L48.9107 29.0523L49.7317 31.4576C49.8384 31.4145 49.945 31.3708 50.0514 31.3282C50.6126 31.1034 51.0794 30.846 51.4659 30.5654L50.9497 29.0523ZM56.2347 45.1513L54.0211 38.5517C53.8691 38.098 54.0351 37.5971 54.4375 37.3239L54.4442 37.3191L54.1229 36.3612C53.247 36.7657 52.4256 37.2468 51.7363 37.8175L54.1957 45.1513C54.3839 45.7123 54.9194 46.0685 55.4948 46.0685C55.6874 46.0686 55.8778 46.029 56.0534 45.9522C56.229 45.8754 56.3859 45.7633 56.5138 45.6232C56.388 45.4865 56.293 45.3258 56.2347 45.1513Z" fill="#3E4B5A"/>
<path d="M39.3637 38.9208C38.9565 38.7948 38.5316 38.7307 38.1042 38.7309C37.2064 38.7309 36.2765 38.9125 35.5977 39.3843L37.3557 35.7956C37.8236 34.8404 38.6026 34.0622 39.5719 33.5817C41.7919 32.4812 45.8132 30.5052 46.8996 30.0876C48.4235 29.5015 50.082 31.4246 50.082 31.4246C47.3423 32.5409 44.4063 34.017 42.3217 35.0805C40.7308 35.8916 39.7227 37.2504 39.3638 38.9208H39.3637Z" fill="#D9D9D9"/>
<path d="M38.6177 36.747C39.0856 35.7918 39.8647 35.0135 40.834 34.5331C43.0539 33.4326 47.0752 31.4565 48.1617 31.0389C48.7589 30.8089 49.3771 30.9656 49.908 31.2406C49.4441 30.7737 48.1281 29.6149 46.8992 30.0876C45.8131 30.5053 41.7914 32.4813 39.5715 33.5818C38.6024 34.0624 37.8234 34.8406 37.3556 35.7957L35.5977 39.3845C36.1591 38.9943 36.8926 38.8029 37.6373 38.7483L38.6177 36.747Z" fill="#EDEDED"/>
<path d="M39.4709 40.3593C39.4013 40.3292 39.3422 40.2799 39.3008 40.2177C39.2594 40.1554 39.2376 40.0828 39.2379 40.0087C39.2379 39.6177 39.2794 39.2261 39.3617 38.8443L39.3797 38.7589L39.2945 38.7325C38.8774 38.6032 38.4422 38.5375 38.0045 38.5377C35.6631 38.5377 33.7588 40.3897 33.7588 42.6667C33.7588 43.2972 33.9013 43.9026 34.1826 44.4663L34.2097 44.5209H35.7053C35.8275 44.5209 35.9425 44.5767 36.0198 44.6735C36.3114 45.0377 36.6905 45.3268 37.1238 45.5154C37.557 45.704 38.0313 45.7864 38.5049 45.7553C39.9174 45.664 41.074 44.562 41.1954 43.1919C41.3025 41.9832 40.6094 40.8449 39.4709 40.3593Z" fill="#576574"/>
<path d="M39.1995 44.6731C39.1218 44.5763 39.0072 44.5209 38.8846 44.5209H38.2888C37.357 44.5209 37.0862 43.7401 37.0217 43.4794C36.9662 43.2118 36.9382 42.9394 36.938 42.6664C36.938 41.0311 37.9211 39.6145 39.3424 38.9467C39.3491 38.9126 39.3544 38.8781 39.3617 38.844L39.3797 38.7589L39.2945 38.7322C38.8774 38.603 38.4422 38.5373 38.0045 38.5374C35.6631 38.5374 33.7588 40.3897 33.7588 42.6664C33.7588 43.2972 33.9013 43.9026 34.1826 44.4663L34.2097 44.5209H35.7053C35.8275 44.5209 35.9425 44.5763 36.0198 44.6731C36.3113 45.0375 36.6904 45.3267 37.1237 45.5153C37.557 45.704 38.0312 45.7864 38.5049 45.7553C39.0139 45.7223 39.4895 45.5577 39.8956 45.297C39.6299 45.1276 39.3947 44.9168 39.1995 44.6731Z" fill="#3E4B5A"/>
<path d="M40.7261 41.5731H40.7257C41.0056 42.0397 41.1481 42.5938 41.096 43.1835C40.9788 44.5073 39.8614 45.5705 38.4978 45.6585C37.5227 45.7216 36.6463 45.298 36.0984 44.6137C36.0034 44.4952 35.8597 44.424 35.7051 44.424H31.1216C30.721 44.424 30.4861 44.862 30.7146 45.1817L33.9225 49.6628C33.9682 49.7265 34.0291 49.7786 34.0999 49.8146C34.1708 49.8506 34.2496 49.8693 34.3295 49.8693H46.9508C47.0721 49.8693 47.1892 49.8261 47.2799 49.7477C47.3705 49.6693 47.4284 49.5613 47.4426 49.4442C47.5538 48.5315 47.8759 46.2787 48.5716 43.9502L40.7261 41.5731Z" fill="#D9D9D9"/>
<path d="M37.4515 49.8693C37.3716 49.8693 37.2929 49.8505 37.2221 49.8146C37.1514 49.7786 37.0906 49.7265 37.045 49.6628L33.8371 45.1818C33.6081 44.862 33.843 44.4245 34.2435 44.4241H31.1215C30.7211 44.4241 30.4861 44.862 30.7146 45.1818L33.923 49.6628C33.9685 49.7265 34.0293 49.7786 34.1001 49.8146C34.1709 49.8506 34.2495 49.8693 34.3294 49.8693H46.9513H37.4515ZM39.861 45.2034C41.5294 46.3142 44.0291 45.3203 44.218 43.1835C44.2338 42.9984 44.2302 42.8122 44.2071 42.6279L40.7261 41.5731H40.7257C41.0056 42.0397 41.148 42.5938 41.096 43.1835C41.0217 44.0218 40.5462 44.7553 39.861 45.2034Z" fill="#999999"/>
<path d="M61.0296 32.4577C61.1396 32.4577 61.2474 32.4621 61.3546 32.4681L60.6931 30.4866C60.4981 29.9037 60.2416 29.3421 59.9276 28.8106L57.7895 28.6071C57.4642 28.5761 57.15 28.4758 56.8691 28.3134C56.5882 28.1509 56.3475 27.9303 56.1642 27.6671L53.2147 23.4303L52.7817 23.6885C52.4155 23.9071 52.2658 24.3545 52.4355 24.7388C53.0725 26.1804 54.0793 29.6588 49.9818 31.3281C47.4334 32.3664 44.8024 33.632 42.7695 34.6595C44.0147 34.6775 45.3801 34.9478 46.7353 35.4968C48.668 36.2798 50.2043 37.4753 51.1236 38.7705C51.1958 38.6888 51.27 38.6089 51.3461 38.5307C53.4892 36.3429 57.5991 35.345 60.066 34.9254C59.0366 34.7431 58.3039 34.2786 58.3039 33.7328C58.3042 33.0287 59.5246 32.4577 61.0296 32.4577Z" fill="#616161"/>
<path d="M45.4431 34.887C45.5883 34.8128 45.7391 34.7366 45.8918 34.6592H45.8914L46.0872 34.5609C48.0918 33.5517 50.636 32.3334 53.1041 31.3279C55.3252 30.4232 56.0463 28.9867 56.1393 27.6308L53.2147 23.4302L52.7822 23.6884C52.4155 23.9073 52.2662 24.3543 52.4356 24.7386C53.0725 26.1806 54.0793 29.6586 49.9818 31.328C47.4338 32.3662 44.8024 33.6322 42.7695 34.6593C43.5534 34.6707 44.3854 34.7825 45.2323 35.0004C45.3017 34.9615 45.3718 34.9234 45.4431 34.8871V34.887Z" fill="#616161"/>
<path d="M57.691 28.7039C57.3657 28.6729 57.0514 28.5727 56.7705 28.4101C56.4896 28.2476 56.249 28.0269 56.0658 27.7636L53.0977 23.5005L53.9718 22.9782C54.1472 22.8735 54.355 22.8326 54.5585 22.8629C54.7619 22.8931 54.9478 22.9924 55.083 23.1432L58.8917 27.3925C59.3132 27.8634 59.6823 28.3764 59.9929 28.9228L57.691 28.7039Z" fill="#9BA1AA"/>
<path d="M58.738 27.8092C58.4127 27.7782 58.0984 27.678 57.8175 27.5155C57.5366 27.353 57.296 27.1323 57.1127 26.8692L54.3214 22.8597C54.1973 22.8743 54.0778 22.9147 53.9711 22.9782L53.0967 23.5005L56.0648 27.7637C56.248 28.0269 56.4887 28.2475 56.7696 28.41C57.0505 28.5724 57.3648 28.6727 57.6901 28.7035L59.9923 28.9225C59.7805 28.5525 59.5421 28.1976 59.2788 27.8605L58.738 27.8092Z" fill="#D9D9D9"/>
<path d="M43.3832 43.4152C42.4709 43.0455 41.6523 42.5787 40.9524 42.0513C40.8257 41.6967 40.6253 41.3713 40.3636 41.0954C40.1018 40.8194 39.7844 40.5989 39.4312 40.4476C39.2529 40.3717 39.1387 40.1986 39.1387 40.0086C39.1387 37.8589 40.3637 35.8855 42.3217 34.887C42.5361 34.7778 42.7508 34.6691 42.9658 34.5609C44.1747 34.5613 45.5111 34.8169 46.8359 35.3534C48.7983 36.1486 50.3295 37.3943 51.1675 38.7229C49.9511 40.0721 49.1045 42.1265 48.526 44.1065C47.0274 44.3591 45.1944 44.1486 43.3832 43.4152Z" fill="#999999"/>
<path d="M39.4313 40.4476C39.7845 40.5989 40.1019 40.8194 40.3636 41.0953C40.6252 41.3712 40.8256 41.6967 40.9521 42.0513C41.652 42.5786 42.4711 43.0455 43.3833 43.4152C43.6273 43.5138 43.8748 43.6039 44.1254 43.6854C44.1702 43.5259 44.2031 43.3591 44.2185 43.1834C44.3233 41.9993 43.6321 40.9079 42.5533 40.4477C42.3746 40.3717 42.2607 40.1986 42.2607 40.0086C42.2607 37.8611 43.4832 35.89 45.4373 34.8902C44.5851 34.6691 43.7487 34.5609 42.9659 34.5609C42.7448 34.6721 42.5283 34.7813 42.3218 34.887C40.3639 35.8855 39.1387 37.8589 39.1387 40.0086C39.1387 40.1986 39.2526 40.3718 39.4313 40.4476Z" fill="#616161"/>
<path d="M20.9655 28.5778C21.6805 27.7648 22.9151 27.6316 23.8228 28.236C26.6639 30.1272 31.1297 30.6388 31.1297 30.6388L33.6367 33.3379L29.5988 34.1282C29.1597 34.2141 28.7065 34.2039 28.272 34.0983C27.8375 33.9928 27.4325 33.7945 27.0865 33.518L20.9414 28.6056C20.9493 28.5961 20.9572 28.5869 20.9655 28.5778Z" fill="#3E4B5A"/>
<path d="M32.0344 33.518L27.4388 29.8441C26.2218 29.4759 24.9047 28.9563 23.8232 28.2359C22.9151 27.6316 21.6805 27.7647 20.9655 28.5779C20.9576 28.587 20.9493 28.5962 20.9414 28.6057L27.0865 33.518C27.4325 33.7946 27.8374 33.9928 28.272 34.0983C28.7065 34.2038 29.1597 34.2139 29.5988 34.1279L32.1754 33.6237C32.1275 33.5899 32.0803 33.5547 32.0344 33.518Z" fill="#374451"/>
<path d="M58.2363 33.7256C58.2363 33.0119 59.4223 32.4336 60.8851 32.4336C61.0438 32.4336 61.1988 32.4405 61.3496 32.4538L61.7441 33.6358C61.9178 34.1561 61.5668 34.7025 61.0099 34.7795C60.6661 34.8275 60.3231 34.8811 59.9811 34.9402C58.9633 34.7601 58.2363 34.2841 58.2363 33.7256Z" fill="#576574"/>
<path d="M60.2587 33.7256C60.2587 33.2815 60.718 32.8898 61.4175 32.6572L61.3492 32.4538C61.1949 32.4403 61.04 32.4336 60.8851 32.4336C59.4223 32.4336 58.2363 33.0119 58.2363 33.7256C58.2363 34.2841 58.9633 34.7602 59.9811 34.9402C60.3658 34.8738 60.7138 34.8206 61.0099 34.7796C61.0838 34.7694 61.1562 34.7501 61.2252 34.7223C60.6358 34.4854 60.2587 34.1271 60.2587 33.7256Z" fill="#3E4B5A"/>
</g>
<defs>
<clipPath id="clip0_2919_21849">
<rect width="49.4266" height="31.3566" fill="white" transform="translate(13.8184 22.8531)"/>
</clipPath>
</defs>
</svg>
