<svg width="76" height="76" viewBox="0 0 76 76" fill="none" xmlns="http://www.w3.org/2000/svg">
<circle cx="38" cy="38" r="38" fill="#D8D7D7"/>
<g clip-path="url(#clip0_3093_39590)">
<path d="M62.9506 45.5962L58.2631 33.2303C58.207 33.0831 58.107 32.9562 57.9762 32.8666C57.8454 32.7769 57.6901 32.7289 57.5311 32.7288H31.7498C31.5426 32.7288 31.3439 32.8102 31.1974 32.9551C31.0509 33.1001 30.9685 33.2966 30.9685 33.5016V37.366H24.7186V33.5016C24.7186 33.2966 24.6362 33.1001 24.4897 32.9551C24.3432 32.8102 24.1445 32.7288 23.9373 32.7288H18.4686C18.1428 32.7288 17.8514 32.9289 17.7365 33.2303L13.049 45.5962C13.0051 45.7132 12.9904 45.8389 13.0061 45.9627C13.0219 46.0865 13.0677 46.2047 13.1396 46.3073C13.2115 46.4098 13.3073 46.4936 13.419 46.5516C13.5307 46.6096 13.6549 46.6401 13.7811 46.6403H62.2186C62.3448 46.6402 62.4691 46.6099 62.5808 46.552C62.6926 46.494 62.7886 46.4102 62.8605 46.3076C62.9324 46.205 62.9782 46.0867 62.9939 45.9629C63.0096 45.839 62.9947 45.7132 62.9506 45.5962Z" fill="#616161"/>
<path d="M31.75 28.0916H23.1562V38.1388C23.1562 38.3438 23.2386 38.5404 23.3851 38.6853C23.5316 38.8302 23.7303 38.9117 23.9375 38.9117H31.75C31.9572 38.9117 32.1559 38.8302 32.3024 38.6853C32.4489 38.5404 32.5312 38.3438 32.5312 38.1388V28.8644C32.5312 28.6594 32.4489 28.4629 32.3024 28.3179C32.1559 28.173 31.9572 28.0916 31.75 28.0916Z" fill="#F0E8DE"/>
<path d="M32.5312 25H23.1562C22.949 25 22.7503 25.0814 22.6038 25.2264C22.4573 25.3713 22.375 25.5679 22.375 25.7729V28.8643C22.375 29.0693 22.4573 29.2659 22.6038 29.4108C22.7503 29.5558 22.949 29.6372 23.1562 29.6372H32.5312C32.7385 29.6372 32.9372 29.5558 33.0837 29.4108C33.2302 29.2659 33.3125 29.0693 33.3125 28.8643V25.7729C33.3125 25.5679 33.2302 25.3713 33.0837 25.2264C32.9372 25.0814 32.7385 25 32.5312 25ZM39.5625 59.0061H36.4375C36.2303 59.0061 36.0316 59.0875 35.8851 59.2325C35.7386 59.3774 35.6562 59.574 35.6562 59.779V62.8704C35.6562 63.0754 35.7386 63.272 35.8851 63.4169C36.0316 63.5619 36.2303 63.6433 36.4375 63.6433H39.5625C39.7697 63.6433 39.9684 63.5619 40.1149 63.4169C40.2614 63.272 40.3438 63.0754 40.3438 62.8704V59.779C40.3438 59.574 40.2614 59.3774 40.1149 59.2325C39.9684 59.0875 39.7697 59.0061 39.5625 59.0061Z" fill="#616161"/>
</g>
<defs>
<clipPath id="clip0_3093_39590">
<rect width="50" height="27" fill="white" transform="translate(13 25)"/>
</clipPath>
</defs>
</svg>
