<svg width="76" height="76" viewBox="0 0 76 76" fill="none" xmlns="http://www.w3.org/2000/svg">
<circle cx="38" cy="38" r="38" fill="#D7D6D6"/>
<path d="M28.4706 23.9604H25.2393C28.4603 21.0212 32.5795 19.2557 36.9294 18.9503C41.2792 18.6448 45.6047 19.8172 49.2049 22.2774H40.4871C35.0931 22.2774 33.8645 23.9604 28.4706 23.9604Z" fill="#999999"/>
<path d="M32.6695 40.7903H57.4515C57.0892 43.5613 56.1295 46.2206 54.6389 48.5844C53.1482 50.9482 51.1621 52.9602 48.8178 54.4813C47.5707 53.7117 46.1425 53.285 44.6776 53.2443C42.2541 53.2443 41.8502 54.2541 39.4267 54.2541H37.8279C36.8995 54.2536 35.9802 54.4362 35.1225 54.7914C34.2648 55.1466 33.4856 55.6675 32.8294 56.3242L32.4423 56.7197C30.1844 56.0137 28.0781 54.8921 26.2321 53.4126C26.5653 53.4091 26.8927 53.3245 27.1859 53.1662C27.4791 53.0078 27.7294 52.7805 27.9151 52.5038L28.3863 51.797C28.5721 51.5203 28.8223 51.293 29.1155 51.1346C29.4088 50.9763 29.7361 50.8917 30.0693 50.8882H33.2165C33.548 50.8771 33.8741 50.8009 34.1762 50.6638C34.4782 50.5267 34.7503 50.3315 34.9769 50.0892C35.2035 49.847 35.3802 49.5625 35.4969 49.252C35.6135 48.9415 35.6679 48.611 35.6568 48.2795C35.6458 47.948 35.5695 47.6219 35.4325 47.3199C35.2954 47.0178 35.1002 46.7457 34.8579 46.5191C34.6157 46.2925 34.3312 46.1158 34.0207 45.9992C33.7102 45.8825 33.3797 45.8282 33.0482 45.8392C32.5818 45.8394 32.1226 45.7243 31.7115 45.5041C31.3004 45.2839 30.9502 44.9654 30.692 44.577C30.4339 44.1886 30.0836 43.8701 29.6725 43.6498C29.2614 43.4296 28.8022 43.3145 28.3358 43.3147H19.5843C19.1365 41.6691 18.9101 39.9712 18.9111 38.2658C22.1677 38.2658 24.3724 38.047 27.3261 39.528C28.9846 40.3593 30.8144 40.7915 32.6695 40.7903Z" fill="#D9D9D9"/>
<path d="M25.7102 34.8999H19.2139C19.5139 33.1654 20.0519 31.4805 20.8127 29.8931C34.5627 32.6447 34.4365 32.7036 36.0774 32.7036C40.5036 32.7036 41.404 30.6925 45.8387 30.6925H56.0796C56.998 32.8242 57.5199 35.1055 57.6196 37.4244H34.8993C30.5403 37.4244 30.0018 34.8999 25.7102 34.8999Z" fill="url(#paint0_linear_2919_22263)"/>
<path d="M56.0798 30.6924H45.8389C44.1558 30.6945 42.4903 31.0351 40.9414 31.6938C38.6329 32.6882 36.0762 32.9554 33.612 32.4595L20.8129 29.893C21.8929 27.6491 23.3958 25.6348 25.2392 23.9604C28.765 23.9604 31.037 24.1035 34.4956 23.119C38.1897 22.0587 39.9484 22.2775 49.2048 22.2775C52.253 24.3684 54.6387 27.2884 56.0798 30.6924ZM19.2141 34.8998H25.7104C30.0104 34.8998 30.5321 37.4243 34.8322 37.4243H57.6198C57.6772 38.5483 57.6293 39.6752 57.4767 40.7903H32.6695C30.8132 40.8021 28.9809 40.3693 27.3261 39.528C24.3556 38.047 22.1593 38.2658 18.9111 38.2658L19.2141 34.8998ZM35.741 48.3637C35.741 49.0332 35.475 49.6754 35.0016 50.1488C34.5281 50.6222 33.886 50.8882 33.2165 50.8882H30.103C29.7698 50.8917 29.4424 50.9763 29.1492 51.1347C28.856 51.293 28.6057 51.5203 28.42 51.797L27.9488 52.5039C27.7609 52.7863 27.5056 53.0174 27.2058 53.1761C26.906 53.3348 26.5713 53.4161 26.2321 53.4127C22.9899 50.8474 20.6591 47.3069 19.5843 43.3148H28.3358C28.8022 43.3145 29.2614 43.4296 29.6725 43.6499C30.0836 43.8701 30.4338 44.1886 30.692 44.577C30.9502 44.9654 31.3004 45.2839 31.7115 45.5041C32.1226 45.7244 32.5818 45.8395 33.0482 45.8392C33.3936 45.8162 33.74 45.8644 34.066 45.9809C34.392 46.0973 34.6905 46.2796 34.9431 46.5164C35.1956 46.7532 35.3968 47.0393 35.534 47.3571C35.6713 47.6749 35.7417 48.0175 35.741 48.3637Z" fill="#616161"/>
<path d="M44.1547 50.8883C46.4784 50.8883 48.3622 49.7581 48.3622 48.3638C48.3622 46.9696 46.4784 45.8394 44.1547 45.8394C41.831 45.8394 39.9473 46.9696 39.9473 48.3638C39.9473 49.7581 41.831 50.8883 44.1547 50.8883Z" fill="#616161"/>
<path d="M48.8184 54.4814C46.4238 56.0448 43.7118 57.0566 40.8783 57.4437C38.0448 57.8308 35.1608 57.5836 32.4346 56.7198L32.8301 56.3243C33.4862 55.6675 34.2654 55.1467 35.1231 54.7914C35.9809 54.4362 36.9002 54.2537 37.8285 54.2542C39.5115 54.2542 40.5634 54.3468 42.036 53.7493C42.9624 53.3804 43.9563 53.2114 44.9526 53.2535C45.9489 53.2955 46.925 53.5477 47.817 53.9933L48.8184 54.4814Z" fill="#616161"/>
<path d="M46.6807 28.1678C48.075 28.1678 49.2052 27.4144 49.2052 26.4849C49.2052 25.5554 48.075 24.8019 46.6807 24.8019C45.2865 24.8019 44.1562 25.5554 44.1562 26.4849C44.1562 27.4144 45.2865 28.1678 46.6807 28.1678Z" fill="#999999"/>
<path d="M35.7399 29.0093C36.2047 29.0093 36.5814 28.6325 36.5814 28.1678C36.5814 27.703 36.2047 27.3263 35.7399 27.3263C35.2752 27.3263 34.8984 27.703 34.8984 28.1678C34.8984 28.6325 35.2752 29.0093 35.7399 29.0093Z" fill="#999999"/>
<path d="M31.5339 49.2051C31.9986 49.2051 32.3754 48.8283 32.3754 48.3636C32.3754 47.8988 31.9986 47.5221 31.5339 47.5221C31.0691 47.5221 30.6924 47.8988 30.6924 48.3636C30.6924 48.8283 31.0691 49.2051 31.5339 49.2051Z" fill="#999999"/>
<path d="M50.8874 44.9977C51.3521 44.9977 51.7289 44.6209 51.7289 44.1562C51.7289 43.6914 51.3521 43.3147 50.8874 43.3147C50.4226 43.3147 50.0459 43.6914 50.0459 44.1562C50.0459 44.6209 50.4226 44.9977 50.8874 44.9977Z" fill="#616161"/>
<path d="M41.6325 35.7413C42.0973 35.7413 42.474 35.3646 42.474 34.8998C42.474 34.4351 42.0973 34.0583 41.6325 34.0583C41.1678 34.0583 40.791 34.4351 40.791 34.8998C40.791 35.3646 41.1678 35.7413 41.6325 35.7413Z" fill="#616161"/>
<path d="M56.6476 20.6173H58.1321V22.1017H56.6476V20.6173ZM53.6787 20.6173H55.1632V22.1017H53.6787V20.6173ZM55.1632 19.1328H56.6476V20.6173H55.1632V19.1328ZM55.1632 22.1017H56.6476V23.5862H55.1632V22.1017Z" fill="#28252D"/>
<path d="M24.2277 56.2257H25.7121V57.7101H24.2277V56.2257ZM21.2588 56.2257H22.7432V57.7101H21.2588V56.2257ZM22.7432 54.7412H24.2277V56.2257H22.7432V54.7412ZM22.7432 57.7101H24.2277V59.1946H22.7432V57.7101Z" fill="#28252D"/>
<defs>
<linearGradient id="paint0_linear_2919_22263" x1="19.2139" y1="33.6545" x2="57.5943" y2="33.6545" gradientUnits="userSpaceOnUse">
<stop stop-color="#999999"/>
<stop offset="1" stop-color="#D9D9D9"/>
</linearGradient>
</defs>
</svg>
