<svg width="76" height="76" viewBox="0 0 76 76" fill="none" xmlns="http://www.w3.org/2000/svg">
<circle cx="38" cy="38" r="38" fill="#BBD0FF" fill-opacity="0.56"/>
<path d="M41.514 28.3143C41.3068 28.3137 41.1074 28.236 40.9545 28.0962C40.8016 27.9564 40.7063 27.7647 40.6872 27.5585C40.668 27.3522 40.7264 27.1462 40.851 26.9807C40.9756 26.8152 41.1574 26.7021 41.3608 26.6634L47.0209 25.5978C47.4728 25.5122 47.908 25.8101 47.9931 26.2619C48.034 26.4789 47.987 26.7032 47.8624 26.8856C47.7379 27.0679 47.546 27.1933 47.329 27.2341L41.669 28.2998C41.6179 28.3095 41.566 28.3144 41.514 28.3143Z" fill="#35495D"/>
<path d="M47.1514 23.5698L44.6572 20.542L42.5132 20.558L45.8664 24.6286C45.9445 24.7236 46.0427 24.8 46.1539 24.8525C46.2651 24.9049 46.3866 24.932 46.5095 24.9318C46.6673 24.9316 46.8218 24.8867 46.955 24.8021C47.0882 24.7176 47.1947 24.5969 47.2619 24.4542C47.3292 24.3114 47.3545 24.1525 47.335 23.996C47.3154 23.8394 47.2518 23.6916 47.1514 23.5698ZM21.5311 27.8887H33.7904C36.171 27.8887 38.1084 29.8063 38.1733 32.1712L38.0947 32.2733H23.9004C22.0353 32.2733 20.5234 30.7614 20.5234 28.8964C20.5234 28.6291 20.6296 28.3728 20.8186 28.1839C21.0076 27.9949 21.2639 27.8887 21.5311 27.8887Z" fill="#BA94E8"/>
<path d="M33.79 27.8887H31.3027C33.0789 27.8887 33.0533 32.2734 33.0533 32.2734H38.0944L38.1729 32.1712C38.108 29.8063 36.1707 27.8887 33.79 27.8887Z" fill="#BA94E8"/>
<path d="M21.9562 56.6386C25.9642 56.6386 29.2133 53.3895 29.2133 49.3815C29.2133 45.3736 25.9642 42.1245 21.9562 42.1245C17.9483 42.1245 14.6992 45.3736 14.6992 49.3815C14.6992 53.3895 17.9483 56.6386 21.9562 56.6386Z" fill="#35495D"/>
<path d="M21.9548 42.1246C21.0809 42.124 20.2142 42.2816 19.3965 42.5898C22.142 43.6245 24.0956 46.2745 24.0956 49.3819C24.0956 52.4892 22.142 55.1394 19.3965 56.174C20.2142 56.4822 21.0809 56.6398 21.9548 56.6391C25.9628 56.6391 29.2121 53.3899 29.2121 49.3818C29.212 45.3738 25.9628 42.1246 21.9548 42.1246Z" fill="#2A3A4C"/>
<path d="M21.9544 53.5023C19.6824 53.5023 17.834 51.654 17.834 49.382C17.834 47.1099 19.6823 45.2616 21.9544 45.2616C24.2264 45.2616 26.0747 47.1099 26.0747 49.382C26.0747 51.654 24.2264 53.5023 21.9544 53.5023Z" fill="#CADDEA"/>
<path d="M58.7434 56.6386C62.7513 56.6386 66.0004 53.3895 66.0004 49.3815C66.0004 45.3736 62.7513 42.1245 58.7434 42.1245C54.7354 42.1245 51.4863 45.3736 51.4863 49.3815C51.4863 53.3895 54.7354 56.6386 58.7434 56.6386Z" fill="#35495D"/>
<path d="M58.7427 42.1246C57.8707 42.124 57.0057 42.2809 56.1895 42.5878C58.9376 43.6212 60.8936 46.2727 60.8936 49.382C60.8936 52.4913 58.9376 55.1428 56.1895 56.1762C57.0057 56.4831 57.8707 56.64 58.7427 56.6394C62.7508 56.6394 66.0001 53.3902 66.0001 49.382C66.0001 45.3738 62.7509 42.1246 58.7427 42.1246Z" fill="#2A3A4C"/>
<path d="M58.7434 53.5023C56.4715 53.5023 54.623 51.654 54.623 49.382C54.623 47.1099 56.4714 45.2616 58.7434 45.2616C61.0155 45.2616 62.8638 47.1099 62.8638 49.382C62.8638 51.654 61.0155 53.5023 58.7434 53.5023Z" fill="#CADDEA"/>
<path d="M59.3811 50.4968C58.5623 50.9247 57.5516 50.6077 57.1237 49.7889L52.5273 40.9929L55.4926 39.4434L60.089 48.2394C60.5169 49.0583 60.2 50.0689 59.3811 50.4968Z" fill="#D0D1D2"/>
<path d="M64.0611 41.2509C62.659 38.5449 59.617 36.9315 56.3181 37.3156L49.3751 25.1237L46.5031 26.1521C46.5031 26.1521 50.9846 36.8784 48.9967 44.1887C48.7583 45.4268 47.6749 46.3217 46.414 46.3217H41.9418C41.8663 46.3217 41.7912 46.3204 41.7163 46.3179C37.4565 46.1739 34.6304 41.8234 36.0988 37.8222L38.1727 32.1712C38.1733 32.1696 38.1735 32.1678 38.1732 32.1661C38.173 32.1644 38.1724 32.1628 38.1714 32.1614C38.1704 32.16 38.1691 32.1589 38.1676 32.1581C38.166 32.1573 38.1644 32.1569 38.1626 32.1569H24.1648C16.3418 32.1567 10 38.4986 10 46.3217V48.6151C10 49.197 10.4718 49.6689 11.0538 49.6689H48.4522C50.3132 49.6689 51.9814 49.1483 52.6462 47.4099C52.9103 46.7193 53.3278 46.0945 53.8797 45.6024C57.0005 42.8194 61.334 42.406 63.3798 42.3795C63.9548 42.372 64.3256 41.7615 64.0611 41.2509Z" fill="#D3575E"/>
<path d="M24.7028 39.2072H19.4079C14.212 39.2072 10 43.4192 10 48.615C10 49.197 10.4718 49.6689 11.0538 49.6689H33.0569V47.5611C33.0569 42.9473 29.3166 39.2072 24.7028 39.2072Z" fill="#CDB4DB"/>
<path d="M27.1094 39.5609C27.5838 39.9021 27.894 40.4573 27.894 41.0864V49.6689H33.056V47.5611C33.056 43.7845 30.5492 40.5947 27.1094 39.5609Z" fill="#CDB4DB"/>
<path d="M53.5456 26.9009H46.2204C46.0749 26.9009 45.9354 26.8431 45.8325 26.7402C45.7297 26.6373 45.6719 26.4978 45.6719 26.3523V24.55C45.6719 24.3195 45.7489 24.0956 45.8906 23.9139C46.0323 23.7321 46.2307 23.6029 46.4542 23.5468L53.3918 21.8037C53.7905 21.7035 54.1769 22.0049 54.1769 22.4159V26.2697C54.1768 26.4371 54.1103 26.5976 53.9919 26.716C53.8735 26.8344 53.713 26.9009 53.5456 26.9009Z" fill="#F94730"/>
<path d="M53.3928 21.8035L51.0801 22.3846V26.9007H53.5466C53.714 26.9007 53.8746 26.8342 53.993 26.7158C54.1114 26.5974 54.1779 26.4368 54.1779 26.2694V22.4157C54.178 22.0048 53.7915 21.7034 53.3928 21.8035Z" fill="#E2EFFA"/>
<path d="M50.8345 49.2636C51.6437 48.9244 52.2893 48.3426 52.646 47.41C52.9176 46.6999 53.3554 46.064 53.9258 45.5614C57.0426 42.8157 61.3428 42.4059 63.3789 42.3795C63.9543 42.372 64.3254 41.7613 64.0606 41.2504C62.6584 38.5446 59.6165 36.9314 56.3178 37.3155C56.3178 37.3156 50.2663 42.4311 50.8345 49.2636Z" fill="#CDB4DB"/>
<path d="M39.7912 19.3968L43.3893 19.3607C43.4804 19.3599 43.5705 19.3793 43.6531 19.4178C43.7356 19.4562 43.8086 19.5126 43.8665 19.5829L45.5975 21.6833C45.6081 21.6962 45.6148 21.7118 45.617 21.7284C45.6191 21.745 45.6164 21.7618 45.6094 21.7769C45.6023 21.7921 45.5911 21.8049 45.5771 21.8139C45.563 21.8229 45.5467 21.8278 45.53 21.8279L40.4857 21.8655C39.8485 21.8655 39.332 21.349 39.332 20.7119V19.8561C39.332 19.7343 39.3804 19.6175 39.4665 19.5314C39.5526 19.4453 39.6694 19.3969 39.7912 19.3968Z" fill="#BA94E8"/>
</svg>
