<svg width="77" height="77" viewBox="0 0 77 77" fill="none" xmlns="http://www.w3.org/2000/svg">
<circle cx="38" cy="38" r="38" fill="#C7C3C3"/>
<path d="M16.2061 6.97322C8.82487 12.1623 3.53088 19.8085 1.27134 28.5437C-0.988192 37.2789 -0.0658221 46.5331 3.87342 54.6505C7.81265 62.7678 14.5117 69.2187 22.7719 72.8488C31.0322 76.4789 40.3146 77.0514 48.9583 74.4638C57.602 71.8762 65.043 66.2974 69.9498 58.7256C74.8567 51.1539 76.9092 42.0831 75.7402 33.1365C74.5712 24.1898 70.2568 15.9511 63.5692 9.89429C56.8816 3.83751 48.257 0.357963 39.2386 0.0782327L38.0605 38.06L16.2061 6.97322Z" fill="#BBD0FF"/>
<circle cx="37.9997" cy="37.4685" r="34.8112" fill="#E9E5E5"/>
<path d="M42.1552 59.8367C41.6087 60.0876 40.9634 59.8381 40.726 59.2856C38.3754 53.8163 37.1846 48.0232 37.1846 42.0491V37.424C37.1846 36.8338 37.6631 36.3552 38.2534 36.3552C38.8436 36.3552 39.3221 36.8338 39.3221 37.424V42.0491C39.3221 47.7321 40.4551 53.2428 42.6915 58.4455C42.9203 58.9777 42.6817 59.5951 42.1552 59.8367Z" fill="#616161"/>
<path d="M38.2534 36.3553C37.6631 36.3553 37.1846 36.8339 37.1846 37.4241V42.0493C37.1846 43.9879 37.3108 45.9073 37.5605 47.8029H39.7172C39.4543 45.9087 39.3221 43.989 39.3221 42.0493V37.4241C39.322 36.8339 38.8436 36.3553 38.2534 36.3553Z" fill="#616161"/>
<path d="M48.4525 54.3036L48.6157 54.3352C51.7289 54.9461 54.8684 53.3245 56.1272 50.4123C56.1425 50.3776 56.1574 50.3427 56.1715 50.3086C56.2165 50.2002 56.2593 50.0908 56.2996 49.9805C56.9364 48.231 56.9033 46.3486 56.2067 44.6798C56.0826 44.3821 55.9379 44.0935 55.7735 43.8159C56.0778 43.7091 56.3743 43.581 56.6606 43.4326C58.2669 42.6021 59.5023 41.1814 60.1391 39.4318C60.1791 39.3214 60.2166 39.2102 60.2517 39.0982C60.2629 39.0631 60.274 39.0267 60.2844 38.9903C61.1922 35.9503 59.8295 32.6899 57.052 31.1568L56.9066 31.0761C53.7717 29.346 49.8777 29.7761 47.217 32.1721C47.1684 32.2159 47.119 32.2605 47.07 32.3053C44.5231 34.6309 41.7809 36.3936 39.109 36.8074C38.3259 36.9287 37.9809 37.8765 38.5028 38.4729C40.2835 40.5073 41.2512 43.6203 41.7073 47.0389C41.716 47.1046 41.7253 47.1706 41.7343 47.2355C42.2325 50.7813 44.9389 53.6139 48.4525 54.3036Z" fill="url(#paint0_linear_2919_21704)"/>
<path d="M38.5047 38.4732C40.2854 40.5075 41.2531 43.6206 41.7092 47.0391C41.718 47.1049 41.7272 47.1709 41.7363 47.2357C42.2344 50.7814 44.9408 53.6139 48.4544 54.3036L48.6176 54.3352C51.7308 54.9461 54.8703 53.3245 56.1291 50.4123C56.1444 50.3776 56.1593 50.3427 56.1734 50.3086C56.2184 50.2002 56.2612 50.0908 56.3015 49.9805C56.9383 48.231 56.9052 46.3486 56.2086 44.6798C56.0845 44.3821 55.9398 44.0935 55.7755 43.8159L38.3186 37.4622C38.1995 37.789 38.2438 38.175 38.5047 38.4732Z" fill="url(#paint1_linear_2919_21704)"/>
<path d="M48.4525 54.3037L48.6157 54.3353C51.0449 54.812 53.49 53.9294 55.0453 52.135L46.1679 33.0974C43.882 35.025 41.468 36.4423 39.109 36.8077C38.3259 36.929 37.9809 37.8768 38.5028 38.4731C40.2835 40.5075 41.2512 43.6205 41.7073 47.0391C41.716 47.1049 41.7253 47.1709 41.7343 47.2357C42.2325 50.7814 44.9389 53.614 48.4525 54.3037Z" fill="url(#paint2_linear_2919_21704)"/>
<path d="M53.9688 30.1019C51.5703 29.7743 49.0886 30.487 47.217 32.1723C47.1684 32.2161 47.119 32.2608 47.07 32.3056C44.5231 34.6311 41.7809 36.3938 39.109 36.8076C38.3259 36.9289 37.9809 37.8768 38.5028 38.4731C40.2835 40.5075 41.2512 43.6205 41.7073 47.0391C41.716 47.1049 41.7253 47.1708 41.7343 47.2357C42.0847 49.7297 43.5277 51.8709 45.5757 53.1616L53.9688 30.1019Z" fill="url(#paint3_linear_2919_21704)"/>
<path d="M28.0558 54.3036L27.8926 54.3352C24.7794 54.9461 21.6399 53.3245 20.3811 50.4123C20.3659 50.3779 20.3511 50.3433 20.3368 50.3086C20.2917 50.2002 20.249 50.0908 20.2087 49.9805C19.5719 48.2309 19.605 46.3486 20.3016 44.6798C20.4257 44.3821 20.5704 44.0935 20.7347 43.8159C20.4304 43.7091 20.134 43.581 19.8477 43.4326C18.2413 42.6021 17.006 41.1814 16.3692 39.4318C16.3165 39.2861 16.268 39.1388 16.2238 38.9903C15.316 35.9503 16.6787 32.6899 19.4562 31.1568L19.6016 31.0761C22.7365 29.346 26.6305 29.7761 29.2912 32.1721C29.3398 32.2159 29.3892 32.2605 29.4382 32.3053C31.9851 34.6309 34.7273 36.3936 37.3992 36.8074C38.1823 36.9287 38.5273 37.8765 38.0054 38.4729C36.2247 40.5073 35.257 43.6203 34.8009 47.0389C34.7922 47.1046 34.7829 47.1706 34.7739 47.2355C34.2757 50.7813 31.5693 53.6139 28.0558 54.3036Z" fill="url(#paint4_linear_2919_21704)"/>
<path d="M38.0054 38.4732C36.2247 40.5075 35.257 43.6206 34.8009 47.0391C34.7921 47.1049 34.7829 47.1709 34.7738 47.2357C34.2757 50.7814 31.5693 53.6139 28.0557 54.3036L27.8925 54.3352C24.7793 54.9461 21.6398 53.3245 20.381 50.4123C20.3658 50.3779 20.351 50.3433 20.3367 50.3086C20.2916 50.2002 20.2489 50.0908 20.2086 49.9805C19.5718 48.231 19.6049 46.3486 20.3015 44.6798C20.4256 44.3821 20.5703 44.0935 20.7346 43.8159L38.1915 37.4622C38.3106 37.789 38.2663 38.175 38.0054 38.4732Z" fill="url(#paint5_linear_2919_21704)"/>
<path d="M28.0576 54.3036L27.8944 54.3352C25.4652 54.8119 23.0201 53.9293 21.4648 52.1349L30.3422 33.0974C32.6281 35.025 35.0421 36.4423 37.4011 36.8077C38.1842 36.929 38.5292 37.8768 38.0073 38.4731C36.2266 40.5075 35.2589 43.6205 34.8028 47.0391C34.7941 47.1049 34.7848 47.1709 34.7757 47.2357C34.2775 50.7813 31.5711 53.6139 28.0576 54.3036Z" fill="url(#paint6_linear_2919_21704)"/>
<path d="M22.54 30.1019C24.9385 29.7743 27.4202 30.487 29.2918 32.1723C29.3405 32.2161 29.3899 32.2608 29.4389 32.3056C31.9858 34.6311 34.728 36.3938 37.3998 36.8076C38.1829 36.9289 38.528 37.8768 38.006 38.4731C36.2253 40.5075 35.2576 43.6205 34.8015 47.0391C34.7928 47.1049 34.7836 47.1708 34.7745 47.2357C34.4242 49.7297 32.9812 51.8709 30.9332 53.1616L22.54 30.1019Z" fill="url(#paint7_linear_2919_21704)"/>
<path d="M50.6128 22.371L50.5868 22.2067C50.0961 19.0723 47.4984 16.6767 44.3313 16.49C44.2938 16.4875 44.2563 16.4854 44.2187 16.4838C44.1014 16.4785 43.9841 16.4758 43.8667 16.4756C42.0048 16.4756 40.2473 17.1505 38.9175 18.3758C38.6801 18.5942 38.4584 18.829 38.2539 19.0783C38.0493 18.829 37.8276 18.5942 37.5902 18.3758C36.2605 17.1506 34.5029 16.4758 32.6411 16.4758C32.5244 16.4758 32.4062 16.4788 32.2891 16.484C32.2522 16.4855 32.2144 16.4875 32.1765 16.4901C29.0094 16.6769 26.4117 19.0724 25.921 22.2069L25.895 22.3712C25.3413 25.9088 27.0774 29.4207 30.2388 31.1015C30.2966 31.1321 30.3555 31.1633 30.4144 31.1941C33.4707 32.792 36.065 34.766 37.3677 37.1352C37.7495 37.8296 38.7583 37.8296 39.1401 37.1352C40.4428 34.766 43.0371 32.7921 46.0934 31.1941C46.1523 31.1634 46.2111 31.1322 46.2689 31.1015C49.4304 29.4206 51.1665 25.9086 50.6128 22.371Z" fill="url(#paint8_linear_2919_21704)"/>
<path d="M39.1421 37.135C40.4448 34.7659 43.0391 32.7919 46.0954 31.194C46.1543 31.1633 46.2131 31.1321 46.271 31.1013C49.4324 29.4205 51.1685 25.9085 50.6148 22.371L50.5888 22.2067C50.0981 19.0724 47.5004 16.6768 44.3333 16.4901C44.2958 16.4875 44.2583 16.4855 44.2207 16.4839C44.1035 16.4786 43.9861 16.4759 43.8687 16.4757C42.0068 16.4757 40.2493 17.1506 38.9195 18.376C38.6821 18.5944 38.4604 18.8291 38.2559 19.0785V37.6557C38.6035 37.6558 38.9511 37.4822 39.1421 37.135Z" fill="url(#paint9_linear_2919_21704)"/>
<path d="M50.6146 22.3709L50.5886 22.2067C50.2058 19.7609 48.54 17.7652 46.3219 16.9175L31.4688 31.7706C34.0618 33.2595 36.2194 35.0431 37.3695 37.1349C37.7513 37.8293 38.7601 37.8293 39.1419 37.1349C40.4446 34.7657 43.0389 32.7918 46.0952 31.1938C46.1541 31.1631 46.2129 31.1319 46.2708 31.1012C49.4322 29.4205 51.1683 25.9085 50.6146 22.3709Z" fill="url(#paint10_linear_2919_21704)"/>
<path d="M25.9863 25.4648C26.4988 27.8307 28.0173 29.9191 30.2412 31.1013C30.2989 31.132 30.3578 31.1632 30.4167 31.194C33.473 32.7918 36.0674 34.7658 37.37 37.135C37.7518 37.8294 38.7606 37.8294 39.1424 37.135C40.4451 34.7659 43.0394 32.7919 46.0957 31.194C46.1546 31.1633 46.2134 31.1321 46.2713 31.1013C48.4951 29.9191 50.0136 27.8307 50.5261 25.4648H25.9863Z" fill="url(#paint11_linear_2919_21704)"/>
<defs>
<linearGradient id="paint0_linear_2919_21704" x1="49.4089" y1="30.024" x2="49.4089" y2="54.4631" gradientUnits="userSpaceOnUse">
<stop stop-color="#616161"/>
<stop offset="1" stop-color="#999999" stop-opacity="0"/>
</linearGradient>
<linearGradient id="paint1_linear_2919_21704" x1="47.506" y1="37.4622" x2="47.506" y2="54.4631" gradientUnits="userSpaceOnUse">
<stop stop-color="#616161"/>
<stop offset="1" stop-color="#999999"/>
</linearGradient>
<linearGradient id="paint2_linear_2919_21704" x1="46.6496" y1="33.0974" x2="46.6496" y2="54.4632" gradientUnits="userSpaceOnUse">
<stop stop-color="#616161"/>
<stop offset="1" stop-color="#939393"/>
</linearGradient>
<linearGradient id="paint3_linear_2919_21704" x1="46.1114" y1="30.0243" x2="46.1114" y2="53.1616" gradientUnits="userSpaceOnUse">
<stop stop-color="#939393"/>
<stop offset="1" stop-color="#616161"/>
</linearGradient>
<linearGradient id="paint4_linear_2919_21704" x1="27.0993" y1="30.024" x2="27.0993" y2="54.4631" gradientUnits="userSpaceOnUse">
<stop stop-color="#616161"/>
<stop offset="1" stop-color="#C0BECA" stop-opacity="0"/>
<stop offset="1" stop-color="#9BA1AA"/>
</linearGradient>
<linearGradient id="paint5_linear_2919_21704" x1="29.0041" y1="37.4622" x2="29.0041" y2="54.4631" gradientUnits="userSpaceOnUse">
<stop stop-color="#9BA1AA"/>
<stop offset="1" stop-color="#616161"/>
</linearGradient>
<linearGradient id="paint6_linear_2919_21704" x1="37.4691" y1="38" x2="20.4621" y2="43.5804" gradientUnits="userSpaceOnUse">
<stop stop-color="#616161"/>
<stop offset="1" stop-color="#999999"/>
</linearGradient>
<linearGradient id="paint7_linear_2919_21704" x1="30.3975" y1="30.0243" x2="30.3975" y2="53.1616" gradientUnits="userSpaceOnUse">
<stop stop-color="#616161"/>
<stop offset="1" stop-color="#C0BECA" stop-opacity="0"/>
</linearGradient>
<linearGradient id="paint8_linear_2919_21704" x1="38.2539" y1="16.4756" x2="38.2539" y2="37.656" gradientUnits="userSpaceOnUse">
<stop stop-color="#616161"/>
<stop offset="0.489583" stop-color="#9BA1AA"/>
<stop offset="1" stop-color="#616161" stop-opacity="0"/>
</linearGradient>
<linearGradient id="paint9_linear_2919_21704" x1="44.4863" y1="16.4757" x2="44.4863" y2="37.6557" gradientUnits="userSpaceOnUse">
<stop stop-color="#616161"/>
<stop offset="1" stop-color="#999999"/>
</linearGradient>
<linearGradient id="paint10_linear_2919_21704" x1="41.0927" y1="16.9175" x2="41.0927" y2="37.6557" gradientUnits="userSpaceOnUse">
<stop stop-color="#616161"/>
<stop offset="0.442708" stop-color="#9BA1AA"/>
<stop offset="1" stop-color="#999999"/>
</linearGradient>
<linearGradient id="paint11_linear_2919_21704" x1="38.2562" y1="25.4648" x2="38.2562" y2="37.6558" gradientUnits="userSpaceOnUse">
<stop stop-color="#999999"/>
<stop offset="0.507353" stop-color="#616161" stop-opacity="0.494792"/>
<stop offset="1" stop-color="#69696A"/>
</linearGradient>
</defs>
</svg>
