<svg width="77" height="77" viewBox="0 0 77 77" fill="none" xmlns="http://www.w3.org/2000/svg">
<circle cx="38" cy="38" r="38" fill="#C7C3C3"/>
<circle cx="37.9997" cy="38" r="34.8112" fill="#E9E5E5"/>
<path d="M16.2061 6.97334C8.82487 12.1624 3.53088 19.8086 1.27134 28.5438C-0.988192 37.279 -0.0658221 46.5332 3.87342 54.6506C7.81265 62.7679 14.5117 69.2188 22.7719 72.8489C31.0322 76.479 40.3146 77.0515 48.9583 74.4639C57.602 71.8763 65.043 66.2976 69.9498 58.7258C74.8567 51.154 76.9092 42.0833 75.7402 33.1366C74.5712 24.19 70.2568 15.9512 63.5692 9.89441C56.8816 3.83763 48.257 0.358085 39.2386 0.0783547L38.0605 38.0601L16.2061 6.97334Z" fill="#BBD0FF"/>
<circle cx="37.9997" cy="38" r="34.8112" fill="#E9E5E5"/>
<path d="M36.4295 17.9181C34.0732 16.4072 30.9719 16.8096 29.0787 18.8712C26.4972 21.6829 26.4972 26.0025 29.0787 28.814L38.0007 38.5314L46.9227 28.814C49.5039 26.0025 49.5042 21.6829 46.9227 18.8712C45.0296 16.8096 41.9281 16.4072 39.572 17.9181C39.103 18.2187 38.5577 18.3785 38.0007 18.3785C37.4437 18.3785 36.8984 18.2187 36.4295 17.9181Z" fill="url(#paint0_linear_2919_21600)"/>
<path d="M36.8307 23.1789C35.0759 22.0537 32.766 22.3533 31.3561 23.8891C29.4334 25.9828 29.4334 29.2002 31.3561 31.294L38.001 38.5314L44.6459 31.294C46.5685 29.2002 46.5685 25.9828 44.6459 23.8891C43.2359 22.3533 40.926 22.0537 39.1712 23.1789C38.822 23.4028 38.4158 23.5218 38.001 23.5218C37.5861 23.5218 37.18 23.4028 36.8307 23.1789Z" fill="url(#paint1_linear_2919_21600)"/>
<path d="M46.922 18.8712C45.0289 16.8096 41.9275 16.4072 39.5712 17.9181C39.1024 18.2189 38.557 18.3787 38 18.3786V38.5314L46.922 28.814C49.5032 26.0025 49.5032 21.6829 46.922 18.8712Z" fill="url(#paint2_linear_2919_21600)"/>
<path d="M39.572 59.1447C41.9281 60.6556 45.0296 60.2532 46.9227 58.1916C49.5042 55.3799 49.5039 51.0603 46.9227 48.2488L38.0007 38.5314L29.0787 48.2488C26.4972 51.0603 26.4972 55.3799 29.0787 58.1916C30.9718 60.2532 34.0732 60.6556 36.4294 59.1447C36.8983 58.8441 37.4436 58.6844 38.0006 58.6844C38.5576 58.6844 39.103 58.8441 39.572 59.1447Z" fill="url(#paint3_linear_2919_21600)"/>
<path d="M39.1712 53.8839C40.926 55.0091 43.236 54.7095 44.6459 53.1737C46.5685 51.08 46.5685 47.8626 44.6459 45.7685L38.001 38.5314L31.3561 45.7685C29.4334 47.8626 29.4334 51.08 31.3561 53.1737C32.7661 54.7095 35.0759 55.0091 36.8307 53.8839C37.18 53.66 37.5861 53.541 38.001 53.541C38.4158 53.541 38.822 53.66 39.1712 53.8839Z" fill="url(#paint4_linear_2919_21600)"/>
<path d="M29.0787 58.1916C30.9718 60.2532 34.0732 60.6556 36.4294 59.1447C36.8982 58.8439 37.4436 58.6841 38.0007 58.6843V38.5314L29.0787 48.2488C26.4972 51.0603 26.4972 55.3799 29.0787 58.1916Z" fill="url(#paint5_linear_2919_21600)"/>
<path d="M58.6134 36.9603C60.1242 34.604 59.7219 31.5027 57.6602 29.6095C54.8485 27.0283 50.5289 27.0283 47.7175 29.6095L38 38.5315L47.7175 47.4535C50.5289 50.0347 54.8485 50.035 57.6602 47.4535C59.7219 45.5604 60.1242 42.4589 58.6134 40.1028C58.3128 39.6339 58.153 39.0885 58.153 38.5315C58.153 37.9745 58.3128 37.4292 58.6134 36.9603Z" fill="url(#paint6_linear_2919_21600)"/>
<path d="M53.3525 37.3613C54.4777 35.6064 54.1782 33.2965 52.6423 31.8866C50.5486 29.9639 47.3312 29.9639 45.2371 31.8866L38 38.5315L45.2371 45.1764C47.3312 47.0991 50.5486 47.0991 52.6423 45.1764C54.1782 43.7664 54.4777 41.4565 53.3525 39.7017C53.1286 39.3525 53.0096 38.9463 53.0096 38.5315C53.0096 38.1166 53.1286 37.7105 53.3525 37.3613Z" fill="url(#paint7_linear_2919_21600)"/>
<path d="M57.6602 47.4533C59.7219 45.5603 60.1242 42.4588 58.6134 40.1026C58.3126 39.6338 58.1528 39.0884 58.1529 38.5314H38L47.7175 47.4533C50.5289 50.0346 54.8485 50.0346 57.6602 47.4533Z" fill="url(#paint8_linear_2919_21600)"/>
<path d="M17.3867 40.1027C15.8759 42.4589 16.2782 45.5604 18.3398 47.4534C21.1515 50.0349 25.4711 50.0347 28.2826 47.4534L38.0001 38.5314L28.2826 29.6095C25.4711 27.028 21.1515 27.028 18.3398 29.6095C16.2782 31.5025 15.8759 34.604 17.3867 36.9602C17.6873 37.4291 17.8471 37.9744 17.8471 38.5314C17.8471 39.0884 17.6873 39.6338 17.3867 40.1027Z" fill="url(#paint9_linear_2919_21600)"/>
<path d="M22.6473 39.7017C21.5221 41.4565 21.8217 43.7665 23.3575 45.1764C25.4512 47.0991 28.6686 47.0991 30.7624 45.1764L37.9998 38.5315L30.7624 31.8866C28.6686 29.9639 25.4512 29.9639 23.3575 31.8866C21.8217 33.2966 21.5221 35.6064 22.6473 37.3613C22.8712 37.7105 22.9902 38.1166 22.9902 38.5315C22.9902 38.9463 22.8712 39.3525 22.6473 39.7017Z" fill="url(#paint10_linear_2919_21600)"/>
<path d="M18.3398 29.6095C16.2782 31.5025 15.8759 34.604 17.3867 36.9602C17.6875 37.429 17.8474 37.9744 17.8472 38.5314H38.0001L28.2826 29.6095C25.4711 27.028 21.1515 27.028 18.3398 29.6095Z" fill="url(#paint11_linear_2919_21600)"/>
<defs>
<linearGradient id="paint0_linear_2919_21600" x1="34.6801" y1="27.7692" x2="44.7325" y2="27.7692" gradientUnits="userSpaceOnUse">
<stop stop-color="#9BA1AA"/>
<stop offset="0.456" stop-color="#9BA1AA"/>
<stop offset="1" stop-color="#999999"/>
</linearGradient>
<linearGradient id="paint1_linear_2919_21600" x1="37.8294" y1="28.0334" x2="33.1665" y2="40.0438" gradientUnits="userSpaceOnUse">
<stop stop-color="#999999"/>
<stop offset="0.107" stop-color="#9BA1AA"/>
<stop offset="0.455" stop-color="#616161"/>
<stop offset="0.764" stop-color="#616161"/>
<stop offset="1" stop-color="#939393"/>
</linearGradient>
<linearGradient id="paint2_linear_2919_21600" x1="42.1485" y1="24.2098" x2="33.4586" y2="38.0571" gradientUnits="userSpaceOnUse">
<stop stop-color="#999999"/>
<stop offset="0.107" stop-color="#9BA1AA"/>
<stop offset="0.455" stop-color="#616161"/>
<stop offset="0.764" stop-color="#616161"/>
<stop offset="1" stop-color="#616161"/>
</linearGradient>
<linearGradient id="paint3_linear_2919_21600" x1="41.3212" y1="49.2935" x2="31.2689" y2="49.2935" gradientUnits="userSpaceOnUse">
<stop stop-color="#9BA1AA"/>
<stop offset="0.456" stop-color="#9BA1AA"/>
<stop offset="1" stop-color="#616161"/>
</linearGradient>
<linearGradient id="paint4_linear_2919_21600" x1="38.1725" y1="49.0294" x2="42.8354" y2="37.019" gradientUnits="userSpaceOnUse">
<stop stop-color="#999999"/>
<stop offset="0.107" stop-color="#9BA1AA"/>
<stop offset="0.455" stop-color="#616161"/>
<stop offset="0.764" stop-color="#616161"/>
<stop offset="1" stop-color="#939393"/>
</linearGradient>
<linearGradient id="paint5_linear_2919_21600" x1="33.8522" y1="52.853" x2="42.5421" y2="39.0057" gradientUnits="userSpaceOnUse">
<stop stop-color="#999999"/>
<stop offset="0.107" stop-color="#9BA1AA"/>
<stop offset="0.455" stop-color="#616161"/>
<stop offset="0.764" stop-color="#616161"/>
<stop offset="1" stop-color="#939393"/>
</linearGradient>
<linearGradient id="paint6_linear_2919_21600" x1="48.7622" y1="35.211" x2="48.7622" y2="45.2633" gradientUnits="userSpaceOnUse">
<stop stop-color="#9BA1AA"/>
<stop offset="0.456" stop-color="#999999"/>
<stop offset="1" stop-color="#999999"/>
</linearGradient>
<linearGradient id="paint7_linear_2919_21600" x1="48.4981" y1="38.3599" x2="36.4878" y2="33.6971" gradientUnits="userSpaceOnUse">
<stop stop-color="#999999"/>
<stop offset="0.107" stop-color="#9BA1AA"/>
<stop offset="0.455" stop-color="#616161"/>
<stop offset="0.764" stop-color="#616161"/>
<stop offset="1" stop-color="#939393"/>
</linearGradient>
<linearGradient id="paint8_linear_2919_21600" x1="52.3216" y1="42.6798" x2="38.4743" y2="33.9899" gradientUnits="userSpaceOnUse">
<stop stop-color="#999999"/>
<stop offset="0.107" stop-color="#616161"/>
<stop offset="0.455" stop-color="#616161"/>
<stop offset="0.764" stop-color="#616161"/>
<stop offset="1" stop-color="#616161"/>
</linearGradient>
<linearGradient id="paint9_linear_2919_21600" x1="27.2378" y1="41.852" x2="27.2378" y2="31.7996" gradientUnits="userSpaceOnUse">
<stop stop-color="#9BA1AA"/>
<stop offset="0.456" stop-color="#999999"/>
<stop offset="1" stop-color="#999999"/>
</linearGradient>
<linearGradient id="paint10_linear_2919_21600" x1="27.5017" y1="38.703" x2="39.5121" y2="43.3659" gradientUnits="userSpaceOnUse">
<stop stop-color="#9BA1AA"/>
<stop offset="0.107" stop-color="#999999"/>
<stop offset="0.455" stop-color="#616161"/>
<stop offset="0.764" stop-color="#616161"/>
<stop offset="1" stop-color="#939393"/>
</linearGradient>
<linearGradient id="paint11_linear_2919_21600" x1="23.6784" y1="34.383" x2="37.5257" y2="43.0729" gradientUnits="userSpaceOnUse">
<stop stop-color="#999999"/>
<stop offset="0.107" stop-color="#9BA1AA"/>
<stop offset="0.455" stop-color="#616161"/>
<stop offset="0.764" stop-color="#616161"/>
<stop offset="1" stop-color="#616161"/>
</linearGradient>
</defs>
</svg>
