<svg width="76" height="77" viewBox="0 0 76 77" fill="none" xmlns="http://www.w3.org/2000/svg">
<circle cx="38" cy="38.5" r="38" fill="#BBD0FF" fill-opacity="0.56"/>
<g clip-path="url(#clip0_3093_37464)">
<path d="M40.5895 59.3333C43.9579 59.3333 47.2259 60.4416 49.8922 62.4999C46.3246 64.26 42.3968 65.1727 38.4164 65.1666C32.1979 65.1666 26.4809 62.9833 22.0176 59.3333H40.5895Z" fill="#519BE5"/>
<path d="M51.8938 54.3333H59.5165C57.032 57.8027 53.7276 60.6078 49.8962 62.4999C47.2299 60.4416 43.9618 59.3333 40.5935 59.3333H22.0215C20.2404 57.8815 18.6608 56.2001 17.3242 54.3333H31.3159C32.6699 54.3333 33.9905 53.8916 35.0771 53.0833C36.1636 52.2749 37.4842 51.8333 38.8382 51.8333H45.8424C46.9791 51.8333 48.0657 52.2833 48.8681 53.0833C49.6705 53.8833 50.7571 54.3333 51.8938 54.3333Z" fill="#327DD8"/>
<path d="M27.5522 51C29.8602 51 31.7313 49.1345 31.7313 46.8333C31.7313 44.5321 29.8602 42.6666 27.5522 42.6666C25.2441 42.6666 23.373 44.5321 23.373 46.8333C23.373 49.1345 25.2441 51 27.5522 51Z" fill="#8CCAF4"/>
<path d="M39.2537 48.5C40.1769 48.5 40.9253 47.7538 40.9253 46.8333C40.9253 45.9128 40.1769 45.1666 39.2537 45.1666C38.3305 45.1666 37.582 45.9128 37.582 46.8333C37.582 47.7538 38.3305 48.5 39.2537 48.5Z" fill="#8CCAF4"/>
<path d="M49.9791 45.1667H63.6698C62.8925 48.5167 61.4633 51.6167 59.5158 54.3333H51.8931C50.7564 54.3333 49.6698 53.8833 48.8675 53.0833C48.0651 52.2833 46.9785 51.8333 45.8418 51.8333H38.8376C37.4836 51.8333 36.163 52.275 35.0764 53.0833C33.9898 53.8917 32.6692 54.3333 31.3152 54.3333H17.3236C14.8997 50.9583 13.2782 46.975 12.7266 42.6667H15.9278C16.9892 42.6667 18.0257 42.4833 19.0036 42.1333C19.9815 41.7833 20.8925 41.2583 21.7033 40.5833C23.3248 39.2333 25.3642 38.5 27.4788 38.5H29.0585C30.7887 38.5 32.4687 39.0917 33.8227 40.1667C35.1767 41.2417 36.8567 41.8333 38.5869 41.8333H41.9051C43.4179 41.8333 44.8722 42.4333 45.9421 43.5C47.0119 44.5667 48.4663 45.1667 49.9791 45.1667ZM40.4374 48.0117C41.0876 47.3633 41.0876 46.3025 40.4374 45.655C39.7871 45.0075 38.7231 45.0067 38.0737 45.655C37.4242 46.3033 37.4234 47.3642 38.0737 48.0117C38.7239 48.6592 39.7879 48.66 40.4374 48.0117ZM31.7331 46.8333C31.7331 44.5333 29.8609 42.6667 27.554 42.6667C25.2472 42.6667 23.3749 44.5333 23.3749 46.8333C23.3749 49.1333 25.2472 51 27.554 51C29.8609 51 31.7331 49.1333 31.7331 46.8333Z" fill="#999999"/>
<path d="M54.2984 40.9999C56.1448 40.9999 57.6416 39.5075 57.6416 37.6666C57.6416 35.8256 56.1448 34.3333 54.2984 34.3333C52.4519 34.3333 50.9551 35.8256 50.9551 37.6666C50.9551 39.5075 52.4519 40.9999 54.2984 40.9999Z" fill="#2368CC"/>
<path d="M58.8966 23.5H54.8095C53.5641 23.5 52.3438 23.2833 51.1987 22.8583C50.0536 22.4333 48.9754 21.8083 48.031 21C46.142 19.3833 43.7348 18.5 41.2524 18.5H35.2763C33.0066 18.5005 30.8299 19.3998 29.225 21C27.6202 22.6 25.4387 23.5 23.1736 23.5H17.9414C22.6805 17.4167 30.0942 13.5 38.419 13.5C46.7438 13.5 54.1575 17.4167 58.8966 23.5Z" fill="#327DD8"/>
<path d="M41.7613 29.3333C43.6077 29.3333 45.1045 27.8409 45.1045 26C45.1045 24.159 43.6077 22.6666 41.7613 22.6666C39.9148 22.6666 38.418 24.159 38.418 26C38.418 27.8409 39.9148 29.3333 41.7613 29.3333Z" fill="#8CCAF4"/>
<path d="M30.8963 29.3333C31.8195 29.3333 32.5679 28.5871 32.5679 27.6667C32.5679 26.7462 31.8195 26 30.8963 26C29.973 26 29.2246 26.7462 29.2246 27.6667C29.2246 28.5871 29.973 29.3333 30.8963 29.3333Z" fill="#8CCAF4"/>
<path d="M62.6504 30.1667H51.6509C50.1381 30.1667 48.6838 30.7667 47.6139 31.8333C46.5441 32.9 45.0898 33.5 43.5769 33.5H29.0838C27.5709 33.5 26.1166 32.9 25.0468 31.8333C23.9769 30.7667 22.5226 30.1667 21.0098 30.1667H14.1895C15.1089 27.75 16.3793 25.5083 17.9423 23.5H23.1745C25.4396 23.5 27.6211 22.6 29.2259 21C30.8308 19.3998 33.0074 18.5005 35.2772 18.5H41.2533C43.7357 18.5 46.1429 19.3833 48.0318 21C48.9763 21.8083 50.0545 22.4333 51.1996 22.8583C52.3447 23.2833 53.565 23.5 54.8104 23.5H58.8975C60.4605 25.5083 61.7309 27.75 62.6504 30.1667ZM45.1065 26C45.1065 24.1583 43.6104 22.6667 41.7632 22.6667C39.916 22.6667 38.4199 24.1583 38.4199 26C38.4199 27.8417 39.916 29.3333 41.7632 29.3333C43.6104 29.3333 45.1065 27.8417 45.1065 26ZM32.5692 27.6667C32.5692 26.75 31.8169 26 30.8975 26C29.9781 26 29.2259 26.75 29.2259 27.6667C29.2259 28.5833 29.9781 29.3333 30.8975 29.3333C31.8169 29.3333 32.5692 28.5833 32.5692 27.6667Z" fill="#999999"/>
<path d="M64.3287 39.3333C64.3287 41.3416 64.103 43.2916 63.6684 45.1666H49.9777C48.4648 45.1666 47.0105 44.5666 45.9407 43.5C44.8708 42.4333 43.4165 41.8333 41.9036 41.8333H38.5854C36.8553 41.8333 35.1753 41.2416 33.8212 40.1666C32.4672 39.0916 30.7872 38.5 29.0571 38.5H27.4774C25.3627 38.5 23.3233 39.2333 21.7018 40.5833C20.8911 41.2583 19.9801 41.7833 19.0021 42.1333C18.0242 42.4833 16.9878 42.6666 15.9263 42.6666H12.7251C12.583 41.575 12.5078 40.4583 12.5078 39.3333C12.5078 36.1083 13.1012 33.0166 14.1878 30.1666H21.0081C22.5209 30.1666 23.9753 30.7666 25.0451 31.8333C26.115 32.9 27.5693 33.5 29.0821 33.5H43.5753C45.0881 33.5 46.5424 32.9 47.6123 31.8333C48.6821 30.7666 50.1365 30.1666 51.6493 30.1666H62.6487C63.7353 33.0166 64.3287 36.1083 64.3287 39.3333ZM57.6421 37.6666C57.6421 35.825 56.146 34.3333 54.2989 34.3333C52.4517 34.3333 50.9556 35.825 50.9556 37.6666C50.9556 39.5083 52.4517 41 54.2989 41C56.146 41 57.6421 39.5083 57.6421 37.6666ZM19.5404 34.8216C18.8901 34.1733 17.8261 34.1733 17.1767 34.8216C16.5273 35.47 16.5264 36.5308 17.1767 37.1783C17.827 37.8258 18.891 37.8266 19.5404 37.1783C20.1898 36.53 20.1907 35.4691 19.5404 34.8216Z" fill="#327DD8"/>
<path d="M18.3591 37.6666C19.2824 37.6666 20.0308 36.9204 20.0308 35.9999C20.0308 35.0794 19.2824 34.3333 18.3591 34.3333C17.4359 34.3333 16.6875 35.0794 16.6875 35.9999C16.6875 36.9204 17.4359 37.6666 18.3591 37.6666Z" fill="#2368CC"/>
<path d="M63.4301 29.8708C62.4886 27.3978 61.183 25.0785 59.5561 22.9891C54.4459 16.4291 46.7413 12.6666 38.4182 12.6666C30.0951 12.6666 22.3905 16.4291 17.2803 22.9891C15.6536 25.0783 14.3479 27.3974 13.4062 29.87C12.2547 32.8924 11.6669 36.0993 11.6719 39.3325C11.6719 40.4725 11.7471 41.63 11.8959 42.7708C12.4564 47.1152 14.0871 51.2536 16.6425 54.8166C18.0219 56.743 19.6521 58.478 21.4903 59.9758C26.2394 63.86 32.2507 65.9983 38.419 65.9983C42.5797 65.9983 46.5658 65.0716 50.2668 63.245C54.2198 61.2903 57.6297 58.3957 60.1955 54.8166C63.4416 50.3032 65.1804 44.8855 65.1653 39.3316C65.1702 36.0984 64.5825 32.8916 63.431 29.8691L63.4301 29.8708ZM24.5787 60.1666H40.5913C43.2843 60.1666 45.9397 60.9408 48.2115 62.355C45.1153 63.6695 41.7834 64.3426 38.4182 64.3333C33.495 64.3275 28.6822 62.8785 24.5787 60.1666ZM62.8534 44.9791C62.145 48.0323 60.8619 50.9238 59.0721 53.5H51.8916C50.9722 53.5 50.1071 53.1425 49.4569 52.4941C48.9831 52.019 48.4195 51.6423 47.7987 51.3858C47.1779 51.1293 46.5122 50.9982 45.8403 51H38.8361C37.3 51.0047 35.8061 51.501 34.5742 52.4158C33.6318 53.1158 32.4889 53.4959 31.3137 53.5H25.8809C25.6592 53.5 25.4466 53.5878 25.2898 53.744C25.1331 53.9003 25.045 54.1123 25.045 54.3333C25.045 54.5543 25.1331 54.7663 25.2898 54.9225C25.4466 55.0788 25.6592 55.1666 25.8809 55.1666H31.3137C32.8497 55.1619 34.3437 54.6656 35.5756 53.7508C36.518 53.0507 37.6609 52.6707 38.8361 52.6666H45.8403C46.7597 52.6666 47.6247 53.0241 48.275 53.6725C48.7488 54.1476 49.3124 54.5243 49.9332 54.7808C50.554 55.0372 51.2196 55.1684 51.8916 55.1666H57.8193C55.6553 57.7928 52.9804 59.9548 49.9558 61.5225C47.227 59.5656 43.9526 58.5088 40.5913 58.5H22.3328C20.6977 57.1384 19.2425 55.5754 18.0024 53.8483C15.7991 50.7696 14.3292 47.2304 13.7046 43.5H15.9271C17.0755 43.5 18.2055 43.3041 19.2854 42.9175C20.3623 42.5306 21.3621 41.9567 22.2384 41.2225C23.7101 40.0013 25.5643 39.3326 27.479 39.3325H29.0587C30.589 39.3325 32.096 39.86 33.3021 40.8175C34.8046 42.0097 36.6668 42.661 38.587 42.6658H41.9052C43.1882 42.6658 44.4444 43.1841 45.3513 44.0883C46.5815 45.3078 48.2445 45.9944 49.9793 45.9991H59.3154C59.537 45.9991 59.7496 45.9113 59.9064 45.755C60.0631 45.5988 60.1512 45.3868 60.1512 45.1658C60.1512 44.9448 60.0631 44.7328 59.9064 44.5765C59.7496 44.4203 59.537 44.3325 59.3154 44.3325H49.9793C48.6875 44.329 47.4493 43.8179 46.5332 42.91C45.3029 41.6905 43.64 41.0039 41.9052 40.9991H38.587C37.0451 40.9951 35.5498 40.4718 34.3435 39.5141C32.8411 38.3219 30.9788 37.6706 29.0587 37.6658H27.479C25.1729 37.6658 22.9321 38.4741 21.1677 39.9425C20.4413 40.5509 19.6128 41.0266 18.7204 41.3475C17.8244 41.6689 16.8793 41.833 15.9271 41.8325H13.4831C13.3951 41.0019 13.3485 40.1676 13.3435 39.3325C13.3435 36.4675 13.83 33.6683 14.7778 30.9991H21.008C22.291 30.9991 23.5472 31.5175 24.4541 32.4216C25.6843 33.6411 27.3473 34.3277 29.0821 34.3325H35.9107C36.1324 34.3325 36.345 34.2447 36.5017 34.0884C36.6585 33.9321 36.7465 33.7201 36.7465 33.4991C36.7465 33.2781 36.6585 33.0662 36.5017 32.9099C36.345 32.7536 36.1324 32.6658 35.9107 32.6658H29.0821C27.7903 32.6623 26.5521 32.1512 25.636 31.2433C24.4057 30.0238 22.7428 29.3372 21.008 29.3325H15.4473C16.2732 27.4348 17.3325 25.647 18.6009 24.01C23.3918 17.8608 30.615 14.3333 38.4182 14.3333C45.6313 14.3333 52.3446 17.3533 57.1038 22.6666H54.8095C53.6602 22.6666 52.5435 22.4683 51.4896 22.0775C50.4242 21.684 49.4374 21.105 48.5751 20.3675C46.5357 18.6241 43.9379 17.6661 41.2516 17.6666H35.2763C34.0435 17.6666 32.8349 17.9066 31.6798 18.38C30.54 18.8502 29.5046 19.5403 28.6332 20.4108C27.1817 21.8497 25.2197 22.6602 23.1728 22.6666C22.9511 22.6666 22.7385 22.7544 22.5818 22.9107C22.425 23.067 22.337 23.2789 22.337 23.5C22.337 23.721 22.425 23.9329 22.5818 24.0892C22.7385 24.2455 22.9511 24.3333 23.1728 24.3333C25.6452 24.3333 28.0657 23.3333 29.8151 21.5891C31.2637 20.1458 33.2275 19.3345 35.2755 19.3333H41.2508C43.5384 19.3333 45.7533 20.15 47.4852 21.6325C48.4973 22.498 49.6557 23.1775 50.9062 23.6391C52.1549 24.1014 53.4766 24.3365 54.8086 24.3333H58.4678C59.6328 25.8814 60.6131 27.5593 61.389 29.3333H51.6492C49.9144 29.3379 48.2514 30.0245 47.0213 31.2441C46.1051 32.152 44.8669 32.6632 43.5752 32.6666H40.0898C39.8681 32.6666 39.6556 32.7544 39.4988 32.9107C39.3421 33.067 39.254 33.2789 39.254 33.5C39.254 33.721 39.3421 33.9329 39.4988 34.0892C39.6556 34.2455 39.8681 34.3333 40.0898 34.3333H43.5752C45.31 34.3287 46.973 33.6421 48.2031 32.4225C49.1193 31.5146 50.3575 31.0034 51.6492 31H62.0585C63.0098 33.6758 63.4949 36.4943 63.4928 39.3333C63.4928 41.2525 63.278 43.1525 62.8534 44.9791Z" fill="#0B4177"/>
<path d="M54.2996 33.4999C54.0779 33.4999 53.8653 33.5877 53.7086 33.744C53.5518 33.9003 53.4638 34.1122 53.4638 34.3333C53.4638 34.5543 53.5518 34.7662 53.7086 34.9225C53.8653 35.0788 54.0779 35.1666 54.2996 35.1666C55.6821 35.1666 56.8071 36.2883 56.8071 37.6666C56.8071 39.0449 55.6821 40.1666 54.2996 40.1666C53.8598 40.1658 53.428 40.0498 53.0473 39.8303C52.6666 39.6108 52.3504 39.2955 52.1304 38.9158C51.9103 38.5362 51.7941 38.1056 51.7935 37.6671C51.7928 37.2287 51.9076 36.7977 52.1265 36.4174C52.2333 36.2265 52.2606 36.0014 52.2025 35.7905C52.1444 35.5797 52.0055 35.4001 51.8158 35.2905C51.6261 35.1808 51.4007 35.1499 51.1884 35.2043C50.976 35.2588 50.7936 35.3943 50.6805 35.5816C50.36 36.135 50.1714 36.7546 50.1295 37.3923C50.0875 38.03 50.1932 38.6689 50.4385 39.2593C50.6838 39.8498 51.062 40.3761 51.5438 40.7975C52.0257 41.2189 52.5984 41.5242 53.2176 41.6897C53.8367 41.8552 54.4857 41.8764 55.1144 41.7518C55.7431 41.6272 56.3347 41.3601 56.8433 40.9711C57.3518 40.5821 57.7639 40.0817 58.0475 39.5085C58.3311 38.9354 58.4786 38.3048 58.4787 37.6658C58.4787 35.3683 56.604 33.4999 54.2996 33.4999ZM45.9414 25.9999C45.9414 23.7024 44.0667 21.8333 41.7623 21.8333C39.4579 21.8333 37.5832 23.7024 37.5832 25.9999C37.5832 28.2974 39.4579 30.1666 41.7623 30.1666C44.0667 30.1666 45.9414 28.2974 45.9414 25.9999ZM39.2548 25.9999C39.2548 24.6216 40.3798 23.4999 41.7623 23.4999C43.1447 23.4999 44.2698 24.6216 44.2698 25.9999C44.2698 27.3783 43.1447 28.4999 41.7623 28.4999C40.3798 28.4999 39.2548 27.3783 39.2548 25.9999ZM31.7324 45.9999C31.5108 45.9999 31.2982 46.0877 31.1414 46.244C30.9847 46.4003 30.8966 46.6122 30.8966 46.8333C30.8966 48.6716 29.3972 50.1666 27.5533 50.1666C25.7095 50.1666 24.2101 48.6716 24.2101 46.8333C24.2101 44.9949 25.7095 43.4999 27.5533 43.4999C28.283 43.4999 28.9759 43.7308 29.5585 44.1666C29.6461 44.2341 29.7463 44.2837 29.8533 44.3123C29.9602 44.3409 30.0718 44.348 30.1816 44.3333C30.2914 44.3185 30.3971 44.2821 30.4926 44.2263C30.5882 44.1704 30.6716 44.0962 30.7381 44.0079C30.8046 43.9196 30.8529 43.819 30.8801 43.7119C30.9073 43.6049 30.9128 43.4935 30.8965 43.3843C30.8801 43.2751 30.8421 43.1702 30.7848 43.0758C30.7274 42.9813 30.6518 42.8991 30.5623 42.8341C29.6956 42.1817 28.6385 41.8302 27.5525 41.8333C24.7868 41.8333 22.5376 44.0758 22.5376 46.8333C22.5376 49.5908 24.7868 51.8333 27.5525 51.8333C30.3182 51.8333 32.5674 49.5908 32.5674 46.8333C32.5674 46.6122 32.4794 46.4003 32.3226 46.244C32.1659 46.0877 31.9541 45.9999 31.7324 45.9999ZM37.4821 45.0658C37.4044 45.1431 37.3428 45.235 37.3007 45.3361C37.2587 45.4372 37.237 45.5456 37.237 45.655C37.2369 45.7645 37.2585 45.8729 37.3005 45.974C37.3425 46.0752 37.404 46.1671 37.4816 46.2445C37.5592 46.3219 37.6514 46.3834 37.7528 46.4253C37.8542 46.4672 37.9629 46.4888 38.0727 46.4888C38.1825 46.4889 38.2912 46.4674 38.3926 46.4255C38.4941 46.3836 38.5862 46.3223 38.6639 46.2449C38.8237 46.0945 39.0351 46.0108 39.2548 46.0108C39.4746 46.0108 39.686 46.0945 39.8458 46.2449C40.0029 46.4008 40.089 46.6099 40.089 46.8341C40.089 47.0583 40.0021 47.2674 39.8458 47.4233C39.6888 47.5795 39.6006 47.7915 39.6004 48.0127C39.6002 48.2338 39.6882 48.4459 39.8449 48.6024C40.0016 48.7589 40.2143 48.8469 40.4361 48.847C40.6579 48.8472 40.8707 48.7595 41.0276 48.6033C41.4998 48.1324 41.7606 47.5041 41.7606 46.8349C41.7606 46.1658 41.4998 45.5383 41.0276 45.0674C40.084 44.1258 38.4257 44.1258 37.4821 45.0674V45.0658ZM16.5865 34.2316C16.1143 34.7024 15.8535 35.3308 15.8535 35.9999C15.8535 36.6691 16.1143 37.2966 16.5865 37.7683C16.664 37.8459 16.7561 37.9074 16.8576 37.9494C16.959 37.9914 17.0678 38.0129 17.1776 38.0129C17.2875 38.0128 17.3962 37.9911 17.4976 37.9489C17.599 37.9068 17.691 37.8451 17.7684 37.7674C17.8461 37.69 17.9077 37.5981 17.9498 37.497C17.9919 37.3958 18.0135 37.2873 18.0135 37.1778C18.0135 37.0683 17.9919 36.9599 17.9498 36.8587C17.9077 36.7576 17.8461 36.6656 17.7684 36.5883C17.6112 36.4324 17.5252 36.2233 17.5252 35.9991C17.5252 35.7749 17.6121 35.5658 17.7684 35.4099C17.9282 35.2595 18.1396 35.1758 18.3593 35.1758C18.579 35.1758 18.7904 35.2595 18.9502 35.4099C19.0279 35.4873 19.1201 35.5487 19.2215 35.5905C19.323 35.6324 19.4317 35.6539 19.5415 35.6538C19.6512 35.6538 19.7599 35.6322 19.8614 35.5903C19.9628 35.5484 20.0549 35.4869 20.1325 35.4095C20.2101 35.3321 20.2716 35.2402 20.3136 35.139C20.3556 35.0379 20.3772 34.9295 20.3771 34.82C20.3771 34.7106 20.3554 34.6022 20.3134 34.5011C20.2714 34.4 20.2097 34.3081 20.1321 34.2308C19.1884 33.2891 17.5302 33.2908 16.5865 34.2316ZM30.8966 25.1666C29.5142 25.1666 28.3892 26.2883 28.3892 27.6666C28.3892 27.8876 28.4772 28.0996 28.634 28.2558C28.7907 28.4121 29.0033 28.4999 29.225 28.4999C29.4467 28.4999 29.6592 28.4121 29.816 28.2558C29.9727 28.0996 30.0608 27.8876 30.0608 27.6666C30.0608 27.4456 30.1489 27.2336 30.3056 27.0773C30.4624 26.921 30.6749 26.8333 30.8966 26.8333C31.1183 26.8333 31.3309 26.921 31.4876 27.0773C31.6444 27.2336 31.7324 27.4456 31.7324 27.6666C31.7324 27.8876 31.8205 28.0996 31.9772 28.2558C32.134 28.4121 32.3466 28.4999 32.5683 28.4999C32.7899 28.4999 33.0025 28.4121 33.1593 28.2558C33.316 28.0996 33.4041 27.8876 33.4041 27.6666C33.4041 26.2883 32.2791 25.1666 30.8966 25.1666Z" fill="#0B4177"/>
<path d="M22.537 55.1667C22.9986 55.1667 23.3728 54.7936 23.3728 54.3333C23.3728 53.8731 22.9986 53.5 22.537 53.5C22.0754 53.5 21.7012 53.8731 21.7012 54.3333C21.7012 54.7936 22.0754 55.1667 22.537 55.1667Z" fill="#0B4177"/>
<path d="M10.8605 14.1867H11.229V14.48C11.229 14.6622 11.3196 14.8368 11.481 14.9656C11.6424 15.0944 11.8613 15.1667 12.0895 15.1667C12.3177 15.1667 12.5366 15.0944 12.698 14.9656C12.8594 14.8368 12.95 14.6622 12.95 14.48V14.1867H13.3186C13.5468 14.1867 13.7657 14.1144 13.9271 13.9856C14.0884 13.8568 14.1791 13.6822 14.1791 13.5C14.1791 13.3179 14.0884 13.1433 13.9271 13.0145C13.7657 12.8857 13.5468 12.8134 13.3186 12.8134H12.95V12.52C12.95 12.3379 12.8594 12.1633 12.698 12.0345C12.5366 11.9057 12.3177 11.8334 12.0895 11.8334C11.8613 11.8334 11.6424 11.9057 11.481 12.0345C11.3196 12.1633 11.229 12.3379 11.229 12.52V12.8134H10.8605C10.6323 12.8134 10.4134 12.8857 10.252 13.0145C10.0907 13.1433 10 13.3179 10 13.5C10 13.6822 10.0907 13.8568 10.252 13.9856C10.4134 14.1144 10.6323 14.1867 10.8605 14.1867Z" fill="#999999"/>
<path d="M62.2626 14.3083V13.9417H62.6311C63.1064 13.9417 63.4916 13.5574 63.4916 13.0833C63.4916 12.6093 63.1064 12.225 62.6311 12.225H62.2626V11.8583C62.2626 11.3843 61.8775 11 61.4021 11C60.9268 11 60.5416 11.3843 60.5416 11.8583V12.225H60.173C59.6977 12.225 59.3125 12.6093 59.3125 13.0833C59.3125 13.5574 59.6977 13.9417 60.173 13.9417H60.5416V14.3083C60.5416 14.7824 60.9268 15.1667 61.4021 15.1667C61.8775 15.1667 62.2626 14.7824 62.2626 14.3083Z" fill="#327DD8"/>
<path d="M65.1288 57.8053H64.7805V57.5281C64.7805 57.1444 64.3908 56.8334 63.9099 56.8334C63.4289 56.8334 63.0392 57.1444 63.0392 57.5281V57.8053H62.691C62.21 57.8053 61.8203 58.1164 61.8203 58.5C61.8203 58.8837 62.21 59.1948 62.691 59.1948H63.0392V59.472C63.0392 59.8556 63.4289 60.1667 63.9099 60.1667C64.3908 60.1667 64.7805 59.8556 64.7805 59.472V59.1948H65.1288C65.6097 59.1948 65.9994 58.8837 65.9994 58.5C65.9994 58.1164 65.6097 57.8053 65.1288 57.8053Z" fill="#999999"/>
<path d="M13.3185 63.0584H12.9501V62.6917C12.9501 62.4641 12.8594 62.2457 12.6981 62.0848C12.5367 61.9238 12.3178 61.8334 12.0896 61.8334C11.8613 61.8334 11.6424 61.9238 11.481 62.0848C11.3197 62.2457 11.229 62.4641 11.229 62.6917V63.0584H10.8606C10.6323 63.0584 10.4134 63.1488 10.2521 63.3098C10.0907 63.4707 10 63.6891 10 63.9167C10 64.1443 10.0907 64.3627 10.2521 64.5236C10.4134 64.6846 10.6323 64.775 10.8606 64.775H11.229V65.1417C11.229 65.3694 11.3197 65.5877 11.481 65.7486C11.6424 65.9096 11.8613 66 12.0896 66C12.3178 66 12.5367 65.9096 12.6981 65.7486C12.8594 65.5877 12.9501 65.3694 12.9501 65.1417V64.775H13.3185C13.5468 64.775 13.7657 64.6846 13.9271 64.5236C14.0884 64.3627 14.1791 64.1443 14.1791 63.9167C14.1791 63.6891 14.0884 63.4707 13.9271 63.3098C13.7657 63.1488 13.5468 63.0584 13.3185 63.0584Z" fill="#327DD8"/>
</g>
<defs>
<clipPath id="clip0_3093_37464">
<rect width="56" height="60" fill="white" transform="translate(10 8.5)"/>
</clipPath>
</defs>
</svg>
