<svg width="276" height="254" viewBox="0 0 276 254" fill="none" xmlns="http://www.w3.org/2000/svg">
<path d="M158.906 123.057L122.11 118.536C115.761 117.765 111.272 111.982 112.043 105.638L112.78 99.7495C113.552 93.4057 119.339 88.9194 125.688 89.6905L162.483 94.2118C168.832 94.9829 173.322 100.766 172.55 107.11L171.814 112.998C171.007 119.307 165.254 123.828 158.906 123.057Z" fill="#BBD0FF"/>
<path d="M79.7028 196.204L54.7283 196.835C54.7283 196.835 50.484 195.713 50.9751 206.018C51.5012 216.322 55.0791 223.017 55.0791 223.017L86.1218 221.404C86.1218 221.404 79.4222 209.242 80.2991 198.202" fill="white"/>
<path d="M54.4828 224.068L54.1671 223.472C54.0268 223.192 50.449 216.427 49.9229 206.018C49.6773 201.111 50.449 197.922 52.2379 196.485C53.2902 195.608 54.3776 195.678 54.7985 195.749L79.6678 195.118L79.7028 197.221L54.588 197.851L54.4477 197.816C54.4127 197.816 53.9918 197.746 53.5007 198.167C52.8342 198.763 51.7468 200.55 52.0275 205.948C52.4484 214.184 54.9037 220.108 55.7456 221.93L84.5083 220.423C82.7545 216.813 78.5804 207.175 79.2819 198.097L81.3514 198.272C80.5096 208.857 86.9988 220.774 87.0689 220.914L87.8757 222.386L54.4828 224.068Z" fill="#C192EE"/>
<path d="M75.8801 201.108L50.9507 201.82L51.0108 203.922L75.9402 203.21L75.8801 201.108Z" fill="#8E8E8E"/>
<path d="M188.721 17.3142H160.589C160.589 17.3142 155.398 37.0818 163.711 41.2527C163.711 41.2527 182.652 39.9909 191.422 42.0938C191.422 42.0938 187.668 29.1958 189.773 21.9056" fill="white"/>
<path d="M192.895 43.4958L191.141 43.0752C182.652 41.0423 163.957 42.269 163.746 42.269L163.466 42.3041L163.22 42.1639C154.24 37.6776 159.327 17.8749 159.537 17.0338L159.747 16.2627H188.686V18.3656H161.361C159.993 24.0786 158.274 37.0117 163.886 40.2012C166.272 40.061 181.214 39.2198 189.913 40.7269C188.966 36.9416 186.967 27.6186 188.686 21.6252L190.685 22.186C188.721 29.0906 192.298 41.6732 192.334 41.7784L192.895 43.4958Z" fill="#C192EE"/>
<path d="M248 132.135H206.68C201.173 132.135 196.753 127.684 196.753 122.216V48.9635C196.753 43.4608 201.208 39.0447 206.68 39.0447H248C253.507 39.0447 257.927 43.4959 257.927 48.9635V122.216C257.962 127.684 253.507 132.135 248 132.135Z" fill="#BBD0FF"/>
<path d="M106.887 146.785H41.0835V48.4026H109.693V50.5055H43.1881V144.682H106.887V146.785Z" fill="#8E8E8E"/>
<path d="M103.87 92.4241H42.1357V94.527H103.87V92.4241Z" fill="#8E8E8E"/>
<path d="M142.315 66.7333H117.551C111.552 66.7333 106.712 61.8966 106.712 55.9032V48.8233C106.712 42.8299 111.552 37.9932 117.551 37.9932H142.315C148.313 37.9932 153.153 42.8299 153.153 48.8233V55.9032C153.153 61.8966 148.313 66.7333 142.315 66.7333Z" fill="#BBD0FF"/>
<path d="M57.5694 109.949H21.0548C15.2671 109.949 10.5669 105.252 10.5669 99.4691V74.4091C10.5669 68.626 15.2671 63.9294 21.0548 63.9294H57.6045C63.3922 63.9294 68.0924 68.626 68.0924 74.4091V99.4691C68.0924 105.252 63.3922 109.949 57.5694 109.949Z" fill="#FEACD0"/>
<path d="M96.4344 158.807H61.4631C55.6754 158.807 51.0103 154.391 51.0103 148.923V142.053C51.0103 136.586 55.7105 132.17 61.4631 132.17H96.4344C102.222 132.17 106.887 136.586 106.887 142.053V148.923C106.887 154.356 102.222 158.807 96.4344 158.807Z" fill="#BBD0FF"/>
<path d="M162.378 162.978C162.378 162.978 157.397 141.002 156.485 138.794C155.573 136.586 152.873 135.394 150.978 134.798C149.084 134.202 144.384 129.646 143.858 125.58C143.332 121.515 135.019 119.096 136.352 118.08C137.649 117.028 142.174 110.299 149.295 121.199C149.295 121.199 150.803 102.483 155.188 99.539C159.572 96.5598 159.642 101.221 159.642 101.221C159.642 101.221 164.097 96.2444 165.991 103.78C165.991 103.78 169.779 104.691 168.727 109.668C168.727 109.668 171.919 108.617 171.533 112.788C171.147 116.958 168.797 126.036 169.499 129.05C170.235 132.064 175.778 148.713 179.04 150.29C182.302 151.867 162.378 162.978 162.378 162.978Z" fill="white" stroke="black" stroke-width="2" stroke-miterlimit="10" stroke-linecap="round" stroke-linejoin="round"/>
<path d="M159.607 101.221C158.239 106.233 156.029 112.612 156.029 115.416L159.607 101.221Z" fill="white"/>
<path d="M159.607 101.221C158.239 106.233 156.029 112.612 156.029 115.416" stroke="black" stroke-width="2" stroke-miterlimit="10" stroke-linecap="round" stroke-linejoin="round"/>
<path d="M165.956 103.78C164.763 106.829 162.413 114.4 162.413 116.923L165.956 103.78Z" fill="white"/>
<path d="M165.956 103.78C164.763 106.829 162.413 114.4 162.413 116.923" stroke="black" stroke-width="2" stroke-miterlimit="10" stroke-linecap="round" stroke-linejoin="round"/>
<path d="M168.692 109.668C166.973 112.612 166.412 118.29 166.412 118.29L168.692 109.668Z" fill="white"/>
<path d="M168.692 109.668C166.973 112.612 166.412 118.29 166.412 118.29" stroke="black" stroke-width="2" stroke-miterlimit="10" stroke-linecap="round" stroke-linejoin="round"/>
<path d="M80.2641 151.306C80.1589 149.168 80.7903 146.75 83.7718 146.75C86.7533 146.75 101.801 148.643 103.52 148.327C105.239 148.012 107.133 144.928 106.501 142.93C105.87 140.897 107.729 135.64 111.447 135.85C115.165 136.06 111.903 139.39 112.114 141.598C112.324 143.806 127.197 163.328 137.439 164.415C147.681 165.501 128.6 186.811 128.6 186.811C128.6 186.811 115.691 175.525 112.464 174.088C109.272 172.651 95.8732 170.759 92.1551 171.284C88.437 171.81 81.1761 173.317 85.3502 166.518C85.3502 166.518 79.4574 167.429 81.6321 160.7C81.6321 160.7 73.9854 156.389 84.1927 154.04L80.2641 151.306Z" fill="white" stroke="black" stroke-width="2" stroke-miterlimit="10" stroke-linecap="round" stroke-linejoin="round"/>
<path d="M84.1924 154.04C91.3129 155.372 95.8729 155.968 95.8729 155.968" stroke="black" stroke-width="2" stroke-miterlimit="10" stroke-linecap="round" stroke-linejoin="round"/>
<path d="M81.667 160.7L94.4348 162.032" stroke="black" stroke-width="2" stroke-miterlimit="10" stroke-linecap="round" stroke-linejoin="round"/>
<path d="M85.3853 166.518H93.523" stroke="black" stroke-width="2" stroke-miterlimit="10" stroke-linecap="round" stroke-linejoin="round"/>
<path d="M176.128 240.191L260.943 239.77L227.165 195.538L188.686 204.195C188.686 204.195 173.918 230.727 176.128 240.191Z" fill="white" stroke="black" stroke-width="2" stroke-miterlimit="10"/>
<path d="M184.932 120.569C190.008 120.569 194.122 116.457 194.122 111.386C194.122 106.314 190.008 102.203 184.932 102.203C179.857 102.203 175.742 106.314 175.742 111.386C175.742 116.457 179.857 120.569 184.932 120.569Z" stroke="black" stroke-width="2" stroke-miterlimit="10" stroke-linecap="round" stroke-linejoin="round"/>
<path d="M196.157 99.5742C196.157 99.5742 189.001 103.254 187.072 108.301C185.143 113.348 181.389 115.627 179.215 115.451C177.04 115.276 177.04 116.748 177.566 117.8C178.092 118.851 178.794 124.915 178.513 126.947C178.268 128.98 181.74 137.532 189.247 137.427L189.422 143.631L222.71 139.6L206.294 102.343L196.157 99.5742Z" fill="white" stroke="black" stroke-width="2" stroke-miterlimit="10"/>
<path d="M227.164 196.45L189.983 204.195C189.983 204.195 189.106 204.3 187.949 203.985C185.844 203.389 182.898 201.251 183.389 193.961C183.389 193.961 169.744 195.538 169.604 184.217C169.604 184.217 167.71 185.059 164.693 186.11C155.819 189.264 137.228 194.627 128.564 187.617C128.564 187.617 127.582 177.208 132.282 169.777C133.756 167.429 135.79 165.361 138.596 164.029C138.596 164.029 144.454 167.149 153.118 162.627C161.782 158.106 177.04 148.608 188.265 149.694L188.545 147.556L189.352 141.773L204.926 141.107C204.926 141.107 221.307 157.51 223.236 161.26C225.27 165.046 227.164 196.45 227.164 196.45Z" fill="black" stroke="black" stroke-width="2" stroke-miterlimit="10"/>
<path d="M183.985 193.225C183.985 193.225 170.341 194.802 170.2 183.481C170.2 183.481 168.306 184.323 165.29 185.374L170.165 181.448C170.13 181.448 172.831 193.4 183.985 193.225Z" fill="white"/>
<path d="M188.581 203.634C186.476 203.039 183.53 200.901 184.021 193.61C184.021 193.575 186.406 202.092 188.581 203.634Z" fill="white"/>
<path d="M188.3 150.746C179.636 151.272 164.588 160.665 153.188 167.044C145.541 171.285 137.088 171.284 132.353 170.829C133.826 168.481 135.86 166.413 138.666 165.081C138.666 165.081 144.524 168.2 153.188 163.679C161.817 159.158 177.075 149.659 188.3 150.746Z" fill="white"/>
<path d="M239.055 210.504C239.055 210.504 229.023 199.954 227.164 196.45C225.34 192.945 226.568 188.073 225.691 179.521C224.814 170.969 217.238 155.267 211.38 150.185C205.522 145.138 202.295 134.308 202.295 134.308C210.854 140.161 214.362 135.534 214.607 130.733C214.853 125.931 207.697 126.387 207.697 126.387C199.735 120.954 201.138 104.095 201.138 104.095C201.138 104.095 189.422 100.415 185.95 95.894C185.038 94.7024 184.827 93.6509 184.967 92.7396C185.423 90.1109 189.071 88.6389 189.071 88.6389C234.671 82.4352 232.04 113.769 232.321 127.648C232.461 134.308 234.951 140.056 238.038 144.542C241.406 149.379 245.439 152.779 247.965 154.286C252.77 157.16 265.258 158.562 267.011 177.944C268.765 197.291 239.055 210.504 239.055 210.504Z" fill="#FEACD0"/>
<path d="M238.81 211.731L238.319 211.205C237.898 210.784 228.146 200.48 226.287 196.905C225.06 194.592 225.06 191.928 225.06 188.213C225.06 185.76 225.025 182.991 224.709 179.591C223.867 171.284 216.291 155.758 210.749 150.956C204.75 145.769 201.488 135.044 201.348 134.588L200.436 131.784L202.856 133.431C206.294 135.78 209.1 136.516 210.994 135.604C212.467 134.868 213.414 133.046 213.555 130.662C213.59 129.856 213.379 129.225 212.888 128.735C211.59 127.473 208.749 127.333 207.767 127.368L207.416 127.403L207.101 127.228C199.699 122.181 199.875 108.406 200.05 104.866C197.314 103.955 188.264 100.661 185.108 96.5598C184.09 95.228 183.704 93.8961 183.95 92.5993C184.511 89.4449 188.51 87.7976 188.685 87.7275L188.791 87.6924L188.931 87.6574C204.61 85.5194 216.22 87.6574 223.516 93.9662C233.197 102.343 233.268 116.047 233.338 125.125C233.338 126.036 233.338 126.912 233.373 127.683C233.478 133.326 235.337 138.829 238.915 143.981C242.142 148.643 246.106 151.972 248.491 153.409C249.263 153.865 250.28 154.321 251.472 154.811C257.12 157.23 266.52 161.225 268.028 177.873C268.765 186.145 264.03 194.627 254.314 202.338C247.088 208.086 239.757 211.345 239.441 211.485L238.81 211.731ZM204.224 136.691C205.557 140.161 208.258 146.119 212.046 149.414C218.009 154.566 225.831 170.548 226.743 179.416C227.094 182.921 227.129 185.9 227.129 188.248C227.129 191.648 227.164 194.101 228.111 195.959C229.62 198.833 237.231 207.034 239.301 209.242C243.615 207.174 267.502 194.872 265.959 178.049C264.591 162.662 256.208 159.087 250.666 156.739C249.403 156.213 248.315 155.723 247.439 155.197C244.738 153.549 240.599 150.08 237.196 145.173C233.443 139.74 231.409 133.712 231.303 127.718C231.303 126.912 231.268 126.036 231.268 125.125C231.198 116.433 231.128 103.289 222.183 95.5434C215.414 89.6552 204.365 87.6924 189.387 89.7253C188.44 90.1459 186.3 91.4076 186.02 92.9848C185.879 93.6858 186.16 94.4919 186.791 95.2981C190.053 99.539 201.348 103.114 201.453 103.149L202.26 103.394L202.19 104.236C202.19 104.411 200.962 120.148 208.013 125.335C209.135 125.335 212.502 125.44 214.361 127.298C215.273 128.209 215.729 129.436 215.659 130.803C215.484 133.992 214.151 136.446 211.941 137.497C209.837 138.513 207.276 138.233 204.224 136.691Z" fill="black"/>
<path d="M236.775 145.243C226.322 137.883 229.129 126.141 228.883 118.991C228.637 111.841 224.534 103.64 221.903 100.275C214.642 87.3422 193.842 91.4429 185.984 93.4407C185.914 91.1625 189.422 89.6554 189.422 89.6554C233.618 83.4517 230.953 114.47 231.233 128.349C231.338 135.044 233.759 140.757 236.775 145.243Z" fill="white"/>
<path d="M196.753 127.473C201.829 127.473 205.943 123.362 205.943 118.29C205.943 113.219 201.829 109.107 196.753 109.107C191.678 109.107 187.563 113.219 187.563 118.29C187.563 123.362 191.678 127.473 196.753 127.473Z" stroke="black" stroke-width="2" stroke-miterlimit="10" stroke-linecap="round" stroke-linejoin="round"/>
<path d="M189.597 112.507C186.511 109.598 186.511 109.598 186.511 109.598" stroke="black" stroke-width="2" stroke-miterlimit="10" stroke-linecap="round" stroke-linejoin="round"/>
<path d="M195.759 118.234C196.725 116.738 197.034 115.219 196.448 114.841C195.862 114.463 194.604 115.369 193.637 116.865C192.67 118.361 192.362 119.881 192.948 120.259C193.533 120.637 194.792 119.73 195.759 118.234Z" fill="black"/>
<path d="M181.951 125.931C181.951 125.931 183.108 129.541 188.685 127.473" stroke="black" stroke-width="2" stroke-miterlimit="10" stroke-linecap="round" stroke-linejoin="round"/>
<path d="M203.137 130.768C203.137 130.768 208.083 130.242 209.977 132.135" stroke="black" stroke-width="2" stroke-miterlimit="10" stroke-linecap="round" stroke-linejoin="round"/>
</svg>
