<svg width="27" height="27" viewBox="0 0 27 27" fill="none" xmlns="http://www.w3.org/2000/svg">
<path d="M23.625 5.90625H3.375C2.91375 5.90625 2.53125 5.52375 2.53125 5.0625C2.53125 4.60125 2.91375 4.21875 3.375 4.21875H23.625C24.0863 4.21875 24.4688 4.60125 24.4688 5.0625C24.4688 5.52375 24.0863 5.90625 23.625 5.90625Z" fill="#616161"/>
<path d="M23.6254 11.5312H12.9717C12.5104 11.5312 12.1279 11.1487 12.1279 10.6875C12.1279 10.2262 12.5104 9.84375 12.9717 9.84375H23.6254C24.0867 9.84375 24.4692 10.2262 24.4692 10.6875C24.4692 11.1487 24.0867 11.5312 23.6254 11.5312Z" fill="#616161"/>
<path d="M23.625 17.1562H3.375C2.91375 17.1562 2.53125 16.7737 2.53125 16.3125C2.53125 15.8512 2.91375 15.4688 3.375 15.4688H23.625C24.0863 15.4688 24.4688 15.8512 24.4688 16.3125C24.4688 16.7737 24.0863 17.1562 23.625 17.1562Z" fill="#616161"/>
<path d="M23.6254 22.7812H12.9717C12.5104 22.7812 12.1279 22.3987 12.1279 21.9375C12.1279 21.4762 12.5104 21.0938 12.9717 21.0938H23.6254C24.0867 21.0938 24.4692 21.4762 24.4692 21.9375C24.4692 22.3987 24.0867 22.7812 23.6254 22.7812Z" fill="#616161"/>
</svg>
