<svg width="76" height="76" viewBox="0 0 76 76" fill="none" xmlns="http://www.w3.org/2000/svg">
<circle cx="38" cy="38" r="38" fill="#DDDCDC"/>
<g clip-path="url(#clip0_2919_21992)">
<path d="M59.553 33.9813C58.2072 34.2133 56.8595 35.3066 55.5011 35.423C51.5684 35.757 47.5953 35.3997 43.6536 35.5116C39.711 35.6227 35.7648 36.2038 31.8213 36.0919C27.8796 35.9808 23.9728 35.1776 20.0409 34.8427C18.6405 34.7237 17.2337 33.7682 15.8252 33.7145C15.9873 32.8838 18.0843 32.4881 18.3359 31.6933C18.6723 30.6308 17.1976 29.1843 17.6832 28.1977C24.2602 28.401 30.8444 27.5037 37.4214 27.2951C39.4218 27.2315 41.4204 27.3766 43.3724 27.7142C45.0397 28.0016 46.7393 28.1467 48.4433 28.1467C49.2984 28.1467 50.1545 28.1108 51.0087 28.0365C53.2384 27.8449 55.4635 28.5254 57.6878 28.2846C58.5658 30.0898 59.1933 32.0064 59.553 33.9813Z" fill="#999999"/>
<path d="M24.9936 28.3391C24.5575 29.4915 24.2145 30.6887 23.9737 31.9235C23.8179 32.7187 23.705 33.5291 23.6379 34.352C22.4398 34.1953 21.2417 34.0493 20.0409 33.9472C18.6405 33.8281 17.2337 33.7681 15.8252 33.7144C16.1979 31.8014 16.8227 29.9463 17.6832 28.1976C20.1197 28.2728 22.5562 28.3203 24.9936 28.3391Z" fill="#9BA1AA"/>
<path d="M59.9153 38C59.9153 38.2902 59.9099 38.5785 59.8992 38.8659C58.4387 39.1247 56.9756 40.2422 55.5008 40.3685C51.568 40.7025 47.595 40.3452 43.6532 40.4571C39.7106 40.5682 35.7644 41.1493 31.8209 41.0374C27.8792 40.9263 23.9724 40.1231 20.0406 39.7882C18.5058 39.6575 16.9647 38.703 15.4219 38.6457C15.4147 38.4316 17.6829 36.9756 17.6829 36.7598C17.6829 35.2939 15.5535 35.1015 15.8248 33.7145C17.2334 33.7682 18.6401 33.8282 20.0406 33.9473C23.9724 34.2822 27.8792 35.0854 31.8209 35.1964C35.7644 35.3084 39.7106 34.7272 43.6532 34.6162C47.595 34.5043 51.568 34.8615 55.5008 34.5275C56.8592 34.4111 58.2068 34.2132 59.5526 33.9813C59.7908 35.2851 59.9153 36.6282 59.9153 38Z" fill="#EFEDEF"/>
<path d="M57.6872 28.2845C55.4629 28.5254 53.2378 28.7403 51.0081 28.9319C50.1539 29.0062 49.2978 29.042 48.4427 29.042C46.7387 29.042 45.0391 28.897 43.3718 28.6095C41.4198 28.272 39.4212 28.1269 37.4207 28.1905C30.8438 28.3991 24.2596 28.4009 17.6826 28.1976C18.3771 26.7836 21.9183 27.3867 22.8848 26.1614C23.6144 25.2367 21.7151 22.4389 22.5798 21.6413C25.1756 21.8472 27.4554 21.1156 28.923 21.2177C29.7254 21.2732 30.4874 21.6395 30.9834 22.2725C31.3649 22.7614 32.0365 23.0856 32.8012 23.0856C33.5131 23.0856 34.1443 22.8044 34.5365 22.371C35.0899 21.7586 35.8555 21.3861 36.6811 21.3896C42.0734 21.4138 47.4658 22.1266 52.8482 21.7344C54.837 23.5924 56.4846 25.8104 57.6872 28.2845Z" fill="#D9D9D9"/>
<path d="M52.8486 21.7344C47.4661 22.1266 42.0738 22.3093 36.6814 22.2851C35.8558 22.2815 35.0902 22.654 34.5369 23.2665C34.1447 23.6999 33.5134 23.9811 32.8015 23.9811C32.0368 23.9811 31.3652 23.6569 30.9838 23.168C30.4877 22.5349 29.7257 22.1687 28.9234 22.1132C27.4557 22.0111 25.176 21.8472 22.5801 21.6413C24.0625 20.274 26.537 20.6603 28.3493 19.7331C31.0563 18.348 33.2781 15.9463 36.4861 15.779C36.8761 15.7587 37.2687 15.7484 37.6637 15.7484C43.5333 15.7484 48.8719 18.0219 52.8486 21.7344Z" fill="#939393"/>
<path d="M23.7764 39.3154C22.5326 39.1525 21.288 38.9994 20.0406 38.8928C18.5058 38.7621 16.9648 38.703 15.422 38.6457C15.4148 38.4316 15.4121 38.2158 15.4121 38C15.4121 36.5342 15.5536 35.1015 15.8249 33.7145C17.2334 33.7682 18.6402 33.8282 20.0406 33.9473C21.2414 34.0494 22.4395 34.1953 23.6376 34.352C23.5866 34.9645 23.5606 35.5842 23.5606 36.2092C23.5606 36.425 23.5633 36.6408 23.5704 36.8548C23.5937 37.6875 23.6636 38.5087 23.7764 39.3154Z" fill="#E3E0E4"/>
<path d="M28.6114 22.0916C27.5212 23.4179 26.5883 24.8659 25.8311 26.4068C25.5222 27.0345 25.2419 27.6792 24.993 28.3391C22.5556 28.3203 20.1191 28.2728 17.6826 28.1976C18.9013 25.7164 20.5695 23.4957 22.5798 21.6412C24.9983 21.8329 27.1429 21.9887 28.6114 22.0916Z" fill="#EDEDED"/>
<path d="M37.0342 15.7573C34.6989 16.7602 32.5705 18.1517 30.7286 19.8504C29.9722 20.5479 29.2649 21.2967 28.6117 22.0916C27.1432 21.9887 24.9987 21.8329 22.5801 21.6412C26.4027 18.1159 31.4619 15.9122 37.0342 15.7573Z" fill="#616161"/>
<path d="M40.7942 28.0798C40.756 29.2038 41.6364 29.623 43.0956 29.6725C44.4829 29.7196 45.4357 29.3246 45.5799 28.2812C45.5873 28.2271 45.5921 28.1724 45.594 28.117C45.6321 26.9929 44.4801 26.0416 43.021 25.992C42.4173 25.9715 41.8556 26.1086 41.4018 26.3559C40.7587 26.7066 40.8165 27.4208 40.7942 28.0798Z" fill="#939393"/>
<path d="M45.5783 28.281C45.435 29.3242 44.2701 30.1095 42.8821 30.0629C41.4235 30.0128 40.271 29.0618 40.3095 27.9372C40.3364 27.1357 40.9605 26.4633 41.8461 26.1615C41.838 26.2152 41.8336 26.2698 41.8318 26.3254C41.7933 27.45 42.9457 28.401 44.4044 28.4511C44.8234 28.4655 45.2219 28.4037 45.5783 28.281Z" fill="#616161"/>
<path d="M17.0817 19.1359H17.3693V19.4228C17.3693 19.6009 17.44 19.7717 17.566 19.8976C17.6919 20.0236 17.8627 20.0943 18.0408 20.0943C18.219 20.0943 18.3898 20.0236 18.5157 19.8976C18.6417 19.7717 18.7124 19.6009 18.7124 19.4228V19.1359H19C19.1781 19.1359 19.349 19.0651 19.4749 18.9392C19.6009 18.8132 19.6716 18.6424 19.6716 18.4643C19.6716 18.2862 19.6009 18.1154 19.4749 17.9894C19.349 17.8635 19.1781 17.7927 19 17.7927H18.7124V17.5058C18.7124 17.3277 18.6417 17.1569 18.5157 17.0309C18.3898 16.905 18.219 16.8342 18.0408 16.8342C17.8627 16.8342 17.6919 16.905 17.566 17.0309C17.44 17.1569 17.3693 17.3277 17.3693 17.5058V17.7927H17.0817C16.9036 17.7927 16.7328 17.8635 16.6069 17.9894C16.4809 18.1154 16.4102 18.2862 16.4102 18.4643C16.4102 18.6424 16.4809 18.8132 16.6069 18.9392C16.7328 19.0651 16.9036 19.1359 17.0817 19.1359Z" fill="#E3E0E4"/>
<path d="M57.6061 19.0616V18.7747H57.8936C58.2646 18.7747 58.5652 18.474 58.5652 18.1031C58.5652 17.7322 58.2646 17.4315 57.8936 17.4315H57.6061V17.1446C57.6061 16.7737 57.3055 16.473 56.9345 16.473C56.5635 16.473 56.2629 16.7737 56.2629 17.1446V17.4315H55.9753C55.6043 17.4315 55.3037 17.7322 55.3037 18.1031C55.3037 18.474 55.6043 18.7747 55.9753 18.7747H56.2629V19.0616C56.2629 19.4324 56.5635 19.7331 56.9345 19.7331C57.3055 19.7331 57.6061 19.4324 57.6061 19.0616Z" fill="#616161"/>
<path d="M59.9153 53.3567H59.6466V53.0888C59.6466 52.7179 59.346 52.4172 58.9751 52.4172C58.6041 52.4172 58.3035 52.7179 58.3035 53.0888V53.3567H58.0349C57.6639 53.3567 57.3633 53.6574 57.3633 54.0283C57.3633 54.3992 57.6639 54.6999 58.0349 54.6999H58.3035V54.9678C58.3035 55.3387 58.6041 55.6394 58.9751 55.6394C59.346 55.6394 59.6466 55.3387 59.6466 54.9678V54.6999H59.9153C60.2863 54.6999 60.5869 54.3992 60.5869 54.0283C60.5869 53.6574 60.2863 53.3567 59.9153 53.3567Z" fill="#E3E0E4"/>
<path d="M59.8992 38.8659C59.7926 41.6489 59.1747 44.3003 58.1369 46.7305H58.136C55.9995 46.9365 53.863 48.0047 51.722 48.1444C49.9884 48.2582 48.2549 47.7576 46.892 46.6795C45.7674 45.7903 44.2747 45.254 42.6324 45.254C42.5474 45.254 42.4596 45.2549 42.3737 45.2584C40.7995 45.3122 39.3059 45.8611 38.1705 46.8022C38.1651 46.8075 38.1579 46.8129 38.1526 46.8183C36.8004 47.9448 35.1045 48.5778 33.3458 48.5384C27.9401 48.4166 22.5406 47.1908 17.1563 46.6508C16.7035 45.5786 18.6173 44.1632 18.3355 43.0131C17.9675 41.5113 15.467 40.2501 15.4219 38.6456C16.9647 38.7029 18.5058 38.762 20.0405 38.8928C23.9724 39.2277 27.8792 40.0309 31.8209 40.1419C35.7644 40.2538 39.7106 39.6727 43.6532 39.5617C47.5949 39.4497 51.568 39.807 55.5008 39.473C56.9756 39.3468 58.4387 39.1247 59.8992 38.8659Z" fill="#616161"/>
<path d="M26.5647 47.3806C23.4244 47.2078 20.2877 46.9651 17.1563 46.6508C16.1123 44.1785 15.5016 41.4788 15.4219 38.6456C16.9647 38.7029 18.5058 38.762 20.0405 38.8928C21.2879 38.9993 22.5325 39.1524 23.7763 39.3154C24.0467 41.2549 24.5679 43.1139 25.3048 44.86C25.6719 45.7303 26.0937 46.5711 26.5647 47.3806Z" fill="#999999"/>
<path d="M22.4506 39.3154C22.3954 40.2485 22.8637 40.6432 24.075 40.7149C24.9835 40.7687 25.7886 40.7324 26.1574 40.1458C26.2803 39.9502 26.3549 39.7316 26.3687 39.4984C26.424 38.5653 25.4869 37.7507 24.2755 37.679C24.054 37.6655 23.8317 37.6784 23.6133 37.7173C22.7106 37.8798 22.4955 38.5589 22.4506 39.3154Z" fill="#EDEDED"/>
<path d="M26.1699 40.124C25.8081 40.723 24.9951 41.1125 24.0755 41.0579C22.8639 40.9863 21.9273 40.1714 21.9828 39.2384C22.0267 38.4817 22.7108 37.8791 23.6134 37.717C23.4979 37.9069 23.4289 38.1182 23.4155 38.343C23.36 39.276 24.2966 40.0908 25.5082 40.1625C25.7374 40.1759 25.9603 40.1616 26.1699 40.124Z" fill="#939393"/>
<path d="M19.0126 57.4405H18.7251V57.1536C18.7251 56.9755 18.6544 56.8047 18.5284 56.6788C18.4025 56.5528 18.2316 56.4821 18.0535 56.4821C17.8754 56.4821 17.7046 56.5528 17.5787 56.6788C17.4527 56.8047 17.382 56.9755 17.382 57.1536V57.4405H17.0944C16.9163 57.4405 16.7455 57.5113 16.6196 57.6372C16.4936 57.7632 16.4229 57.934 16.4229 58.1121C16.4229 58.2902 16.4936 58.461 16.6196 58.587C16.7455 58.7129 16.9163 58.7837 17.0944 58.7837H17.382V59.0706C17.382 59.2487 17.4527 59.4195 17.5787 59.5455C17.7046 59.6714 17.8754 59.7422 18.0535 59.7422C18.2316 59.7422 18.4025 59.6714 18.5284 59.5455C18.6544 59.4195 18.7251 59.2487 18.7251 59.0706V58.7837H19.0126C19.1907 58.7837 19.3616 58.7129 19.4875 58.587C19.6135 58.461 19.6842 58.2902 19.6842 58.1121C19.6842 57.934 19.6135 57.7632 19.4875 57.6372C19.3616 57.5113 19.1907 57.4405 19.0126 57.4405Z" fill="#616161"/>
<path d="M58.1359 46.7305C57.3375 48.601 56.286 50.3531 55.0109 51.9375C53.7796 52.0387 52.5493 53.0237 51.3181 53.1034C49.7663 53.2037 48.2718 53.7839 47.1059 54.8119C47.0594 54.853 47.0119 54.8933 46.9627 54.9336C45.8273 55.8747 44.3346 56.4227 42.7604 56.4774C42.6726 56.4801 42.5867 56.4818 42.5016 56.4818C40.8468 56.4818 39.3461 55.9383 38.2196 55.0384C36.9965 54.0615 35.4787 53.5296 33.9144 53.5C29.3691 53.415 24.8239 52.2849 20.2894 51.9026H20.2885C19.6538 51.1101 21.3277 49.4156 20.8045 48.5401C20.2796 47.6617 17.558 47.6021 17.1562 46.6508C22.5405 47.1908 27.94 47.5212 33.3458 47.643C35.1044 47.6824 36.8004 47.0493 38.1525 45.9229C38.1578 45.9175 38.165 45.9121 38.1704 45.9067C39.3058 44.9656 40.7994 44.4167 42.3736 44.363C42.4595 44.3594 42.5473 44.3585 42.6323 44.3585C44.2746 44.3585 45.7673 44.8949 46.8919 45.7841C48.2548 46.8622 49.9884 47.3627 51.7219 47.249C53.8629 47.1093 55.9994 46.9365 58.1359 46.7305Z" fill="#EDEDED"/>
<path d="M30.6756 52.5178C27.2089 52.3996 23.7458 52.1944 20.2894 51.9026H20.2885C19.0078 50.3045 17.9538 48.5372 17.1562 46.6509C20.2876 46.9652 23.4243 47.2078 26.5646 47.3807C27.1216 48.3388 27.7475 49.2512 28.437 50.1117H28.4379C29.1238 50.9678 29.8724 51.7728 30.6756 52.5178Z" fill="#939393"/>
<path d="M46.4086 49.8401C46.4149 50.0244 46.3949 50.2087 46.3493 50.3874C46.0334 51.631 44.6983 52.0593 42.8416 52.1233C40.7197 52.1963 39.3284 51.6729 39.277 50.1806C39.2422 49.1708 39.4469 48.1874 40.5977 47.6834C41.1476 47.4425 41.7873 47.2939 42.4735 47.2703C44.5954 47.1972 46.3573 48.3477 46.4086 49.8401Z" fill="#999999"/>
<path d="M46.3262 50.4708C45.9653 51.6743 44.4753 52.6118 42.6602 52.6745C40.5381 52.747 38.7758 51.5973 38.7248 50.1046C38.6899 49.0946 39.4474 48.1875 40.598 47.6833C40.5372 47.8866 40.5085 48.0979 40.5157 48.3137C40.5667 49.8064 42.3289 50.9562 44.4511 50.8836C45.137 50.8595 45.7764 50.7108 46.3262 50.4708Z" fill="#9BA1AA"/>
<path d="M55.011 51.9375C52.746 54.7529 49.8098 57.0053 46.4453 58.4518C43.7511 59.6101 40.7648 58.9818 37.6463 58.9818C30.6171 58.9818 28.1521 58.3102 24.0752 53.2206C27.5326 53.5121 27.2106 52.3997 30.6757 52.5187C31.7553 52.5558 32.8349 52.5845 33.9145 52.6046C35.4789 52.6342 36.9966 53.166 38.2198 54.143C39.3463 55.0429 40.847 55.5864 42.5018 55.5864C42.5868 55.5864 42.6728 55.5846 42.7606 55.5819C44.3347 55.5273 45.8274 54.9793 46.9628 54.0382C47.0121 53.9979 47.0596 53.9576 47.1061 53.9164C48.272 52.8885 49.7665 52.3082 51.3183 52.2079C52.5495 52.1282 53.7798 52.0387 55.011 51.9375Z" fill="#616161"/>
<path d="M46.4458 58.4518C43.7514 59.6096 40.783 60.2516 37.6642 60.2516C30.635 60.2516 24.367 56.9923 20.29 51.9026C23.7464 52.1944 27.2096 52.3995 30.6762 52.5178C34.6466 56.2061 39.9664 58.4608 45.8127 58.4608C46.024 58.4608 46.2353 58.4581 46.4458 58.4518Z" fill="#999999"/>
</g>
<defs>
<clipPath id="clip0_2919_21992">
<rect width="45.1748" height="45.1748" fill="white" transform="translate(15.4121 15.4126)"/>
</clipPath>
</defs>
</svg>
