<svg width="24" height="24" viewBox="0 0 24 24" fill="none" xmlns="http://www.w3.org/2000/svg">
<path d="M17.9618 7.11891C17.9045 7.10897 17.8377 7.10897 17.7805 7.11891C16.4637 7.06919 15.4141 5.94568 15.4141 4.55371C15.4141 3.13192 16.5114 1.98852 17.8759 1.98852C19.2404 1.98852 20.3377 3.14187 20.3377 4.55371C20.3282 5.94568 19.2786 7.06919 17.9618 7.11891Z" stroke="#999999" stroke-width="1.5" stroke-linecap="round" stroke-linejoin="round"/>
<path d="M16.9788 14.3571C18.2861 14.5858 19.7269 14.3472 20.7384 13.6413C22.0838 12.7067 22.0838 11.1755 20.7384 10.2409C19.7174 9.53497 18.2574 9.29634 16.9502 9.53496" stroke="#999999" stroke-width="1.5" stroke-linecap="round" stroke-linejoin="round"/>
<path d="M6.4824 7.11891C6.53965 7.10897 6.60645 7.10897 6.6637 7.11891C7.98049 7.06919 9.03011 5.94568 9.03011 4.55371C9.03011 3.13192 7.93278 1.98852 6.56828 1.98852C5.20378 1.98852 4.10645 3.14187 4.10645 4.55371C4.11599 5.94568 5.16561 7.06919 6.4824 7.11891Z" stroke="#999999" stroke-width="1.5" stroke-linecap="round" stroke-linejoin="round"/>
<path d="M7.46538 14.3571C6.15813 14.5858 4.71729 14.3472 3.70584 13.6413C2.36042 12.7067 2.36042 11.1755 3.70584 10.2409C4.72683 9.53497 6.18676 9.29634 7.49401 9.53496" stroke="#999999" stroke-width="1.5" stroke-linecap="round" stroke-linejoin="round"/>
<path d="M12.2367 14.546C12.1794 14.5361 12.1126 14.5361 12.0554 14.546C10.7386 14.4963 9.68896 13.3728 9.68896 11.9808C9.68896 10.559 10.7863 9.41565 12.1508 9.41565C13.5153 9.41565 14.6126 10.569 14.6126 11.9808C14.6031 13.3728 13.5535 14.5063 12.2367 14.546Z" stroke="#999999" stroke-width="1.5" stroke-linecap="round" stroke-linejoin="round"/>
<path d="M9.45975 17.6779C8.11433 18.6125 8.11433 20.1437 9.45975 21.0783C10.9865 22.1422 13.4865 22.1422 15.0132 21.0783C16.3586 20.1437 16.3586 18.6125 15.0132 17.6779C13.496 16.624 10.9865 16.624 9.45975 17.6779Z" stroke="#999999" stroke-width="1.5" stroke-linecap="round" stroke-linejoin="round"/>
</svg>
