<svg width="76" height="76" viewBox="0 0 76 76" fill="none" xmlns="http://www.w3.org/2000/svg">
<circle cx="38" cy="38" r="38" fill="#BBD0FF" fill-opacity="0.56"/>
<g clip-path="url(#clip0_3093_38557)">
<path d="M51.9997 37.7898C52.1806 37.6064 52.3755 37.4318 52.5802 37.2637L53.6143 40.5339C52.1583 41.4209 51.1901 42.9862 51.1901 44.7706C51.1901 47.5368 53.5134 49.7786 56.3792 49.7786C59.2446 49.7786 61.5677 47.5368 61.5677 44.7707C61.5677 42.3292 59.6479 40.1923 57.2518 39.7497L61.7696 38.2589C63.6759 39.7851 64.9992 42.1936 64.9992 44.7712C64.9992 49.3658 61.1396 53.091 56.3792 53.091C52.5119 53.091 49.0219 50.5277 47.9297 47.1423C48.1756 44.1325 49.8443 39.9744 51.9997 37.7898Z" fill="#576574"/>
<path d="M53.8244 51.6237C51.1886 49.9217 50.056 46.7128 50.9989 43.7901C51.5197 42.1761 52.2852 40.5429 53.1977 39.2164L52.5802 37.2637C52.3775 37.4291 52.1839 37.6047 52.0001 37.7898C49.8443 39.9743 48.1756 44.1325 47.9297 47.1423C49.0219 50.5281 52.5119 53.091 56.3792 53.091C56.7813 53.091 57.1768 53.0624 57.5645 53.0107C56.2115 52.8285 54.9335 52.3394 53.8244 51.6237Z" fill="#3E4B5A"/>
<path d="M56.0313 35.4456C56.1883 35.4379 56.3454 35.4338 56.5026 35.4333C58.7022 35.4333 60.7988 36.2257 62.4167 37.4274C62.7194 37.6521 62.6408 38.1122 62.2794 38.2314L56.5318 40.1279L55.0449 35.8603L56.0313 35.4456Z" fill="#BA94E8"/>
<path d="M58.4047 35.6305C57.7858 35.5033 57.1489 35.4332 56.5025 35.4332C56.3443 35.4332 56.1874 35.4383 56.0313 35.4455L55.0449 35.8603L56.5318 40.1278L59.6168 39.1098L58.4047 35.6305Z" fill="#F3B0C3"/>
<path d="M22.1406 29.7552L25.6071 32.5053C25.9914 32.8102 26.4412 33.0288 26.9239 33.1452C27.4066 33.2615 27.91 33.2728 28.3978 33.1782L30.2637 35.8368L26.9918 36.036C25.9782 36.0979 24.9782 35.7853 24.1947 35.1616L18.7812 30.8511L22.1406 29.7552Z" fill="#576574"/>
<path d="M27.6934 35.1616L22.9967 31.4218C22.684 31.1729 22.7763 30.6893 23.1602 30.564L22.1406 29.7552L18.7812 30.8511L24.1947 35.1616C24.9782 35.7853 25.9782 36.0979 26.9918 36.036L29.1703 35.9031C28.6295 35.7587 28.1263 35.5061 27.6934 35.1616Z" fill="#3E4B5A"/>
<path d="M47.1411 28.9488C45.9541 29.4018 41.5607 31.7542 39.1352 32.9475C38.0763 33.4685 37.2252 34.3123 36.714 35.348L36.1727 36.4455L29.9121 29.4419C34.4032 23.5377 37.4734 25.0011 41.5463 25.8922C44.4499 26.5272 47.7586 28.7198 47.7586 28.7198C47.5543 28.7269 47.3475 28.8701 47.1411 28.9488Z" fill="#BA94E8"/>
<path d="M35.9804 28.1579C37.2854 26.7022 38.4765 25.8731 39.6222 25.4449C36.4335 24.7196 33.6703 24.5012 29.9121 29.442L36.1727 36.4456L36.714 35.3482C37.1044 34.5582 37.6947 33.8758 38.4304 33.3639L35.9811 30.6242C35.3483 29.916 35.3462 28.865 35.9803 28.1579H35.9804Z" fill="#F3B0C3"/>
<path d="M19.62 36.4508C22.6227 36.4508 25.2651 37.9333 26.8087 40.1799L23.6608 41.6305C22.7095 40.492 21.2536 39.7628 19.62 39.7628C16.7546 39.7628 14.4314 42.0051 14.4314 44.7707C14.4314 47.5367 16.7547 49.7786 19.62 49.7786C22.2757 49.7786 24.4641 47.8524 24.7706 45.3692L28.2285 45.2073C27.9933 49.5992 24.2294 53.091 19.62 53.091C14.8595 53.091 11 49.3658 11 44.7711C11 40.1759 14.8595 36.4508 19.62 36.4508Z" fill="#576574"/>
<path d="M13.9881 44.7711C13.9881 40.6667 17.0681 37.2589 21.1185 36.5772C20.6237 36.4933 20.1223 36.451 19.62 36.4508C14.8595 36.4508 11 40.1759 11 44.7711C11 49.3658 14.8595 53.091 19.62 53.091C20.13 53.091 20.629 53.0461 21.1147 52.9637C17.0661 52.281 13.9881 48.8739 13.9881 44.7711Z" fill="#3E4B5A"/>
<path d="M12.7572 24.5093H14.5346C15.3112 24.5093 16.0597 24.7932 16.6287 25.3041L18.7826 27.2374L22.2816 30.013L18.9783 31.0238C17.8305 31.2978 16.426 30.8253 15.6729 29.9458L12.1265 25.8024C11.6857 25.287 12.0651 24.5093 12.7572 24.5093Z" fill="#FF6B6B"/>
<path d="M19.1089 29.9458L15.5625 25.8024C15.2613 25.4505 15.3437 24.9761 15.6465 24.7104C15.2918 24.5775 14.9147 24.5093 14.5342 24.5093H12.7572C12.0651 24.5093 11.6857 25.287 12.1265 25.8024L15.6728 29.9458C16.4259 30.8257 17.8304 31.2978 18.9782 31.0238L20.0719 30.6889C19.6996 30.4973 19.3659 30.2461 19.1089 29.9458Z" fill="#EE5253"/>
<path d="M33.6612 44.3436C33.3683 43.7611 33.22 43.1353 33.22 42.4835C33.22 41.8158 33.3761 41.1756 33.6843 40.5804L33.7128 40.5254L31.8341 37.849L18.8219 43.744L18.8214 43.7444C17.7738 44.2267 18.1512 45.7827 19.3397 45.7291L29.8157 45.2479L29.737 45.1027C29.667 44.9734 29.6727 44.8212 29.7523 44.6944C29.8323 44.5672 29.967 44.4944 30.1219 44.4944H33.737L33.6612 44.3436Z" fill="#E4EAF8"/>
<path d="M24.3577 43.7444L24.3581 43.744L33.1697 39.7521L31.8341 37.849L18.8219 43.744L18.8214 43.7444C17.7738 44.2267 18.1512 45.7827 19.3397 45.7291L24.1452 45.5084C23.5878 45.0705 23.5725 44.1058 24.3577 43.7444Z" fill="#C7D2E5"/>
<path d="M32.5146 32.2218L36.1731 36.1311L34.7941 38.9249C34.1905 39.3408 33.7015 39.893 33.3699 40.5333L28.2402 33.2251L32.5146 32.2218Z" fill="#C7D2E5"/>
<path d="M32.6913 35.0284C32.2064 34.3372 32.5846 33.3916 33.4247 33.1945L32.5146 32.2218L28.2402 33.2251L33.3699 40.5334C33.7015 39.8931 34.1905 39.3408 34.7941 38.9249L35.0549 38.3961L32.6913 35.0284Z" fill="#AABCD6"/>
<path d="M50.5864 30.1895C50.4703 30.2357 50.3536 30.2829 50.2375 30.3299L49.3402 27.7217L46.9667 26.2202C46.2873 25.7904 46.1044 24.9203 46.5572 24.2766C47.0104 23.6328 47.9278 23.459 48.6068 23.8888L51.4066 25.66C51.6815 25.833 51.8876 26.0907 51.9912 26.3912L52.8124 28.777C52.2957 29.3119 51.5747 29.7966 50.5864 30.1895ZM55.0346 35.6468L57.9532 44.2839C58.209 45.0406 57.7805 45.8542 56.9966 46.1012C56.8428 46.1497 56.6871 46.1724 56.5334 46.1724C55.9047 46.1724 55.3197 45.7862 55.1142 45.1779L52.4271 37.2258C53.1802 36.607 54.0776 36.0853 55.0346 35.6468Z" fill="#576574"/>
<path d="M51.566 27.7218L49.1921 26.2203C48.5131 25.7909 48.3298 24.9208 48.783 24.277C48.8284 24.2132 48.8793 24.1532 48.9351 24.0977L48.605 23.8889C47.9261 23.4594 47.0086 23.6332 46.5554 24.277C46.1022 24.9208 46.2855 25.7908 46.9645 26.2203L49.3384 27.7218L50.2353 30.3299C50.3519 30.2831 50.4684 30.2357 50.5846 30.1895C51.1977 29.9458 51.7078 29.6667 52.13 29.3624L51.566 27.7218ZM57.34 45.1779L54.9216 38.0219C54.7556 37.53 54.9369 36.9869 55.3765 36.6906L55.3839 36.6854L55.0329 35.6468C54.0759 36.0853 53.1785 36.6071 52.4254 37.2259L55.1124 45.1779C55.318 45.7862 55.903 46.1725 56.5317 46.1725C56.7421 46.1725 56.9501 46.1295 57.142 46.0463C57.3339 45.9631 57.5053 45.8415 57.6449 45.6896C57.5076 45.5413 57.4037 45.3671 57.34 45.1779Z" fill="#3E4B5A"/>
<path d="M38.9095 38.4223C38.4645 38.2856 38.0004 38.2162 37.5334 38.2164C36.5526 38.2164 35.5366 38.4132 34.7949 38.9249L36.7156 35.0336C37.2268 33.9979 38.0779 33.154 39.1369 32.633C41.5623 31.4398 45.9557 29.2972 47.1427 28.8444C48.8075 28.2089 50.6195 30.2942 50.6195 30.2942C47.6262 31.5045 44.4186 33.1051 42.1411 34.2582C40.403 35.1377 39.3017 36.611 38.9096 38.4223H38.9095Z" fill="#E4EAF8"/>
<path d="M38.0944 36.0651C38.6056 35.0293 39.4568 34.1855 40.5158 33.6645C42.9411 32.4712 47.3345 30.3286 48.5215 29.8757C49.174 29.6264 49.8493 29.7963 50.4294 30.0945C49.9226 29.5883 48.4848 28.3317 47.1421 28.8443C45.9556 29.2972 41.5618 31.4397 39.1364 32.633C38.0777 33.1541 37.2267 33.998 36.7155 35.0336L34.7949 38.9249C35.4083 38.5019 36.2097 38.2943 37.0233 38.2351L38.0944 36.0651Z" fill="#C7D2E5"/>
<path d="M39.0258 39.9819C38.9498 39.9492 38.8852 39.8958 38.84 39.8283C38.7948 39.7608 38.7709 39.682 38.7712 39.6017C38.7712 39.1778 38.8166 38.7531 38.9065 38.3392L38.9262 38.2465L38.8331 38.2179C38.3774 38.0777 37.9019 38.0064 37.4237 38.0067C34.8656 38.0067 32.7852 40.0149 32.7852 42.4837C32.7852 43.1674 32.9408 43.8239 33.2482 44.4351L33.2778 44.4943H34.9118C35.0452 44.4943 35.171 44.5548 35.2553 44.6597C35.574 45.0547 35.9881 45.3681 36.4615 45.5726C36.9349 45.7772 37.453 45.8665 37.9704 45.8327C39.5136 45.7338 40.7773 44.5389 40.9098 43.0533C41.0269 41.7426 40.2696 40.5084 39.0258 39.9819Z" fill="#576574"/>
<path d="M38.7293 44.6594C38.6444 44.5544 38.5192 44.4943 38.3852 44.4943H37.7343C36.7163 44.4943 36.4205 43.6477 36.35 43.365C36.2894 43.0748 36.2588 42.7795 36.2586 42.4835C36.2586 40.7104 37.3327 39.1743 38.8854 38.4502C38.8927 38.4132 38.8985 38.3759 38.9065 38.3388L38.9262 38.2466L38.8331 38.2176C38.3773 38.0775 37.9019 38.0063 37.4237 38.0063C34.8656 38.0063 32.7852 40.0149 32.7852 42.4835C32.7852 43.1674 32.9408 43.8239 33.2482 44.4351L33.2778 44.4943H34.9118C35.0452 44.4943 35.171 44.5544 35.2553 44.6594C35.5739 45.0544 35.988 45.368 36.4614 45.5726C36.9348 45.7772 37.4529 45.8665 37.9704 45.8328C38.5266 45.797 39.0461 45.6185 39.4898 45.3358C39.1995 45.1521 38.9426 44.9236 38.7293 44.6594Z" fill="#3E4B5A"/>
<path d="M40.3971 41.298H40.3967C40.7024 41.8039 40.8581 42.4047 40.8012 43.0441C40.6732 44.4795 39.4524 45.6324 37.9626 45.7277C36.8973 45.7962 35.9398 45.3368 35.3412 44.5949C35.2374 44.4664 35.0804 44.3892 34.9115 44.3892H29.9039C29.4662 44.3892 29.2096 44.8641 29.4592 45.2107L32.964 50.0696C33.0139 50.1387 33.0804 50.1952 33.1578 50.2342C33.2352 50.2732 33.3213 50.2935 33.4086 50.2935H47.1978C47.3303 50.2935 47.4582 50.2466 47.5573 50.1617C47.6563 50.0767 47.7196 49.9596 47.7351 49.8326C47.8566 48.8429 48.2084 46.4002 48.9685 43.8755L40.3971 41.298Z" fill="#FF6B6B"/>
<path d="M36.8195 50.2935C36.7322 50.2935 36.6462 50.2732 36.5689 50.2342C36.4916 50.1952 36.4252 50.1387 36.3753 50.0696L32.8706 45.2108C32.6204 44.8641 32.8771 44.3897 33.3146 44.3893H29.9038C29.4663 44.3893 29.2096 44.8641 29.4592 45.2108L32.9645 50.0696C33.0142 50.1387 33.0806 50.1952 33.158 50.2342C33.2353 50.2732 33.3212 50.2936 33.4085 50.2935H47.1983H36.8195ZM39.452 45.2342C41.2747 46.4387 44.0057 45.3611 44.2121 43.0441C44.2294 42.8434 44.2254 42.6415 44.2002 42.4417L40.3971 41.298H40.3966C40.7024 41.8039 40.8581 42.4047 40.8012 43.0441C40.72 43.9531 40.2006 44.7484 39.452 45.2342Z" fill="#EE5253"/>
<path d="M62.5805 31.4143C62.7007 31.4143 62.8185 31.4191 62.9356 31.4255L62.2129 29.277C61.9999 28.645 61.7196 28.036 61.3766 27.4597L59.0406 27.239C58.6853 27.2054 58.3419 27.0967 58.035 26.9206C57.7281 26.7444 57.4652 26.5052 57.265 26.2198L54.0425 21.6259L53.5694 21.9058C53.1694 22.1429 53.0058 22.6279 53.1912 23.0447C53.8871 24.6078 54.9872 28.3794 50.5104 30.1895C47.7263 31.3152 44.8518 32.6876 42.6309 33.8017C43.9912 33.8212 45.4829 34.1142 46.9636 34.7095C49.0751 35.5585 50.7535 36.8548 51.7579 38.2592C51.8368 38.1707 51.9179 38.084 52.001 37.9992C54.3424 35.6269 58.8327 34.5449 61.5278 34.09C60.4031 33.8923 59.6026 33.3886 59.6026 32.7969C59.603 32.0334 60.9362 31.4143 62.5805 31.4143Z" fill="#BA94E8"/>
<path d="M45.5518 34.0482C45.7104 33.9678 45.8752 33.8852 46.042 33.8013H46.0416L46.2555 33.6947C48.4456 32.6004 51.2252 31.2794 53.9217 30.1891C56.3483 29.2081 57.1361 27.6505 57.2378 26.1804L54.0425 21.6256L53.57 21.9056C53.1694 22.1429 53.0062 22.6276 53.1913 23.0443C53.8871 24.6079 54.9872 28.3791 50.5104 30.1892C47.7267 31.3149 44.8518 32.6876 42.6309 33.8014C43.4873 33.8137 44.3962 33.9349 45.3215 34.1712C45.3973 34.1291 45.4739 34.0877 45.5518 34.0483V34.0482Z" fill="#F3B0C3"/>
<path d="M58.9325 27.3439C58.5771 27.3104 58.2337 27.2017 57.9268 27.0255C57.6199 26.8492 57.357 26.6099 57.1568 26.3245L53.9141 21.7019L54.8691 21.1356C55.0607 21.0221 55.2878 20.9778 55.5101 21.0105C55.7323 21.0433 55.9354 21.151 56.0831 21.3145L60.2442 25.922C60.7047 26.4327 61.108 26.9889 61.4473 27.5813L58.9325 27.3439Z" fill="#8AC2FF"/>
<path d="M60.0754 26.3738C59.72 26.3402 59.3767 26.2315 59.0698 26.0553C58.7629 25.8791 58.5 25.6399 58.2997 25.3545L55.2502 21.0071C55.1145 21.0229 54.984 21.0667 54.8674 21.1355L53.9121 21.7018L57.1549 26.3244C57.355 26.6098 57.618 26.8491 57.9249 27.0252C58.2318 27.2013 58.5751 27.31 58.9305 27.3435L61.4457 27.5809C61.2144 27.1798 60.9539 26.795 60.6662 26.4294L60.0754 26.3738Z" fill="#54A0FF"/>
<path d="M43.2994 43.2954C42.3027 42.8946 41.4083 42.3884 40.6437 41.8165C40.5053 41.432 40.2863 41.0792 40.0003 40.78C39.7144 40.4808 39.3676 40.2417 38.9817 40.0776C38.7869 39.9954 38.6621 39.8077 38.6621 39.6016C38.6621 37.2707 40.0005 35.1309 42.1396 34.0482C42.3739 33.9299 42.6085 33.812 42.8433 33.6947C44.1641 33.6951 45.6242 33.9723 47.0716 34.554C49.2155 35.4162 50.8885 36.7669 51.8039 38.2075C50.475 39.6705 49.5501 41.8981 48.918 44.045C47.2808 44.3189 45.2782 44.0907 43.2994 43.2954Z" fill="#EE5253"/>
<path d="M38.9818 40.0776C39.3677 40.2417 39.7144 40.4808 40.0003 40.7799C40.2862 41.0791 40.5051 41.432 40.6433 41.8165C41.408 42.3883 42.3029 42.8946 43.2995 43.2954C43.566 43.4023 43.8365 43.5 44.1102 43.5884C44.1592 43.4154 44.1951 43.2346 44.212 43.0441C44.3265 41.7601 43.5714 40.5768 42.3926 40.0777C42.1974 39.9953 42.073 39.8077 42.073 39.6016C42.073 37.273 43.4086 35.1358 45.5435 34.0517C44.6124 33.812 43.6987 33.6947 42.8434 33.6947C42.6019 33.8152 42.3654 33.9337 42.1397 34.0482C40.0007 35.1309 38.6621 37.2707 38.6621 39.6016C38.6621 39.8077 38.7866 39.9954 38.9818 40.0776Z" fill="#D83941"/>
<path d="M18.8076 27.2073C19.5887 26.3257 20.9376 26.1813 21.9293 26.8366C25.0332 28.8872 29.9123 29.442 29.9123 29.442L32.6512 32.3686L28.2397 33.2256C27.76 33.3187 27.2648 33.3076 26.7901 33.1931C26.3154 33.0787 25.873 32.8637 25.495 32.5639L18.7812 27.2374C18.7899 27.2271 18.7985 27.2171 18.8076 27.2073Z" fill="#3E4B5A"/>
<path d="M30.9007 32.5638L25.8798 28.5802C24.5503 28.181 23.1113 27.6175 21.9297 26.8364C20.9376 26.1812 19.5887 26.3255 18.8076 27.2072C18.799 27.2171 18.7899 27.227 18.7812 27.2373L25.495 32.5638C25.873 32.8637 26.3154 33.0786 26.7901 33.193C27.2649 33.3074 27.76 33.3183 28.2397 33.2251L31.0548 32.6783C31.0024 32.6417 30.9509 32.6035 30.9007 32.5638Z" fill="#374451"/>
<path d="M59.5293 32.789C59.5293 32.0151 60.825 31.3881 62.4231 31.3881C62.5965 31.3881 62.7659 31.3956 62.9307 31.4099L63.3616 32.6916C63.5515 33.2558 63.168 33.8483 62.5595 33.9318C62.1839 33.9838 61.8092 34.0418 61.4355 34.1059C60.3236 33.9107 59.5293 33.3946 59.5293 32.789Z" fill="#576574"/>
<path d="M61.7388 32.789C61.7388 32.3075 62.2406 31.8827 63.0048 31.6305L62.9302 31.4099C62.7616 31.3953 62.5924 31.388 62.4231 31.3881C60.825 31.3881 59.5293 32.0151 59.5293 32.789C59.5293 33.3946 60.3236 33.9108 61.4355 34.1059C61.8558 34.034 62.236 33.9763 62.5595 33.9319C62.6403 33.9207 62.7193 33.8999 62.7947 33.8698C62.1508 33.6128 61.7388 33.2244 61.7388 32.789Z" fill="#3E4B5A"/>
</g>
<defs>
<clipPath id="clip0_3093_38557">
<rect width="54" height="34" fill="white" transform="translate(11 21)"/>
</clipPath>
</defs>
</svg>
