<svg width="76" height="77" viewBox="0 0 76 77" fill="none" xmlns="http://www.w3.org/2000/svg">
<circle cx="38" cy="38.5" r="38" fill="#BBD0FF" fill-opacity="0.56"/>
<path d="M27.8572 22.3066H24.418C27.8462 19.2096 32.2304 17.3494 36.8601 17.0275C41.4897 16.7057 46.0935 17.941 49.9253 20.5333H40.6467C34.9057 20.5333 33.5981 22.3066 27.8572 22.3066Z" fill="url(#paint0_linear_3093_37734)"/>
<path d="M32.327 40.0399H58.7031C58.3175 42.9597 57.2962 45.7617 55.7096 48.2525C54.1231 50.7432 52.0092 52.8632 49.514 54.466C48.1867 53.655 46.6667 53.2054 45.1076 53.1626C42.5282 53.1626 42.0983 54.2266 39.5189 54.2266H37.8172C36.8291 54.226 35.8507 54.4184 34.9378 54.7927C34.0249 55.167 33.1956 55.7158 32.4972 56.4078L32.0852 56.8245C29.682 56.0807 27.4403 54.8989 25.4755 53.3399C25.8302 53.3362 26.1786 53.2471 26.4906 53.0802C26.8027 52.9134 27.0691 52.6738 27.2668 52.3823L27.7683 51.6375C27.966 51.346 28.2323 51.1064 28.5444 50.9396C28.8565 50.7728 29.2049 50.6836 29.5596 50.6799H32.9092C33.262 50.6683 33.6091 50.5879 33.9306 50.4435C34.2521 50.2991 34.5417 50.0934 34.7829 49.8381C35.024 49.5829 35.2121 49.2831 35.3362 48.9559C35.4604 48.6288 35.5183 48.2806 35.5065 47.9312C35.4947 47.5819 35.4136 47.2383 35.2677 46.9201C35.1218 46.6018 34.914 46.3151 34.6562 46.0763C34.3984 45.8375 34.0956 45.6514 33.7651 45.5285C33.4346 45.4055 33.0829 45.3483 32.7301 45.3599C32.2337 45.3602 31.745 45.2389 31.3074 45.0068C30.8699 44.7748 30.4971 44.4392 30.2223 44.0299C29.9475 43.6207 29.5748 43.2851 29.1372 43.053C28.6997 42.821 28.2109 42.6996 27.7146 42.6999H18.4001C17.9235 40.966 17.6825 39.1769 17.6836 37.3799C21.1497 37.3799 23.4962 37.1494 26.6398 38.7099C28.405 39.5858 30.3525 40.0412 32.327 40.0399Z" fill="url(#paint1_linear_3093_37734)"/>
<path d="M24.9201 33.8334H18.0059C18.3252 32.0057 18.8978 30.2304 19.7075 28.5577C34.342 31.4571 34.2077 31.5192 35.9541 31.5192C40.6651 31.5192 41.6234 29.4001 46.3434 29.4001H57.2431C58.2206 31.6462 58.776 34.05 58.8821 36.4934H34.7003C30.0609 36.4934 29.4877 33.8334 24.9201 33.8334Z" fill="url(#paint2_linear_3093_37734)"/>
<path d="M57.2433 29.4H46.3435C44.5521 29.4023 42.7795 29.7611 41.131 30.4551C38.674 31.503 35.9528 31.7845 33.3301 31.262L19.7077 28.5577C20.8572 26.1934 22.4568 24.0709 24.4187 22.3067C28.1713 22.3067 30.5895 22.4574 34.2705 21.42C38.2023 20.3028 40.0742 20.5333 49.926 20.5333C53.1703 22.7365 55.7095 25.8133 57.2433 29.4ZM18.006 33.8333H24.9202C29.4969 33.8333 30.0521 36.4933 34.6288 36.4933H58.8822C58.9433 37.6777 58.8924 38.8651 58.73 40.04H32.327C30.3512 40.0524 28.4012 39.5964 26.6398 38.71C23.4783 37.1495 21.1407 37.38 17.6836 37.38L18.006 33.8333ZM35.5961 48.02C35.5961 48.7255 35.313 49.4021 34.8091 49.9009C34.3052 50.3998 33.6218 50.68 32.9092 50.68H29.5954C29.2407 50.6837 28.8923 50.7729 28.5802 50.9397C28.2682 51.1065 28.0018 51.3461 27.8041 51.6376L27.3026 52.3824C27.1027 52.68 26.8309 52.9235 26.5118 53.0908C26.1927 53.258 25.8365 53.3437 25.4755 53.34C22.0247 50.637 19.544 46.9065 18.4001 42.7H27.7146C28.2109 42.6998 28.6997 42.8211 29.1372 43.0531C29.5748 43.2852 29.9475 43.6208 30.2223 44.03C30.4971 44.4393 30.8699 44.7749 31.3074 45.0069C31.745 45.239 32.2337 45.3603 32.7301 45.36C33.0977 45.3357 33.4664 45.3865 33.8134 45.5092C34.1603 45.632 34.4781 45.8241 34.7468 46.0735C35.0156 46.323 35.2297 46.6245 35.3758 46.9594C35.5219 47.2942 35.5969 47.6553 35.5961 48.02Z" fill="#4795EA"/>
<path d="M44.5523 50.6801C47.0255 50.6801 49.0304 49.4892 49.0304 48.0201C49.0304 46.551 47.0255 45.3601 44.5523 45.3601C42.0791 45.3601 40.0742 46.551 40.0742 48.0201C40.0742 49.4892 42.0791 50.6801 44.5523 50.6801Z" fill="#4795EA"/>
<path d="M49.5139 54.4661C46.9653 56.1134 44.0788 57.1796 41.0631 57.5875C38.0473 57.9954 34.9777 57.7348 32.0762 56.8246L32.4971 56.4079C33.1955 55.7159 34.0248 55.1671 34.9377 54.7928C35.8506 54.4185 36.829 54.2262 37.8171 54.2267C39.6084 54.2267 40.7279 54.3242 42.2952 53.6947C43.2812 53.306 44.3391 53.128 45.3995 53.1723C46.4598 53.2166 47.4987 53.4823 48.4482 53.9518L49.5139 54.4661Z" fill="#4795EA"/>
<path d="M47.2396 26.74C48.7235 26.74 49.9265 25.9461 49.9265 24.9667C49.9265 23.9873 48.7235 23.1934 47.2396 23.1934C45.7557 23.1934 44.5527 23.9873 44.5527 24.9667C44.5527 25.9461 45.7557 26.74 47.2396 26.74Z" fill="#54A5FF"/>
<path d="M35.5948 27.6265C36.0895 27.6265 36.4905 27.2295 36.4905 26.7398C36.4905 26.2501 36.0895 25.8531 35.5948 25.8531C35.1002 25.8531 34.6992 26.2501 34.6992 26.7398C34.6992 27.2295 35.1002 27.6265 35.5948 27.6265Z" fill="#54A5FF"/>
<path d="M31.1183 48.9065C31.6129 48.9065 32.0139 48.5095 32.0139 48.0198C32.0139 47.5302 31.6129 47.1332 31.1183 47.1332C30.6236 47.1332 30.2227 47.5302 30.2227 48.0198C30.2227 48.5095 30.6236 48.9065 31.1183 48.9065Z" fill="#54A5FF"/>
<path d="M51.7159 44.4733C52.2106 44.4733 52.6116 44.0763 52.6116 43.5866C52.6116 43.0969 52.2106 42.7 51.7159 42.7C51.2213 42.7 50.8203 43.0969 50.8203 43.5866C50.8203 44.0763 51.2213 44.4733 51.7159 44.4733Z" fill="#4795EA"/>
<path d="M41.8663 34.72C42.361 34.72 42.7619 34.323 42.7619 33.8333C42.7619 33.3436 42.361 32.9467 41.8663 32.9467C41.3717 32.9467 40.9707 33.3436 40.9707 33.8333C40.9707 34.323 41.3717 34.72 41.8663 34.72Z" fill="#4795EA"/>
<path d="M57.8474 18.7841H59.4273V20.3482H57.8474V18.7841ZM54.6875 18.7841H56.2674V20.3482H54.6875V18.7841ZM56.2674 17.22H57.8474V18.7841H56.2674V17.22ZM56.2674 20.3482H57.8474V21.9124H56.2674V20.3482Z" fill="#0B4177"/>
<path d="M23.3415 56.3041H24.9215V57.8683H23.3415V56.3041ZM20.1816 56.3041H21.7616V57.8683H20.1816V56.3041ZM21.7616 54.74H23.3415V56.3041H21.7616V54.74ZM21.7616 57.8683H23.3415V59.4324H21.7616V57.8683Z" fill="#0B4177"/>
<defs>
<linearGradient id="paint0_linear_3093_37734" x1="24.418" y1="19.6466" x2="49.8895" y2="19.6466" gradientUnits="userSpaceOnUse">
<stop stop-color="#54A5FF"/>
<stop offset="1" stop-color="#8AD3FE"/>
</linearGradient>
<linearGradient id="paint1_linear_3093_37734" x1="17.6836" y1="47.0978" x2="58.7031" y2="47.0978" gradientUnits="userSpaceOnUse">
<stop stop-color="#54A5FF"/>
<stop offset="1" stop-color="#8AD3FE"/>
</linearGradient>
<linearGradient id="paint2_linear_3093_37734" x1="18.0059" y1="32.5211" x2="58.8552" y2="32.5211" gradientUnits="userSpaceOnUse">
<stop stop-color="#54A5FF"/>
<stop offset="1" stop-color="#8AD3FE"/>
</linearGradient>
</defs>
</svg>
