<svg width="76" height="77" viewBox="0 0 76 77" fill="none" xmlns="http://www.w3.org/2000/svg">
<circle cx="38" cy="38.5" r="38" fill="#BBD0FF" fill-opacity="0.56"/>
<g clip-path="url(#clip0_3093_37383)">
<g clip-path="url(#clip1_3093_37383)">
<path d="M57.0888 25.002C57.6091 25.6883 58.0894 26.404 58.5274 27.1455C59.2304 28.3203 59.822 29.5584 60.2943 30.8434C60.923 32.5322 61.335 34.2938 61.5205 36.0862C61.7299 37.9428 61.6974 39.8187 61.424 41.6669C59.6741 53.806 48.4149 62.228 36.2759 60.4783C32.9988 60.0059 29.8689 58.8067 27.1152 56.9686C24.3614 55.1304 22.0536 52.6997 20.3605 49.8545C18.831 47.2743 17.8382 44.4119 17.4416 41.4388C17.0451 38.4657 17.253 35.4432 18.0529 32.5524C21.3401 20.7339 33.5858 13.8179 45.4043 17.1051C50.0536 18.3982 54.1552 21.1703 57.0888 25.002Z" fill="#FFCB5A"/>
<path d="M28.0941 19.4117C31.9634 17.0999 36.4491 16.0316 40.9451 16.351C36.1272 20.0972 36.581 21.7676 30.7396 25.9097C24.7727 30.129 23.4114 29.0186 18.0527 32.5524C19.5746 27.0385 23.1736 22.3286 28.0941 19.4117Z" fill="#C68803"/>
<path d="M58.5259 27.1455C59.2289 28.3204 59.8205 29.5584 60.2928 30.8435C60.9215 32.5322 61.3335 34.2938 61.519 36.0862L61.4418 36.0959C57.6666 37.7083 55.0307 36.8876 52.0087 37.94C48.9866 38.9924 47.6928 40.1317 46.399 42.6807C45.1052 45.2297 45.6556 47.8848 42.1025 49.9317C39.0707 51.6793 37.3907 50.3566 34.6776 51.1386C31.9645 51.9207 25.0804 55.0586 25.0804 55.0586L24.897 55.2807C23.1037 53.7264 21.5716 51.8944 20.359 49.8545C19.6673 48.6913 19.0855 47.4663 18.6211 46.1952L19.1135 46.0214C19.1135 46.0214 23.4776 46.0214 26.2583 44.0807C29.039 42.14 30.1783 37.4476 35.7783 35.0531C41.3783 32.6586 43.1066 34.6283 46.6404 33.6435C50.097 32.6876 55.9673 28.1014 57.0873 25.0021C57.6076 25.6883 58.0879 26.404 58.5259 27.1455Z" fill="#F8AF11"/>
<path d="M61.5205 36.0862C61.7299 37.9428 61.6974 39.8187 61.424 41.6669C54.3177 45.8282 55.1095 47.5276 47.7136 51.7855C40.1826 56.1207 38.6764 54.7593 31.1453 59.0945C28.8643 58.1818 26.7526 56.8926 24.8984 55.2807L25.0819 55.0586C25.0819 55.0586 31.966 51.9303 34.6791 51.1386C37.3922 50.3469 39.0722 51.6793 42.104 49.9317C45.6571 47.8848 45.1067 45.2296 46.4005 42.6807C47.6943 40.1317 48.9784 38.9924 52.0102 37.94C55.0419 36.8876 57.6681 37.7083 61.4433 36.0958L61.5205 36.0862Z" fill="#C68803"/>
<path d="M57.0881 25.0021C55.9681 28.1014 50.0978 32.6876 46.6412 33.6435C43.1074 34.6283 41.3792 32.6587 35.7792 35.0532C30.1792 37.4476 29.0398 42.1497 26.2592 44.0807C23.4785 46.0118 19.1143 46.0214 19.1143 46.0214L18.6219 46.1952C17.929 44.3354 17.4937 42.3896 17.3281 40.4118C25.0909 35.3428 26.3654 36.6849 34.553 31.2007C42.7405 25.7166 41.9874 24.0366 49.6536 18.7745C52.5596 20.2784 55.0981 22.4048 57.0881 25.0021Z" fill="#FFCB5A"/>
<path d="M49.6541 18.7745C41.9879 24.0366 42.7507 25.7069 34.5534 31.2007C26.3562 36.6945 25.0914 35.3428 17.3286 40.4118C17.0936 37.7698 17.3389 35.107 18.0527 32.5525C23.4114 29.0187 24.7727 30.129 30.7396 25.9097C36.581 21.7676 36.1272 20.0973 40.9452 16.3511C43.983 16.557 46.9466 17.3817 49.6541 18.7745Z" fill="#E76E54"/>
<path d="M47.7128 51.7855C55.1087 47.5276 54.3169 45.8282 61.4231 41.6669C59.6723 53.8058 48.4124 62.227 36.2735 60.4761C34.5147 60.2225 32.7927 59.7586 31.1445 59.0945C38.6756 54.7593 40.1818 56.1207 47.7128 51.7855Z" fill="#F38A68"/>
<path d="M35.1584 40.4716C33.4533 41.4902 32.818 43.3324 32.2618 44.9584C32.0006 46.0929 31.4451 47.1385 30.6513 47.9901C27.3628 50.6211 21.9868 50.933 21.0879 50.9668C21.5091 51.5969 21.9619 52.2053 22.4444 52.7897C24.166 52.6786 28.5542 52.138 31.8553 49.4973C32.9545 48.4325 33.7272 47.0763 34.0828 45.5879C34.58 44.1473 35.0483 42.7879 36.1461 42.1304C37.6574 41.239 39.6048 41.737 40.5025 43.2446C40.6464 43.4835 40.7414 43.7487 40.7818 44.0247C40.8223 44.3007 40.8074 44.582 40.7381 44.8522C40.6697 45.1256 40.5476 45.3827 40.3788 45.6085C40.2101 45.8342 39.9981 46.0242 39.7552 46.1672C39.1157 46.5523 38.2851 46.3461 37.9 45.7065L37.8869 45.6844C37.7833 45.5091 37.7527 45.3001 37.8016 45.1023C37.8505 44.9046 37.9751 44.734 38.1486 44.6272C38.2299 44.5798 38.3264 44.5656 38.418 44.5876C38.5049 44.6097 38.5791 44.6662 38.6236 44.744L40.2911 43.7708C40.1408 43.5112 39.9401 43.2843 39.7008 43.1034C39.4616 42.9225 39.1885 42.7913 38.8978 42.7174C38.6058 42.6428 38.3019 42.6268 38.0036 42.6702C37.7053 42.7136 37.4186 42.8156 37.1599 42.9704C35.8835 43.7417 35.4698 45.3991 36.234 46.6799C37.1557 48.2411 39.1685 48.7595 40.7298 47.8378L40.7449 47.8289C42.6729 46.6892 43.3119 44.2025 42.1724 42.2745L42.1613 42.2559C40.7176 39.8328 37.5854 39.0348 35.1584 40.4716Z" fill="#E76E54"/>
<path d="M15.31 66.5H13.379V63.6035C13.379 62.0037 12.0822 60.7069 10.4824 60.7069V58.7759C12.0822 58.7759 13.379 57.4791 13.379 55.8793V52.9828H15.31V55.8793C15.31 57.4791 16.6068 58.7759 18.2066 58.7759V60.7069C16.6068 60.7069 15.31 62.0037 15.31 63.6035V66.5ZM13.379 59.7414C13.7443 60.0166 14.0693 60.3416 14.3445 60.7069C14.6197 60.3416 14.9447 60.0166 15.31 59.7414C14.9447 59.4662 14.6197 59.1412 14.3445 58.7759C14.0693 59.1412 13.7443 59.4662 13.379 59.7414Z" fill="#D95354"/>
<path d="M63.5867 12.431H65.5177V14.3621H63.5867V12.431ZM59.7246 12.431H61.6556V14.3621H59.7246V12.431ZM61.6556 10.5H63.5867V12.431H61.6556V10.5ZM61.6556 14.3621H63.5867V16.2931H61.6556V14.3621Z" fill="#FFCB5A"/>
<path d="M62.6198 62.6379C63.1531 62.6379 63.5853 62.2057 63.5853 61.6724C63.5853 61.1392 63.1531 60.7069 62.6198 60.7069C62.0866 60.7069 61.6543 61.1392 61.6543 61.6724C61.6543 62.2057 62.0866 62.6379 62.6198 62.6379Z" fill="black"/>
</g>
</g>
<defs>
<clipPath id="clip0_3093_37383">
<rect width="56" height="56" fill="white" transform="translate(10 10.5)"/>
</clipPath>
<clipPath id="clip1_3093_37383">
<rect width="56" height="56" fill="white" transform="translate(10 10.5)"/>
</clipPath>
</defs>
</svg>
