<svg width="76" height="76" viewBox="0 0 76 76" fill="none" xmlns="http://www.w3.org/2000/svg">
<circle cx="38" cy="38" r="38" fill="#DDDCDC"/>
<path d="M58.7749 39.8646V55.5633C58.7749 55.8384 58.6657 56.1021 58.4712 56.2966C58.2768 56.4911 58.013 56.6004 57.738 56.6004H18.5536C18.2786 56.6004 18.0148 56.4911 17.8203 56.2966C17.6259 56.1022 17.5166 55.8384 17.5166 55.5633V28.0601C17.5166 27.7733 17.6305 27.4984 17.8332 27.2956C18.036 27.0929 18.3109 26.979 18.5976 26.979H32.749C33.0861 26.979 33.4094 27.1129 33.6478 27.3513C33.8861 27.5896 34.02 27.9129 34.02 28.25V32.9033H41.2343C41.5093 32.9033 41.7731 33.0126 41.9676 33.2071C42.1621 33.4016 42.2713 33.6653 42.2713 33.9404V37.7905C42.2713 38.0655 42.3806 38.3293 42.5751 38.5238C42.7696 38.7183 43.0333 38.8275 43.3084 38.8275H57.7377C57.8739 38.8275 58.0088 38.8543 58.1346 38.9064C58.2605 38.9585 58.3748 39.0349 58.4712 39.1312C58.5675 39.2275 58.6439 39.3418 58.696 39.4676C58.7481 39.5935 58.7749 39.7284 58.7749 39.8646Z" fill="#616161"/>
<path d="M58.991 39.8646V55.5634C58.991 55.8385 58.8817 56.1022 58.6872 56.2967C58.4928 56.4912 58.229 56.6004 57.954 56.6005H54.8958C55.9833 56.5391 56.4112 55.6372 56.4112 54.7903V41.6766C56.4112 41.4849 56.335 41.301 56.1994 41.1654C56.0638 41.0298 55.88 40.9537 55.6882 40.9537H41.1109C40.9045 40.9537 40.7001 40.913 40.5095 40.834C40.3188 40.7551 40.1455 40.6393 39.9996 40.4934C39.8537 40.3474 39.7379 40.1742 39.6589 39.9835C39.5799 39.7928 39.5393 39.5885 39.5393 39.3821V34.5437H32.765C32.6625 34.5437 32.5609 34.5235 32.4661 34.4843C32.3714 34.445 32.2853 34.3875 32.2127 34.315C32.1402 34.2424 32.0827 34.1563 32.0434 34.0616C32.0042 33.9668 31.984 33.8652 31.984 33.7627V28.6204C31.984 27.991 31.5875 27.4464 31.1201 26.979H32.9654C33.3025 26.979 33.6258 27.1129 33.8641 27.3513C34.1025 27.5897 34.2364 27.9129 34.2364 28.25V32.9033H41.4506C41.7257 32.9033 41.9894 33.0126 42.1839 33.2071C42.3784 33.4016 42.4877 33.6653 42.4877 33.9404V37.7906C42.4877 38.0656 42.5969 38.3294 42.7914 38.5239C42.9859 38.7183 43.2497 38.8276 43.5247 38.8276H57.954C58.229 38.8276 58.4928 38.9369 58.6873 39.1313C58.8817 39.3258 58.991 39.5896 58.991 39.8646Z" fill="#616161"/>
<path d="M42.0951 26.5635C42.3213 26.2077 42.6244 25.9072 42.9823 25.6843C43.3401 25.4614 43.7435 25.3218 44.1625 25.2757C44.5816 25.2296 45.0056 25.2782 45.4034 25.418C45.8011 25.5578 46.1623 25.7852 46.4604 26.0834L51.7995 31.4225C52.0977 31.7206 52.3251 32.0818 52.4649 32.4795C52.6047 32.8773 52.6533 33.3013 52.6072 33.7204C52.5612 34.1394 52.4215 34.5428 52.1986 34.9006C51.9757 35.2585 51.6752 35.5616 51.3194 35.7878C47.1603 38.4294 39.7651 42.5885 37.5297 40.3532C35.2944 38.1178 39.4535 30.7223 42.0951 26.5635Z" fill="#F5F5F5"/>
<path d="M49.5001 33.869C50.6239 32.4614 50.6331 30.2566 50.6331 30.2566L51.7991 31.4225C52.0972 31.7205 52.3246 32.0818 52.4644 32.4795C52.6042 32.8772 52.6529 33.3013 52.6068 33.7203C52.5607 34.1394 52.421 34.5427 52.1981 34.9006C51.9752 35.2584 51.6748 35.5616 51.3189 35.7877C47.1599 38.4294 39.7646 42.5884 37.5293 40.3531C37.5293 40.3531 44.1551 40.5637 49.5001 33.869Z" fill="#E6E6E6"/>
<path d="M45.7476 31.1208L50.1712 26.6973L51.1851 27.7112L46.7616 32.1347C46.6951 32.2019 46.616 32.2552 46.5289 32.2916C46.4418 32.3281 46.3483 32.347 46.2539 32.3472C46.1594 32.3474 46.0659 32.329 45.9786 32.293C45.8913 32.2569 45.8119 32.204 45.7452 32.1372C45.6784 32.0704 45.6254 31.9911 45.5894 31.9038C45.5534 31.8165 45.5349 31.7229 45.5352 31.6285C45.5354 31.5341 45.5543 31.4406 45.5907 31.3535C45.6272 31.2663 45.6805 31.1873 45.7476 31.1208Z" fill="#BFBFBF"/>
<path d="M50.6785 27.2043L51.1855 27.7113L46.762 32.1348C46.6275 32.2693 46.4452 32.3448 46.255 32.3448C46.0649 32.3448 45.8825 32.2693 45.748 32.1348L50.6785 27.2043Z" fill="#8C8C8C"/>
<path d="M58.8193 22.2663C58.373 22.7127 52.4521 27.6789 52.4521 27.6789C51.7507 28.2293 50.8242 28.2998 50.2033 27.6789C49.5824 27.058 49.6422 26.1115 50.2033 25.4301C50.2033 25.4301 55.1695 19.5092 55.6159 19.0629C56.0407 18.6381 56.6169 18.3994 57.2176 18.3994C57.8184 18.3994 58.3945 18.6381 58.8193 19.0629C59.2441 19.4877 59.4828 20.0638 59.4828 20.6646C59.4828 21.2653 59.2441 21.8415 58.8193 22.2663Z" fill="#C0BECA"/>
<path d="M58.8201 22.2663C58.3738 22.7127 52.4529 27.6789 52.4529 27.6789C51.7515 28.2293 50.825 28.2998 50.2041 27.6789C50.2041 27.6789 51.3859 27.8545 51.947 27.1731C51.947 27.1731 57.6027 21.9787 58.0491 21.5324C58.9337 20.6478 58.8201 19.0632 58.8201 19.0632C59.2448 19.488 59.4834 20.0641 59.4834 20.6648C59.4834 21.2654 59.2448 21.8415 58.8201 22.2663Z" fill="#616161"/>
<path d="M57.8463 38.407H47.6184C49.0404 37.6279 50.3731 36.8174 51.4369 36.1416C51.8458 35.8818 52.1911 35.5334 52.4473 35.1222C52.7035 34.7109 52.864 34.2474 52.917 33.7658C52.97 33.2842 52.914 32.7968 52.7534 32.3398C52.5927 31.8827 52.3314 31.4675 51.9887 31.125L50.1232 29.2594L50.8685 28.514C50.9647 28.5291 51.062 28.5369 51.1595 28.5376C51.6867 28.5281 52.1954 28.3418 52.604 28.0085L52.6146 28.0001C52.857 27.7968 58.5548 23.0168 59.009 22.5627C59.2583 22.3134 59.4561 22.0174 59.591 21.6916C59.726 21.3658 59.7954 21.0167 59.7954 20.6641C59.7954 20.3115 59.726 19.9623 59.591 19.6365C59.4561 19.3108 59.2583 19.0148 59.009 18.7654C58.7596 18.5161 58.4636 18.3183 58.1379 18.1834C57.8121 18.0485 57.463 17.979 57.1103 17.979C56.7577 17.979 56.4086 18.0485 56.0828 18.1834C55.757 18.3183 55.461 18.5161 55.2117 18.7654C54.7576 19.2196 49.9775 24.9174 49.7718 25.1627C49.5677 25.4008 49.4164 25.6794 49.3279 25.9803C49.2394 26.2812 49.2157 26.5974 49.2585 26.9081L48.515 27.6516L46.6496 25.7859C46.3071 25.4432 45.8919 25.1819 45.4348 25.0212C44.9777 24.8605 44.4904 24.8046 44.0088 24.8576C43.5272 24.9106 43.0637 25.0711 42.6524 25.3273C42.2412 25.5835 41.8928 25.9288 41.6329 26.3377C40.5965 27.9696 39.2428 30.2336 38.1721 32.4827H34.5483V28.2493C34.5478 27.801 34.3694 27.3712 34.0524 27.0542C33.7354 26.7372 33.3056 26.5589 32.8573 26.5584H18.706C18.308 26.5589 17.9265 26.7172 17.6452 26.9985C17.3638 27.2799 17.2055 27.6614 17.2051 28.0593V55.5627C17.2055 55.949 17.3591 56.3193 17.6323 56.5925C17.9054 56.8656 18.2758 57.0192 18.662 57.0197H57.8463C58.2326 57.0192 58.6029 56.8656 58.8761 56.5925C59.1492 56.3193 59.3028 55.949 59.3033 55.5627V39.8639C59.3028 39.4776 59.1492 39.1073 58.8761 38.8342C58.6029 38.561 58.2326 38.4074 57.8463 38.407ZM58.4634 39.8639V44.3312H51.0516V39.2468H57.846C58.0096 39.2469 58.1666 39.3119 58.2823 39.4276C58.3981 39.5433 58.4632 39.7002 58.4634 39.8639ZM18.0449 38.407V33.3225H25.457V38.407H18.0449ZM18.0449 39.2468H33.7084V44.3312H18.0449V39.2468ZM18.0449 45.1711H25.457V50.2555H18.0449V45.1711ZM26.2966 45.1711H41.9599V50.2555H26.2968L26.2966 45.1711ZM50.2118 51.0953V56.1798H34.5483V51.0953H50.2118ZM42.7999 50.2555V45.1711H58.4634V50.2555H42.7999ZM50.2118 39.2468V44.3312H34.5483V39.2468H36.4265C36.5087 39.7753 36.7527 40.2653 37.1251 40.6493C37.6352 41.1595 38.3574 41.4148 39.3039 41.4147C40.4515 41.4147 41.9288 41.039 43.7551 40.2869C44.4994 39.9803 45.2623 39.6257 46.0189 39.2466L50.2118 39.2468ZM50.418 25.6994C51.796 24.0565 55.4503 19.7147 55.8058 19.3593C55.9772 19.188 56.1806 19.052 56.4044 18.9593C56.6283 18.8666 56.8683 18.8188 57.1106 18.8188C57.3529 18.8188 57.5929 18.8666 57.8167 18.9593C58.0406 19.052 58.244 19.188 58.4154 19.3593C58.5867 19.5306 58.7226 19.7341 58.8154 19.9579C58.9081 20.1818 58.9558 20.4218 58.9558 20.6641C58.9558 20.9064 58.9081 21.1463 58.8154 21.3702C58.7226 21.5941 58.5867 21.7975 58.4154 21.9689C58.0602 22.3239 53.7277 25.9705 52.0807 27.3523C51.5994 27.7271 50.8926 27.8814 50.3932 27.3817C49.9539 26.9422 49.9652 26.2493 50.418 25.6994ZM49.7993 27.9753C49.8702 28.0452 49.9462 28.1096 50.0268 28.1678L46.3574 31.8374C46.3008 31.8914 46.2256 31.9215 46.1474 31.9215C46.0692 31.9215 45.994 31.8914 45.9375 31.8374C45.8818 31.7817 45.8506 31.7061 45.8506 31.6274C45.8506 31.5487 45.8818 31.4731 45.9375 31.4174L49.6069 27.748C49.6652 27.8285 49.7295 27.9045 49.7993 27.9753V27.9753ZM42.3415 26.7881C42.5339 26.4854 42.7919 26.2298 43.0963 26.0402C43.4008 25.8505 43.7439 25.7317 44.1004 25.6925C44.457 25.6533 44.8178 25.6947 45.1561 25.8137C45.4945 25.9327 45.8018 26.1261 46.0554 26.3798L47.921 28.2454L45.3435 30.8232C45.1302 31.0364 45.0105 31.3255 45.0104 31.6271C45.0104 31.9286 45.1302 32.2178 45.3434 32.431C45.5566 32.6442 45.8458 32.764 46.1473 32.764C46.4489 32.764 46.738 32.6443 46.9513 32.431L49.5292 29.8531L51.3949 31.7188C51.6485 31.9723 51.842 32.2797 51.961 32.618C52.0799 32.9564 52.1213 33.3172 52.0821 33.6737C52.0429 34.0303 51.9241 34.3734 51.7345 34.6779C51.5449 34.9823 51.2892 35.2403 50.9865 35.4326C49.009 36.6886 46.0936 38.4157 43.4355 39.5103C40.534 40.7053 38.5573 40.8939 37.7189 40.0556C36.8806 39.2172 37.0691 37.2405 38.2641 34.3389C39.3588 31.6809 41.0859 28.7655 42.3419 26.7881L42.3415 26.7881ZM37.4872 34.0192C36.7487 35.8125 36.3738 37.2683 36.3604 38.4069H26.2968V33.3225H37.7859C37.6825 33.556 37.583 33.7883 37.4876 34.0193L37.4872 34.0192ZM18.706 27.3983H32.8573C33.083 27.3985 33.2993 27.4883 33.4588 27.6478C33.6184 27.8073 33.7082 28.0237 33.7084 28.2493V32.4827H18.0449V28.0593C18.0451 27.8841 18.1148 27.716 18.2388 27.5921C18.3627 27.4682 18.5307 27.3985 18.706 27.3983ZM18.0449 55.5627V51.0953H33.7084V56.1798H18.662C18.4984 56.1796 18.3416 56.1146 18.2259 55.9989C18.1102 55.8832 18.0451 55.7263 18.0449 55.5627ZM57.8463 56.1798H51.052V51.0953H58.4637V55.5627C58.4636 55.7264 58.3984 55.8833 58.2827 55.999C58.1669 56.1147 58.01 56.1797 57.8463 56.1798Z" fill="black"/>
</svg>
