<svg width="24" height="24" viewBox="0 0 24 24" fill="none" xmlns="http://www.w3.org/2000/svg">
<path d="M12.3972 22C17.6671 22 21.9392 17.5228 21.9392 12C21.9392 6.47715 17.6671 2 12.3972 2C7.12732 2 2.85522 6.47715 2.85522 12C2.85522 17.5228 7.12732 22 12.3972 22Z" stroke="#999999" stroke-width="1.5" stroke-linecap="round" stroke-linejoin="round"/>
<path d="M8.58048 3H9.53468C7.67399 8.84 7.67399 15.16 9.53468 21H8.58048" stroke="#999999" stroke-width="1.5" stroke-linecap="round" stroke-linejoin="round"/>
<path d="M15.2598 3C17.1205 8.84 17.1205 15.16 15.2598 21" stroke="#999999" stroke-width="1.5" stroke-linecap="round" stroke-linejoin="round"/>
<path d="M3.80933 16V15C9.38185 16.95 15.4124 16.95 20.9849 15V16" stroke="#999999" stroke-width="1.5" stroke-linecap="round" stroke-linejoin="round"/>
<path d="M3.80933 8.99961C9.38185 7.04961 15.4124 7.04961 20.9849 8.99961" stroke="#999999" stroke-width="1.5" stroke-linecap="round" stroke-linejoin="round"/>
</svg>
