<svg width="76" height="76" viewBox="0 0 76 76" fill="none" xmlns="http://www.w3.org/2000/svg">
<circle cx="38" cy="38" r="38" fill="#E0DEDE"/>
<g clip-path="url(#clip0_2919_21749)">
<path d="M23.9225 35.4927C19.2298 35.4927 15.4121 39.3104 15.4121 44.0031C15.4121 48.6957 19.2298 52.5134 23.9225 52.5134C28.6152 52.5134 32.4329 48.6956 32.4329 44.0031C32.4329 39.3105 28.6152 35.4927 23.9225 35.4927ZM23.9225 49.8354C20.7065 49.8354 18.0902 47.219 18.0902 44.0031C18.0902 40.7871 20.7065 38.1708 23.9225 38.1708C27.1385 38.1708 29.7548 40.7872 29.7548 44.0031C29.7548 47.2189 27.1385 49.8354 23.9225 49.8354Z" fill="#41495A"/>
<path d="M23.9229 35.4927V38.1708C27.1388 38.1708 29.7551 40.7872 29.7551 44.0031C29.7551 47.2189 27.1387 49.8353 23.9229 49.8353V52.5134C28.6155 52.5134 32.4332 48.6956 32.4332 44.0031C32.4332 39.3105 28.6155 35.4927 23.9229 35.4927Z" fill="#141E32"/>
<path d="M32.5286 35.3025C32.0091 35.3025 31.5148 34.9984 31.2972 34.4907L28.8381 28.7536C28.5468 28.0738 28.8616 27.2866 29.5414 26.9952C30.221 26.7039 31.0083 27.0187 31.2997 27.6984L33.7587 33.4355C34.0501 34.1153 33.7352 34.9025 33.0555 35.1939C32.8891 35.2655 32.7098 35.3024 32.5286 35.3025Z" fill="#616161"/>
<path d="M52.608 35.4927C47.9154 35.4927 44.0977 39.3105 44.0977 44.0031C44.0977 48.6956 47.9154 52.5134 52.608 52.5134C57.3007 52.5134 61.1184 48.6957 61.1184 44.0031C61.1184 39.3104 57.3006 35.4927 52.608 35.4927ZM52.608 49.8354C49.3921 49.8354 46.7758 47.219 46.7758 44.0032C46.7758 40.7873 49.3921 38.1709 52.608 38.1709C55.824 38.1709 58.4403 40.7871 58.4403 44.0031C58.4403 47.219 55.8239 49.8354 52.608 49.8354Z" fill="#41495A"/>
<path d="M47.9775 29.4806C47.8222 29.2523 47.6 29.0776 47.3415 28.9805C47.083 28.8833 46.8008 28.8685 46.5336 28.938L32.1908 32.6671C31.9262 32.7358 31.689 32.884 31.5111 33.0915L22.9055 43.1315C22.7388 43.3259 22.6313 43.5641 22.5959 43.8177C22.5604 44.0714 22.5985 44.3298 22.7055 44.5625C22.8125 44.7952 22.984 44.9923 23.1997 45.1305C23.4153 45.2686 23.6661 45.342 23.9222 45.342H36.8306C37.0416 45.342 37.2495 45.2921 37.4375 45.1965C37.6256 45.1009 37.7883 44.9623 37.9126 44.7918L47.9525 31.0228C48.1152 30.7997 48.205 30.5317 48.2095 30.2556C48.2139 29.9795 48.1329 29.7088 47.9775 29.4806ZM26.8336 42.664L32.1445 36.4679L34.7999 42.664H26.8336ZM37.1347 41.3132L34.3721 34.8671L43.5808 32.4728L37.1347 41.3132Z" fill="#616161"/>
<path d="M33.9629 29.5652H28.2258C27.4863 29.5652 26.8867 28.9657 26.8867 28.2261C26.8867 27.4866 27.4863 26.8871 28.2258 26.8871H33.9629C34.7024 26.8871 35.3019 27.4866 35.3019 28.2261C35.3019 28.9657 34.7024 29.5652 33.9629 29.5652Z" fill="#9BA1AA"/>
<path d="M46.5337 28.9382L37.1348 31.3819V34.149L43.5808 32.4731L37.1348 41.3134V45.3067C37.4473 45.234 37.7234 45.0514 37.9127 44.7922L47.9526 31.0231C48.1153 30.8 48.205 30.5321 48.2095 30.2559C48.214 29.9798 48.133 29.7091 47.9776 29.4808C47.8223 29.2525 47.6002 29.0777 47.3417 28.9806C47.0831 28.8834 46.8009 28.8686 46.5337 28.9382Z" fill="#616161"/>
<path d="M53.8444 43.488L46.6731 26.2768C46.3887 25.5941 45.6046 25.2713 44.922 25.5557C44.2394 25.8402 43.9166 26.6241 44.201 27.3068L51.3723 44.518C51.6567 45.2007 52.4408 45.5235 53.1234 45.2391C53.806 44.9547 54.1288 44.1707 53.8444 43.488Z" fill="#616161"/>
<path d="M51.0102 24.9341C50.7763 24.2326 50.0184 23.8531 49.3164 24.0873L45.0136 25.5214C44.312 25.7553 43.9329 26.5136 44.1668 27.2152C44.4006 27.9167 45.1585 28.2962 45.8606 28.062L50.1634 26.6279C50.865 26.394 51.2441 25.6356 51.0102 24.9341Z" fill="#616161"/>
<path d="M52.6084 35.4927V38.1708C55.8244 38.1708 58.4407 40.7872 58.4407 44.0031C58.4407 47.2189 55.8243 49.8353 52.6084 49.8353V52.5134C57.3011 52.5134 61.1188 48.6956 61.1188 44.0031C61.1188 39.3105 57.301 35.4927 52.6084 35.4927Z" fill="#141E32"/>
</g>
<defs>
<clipPath id="clip0_2919_21749">
<rect width="45.7063" height="45.7063" fill="white" transform="translate(15.4121 15.4126)"/>
</clipPath>
</defs>
</svg>
