<svg width="76" height="76" viewBox="0 0 76 76" fill="none" xmlns="http://www.w3.org/2000/svg">
<circle cx="38" cy="38" r="38" fill="#BBD0FF" fill-opacity="0.56"/>
<g clip-path="url(#clip0_3316_157)">
<path d="M59.552 33.9813C58.2062 34.2133 56.8585 35.3066 55.5002 35.423C51.5674 35.757 47.5943 35.3997 43.6526 35.5116C39.71 35.6227 35.7638 36.2038 31.8203 36.0919C27.8786 35.9808 23.9718 35.1776 20.0399 34.8427C18.6395 34.7237 17.2327 33.7682 15.8242 33.7145C15.9863 32.8838 18.0833 32.4881 18.3349 31.6933C18.6714 30.6308 17.1967 29.1843 17.6823 28.1977C24.2592 28.401 30.8434 27.5037 37.4204 27.2951C39.4208 27.2315 41.4194 27.3766 43.3715 27.7142C45.0388 28.0016 46.7383 28.1467 48.4423 28.1467C49.2975 28.1467 50.1535 28.1108 51.0078 28.0365C53.2374 27.8449 55.4626 28.5254 57.6868 28.2846C58.5648 30.0898 59.1923 32.0064 59.552 33.9813Z" fill="#E27C48"/>
<path d="M24.9926 28.3392C24.5565 29.4916 24.2136 30.6888 23.9727 31.9236C23.8169 32.7188 23.7041 33.5291 23.6369 34.352C22.4388 34.1953 21.2407 34.0494 20.0399 33.9473C18.6395 33.8282 17.2327 33.7682 15.8242 33.7145C16.1969 31.8015 16.8217 29.9464 17.6823 28.1977C20.1187 28.2729 22.5552 28.3204 24.9926 28.3392Z" fill="#DF6937"/>
<path d="M59.9153 38C59.9153 38.2902 59.9099 38.5785 59.8992 38.8659C58.4387 39.1247 56.9756 40.2422 55.5008 40.3685C51.568 40.7025 47.595 40.3452 43.6532 40.4571C39.7106 40.5682 35.7644 41.1493 31.8209 41.0374C27.8792 40.9263 23.9724 40.1231 20.0406 39.7882C18.5058 39.6575 16.9647 38.703 15.4219 38.6457C15.4147 38.4316 17.6829 36.9756 17.6829 36.7598C17.6829 35.2939 15.5535 35.1015 15.8248 33.7145C17.2334 33.7682 18.6401 33.8282 20.0406 33.9473C23.9724 34.2822 27.8792 35.0854 31.8209 35.1964C35.7644 35.3084 39.7106 34.7272 43.6532 34.6162C47.595 34.5043 51.568 34.8615 55.5008 34.5275C56.8592 34.4111 58.2068 34.2132 59.5526 33.9813C59.7908 35.2851 59.9153 36.6282 59.9153 38Z" fill="#EFEDEF"/>
<path d="M57.6882 28.2846C55.4639 28.5254 53.2387 28.7403 51.0091 28.932C50.1548 29.0063 49.2988 29.0421 48.4437 29.0421C46.7397 29.0421 45.0401 28.897 43.3728 28.6096C41.4207 28.272 39.4221 28.127 37.4217 28.1905C30.8447 28.3992 24.2606 28.401 17.6836 28.1977C18.3781 26.7836 21.9193 27.3867 22.8858 26.1615C23.6153 25.2368 21.7161 22.439 22.5807 21.6413C25.1766 21.8473 27.4564 21.1157 28.924 21.2178C29.7263 21.2733 30.4884 21.6395 30.9844 22.2726C31.3659 22.7615 32.0375 23.0857 32.8022 23.0857C33.514 23.0857 34.1453 22.8045 34.5375 22.3711C35.0909 21.7586 35.8565 21.3861 36.6821 21.3897C42.0744 21.4139 47.4667 22.1266 52.8492 21.7344C54.838 23.5925 56.4856 25.8105 57.6882 28.2846Z" fill="#F3D332"/>
<path d="M52.8486 21.7344C47.4661 22.1266 42.0738 22.3093 36.6814 22.2851C35.8558 22.2815 35.0902 22.654 34.5369 23.2665C34.1447 23.6999 33.5134 23.9811 32.8015 23.9811C32.0368 23.9811 31.3652 23.6569 30.9838 23.168C30.4877 22.5349 29.7257 22.1687 28.9234 22.1132C27.4557 22.0111 25.176 21.8472 22.5801 21.6413C24.0625 20.274 26.537 20.6603 28.3493 19.7331C31.0563 18.348 33.2781 15.9463 36.4861 15.779C36.8761 15.7587 37.2687 15.7484 37.6637 15.7484C43.5333 15.7484 48.8719 18.0219 52.8486 21.7344Z" fill="#D16161"/>
<path d="M23.7764 39.3154C22.5326 39.1525 21.288 38.9994 20.0406 38.8928C18.5058 38.7621 16.9648 38.703 15.422 38.6457C15.4148 38.4316 15.4121 38.2158 15.4121 38C15.4121 36.5342 15.5536 35.1015 15.8249 33.7145C17.2334 33.7682 18.6402 33.8282 20.0406 33.9473C21.2414 34.0494 22.4395 34.1953 23.6376 34.352C23.5866 34.9645 23.5606 35.5842 23.5606 36.2092C23.5606 36.425 23.5633 36.6408 23.5704 36.8548C23.5937 37.6875 23.6636 38.5087 23.7764 39.3154Z" fill="#E3E0E4"/>
<path d="M28.6124 22.0917C27.5222 23.418 26.5892 24.866 25.8321 26.4068C25.5231 27.0345 25.2429 27.6792 24.9939 28.3392C22.5566 28.3204 20.1201 28.2729 17.6836 28.1977C18.9023 25.7164 20.5705 23.4957 22.5807 21.6413C24.9993 21.8329 27.1439 21.9887 28.6124 22.0917Z" fill="#ECC52E"/>
<path d="M37.0342 15.7574C34.6989 16.7603 32.5705 18.1518 30.7286 19.8504C29.9722 20.5479 29.2649 21.2968 28.6117 22.0917C27.1432 21.9887 24.9987 21.8329 22.5801 21.6413C26.4027 18.116 31.4619 15.9123 37.0342 15.7574Z" fill="#CA4646"/>
<path d="M40.7942 28.0797C40.756 29.2038 41.6364 29.6229 43.0956 29.6725C44.4829 29.7196 45.4357 29.3245 45.5799 28.2811C45.5873 28.227 45.5921 28.1723 45.594 28.1169C45.6321 26.9929 44.4801 26.0416 43.021 25.9919C42.4173 25.9714 41.8556 26.1085 41.4018 26.3558C40.7587 26.7065 40.8165 27.4207 40.7942 28.0797Z" fill="#D16161"/>
<path d="M45.5783 28.2809C45.435 29.3241 44.2701 30.1094 42.8821 30.0629C41.4235 30.0127 40.271 29.0618 40.3095 27.9371C40.3364 27.1357 40.9605 26.4632 41.8461 26.1614C41.838 26.2152 41.8336 26.2698 41.8318 26.3253C41.7933 27.45 42.9457 28.4009 44.4044 28.4511C44.8234 28.4654 45.2219 28.4036 45.5783 28.2809Z" fill="#CA4646"/>
<path d="M17.0817 19.1359H17.3693V19.4228C17.3693 19.6009 17.44 19.7717 17.566 19.8976C17.6919 20.0236 17.8627 20.0943 18.0408 20.0943C18.219 20.0943 18.3898 20.0236 18.5157 19.8976C18.6417 19.7717 18.7124 19.6009 18.7124 19.4228V19.1359H19C19.1781 19.1359 19.349 19.0651 19.4749 18.9392C19.6009 18.8132 19.6716 18.6424 19.6716 18.4643C19.6716 18.2862 19.6009 18.1154 19.4749 17.9894C19.349 17.8635 19.1781 17.7927 19 17.7927H18.7124V17.5058C18.7124 17.3277 18.6417 17.1569 18.5157 17.0309C18.3898 16.905 18.219 16.8342 18.0408 16.8342C17.8627 16.8342 17.6919 16.905 17.566 17.0309C17.44 17.1569 17.3693 17.3277 17.3693 17.5058V17.7927H17.0817C16.9036 17.7927 16.7328 17.8635 16.6069 17.9894C16.4809 18.1154 16.4102 18.2862 16.4102 18.4643C16.4102 18.6424 16.4809 18.8132 16.6069 18.9392C16.7328 19.0651 16.9036 19.1359 17.0817 19.1359Z" fill="#E3E0E4"/>
<path d="M57.607 19.0616V18.7747H57.8946C58.2655 18.7747 58.5661 18.474 58.5661 18.1031C58.5661 17.7322 58.2655 17.4315 57.8946 17.4315H57.607V17.1446C57.607 16.7737 57.3064 16.473 56.9355 16.473C56.5645 16.473 56.2639 16.7737 56.2639 17.1446V17.4315H55.9763C55.6053 17.4315 55.3047 17.7322 55.3047 18.1031C55.3047 18.474 55.6053 18.7747 55.9763 18.7747H56.2639V19.0616C56.2639 19.4324 56.5645 19.7331 56.9355 19.7331C57.3064 19.7331 57.607 19.4324 57.607 19.0616Z" fill="#CA4646"/>
<path d="M59.9153 53.3568H59.6466V53.0889C59.6466 52.718 59.346 52.4173 58.9751 52.4173C58.6041 52.4173 58.3035 52.718 58.3035 53.0889V53.3568H58.0349C57.6639 53.3568 57.3633 53.6575 57.3633 54.0284C57.3633 54.3993 57.6639 54.6999 58.0349 54.6999H58.3035V54.9679C58.3035 55.3388 58.6041 55.6394 58.9751 55.6394C59.346 55.6394 59.6466 55.3388 59.6466 54.9679V54.6999H59.9153C60.2863 54.6999 60.5869 54.3993 60.5869 54.0284C60.5869 53.6575 60.2863 53.3568 59.9153 53.3568Z" fill="#E3E0E4"/>
<path d="M59.8992 38.8659C59.7926 41.6489 59.1747 44.3003 58.1369 46.7305H58.136C55.9995 46.9365 53.863 48.0047 51.722 48.1444C49.9884 48.2582 48.2549 47.7576 46.892 46.6795C45.7674 45.7903 44.2747 45.254 42.6324 45.254C42.5474 45.254 42.4596 45.2549 42.3737 45.2584C40.7995 45.3122 39.3059 45.8611 38.1705 46.8022C38.1651 46.8075 38.1579 46.8129 38.1526 46.8183C36.8004 47.9448 35.1045 48.5778 33.3458 48.5384C27.9401 48.4166 22.5406 47.1908 17.1563 46.6508C16.7035 45.5786 18.6173 44.1632 18.3355 43.0131C17.9675 41.5113 15.467 40.2501 15.4219 38.6456C16.9647 38.7029 18.5058 38.762 20.0405 38.8928C23.9724 39.2277 27.8792 40.0309 31.8209 40.1419C35.7644 40.2538 39.7106 39.6727 43.6532 39.5617C47.5949 39.4497 51.568 39.807 55.5008 39.473C56.9756 39.3468 58.4387 39.1247 59.8992 38.8659Z" fill="#E5936A"/>
<path d="M26.5647 47.3806C23.4244 47.2078 20.2877 46.9651 17.1563 46.6508C16.1123 44.1785 15.5016 41.4788 15.4219 38.6456C16.9647 38.7029 18.5058 38.762 20.0405 38.8928C21.2879 38.9993 22.5325 39.1524 23.7763 39.3154C24.0467 41.2549 24.5679 43.1139 25.3048 44.86C25.6719 45.7303 26.0937 46.5711 26.5647 47.3806Z" fill="#E27C48"/>
<path d="M22.4516 39.3154C22.3964 40.2485 22.8647 40.6432 24.076 40.7149C24.9844 40.7687 25.7895 40.7324 26.1584 40.1458C26.2813 39.9502 26.3559 39.7316 26.3697 39.4984C26.4249 38.5653 25.4879 37.7507 24.2765 37.679C24.055 37.6655 23.8327 37.6784 23.6142 37.7173C22.7116 37.8798 22.4965 38.5589 22.4516 39.3154Z" fill="#ECC52E"/>
<path d="M26.1699 40.124C25.8081 40.7231 24.9951 41.1126 24.0755 41.058C22.8639 40.9863 21.9273 40.1715 21.9828 39.2384C22.0267 38.4818 22.7108 37.8792 23.6134 37.7171C23.4979 37.9069 23.4289 38.1183 23.4155 38.343C23.36 39.2761 24.2966 40.0909 25.5082 40.1625C25.7374 40.176 25.9603 40.1616 26.1699 40.124Z" fill="#DBB72B"/>
<path d="M19.0136 57.4405H18.7261V57.1536C18.7261 56.9755 18.6553 56.8047 18.5294 56.6788C18.4034 56.5528 18.2326 56.4821 18.0545 56.4821C17.8764 56.4821 17.7056 56.5528 17.5796 56.6788C17.4537 56.8047 17.3829 56.9755 17.3829 57.1536V57.4405H17.0954C16.9173 57.4405 16.7465 57.5113 16.6205 57.6372C16.4946 57.7632 16.4238 57.934 16.4238 58.1121C16.4238 58.2902 16.4946 58.461 16.6205 58.587C16.7465 58.7129 16.9173 58.7837 17.0954 58.7837H17.3829V59.0706C17.3829 59.2487 17.4537 59.4195 17.5796 59.5455C17.7056 59.6714 17.8764 59.7422 18.0545 59.7422C18.2326 59.7422 18.4034 59.6714 18.5294 59.5455C18.6553 59.4195 18.7261 59.2487 18.7261 59.0706V58.7837H19.0136C19.1917 58.7837 19.3625 58.7129 19.4885 58.587C19.6144 58.461 19.6852 58.2902 19.6852 58.1121C19.6852 57.934 19.6144 57.7632 19.4885 57.6372C19.3625 57.5113 19.1917 57.4405 19.0136 57.4405Z" fill="#CA4646"/>
<path d="M58.1359 46.7305C57.3375 48.601 56.286 50.3531 55.0109 51.9375C53.7796 52.0387 52.5493 53.0237 51.3181 53.1034C49.7663 53.2037 48.2718 53.7839 47.1059 54.8119C47.0594 54.853 47.0119 54.8933 46.9627 54.9336C45.8273 55.8747 44.3346 56.4227 42.7604 56.4774C42.6726 56.4801 42.5867 56.4818 42.5016 56.4818C40.8468 56.4818 39.3461 55.9383 38.2196 55.0384C36.9965 54.0615 35.4787 53.5296 33.9144 53.5C29.3691 53.415 24.8239 52.2849 20.2894 51.9026H20.2885C19.6538 51.1101 21.3277 49.4156 20.8045 48.5401C20.2796 47.6617 17.558 47.6021 17.1562 46.6508C22.5405 47.1908 27.94 47.5212 33.3458 47.643C35.1044 47.6824 36.8004 47.0493 38.1525 45.9229C38.1578 45.9175 38.165 45.9121 38.1704 45.9067C39.3058 44.9656 40.7994 44.4167 42.3736 44.363C42.4595 44.3594 42.5473 44.3585 42.6323 44.3585C44.2746 44.3585 45.7673 44.8949 46.8919 45.7841C48.2548 46.8622 49.9884 47.3627 51.7219 47.249C53.8629 47.1093 55.9994 46.9365 58.1359 46.7305Z" fill="#ECC52E"/>
<path d="M30.6756 52.5178C27.2089 52.3996 23.7458 52.1944 20.2894 51.9026H20.2885C19.0078 50.3045 17.9538 48.5372 17.1562 46.6509C20.2876 46.9652 23.4243 47.2078 26.5646 47.3807C27.1216 48.3388 27.7475 49.2512 28.437 50.1117H28.4379C29.1238 50.9678 29.8724 51.7728 30.6756 52.5178Z" fill="#DBB72B"/>
<path d="M46.4086 49.8401C46.4149 50.0244 46.3949 50.2087 46.3493 50.3874C46.0334 51.631 44.6983 52.0593 42.8416 52.1233C40.7197 52.1963 39.3284 51.6729 39.277 50.1806C39.2422 49.1708 39.4469 48.1874 40.5977 47.6834C41.1476 47.4425 41.7873 47.2939 42.4735 47.2703C44.5954 47.1972 46.3573 48.3477 46.4086 49.8401Z" fill="#E27C48"/>
<path d="M46.3271 50.4708C45.9663 51.6743 44.4763 52.6118 42.6612 52.6745C40.539 52.747 38.7768 51.5972 38.7258 50.1045C38.6908 49.0945 39.4484 48.1874 40.599 47.6833C40.5381 47.8866 40.5095 48.0979 40.5166 48.3137C40.5677 49.8064 42.3299 50.9561 44.4521 50.8836C45.138 50.8594 45.7773 50.7108 46.3271 50.4708Z" fill="#DF6937"/>
<path d="M55.012 51.9375C52.747 54.7529 49.8108 57.0053 46.4463 58.4518C43.7521 59.6101 40.7658 58.9818 37.6472 58.9818C30.6181 58.9818 28.1531 58.3102 24.0762 53.2206C27.5335 53.5121 27.2115 52.3997 30.6767 52.5187C31.7563 52.5558 32.8359 52.5845 33.9155 52.6046C35.4798 52.6342 36.9976 53.166 38.2208 54.143C39.3472 55.0429 40.848 55.5864 42.5028 55.5864C42.5878 55.5864 42.6738 55.5846 42.7615 55.5819C44.3357 55.5273 45.8284 54.9793 46.9638 54.0382C47.0131 53.9979 47.0605 53.9576 47.1071 53.9164C48.273 52.8885 49.7674 52.3082 51.3192 52.2079C52.5505 52.1282 53.7808 52.0387 55.012 51.9375Z" fill="#E5936A"/>
<path d="M46.4448 58.4518C43.7504 59.6096 40.782 60.2516 37.6632 60.2516C30.6341 60.2516 24.366 56.9923 20.2891 51.9026C23.7454 52.1944 27.2086 52.3995 30.6752 52.5178C34.6456 56.2061 39.9654 58.4608 45.8117 58.4608C46.023 58.4608 46.2344 58.4581 46.4448 58.4518Z" fill="#E27C48"/>
</g>
<defs>
<clipPath id="clip0_3316_157">
<rect width="45.1748" height="45.1748" fill="white" transform="translate(15.4121 15.4126)"/>
</clipPath>
</defs>
</svg>
