<svg width="76" height="76" viewBox="0 0 76 76" fill="none" xmlns="http://www.w3.org/2000/svg">
<circle cx="38" cy="38" r="38" fill="#BBD0FF" fill-opacity="0.56"/>
<path d="M43.9656 46.7852C44.9132 45.69 46.2941 44.0624 47.4923 42.5216C50.5975 38.528 50.8926 36.1777 50.9035 36.0793C50.8684 36.1332 47.0193 41.7495 43.6752 44.8142L43.0663 45.3723L43.0218 44.548C42.9609 43.4057 42.7953 42.2714 42.5269 41.1594L42.502 41.0572L42.5316 40.9557C43.6697 37.1253 47.4142 30.2631 59.7125 27.3382L61.1535 26.9948L60.0677 28.0041C58.9124 29.0774 57.2013 31.2115 55.6175 35.2792C53.1633 41.5981 49.7232 45.2841 43.0679 48.0068L43.9656 46.7852Z" fill="#2CA935"/>
<path d="M40.7966 49.5547C39.0184 49.4111 32.8057 48.3323 27.5499 40.4483C22.3402 32.633 18.029 29.8782 15.923 28.9314L14.9004 28.4708L15.9878 28.1976C17.0962 27.9166 18.9205 27.5825 21.3052 27.5825C25.4579 27.5825 29.6927 28.5715 33.8915 30.5207C42.4499 34.8007 43.357 42.4981 43.1353 46.7055L43.0674 48.0068L42.4093 46.8827C41.535 45.3918 39.7147 42.534 37.3378 40.1438C33.9141 36.7045 30.474 34.9646 30.3288 34.892C30.3889 34.9295 36.4971 38.8223 41.1822 49.0028L41.4617 49.6085L40.7966 49.5547Z" fill="#7AC943"/>
</svg>
