<svg width="76" height="76" viewBox="0 0 76 76" fill="none" xmlns="http://www.w3.org/2000/svg">
<circle cx="38" cy="38" r="38" fill="#E0DEDE"/>
<path d="M60.8974 26.2653C59.481 23.6928 53.2412 24.1215 45.9065 26.5026C43.4565 24.6039 40.3864 23.4784 37.0559 23.4784C29.0628 23.4784 22.5856 29.9556 22.5856 37.9487C22.5856 38.3545 22.6009 38.7603 22.6392 39.1584C16.6979 44.0814 12.6937 49.4407 14.1101 52.0132C15.5571 54.647 21.4371 54.402 29.0092 51.8678C29.6829 51.6381 30.3643 51.3931 31.0687 51.1251V51.1328C32.8985 51.9596 34.9198 52.419 37.0559 52.419C44.3906 52.419 50.4543 46.9601 51.396 39.8781C51.8784 39.5106 52.3454 39.1431 52.7971 38.7756C58.991 33.7378 62.3445 28.899 60.8974 26.2653ZM26.1917 48.3612C21.7128 49.992 18.5737 50.4743 17.9842 49.4101C17.4023 48.3382 19.6839 45.7964 23.4431 42.8946C24.1704 44.8853 25.3189 46.6692 26.7889 48.1468C26.5821 48.2157 26.3907 48.2923 26.1917 48.3612ZM51.396 34.4957C51.3195 34.557 51.2429 34.6182 51.1587 34.6795C50.684 32.6353 49.7806 30.7518 48.5403 29.1364C52.9809 27.5285 56.0817 27.0615 56.6712 28.1181C57.2607 29.19 55.1706 31.5864 51.396 34.4957Z" fill="#616161"/>
<path d="M60.8974 26.2653C62.3445 28.8991 58.991 33.7379 52.7971 38.7757C52.3454 39.1432 51.8784 39.5107 51.396 39.8782C48.5326 42.0602 45.1638 44.2652 41.4506 46.3094C37.8674 48.2771 34.3456 49.9002 31.0687 51.1252C30.3643 51.3932 29.6829 51.6382 29.0092 51.8679C21.4371 54.4021 15.5571 54.6471 14.1101 52.0133C12.6937 49.4408 16.6979 44.0814 22.6392 39.1585C22.7387 40.46 23.022 41.7157 23.4431 42.8947C19.6839 45.7964 17.4023 48.3383 17.9842 49.4102C18.5737 50.4744 21.7128 49.9921 26.1917 48.3613C26.3907 48.2924 26.5821 48.2158 26.7889 48.1469C30.3567 46.8147 34.7054 44.7935 39.2609 42.2822C43.9542 39.7021 48.0885 37.03 51.1587 34.6796C51.2429 34.6183 51.3195 34.5571 51.396 34.4958C55.1706 31.5864 57.2607 29.19 56.6712 28.1182C56.0817 27.0616 52.9809 27.5286 48.5403 29.1364C47.7746 28.1488 46.8942 27.2607 45.9065 26.5027C53.2412 24.1216 59.481 23.6928 60.8974 26.2653Z" fill="#616161"/>
<path d="M48.5406 29.1364C49.7809 30.7518 50.6844 32.6353 51.1591 34.6795C48.0889 37.03 43.9545 39.702 39.2612 42.2821C34.7058 44.7934 30.357 46.8146 26.7892 48.1468C25.3068 46.6591 24.1652 44.867 23.4434 42.8946C23.0223 41.7156 22.7391 40.46 22.6395 39.1584C22.6012 38.7603 22.5859 38.3545 22.5859 37.9487C22.5859 29.9556 29.0631 23.4784 37.0562 23.4784C40.3867 23.4784 43.4569 24.6039 45.9069 26.5026C46.8945 27.2606 47.775 28.1487 48.5406 29.1364ZM48.242 34.0517C48.242 33.5081 47.798 33.064 47.262 33.064C46.7184 33.064 46.2744 33.5081 46.2744 34.0517C46.2744 34.5953 46.7184 35.0393 47.262 35.0393C47.798 35.0393 48.242 34.5953 48.242 34.0517ZM42.0941 36.5859C42.0941 35.9504 41.5811 35.4375 40.9456 35.4375C40.3102 35.4375 39.7972 35.9504 39.7972 36.5859C39.7972 37.2214 40.3102 37.7343 40.9456 37.7343C41.5811 37.7343 42.0941 37.2214 42.0941 36.5859ZM33.9248 32.4745C33.9248 32.4745 31.1227 32.4745 31.1227 28.5468C31.1227 28.5468 31.1227 32.4745 28.3128 32.4745C28.3128 32.4745 31.1227 32.4745 31.1227 36.9687C31.1227 36.9687 31.1227 32.4745 33.9248 32.4745ZM41.4509 46.3093C45.1642 44.2651 48.533 42.0601 51.3964 39.8781C50.4547 46.9601 44.3909 52.419 37.0562 52.419C34.9202 52.419 32.8989 51.9596 31.0691 51.1328V51.1251C34.3459 49.9001 37.8678 48.277 41.4509 46.3093Z" fill="#C0BECA"/>
<path d="M47.2621 33.0641C47.5173 33.0741 47.7587 33.1826 47.9357 33.3667C48.1127 33.5508 48.2116 33.7963 48.2116 34.0517C48.2116 34.3072 48.1127 34.5527 47.9357 34.7368C47.7587 34.9209 47.5173 35.0293 47.2621 35.0394C46.7185 35.0394 46.2744 34.5953 46.2744 34.0517C46.2744 33.5082 46.7185 33.0641 47.2621 33.0641Z" fill="#88839F"/>
<path d="M40.9453 37.7344C41.5796 37.7344 42.0938 37.2202 42.0938 36.5859C42.0938 35.9517 41.5796 35.4375 40.9453 35.4375C40.311 35.4375 39.7969 35.9517 39.7969 36.5859C39.7969 37.2202 40.311 37.7344 40.9453 37.7344Z" fill="#7D7775"/>
<path d="M34.9125 54.5398C35.4561 54.5398 35.8925 54.9762 35.8925 55.5198C35.8925 56.0634 35.4561 56.5075 34.9125 56.5075C34.3689 56.5075 33.9248 56.0634 33.9248 55.5198C33.9248 54.9762 34.3689 54.5398 34.9125 54.5398Z" fill="#88839F"/>
<path d="M31.1223 28.5469C31.1223 32.4745 33.9245 32.4745 33.9245 32.4745C31.1223 32.4745 31.1223 36.9688 31.1223 36.9688C31.1223 32.4745 28.3125 32.4745 28.3125 32.4745C31.1223 32.4745 31.1223 28.5469 31.1223 28.5469Z" fill="#7D7C80"/>
<path d="M27.1641 59.9375C28.2212 59.9375 29.0781 59.0805 29.0781 58.0234C29.0781 56.9663 28.2212 56.1094 27.1641 56.1094C26.107 56.1094 25.25 56.9663 25.25 58.0234C25.25 59.0805 26.107 59.9375 27.1641 59.9375Z" fill="#26211F"/>
<path d="M20.6562 16.2969C20.6562 21.6562 24.4844 21.6562 24.4844 21.6562C20.6562 21.6562 20.6562 27.7812 20.6562 27.7812C20.6562 21.6562 16.8281 21.6562 16.8281 21.6562C20.6562 21.6562 20.6562 16.2969 20.6562 16.2969Z" fill="#7D7C80"/>
<path d="M17.6468 56.3391C18.1904 56.3391 18.6268 56.7755 18.6268 57.3191C18.6268 57.8627 18.1904 58.3068 17.6468 58.3068C17.1032 58.3068 16.6592 57.8627 16.6592 57.3191C16.6592 56.7755 17.1032 56.3391 17.6468 56.3391Z" fill="#1F262D"/>
</svg>
