<svg width="76" height="76" viewBox="0 0 76 76" fill="none" xmlns="http://www.w3.org/2000/svg">
<circle cx="38" cy="38" r="38" fill="#E4E1E1"/>
<g clip-path="url(#clip0_2919_21729)">
<path d="M22.557 44.0245H30.8482C31.0507 44.0245 31.209 43.8526 31.1962 43.6507C31.0035 40.616 28.4811 38.2142 25.3978 38.2142C23.1495 38.2142 21.2008 39.4918 20.2348 41.36C20.2011 41.4257 20.189 41.5005 20.2005 41.5735C20.212 41.6466 20.2464 41.7141 20.2987 41.7663L22.557 44.0245Z" fill="#C0BECA"/>
<path d="M25.3978 40.2253C23.2996 40.2253 21.5986 41.9263 21.5986 44.0245C21.5986 46.1228 23.2996 47.8238 25.3978 47.8238C27.4961 47.8238 29.1971 46.1228 29.1971 44.0245C29.197 41.9263 27.4961 40.2253 25.3978 40.2253Z" fill="#6A6E74"/>
<path d="M28.119 41.3735C28.2365 41.7447 28.2961 42.1318 28.2959 42.5211C28.2959 44.6194 26.5949 46.3203 24.4966 46.3203C23.4299 46.3203 22.4665 45.8801 21.7764 45.1721C22.263 46.7094 23.7005 47.8238 25.3988 47.8238C27.4971 47.8238 29.198 46.1228 29.198 44.0245C29.198 42.993 28.7863 42.0581 28.119 41.3735Z" fill="#616161"/>
<path d="M50.9427 40.2253C48.8445 40.2253 47.1436 41.9263 47.1436 44.0245C47.1436 46.1228 48.8445 47.8238 50.9427 47.8238C53.041 47.8238 54.742 46.1228 54.742 44.0245C54.742 41.9263 53.041 40.2253 50.9427 40.2253Z" fill="#6A6E74"/>
<path d="M53.663 41.3735C53.7804 41.7447 53.8401 42.1318 53.8398 42.5211C53.8398 44.6194 52.1389 46.3203 50.0406 46.3203C48.9738 46.3203 48.0104 45.8801 47.3203 45.1721C47.8069 46.7094 49.2445 47.8238 50.9427 47.8238C53.041 47.8238 54.742 46.1228 54.742 44.0245C54.7419 42.993 54.3302 42.0581 53.663 41.3735Z" fill="#616161"/>
<path d="M48.2452 19.9908L48.5918 19.3155L47.5127 19.047L45.5908 19.3859L48.6713 36.856L50.5932 36.5171L47.9841 21.7199C47.8801 21.1305 47.9718 20.5232 48.2452 19.9908Z" fill="#6A6E74"/>
<path d="M42.5774 20.8603C42.7639 21.3727 43.3305 21.637 43.843 21.4504L48.6917 19.6856C48.7605 19.6606 48.8237 19.6223 48.8776 19.5728C48.9316 19.5234 48.9753 19.4638 49.0062 19.3974C49.0372 19.3311 49.0547 19.2593 49.0579 19.1862C49.0611 19.1131 49.0499 19.0401 49.0248 18.9713L48.7307 18.163C48.7056 18.0942 48.6673 18.031 48.6179 17.9771C48.5684 17.9231 48.5088 17.8794 48.4425 17.8485C48.3762 17.8176 48.3044 17.8 48.2313 17.7968C48.1581 17.7936 48.0851 17.8048 48.0163 17.8299L43.1675 19.5947C42.6551 19.7812 42.3909 20.3478 42.5774 20.8603Z" fill="#999999"/>
<path d="M52.2531 43.5872L50.4322 33.2605C50.4272 33.232 50.4166 33.2048 50.4011 33.1804C50.3855 33.156 50.3654 33.1349 50.3417 33.1183C50.318 33.1017 50.2912 33.09 50.263 33.0837C50.2348 33.0775 50.2056 33.0768 50.1771 33.0818L47.8862 33.4858C47.8286 33.4959 47.7775 33.5285 47.744 33.5764C47.7105 33.6242 47.6974 33.6834 47.7075 33.741L47.9695 35.2268C48.001 35.4053 47.989 35.5888 47.9345 35.7616C47.88 35.9345 47.7846 36.0916 47.6564 36.2198L40.502 43.3742L41.9214 44.7937L47.9561 38.759C48.1839 38.5312 48.5738 38.6541 48.6298 38.9714L49.5645 44.2721L49.581 44.2692C49.6967 44.9163 50.2611 45.4079 50.9414 45.4079C51.7055 45.4079 52.3248 44.7885 52.3248 44.0245C52.3246 43.8758 52.3004 43.7281 52.2531 43.5872Z" fill="#C0BECA"/>
<path d="M25.398 42.6411C24.6173 42.6411 23.9875 43.288 24.0155 44.075C24.0423 44.8246 24.6811 45.4079 25.4312 45.4079H30.0482C30.069 45.4079 30.0896 45.411 30.1094 45.4171L34.0845 46.635C34.1507 46.6553 34.2195 46.6656 34.2886 46.6656H42.3935C42.5956 46.6656 42.7948 46.6184 42.9755 46.5279C43.1561 46.4373 43.3131 46.3059 43.434 46.144L45.3325 43.6014C45.6284 43.2052 45.3456 42.6412 44.8511 42.6412H25.398V42.6411Z" fill="#D6E0F4"/>
<path d="M45.0367 42.6703L43.4339 44.8168C43.313 44.9787 43.156 45.1102 42.9754 45.2007C42.7948 45.2913 42.5955 45.3384 42.3935 45.3385H34.2886C34.2193 45.3385 34.1505 45.3281 34.0844 45.3079L30.1094 44.09C30.0895 44.0839 30.0689 44.0808 30.0481 44.0808H25.4312C24.9027 44.0808 24.4304 43.7905 24.1876 43.3572C24.066 43.5764 24.0065 43.8246 24.0156 44.0751C24.0423 44.8247 24.6811 45.408 25.4312 45.408H30.0482C30.069 45.408 30.0896 45.4111 30.1094 45.4172L34.0845 46.6351C34.1507 46.6554 34.2195 46.6657 34.2886 46.6657H42.3935C42.5956 46.6657 42.7948 46.6185 42.9755 46.528C43.1561 46.4374 43.3131 46.306 43.434 46.1441L45.3325 43.6015C45.5888 43.2581 45.4104 42.7895 45.0367 42.6703Z" fill="#999999"/>
</g>
<defs>
<clipPath id="clip0_2919_21729">
<rect width="48.8951" height="48.8951" fill="white" transform="translate(20.1963 2.12585)"/>
</clipPath>
</defs>
</svg>
