<svg width="76" height="76" viewBox="0 0 76 76" fill="none" xmlns="http://www.w3.org/2000/svg">
<circle cx="38" cy="38" r="38" fill="#D9D8D8"/>
<g clip-path="url(#clip0_2919_21910)">
<path d="M63.2568 45.7068L60.4234 48.3928L48.4493 47.9679L45.4742 47.0498L46.6075 40.1986C46.6075 40.1986 49.2313 36.5945 49.441 36.3962C49.6507 36.1979 54.5412 35.4159 54.5412 35.4159C54.5412 35.4159 58.933 36.2035 59.851 36.6626C60.7691 37.1216 63.2568 45.7068 63.2568 45.7068ZM31.7662 45.5992L27.4651 47.968L15.2871 46.4209L13.0203 43.3098L15.5931 37.1273L21.2316 34.1523C21.2316 34.1523 28.2642 33.2795 29.5732 36.7704C30.882 40.2609 31.7662 45.5992 31.7662 45.5992Z" fill="#9BA1AA"/>
<path d="M12.2783 39.6603C12.5351 37.551 12.9135 35.4583 13.4117 33.3927C21.7929 33.183 24.9606 28.3945 34.7474 28.1111C44.5341 27.8278 49.4585 34.2653 49.4585 34.2653C54.7396 33.833 60.0018 35.2977 64.3 38.3964C64.634 38.6353 64.9056 38.9511 65.092 39.317C65.2784 39.6829 65.3741 40.0882 65.371 40.4989V45.276C65.3735 45.8646 65.1731 46.4362 64.8036 46.8944C64.4341 47.3527 63.9181 47.6697 63.3423 47.7921L60.4465 48.4153C60.4465 48.4153 64.4133 37.1553 54.7399 36.583C45.3443 36.0162 47.9397 48.0356 48.4724 47.9903H27.4653C31.9024 37.5689 23.0282 36.1636 23.0282 36.1636C13.5929 35.6705 15.2873 46.4433 15.2873 46.4433C12.352 45.5028 12.0686 42.1254 12.2783 39.6603Z" fill="#616161"/>
<path d="M62.3 38.6629L64.3796 39.5526C64.4356 39.5752 64.4845 39.6123 64.5213 39.6602C64.5582 39.708 64.5817 39.7647 64.5893 39.8246L64.7083 40.6349C64.7166 40.6856 64.7137 40.7374 64.6997 40.7868C64.6858 40.8362 64.6613 40.882 64.6278 40.9209C64.5943 40.9598 64.5526 40.9908 64.5058 41.0119C64.459 41.033 64.4082 41.0436 64.3568 41.0429H62.5151C62.4204 41.0429 62.3296 41.0053 62.2626 40.9383C62.1957 40.8713 62.1581 40.7805 62.1581 40.6858C62.151 40.1486 62.0413 39.6177 61.835 39.1217C61.8076 39.0569 61.8003 38.9854 61.814 38.9163C61.8277 38.8473 61.8618 38.784 61.9118 38.7346C61.9619 38.6852 62.0257 38.6519 62.0949 38.6391C62.1641 38.6264 62.2355 38.6347 62.3 38.6629Z" fill="#EBF0F3"/>
<path d="M21.7985 37.1272C25.2131 37.1178 27.9886 39.8783 27.998 43.2928C28.0074 46.7074 25.247 49.4829 21.8324 49.4923C18.4202 49.5017 15.6455 46.7447 15.6329 43.3325C15.6203 39.9179 18.3782 37.1398 21.7928 37.1272H21.7985Z" fill="#999999"/>
<path d="M17.2089 43.3325C17.2215 45.88 19.2969 47.935 21.8444 47.9226C24.392 47.91 26.447 45.8346 26.4345 43.2871C26.4219 40.7395 24.3467 38.6845 21.7991 38.697C19.2547 38.7063 17.1995 40.7765 17.2089 43.3209V43.3325Z" fill="#E1E6E9"/>
<path d="M17.6163 42.8168H20.6254L18.4947 40.6861L19.1975 39.9891L21.3226 42.1142V39.1051H22.3143V42.1142L24.4394 39.9891L25.1421 40.6861L23.017 42.8168H26.0205V43.8085H23.017L25.1421 45.9336L24.4394 46.6306L22.3143 44.5055V47.5146H21.3226V44.5055L19.1975 46.6306L18.4947 45.9336L20.6254 43.8085H17.6163V42.8168ZM20.8069 42.8904V43.7291L21.3736 44.2958H22.2123L22.7791 43.7291V42.8904L22.2123 42.3236H21.3736L20.8069 42.8904Z" fill="#999999"/>
<path d="M20.3592 43.3324C20.3687 44.1398 21.0309 44.7867 21.8384 44.7771C22.6457 44.7676 23.2926 44.1055 23.2831 43.298C23.2736 42.4905 22.6114 41.8437 21.8039 41.8533L21.7986 41.8534C20.9947 41.8688 20.3529 42.5283 20.3592 43.3324Z" fill="#EBF0F3"/>
<path d="M21.7991 38.697C24.3467 38.6845 26.4221 40.7395 26.4345 43.2871C26.447 45.8346 24.392 47.91 21.8444 47.9224C19.2969 47.9349 17.2216 45.8799 17.209 43.3323C17.1995 40.7861 19.2528 38.7125 21.7991 38.697ZM21.7991 47.2993C24.0117 47.3211 25.823 45.5451 25.8449 43.3325C25.8667 41.1199 24.0906 39.3086 21.878 39.2867C19.6655 39.2649 17.8542 41.041 17.8323 43.2536C17.8321 43.2798 17.8321 43.3062 17.8323 43.3325C17.8538 45.5142 19.6172 47.2777 21.7991 47.2993Z" fill="#E1E6E9"/>
<path d="M54.5421 37.1272C57.9567 37.1272 60.7246 39.8953 60.7246 43.3098C60.7246 46.7243 57.9565 49.4923 54.542 49.4923C51.1363 49.4923 48.372 46.738 48.3595 43.3324C48.3438 39.9211 51.0966 37.143 54.508 37.1273L54.5421 37.1272Z" fill="#999999"/>
<path d="M49.9285 43.3325C49.9285 45.88 51.9938 47.9454 54.5414 47.9454C57.0891 47.9454 59.1543 45.8801 59.1543 43.3325C59.1543 40.7849 57.0891 38.7196 54.5414 38.7196C51.9938 38.7196 49.9285 40.7848 49.9285 43.3325Z" fill="#E1E6E9"/>
<path d="M50.3422 42.8168H53.3455L51.2204 40.6861L51.9232 39.9891L54.0483 42.1142V39.1051H55.04V42.1142L57.165 39.989L57.8677 40.6861L55.737 42.8168H58.7461V43.8085H55.737L57.8677 45.9335L57.165 46.6305L55.0399 44.5054V47.5145H54.0481V44.5055L51.923 46.6306L51.2203 45.9336L53.3454 43.8085H50.3419L50.3422 42.8168ZM53.5326 42.8905V43.7292L54.0993 44.296H54.9607L55.5274 43.7292V42.8905L54.9607 42.3238H54.0993L53.5326 42.8905Z" fill="#999999"/>
<path d="M53.0857 43.3325C53.0826 44.14 53.7346 44.797 54.5421 44.8001C55.3496 44.8032 56.0067 44.1512 56.0098 43.3437C56.0128 42.5362 55.3609 41.8792 54.5534 41.8761H54.5421C53.739 41.8792 53.0888 42.5294 53.0857 43.3325Z" fill="#EBF0F3"/>
<path d="M54.5416 38.6969C57.0891 38.6969 59.1543 40.7622 59.1543 43.3098C59.1543 45.8573 57.089 47.9225 54.5414 47.9225C52.0027 47.9225 49.9411 45.8711 49.9287 43.3324C49.9162 40.7849 51.9712 38.7095 54.5188 38.697L54.5416 38.6969ZM54.5416 47.3161C56.7543 47.3192 58.5506 45.528 58.5537 43.3153C58.5567 41.1026 56.7655 39.3062 54.5528 39.3032C52.3401 39.3001 50.5438 41.0913 50.5407 43.304V43.3323C50.5655 45.526 52.3477 47.2931 54.5416 47.2991V47.3161Z" fill="#E1E6E9"/>
<path d="M31.767 45.7408H44.8858L44.9935 45.6897L45.0332 45.599C43.6617 39.5298 47.2999 34.832 47.2999 34.7753C47.3129 34.7631 47.3234 34.7484 47.3307 34.7321C47.3381 34.7158 47.3421 34.6982 47.3427 34.6804C47.3433 34.6625 47.3403 34.6448 47.334 34.628C47.3277 34.6113 47.3181 34.596 47.3059 34.583L47.2999 34.5768C47.2734 34.5509 47.2378 34.5364 47.2007 34.5364C47.1636 34.5364 47.128 34.5509 47.1016 34.5768C47.0619 34.6279 43.4181 39.3484 44.7159 45.4629H31.8691L27.5963 33.8402C27.5906 33.822 27.5814 33.8051 27.5691 33.7906C27.5568 33.776 27.5418 33.764 27.5248 33.7553C27.5079 33.7466 27.4893 33.7414 27.4703 33.7399C27.4513 33.7385 27.4322 33.7408 27.4141 33.7468C27.3961 33.7529 27.3794 33.7624 27.365 33.775C27.3507 33.7875 27.339 33.8028 27.3306 33.82C27.3222 33.8371 27.3174 33.8557 27.3163 33.8747C27.3152 33.8938 27.318 33.9128 27.3243 33.9308L31.6368 45.6442C31.6556 45.7007 31.7077 45.7392 31.767 45.7408Z" fill="#616161"/>
<path d="M26.2807 31.3357C29.4077 30.3219 32.6396 29.666 35.9144 29.3807C40.8672 28.8876 45.7805 32.3671 47.7071 33.9142C47.7722 33.9675 47.8186 34.04 47.8398 34.1214C47.8609 34.2028 47.8557 34.2887 47.8248 34.3669C47.7939 34.4451 47.7389 34.5115 47.6678 34.5564C47.5968 34.6013 47.5133 34.6225 47.4294 34.6168L27.635 34.0501C27.5644 34.0498 27.495 34.0314 27.4335 33.9967C27.372 33.962 27.3204 33.9121 27.2837 33.8518L26.0823 31.8741C26.057 31.8262 26.042 31.7736 26.0384 31.7196C26.0348 31.6656 26.0426 31.6114 26.0613 31.5606C26.08 31.5098 26.1092 31.4636 26.147 31.4248C26.1848 31.3861 26.2304 31.3557 26.2807 31.3357Z" fill="#FBFBFB"/>
<path d="M13.4062 33.3927L15.4633 34.4467C15.569 34.5011 15.6611 34.5787 15.7325 34.6738C15.804 34.7688 15.853 34.8788 15.8759 34.9955C15.8988 35.1121 15.895 35.2325 15.8647 35.3475C15.8345 35.4625 15.7786 35.5691 15.7012 35.6594L12.3011 39.6603C12.4449 37.5376 12.8154 35.4365 13.4062 33.3927Z" fill="#EBF0F3"/>
</g>
<defs>
<clipPath id="clip0_2919_21910">
<rect width="53.1469" height="53.1469" fill="white" transform="matrix(-1 0 0 1 65.3711 12.2238)"/>
</clipPath>
</defs>
</svg>
