<svg width="10" height="19" viewBox="0 0 10 19" fill="none" xmlns="http://www.w3.org/2000/svg">
<path fill-rule="evenodd" clip-rule="evenodd" d="M6.5784 0.0338358C5.49597 0.202102 4.73566 0.566716 4.11192 1.2166C3.58677 1.76378 3.25909 2.40576 3.07366 3.25058C3.00362 3.56969 2.99468 3.76255 2.9802 5.26569L2.96419 6.92792H1.4821H0V8.61757V10.3072L1.47544 10.3169L2.95088 10.3267L2.96043 14.6633L2.96998 19H4.7366H6.50322V14.6541V10.3081H7.96927C8.77559 10.3081 9.43591 10.3039 9.43666 10.2988C9.53508 9.62234 9.86982 6.97513 9.85937 6.95578C9.85114 6.94044 9.0915 6.92792 8.17132 6.92792H6.4983L6.51093 5.54428C6.52333 4.19101 6.52555 4.1558 6.61246 3.94077C6.78854 3.50517 7.15903 3.24779 7.71218 3.17685C7.86394 3.15738 8.44077 3.14093 8.99403 3.1403L10 3.13915L9.99019 1.62549L9.98038 0.11184L9.4917 0.0679719C8.69045 -0.00397767 6.95262 -0.024333 6.5784 0.0338358Z" fill="#3958B5"/>
</svg>
