<svg width="281" height="188" viewBox="0 0 281 188" fill="none" xmlns="http://www.w3.org/2000/svg">
<path fill-rule="evenodd" clip-rule="evenodd" d="M238.604 176.302C236.362 171.593 235.973 165.897 238.492 160.989C240.772 156.546 246.471 155.499 250.742 152.647C255.985 149.146 259.938 141.627 265.948 142.654C271.943 143.678 273.476 151.119 274.839 156.763C275.873 161.041 273.991 165.274 272.457 169.592C270.943 173.857 269.852 178.327 266.153 181.225C261.69 184.722 256.109 187.599 250.704 186.633C245.053 185.623 240.951 181.229 238.604 176.302Z" fill="#BBD0FF"/>
<path fill-rule="evenodd" clip-rule="evenodd" d="M46.5587 16.5986C48.2932 21.5168 48.0807 27.2217 45.0594 31.8384C42.3252 36.0165 36.5479 36.4581 31.9999 38.8456C26.418 41.7759 21.6962 48.8367 15.8276 47.1837C9.97384 45.535 9.23215 37.9742 8.46954 32.218C7.89142 27.8543 10.2087 23.8433 12.1878 19.7103C14.1423 15.6286 15.6972 11.2975 19.6808 8.80461C24.4869 5.79696 30.3397 3.52245 35.6122 5.05136C41.1258 6.65019 44.7434 11.4516 46.5587 16.5986Z" fill="#BBD0FF"/>
</svg>
