<svg width="76" height="76" viewBox="0 0 76 76" fill="none" xmlns="http://www.w3.org/2000/svg">
<circle cx="38" cy="38" r="38" fill="#DBDADA"/>
<path d="M55.582 21.4094V59.757H21.832V16.2661H54.4008L55.582 21.4094Z" fill="#616161"/>
<path d="M34.4039 16.2661C31.3031 17.2789 28.5153 19.0845 26.3121 21.5069C24.1088 23.9293 22.5654 26.8859 21.832 30.0887V16.2661H34.4039ZM34.4039 38.0116C31.3031 39.0244 28.5153 40.8299 26.3121 43.2523C24.1088 45.6747 22.5654 48.6313 21.832 51.8341V38.0116H34.4039ZM51.2789 38.0116C48.1781 39.0244 45.3903 40.8299 43.1871 43.2523C40.9838 45.6747 39.4404 48.6313 38.707 51.8341V38.0116H51.2789ZM51.2789 16.2661C48.1781 17.2789 45.3903 19.0845 43.1871 21.5069C40.9838 23.9293 39.4404 26.8859 38.707 30.0887V16.2661H51.2789Z" fill="#C0BECA"/>
<path d="M25.5818 23.8297C25.3964 23.8296 25.2152 23.7742 25.0611 23.6703C24.907 23.5664 24.7868 23.4187 24.7159 23.246C24.6449 23.0733 24.6264 22.8832 24.6625 22.6998C24.6987 22.5164 24.7879 22.348 24.919 22.2158L27.7315 19.3794C27.9083 19.2072 28.1451 19.1119 28.391 19.114C28.6368 19.1162 28.8719 19.2156 29.0457 19.3909C29.2195 19.5662 29.3181 19.8034 29.3203 20.0513C29.3224 20.2991 29.2279 20.538 29.0571 20.7163L26.2446 23.5527C26.0689 23.73 25.8305 23.8296 25.5818 23.8297ZM25.5818 28.5569C25.3964 28.5569 25.2152 28.5014 25.0611 28.3975C24.907 28.2936 24.7868 28.146 24.7159 27.9733C24.6449 27.8005 24.6264 27.6105 24.6625 27.4271C24.6987 27.2437 24.7879 27.0753 24.919 26.9431L32.419 19.3794C32.5958 19.2072 32.8326 19.1119 33.0785 19.114C33.3243 19.1162 33.5594 19.2156 33.7332 19.3909C33.907 19.5662 34.0056 19.8034 34.0078 20.0513C34.0099 20.2991 33.9154 20.538 33.7446 20.7163L26.2446 28.2799C26.0689 28.4572 25.8305 28.5569 25.5818 28.5569ZM42.4568 45.5751C42.2714 45.5751 42.0902 45.5196 41.9361 45.4157C41.782 45.3118 41.6618 45.1642 41.5909 44.9915C41.5199 44.8187 41.5014 44.6287 41.5375 44.4453C41.5737 44.2619 41.6629 44.0935 41.794 43.9612L44.6065 41.1249C44.7833 40.9526 45.0201 40.8574 45.266 40.8595C45.5118 40.8617 45.7469 40.9611 45.9207 41.1364C46.0945 41.3117 46.1931 41.5488 46.1953 41.7967C46.1974 42.0446 46.1029 42.2834 45.9321 42.4617L43.1196 45.2981C42.9439 45.4754 42.7055 45.5751 42.4568 45.5751ZM42.4568 50.3024C42.2714 50.3024 42.0902 50.2469 41.9361 50.143C41.782 50.0391 41.6618 49.8915 41.5909 49.7187C41.5199 49.546 41.5014 49.3559 41.5375 49.1726C41.5737 48.9892 41.6629 48.8207 41.794 48.6885L49.294 41.1249C49.4708 40.9526 49.7076 40.8574 49.9535 40.8595C50.1993 40.8617 50.4344 40.9611 50.6082 41.1364C50.782 41.3117 50.8806 41.5488 50.8828 41.7967C50.8849 42.0446 50.7904 42.2834 50.6196 42.4617L43.1196 50.0254C42.9439 50.2027 42.7055 50.3023 42.4568 50.3024Z" fill="white"/>
<path d="M57.457 37.0662H39.6445V14.3752H37.7695V37.0662H19.957V38.9571H37.7695V61.648H39.6445V38.9571H57.457V37.0662Z" fill="#4482C3"/>
<path d="M59.332 18.1758V61.6478C59.3305 62.1488 59.1325 62.6289 58.7812 62.9832C58.4299 63.3375 57.9539 63.5372 57.457 63.5387H19.957C19.4602 63.5372 18.9842 63.3375 18.6328 62.9832C18.2815 62.6289 18.0835 62.1488 18.082 61.6478V14.375C18.0835 13.874 18.2815 13.3939 18.6328 13.0396C18.9842 12.6853 19.4602 12.4856 19.957 12.4841H57.457C57.007 13.9318 56.1893 15.2355 55.0852 16.2659H21.832V59.7569H55.582V18.1569L59.332 18.1758Z" fill="#ECF0F1"/>
<path d="M58.9427 18.3574C57.7776 18.8027 56.7199 19.4934 55.8405 20.3836C54.961 21.2738 54.28 22.3429 53.8427 23.5196C53.808 23.6102 53.7464 23.6878 53.6664 23.7419C53.5864 23.7959 53.4918 23.8238 53.3955 23.8218C53.2992 23.8197 53.2059 23.7878 53.1282 23.7303C53.0506 23.6729 52.9924 23.5927 52.9615 23.5007C52.5196 22.3289 51.8367 21.2647 50.9576 20.3783C50.0786 19.4918 49.0234 18.803 47.8615 18.3574C47.7679 18.3275 47.6861 18.2683 47.6281 18.1884C47.5701 18.1085 47.5388 18.0121 47.5388 17.913C47.5388 17.814 47.5701 17.7176 47.6281 17.6377C47.6861 17.5578 47.7679 17.4986 47.8615 17.4687C49.0256 17.0269 50.0828 16.3395 50.9623 15.4526C51.8419 14.5656 52.5234 13.4994 52.9615 12.3254C52.9911 12.231 53.0498 12.1486 53.129 12.09C53.2083 12.0315 53.3039 12 53.4021 12C53.5003 12 53.5959 12.0315 53.6752 12.09C53.7544 12.1486 53.8131 12.231 53.8427 12.3254C54.2812 13.5022 54.9651 14.5704 55.8482 15.4577C56.7313 16.345 57.793 17.0308 58.9615 17.4687C59.0513 17.5037 59.1283 17.5658 59.1819 17.6465C59.2355 17.7272 59.2632 17.8226 59.2611 17.9197C59.2591 18.0168 59.2274 18.1109 59.1705 18.1892C59.1135 18.2675 59.034 18.3263 58.9427 18.3574ZM46.7252 28.9824C45.4319 29.6207 44.3862 30.6752 43.7534 31.9795C43.7188 32.0637 43.6603 32.1356 43.5852 32.1863C43.5101 32.2369 43.4218 32.2639 43.3315 32.2639C43.2412 32.2639 43.1529 32.2369 43.0778 32.1863C43.0027 32.1356 42.9441 32.0637 42.9096 31.9795C42.2787 30.6738 41.2325 29.6186 39.9377 28.9824C39.8546 28.9473 39.7837 28.8881 39.7338 28.8124C39.6838 28.7367 39.6572 28.6479 39.6572 28.557C39.6572 28.4661 39.6838 28.3772 39.7338 28.3015C39.7837 28.2258 39.8546 28.1667 39.9377 28.1315C41.2325 27.4953 42.2787 26.4402 42.9096 25.1344C42.9445 25.0506 43.0031 24.979 43.0782 24.9287C43.1532 24.8784 43.2414 24.8515 43.3315 24.8515C43.4216 24.8515 43.5097 24.8784 43.5848 24.9287C43.6598 24.979 43.7185 25.0506 43.7534 25.1344C44.3862 26.4387 45.4319 27.4933 46.7252 28.1315C46.8087 28.1663 46.88 28.2254 46.9302 28.3011C46.9804 28.3768 47.0072 28.4659 47.0072 28.557C47.0072 28.6481 46.9804 28.7371 46.9302 28.8128C46.88 28.8886 46.8087 28.9476 46.7252 28.9824Z" fill="#C0BECA"/>
</svg>
