<svg width="76" height="76" viewBox="0 0 76 76" fill="none" xmlns="http://www.w3.org/2000/svg">
<circle cx="38" cy="38" r="38" fill="#DDDCDC"/>
<g clip-path="url(#clip0_2919_21787)">
<path d="M41.3344 29.809C41.1535 29.8085 40.9794 29.7406 40.8459 29.6185C40.7124 29.4965 40.6292 29.3291 40.6125 29.149C40.5958 28.9689 40.6468 28.7891 40.7556 28.6446C40.8643 28.5001 41.023 28.4013 41.2007 28.3675L46.1426 27.4371C46.5372 27.3624 46.9172 27.6225 46.9915 28.017C47.0272 28.2064 46.9861 28.4023 46.8774 28.5615C46.7687 28.7207 46.6011 28.8302 46.4117 28.8659L41.4697 29.7963C41.4251 29.8048 41.3798 29.809 41.3344 29.809Z" fill="#35495D"/>
<path d="M46.2555 25.6664L44.0777 23.0227L42.2057 23.0366L45.1335 26.5908C45.2016 26.6737 45.2874 26.7405 45.3845 26.7863C45.4816 26.8321 45.5876 26.8557 45.695 26.8555C45.8328 26.8554 45.9677 26.8162 46.084 26.7423C46.2003 26.6685 46.2932 26.5631 46.352 26.4385C46.4107 26.3139 46.4328 26.1752 46.4157 26.0385C46.3987 25.9017 46.3431 25.7727 46.2555 25.6664ZM23.8857 29.4373H34.5896C36.6681 29.4373 38.3598 31.1116 38.4164 33.1765L38.3478 33.2657H25.9544C24.3259 33.2657 23.0059 31.9456 23.0059 30.3171C23.0059 30.0838 23.0986 29.86 23.2636 29.695C23.4286 29.53 23.6523 29.4373 23.8857 29.4373Z" fill="#616161"/>
<path d="M34.5897 29.4374H32.418C33.9688 29.4374 33.9464 33.2657 33.9464 33.2657H38.3479L38.4165 33.1765C38.3599 31.1117 36.6683 29.4374 34.5897 29.4374Z" fill="#616161"/>
<path d="M24.2572 54.5397C27.7567 54.5397 30.5935 51.7028 30.5935 48.2034C30.5935 44.7039 27.7567 41.8671 24.2572 41.8671C20.7578 41.8671 17.9209 44.7039 17.9209 48.2034C17.9209 51.7028 20.7578 54.5397 24.2572 54.5397Z" fill="#35495D"/>
<path d="M24.2571 41.8671C23.4942 41.8665 22.7374 42.0041 22.0234 42.2732C24.4206 43.1766 26.1263 45.4905 26.1263 48.2036C26.1263 50.9167 24.4206 53.2306 22.0234 54.1339C22.7374 54.403 23.4942 54.5406 24.2571 54.5401C27.7567 54.5401 30.5937 51.7031 30.5937 48.2035C30.5936 44.704 27.7567 41.8671 24.2571 41.8671Z" fill="#2A3A4C"/>
<path d="M24.2568 51.8013C22.2731 51.8013 20.6592 50.1875 20.6592 48.2037C20.6592 46.2199 22.273 44.6061 24.2568 44.6061C26.2406 44.6061 27.8544 46.2199 27.8544 48.2037C27.8544 50.1875 26.2406 51.8013 24.2568 51.8013Z" fill="#CADDEA"/>
<path d="M56.3773 54.5397C59.8768 54.5397 62.7136 51.7028 62.7136 48.2034C62.7136 44.7039 59.8768 41.8671 56.3773 41.8671C52.8779 41.8671 50.041 44.7039 50.041 48.2034C50.041 51.7028 52.8779 54.5397 56.3773 54.5397Z" fill="#35495D"/>
<path d="M56.3768 41.8671C55.6154 41.8665 54.8601 42.0035 54.1475 42.2715C56.547 43.1738 58.2547 45.4888 58.2547 48.2037C58.2547 50.9185 56.547 53.2336 54.1475 54.1358C54.8601 54.4038 55.6154 54.5408 56.3768 54.5403C59.8763 54.5403 62.7134 51.7033 62.7134 48.2037C62.7134 44.704 59.8764 41.8671 56.3768 41.8671Z" fill="#2A3A4C"/>
<path d="M56.3769 51.8013C54.3932 51.8013 52.7793 50.1875 52.7793 48.2037C52.7793 46.2199 54.3931 44.6061 56.3769 44.6061C58.3607 44.6061 59.9745 46.2199 59.9745 48.2037C59.9745 50.1875 58.3607 51.8013 56.3769 51.8013Z" fill="#CADDEA"/>
<path d="M56.9334 49.1772C56.2185 49.5508 55.336 49.274 54.9624 48.5591L50.9492 40.879L53.5383 39.5261L57.5515 47.2062C57.9251 47.9212 57.6484 48.8036 56.9334 49.1772Z" fill="#D0D1D2"/>
<path d="M61.0206 41.1043C59.7964 38.7416 57.1403 37.3329 54.26 37.6683L48.1978 27.0232L45.6902 27.9211C45.6902 27.9211 49.6031 37.2865 47.8674 43.6693C47.6593 44.7503 46.7133 45.5317 45.6124 45.5317H41.7076C41.6417 45.5317 41.5761 45.5306 41.5107 45.5284C37.7914 45.4027 35.3238 41.6042 36.606 38.1105L38.4167 33.1765C38.4172 33.1751 38.4174 33.1736 38.4172 33.1721C38.417 33.1706 38.4164 33.1692 38.4155 33.168C38.4147 33.1668 38.4135 33.1658 38.4122 33.1651C38.4109 33.1644 38.4094 33.164 38.4079 33.164H26.1861C19.3555 33.1639 13.8184 38.7012 13.8184 45.5317V47.5341C13.8184 48.0423 14.2303 48.4542 14.7385 48.4542H47.392C49.0169 48.4542 50.4734 47.9997 51.0539 46.4818C51.2845 45.8788 51.649 45.3334 52.1309 44.9037C54.8558 42.4738 58.6394 42.1128 60.4257 42.0897C60.9277 42.0832 61.2515 41.5501 61.0206 41.1043Z" fill="#616161"/>
<path d="M26.6558 39.3198H22.0326C17.496 39.3198 13.8184 42.9975 13.8184 47.5341C13.8184 48.0423 14.2303 48.4542 14.7385 48.4542H33.95V46.6139C33.95 42.5855 30.6842 39.3198 26.6558 39.3198Z" fill="#999999"/>
<path d="M28.7578 39.6287C29.1721 39.9265 29.4429 40.4114 29.4429 40.9606V48.4542H33.95V46.6139C33.95 43.3164 31.7612 40.5313 28.7578 39.6287Z" fill="#999999"/>
<path d="M51.8396 28.5748H45.4438C45.3167 28.5748 45.1949 28.5244 45.1051 28.4346C45.0153 28.3447 44.9648 28.2229 44.9648 28.0959V26.5222C44.9648 26.3209 45.0321 26.1255 45.1558 25.9668C45.2796 25.8081 45.4528 25.6953 45.6479 25.6463L51.7053 24.1243C52.0534 24.0368 52.3908 24.3 52.3908 24.6589V28.0237C52.3908 28.1699 52.3327 28.3101 52.2293 28.4134C52.1259 28.5168 51.9857 28.5748 51.8396 28.5748Z" fill="#999999"/>
<path d="M51.7049 24.1242L49.6855 24.6316V28.5747H51.8391C51.9853 28.5747 52.1255 28.5166 52.2289 28.4132C52.3323 28.3099 52.3903 28.1696 52.3903 28.0235V24.6587C52.3904 24.2999 52.0529 24.0368 51.7049 24.1242Z" fill="#E2EFFA"/>
<path d="M49.4723 48.1004C50.1788 47.8041 50.7425 47.2962 51.054 46.4818C51.2911 45.8619 51.6734 45.3066 52.1714 44.8678C54.8928 42.4704 58.6474 42.1127 60.4251 42.0896C60.9275 42.0831 61.2516 41.5498 61.0204 41.1038C59.7961 38.7412 57.1401 37.3327 54.2599 37.6681C54.2599 37.6682 48.9762 42.1347 49.4723 48.1004Z" fill="#999999"/>
<path d="M39.8286 22.0229L42.9702 21.9914C43.0498 21.9906 43.1284 22.0076 43.2005 22.0411C43.2726 22.0747 43.3363 22.124 43.3869 22.1853L44.8983 24.0193C44.9075 24.0305 44.9134 24.0442 44.9153 24.0586C44.9171 24.0731 44.9148 24.0878 44.9086 24.101C44.9025 24.1142 44.8927 24.1254 44.8804 24.1333C44.8682 24.1412 44.8539 24.1454 44.8393 24.1455L40.4351 24.1784C39.8787 24.1784 39.4277 23.7273 39.4277 23.171V22.4239C39.4277 22.3175 39.47 22.2156 39.5452 22.1404C39.6203 22.0652 39.7223 22.0229 39.8286 22.0229Z" fill="#616161"/>
</g>
<defs>
<clipPath id="clip0_2919_21787">
<rect width="48.8951" height="48.8951" fill="white" transform="translate(13.8184 13.8182)"/>
</clipPath>
</defs>
</svg>
