<svg width="76" height="76" viewBox="0 0 76 76" fill="none" xmlns="http://www.w3.org/2000/svg">
<circle cx="38" cy="38" r="38" fill="#BBD0FF" fill-opacity="0.56"/>
<path d="M57.774 40.8646V56.5634C57.774 56.8384 57.6647 57.1022 57.4702 57.2967C57.2758 57.4911 57.012 57.6004 56.737 57.6004H17.5527C17.2776 57.6004 17.0138 57.4912 16.8194 57.2967C16.6249 57.1022 16.5156 56.8384 16.5156 56.5634V29.0601C16.5156 28.7734 16.6295 28.4984 16.8323 28.2957C17.035 28.093 17.31 27.9791 17.5967 27.9791H31.748C32.0851 27.9791 32.4084 28.113 32.6468 28.3513C32.8851 28.5897 33.0191 28.913 33.0191 29.2501V33.9034H40.2333C40.5084 33.9034 40.7721 34.0127 40.9666 34.2071C41.1611 34.4016 41.2704 34.6654 41.2704 34.9404V38.7905C41.2704 39.0656 41.3796 39.3294 41.5741 39.5238C41.7686 39.7183 42.0324 39.8276 42.3074 39.8276H56.7367C56.873 39.8275 57.0078 39.8543 57.1337 39.9065C57.2595 39.9586 57.3739 40.0349 57.4702 40.1312C57.5665 40.2275 57.6429 40.3419 57.695 40.4677C57.7471 40.5935 57.774 40.7284 57.774 40.8646Z" fill="#DF6937"/>
<path d="M57.99 40.8646V56.5634C57.99 56.8385 57.8807 57.1022 57.6863 57.2967C57.4918 57.4912 57.228 57.6004 56.953 57.6005H53.8948C54.9823 57.5391 55.4102 56.6372 55.4102 55.7903V42.6766C55.4102 42.4849 55.334 42.301 55.1985 42.1654C55.0629 42.0298 54.879 41.9537 54.6873 41.9537H40.1099C39.9035 41.9537 39.6992 41.913 39.5085 41.834C39.3178 41.7551 39.1446 41.6393 38.9986 41.4934C38.8527 41.3474 38.7369 41.1742 38.658 40.9835C38.579 40.7928 38.5383 40.5885 38.5383 40.3821V35.5437H31.7641C31.6615 35.5437 31.5599 35.5235 31.4652 35.4843C31.3704 35.445 31.2843 35.3875 31.2118 35.315C31.1392 35.2424 31.0817 35.1563 31.0425 35.0616C31.0032 34.9668 30.983 34.8652 30.983 34.7627V29.6204C30.983 28.991 30.5865 28.4464 30.1191 27.979H31.9644C32.3015 27.979 32.6248 28.1129 32.8631 28.3513C33.1015 28.5897 33.2354 28.9129 33.2354 29.25V33.9033H40.4496C40.7247 33.9033 40.9885 34.0126 41.1829 34.2071C41.3774 34.4016 41.4867 34.6653 41.4867 34.9404V38.7906C41.4867 39.0656 41.5959 39.3294 41.7904 39.5239C41.9849 39.7183 42.2487 39.8276 42.5237 39.8276H56.953C57.228 39.8276 57.4918 39.9369 57.6863 40.1313C57.8808 40.3258 57.99 40.5896 57.99 40.8646Z" fill="#DF6937"/>
<path d="M41.0951 27.5636C41.3213 27.2078 41.6244 26.9074 41.9823 26.6844C42.3401 26.4615 42.7435 26.3219 43.1625 26.2758C43.5816 26.2297 44.0056 26.2783 44.4034 26.4181C44.8011 26.558 45.1623 26.7853 45.4604 27.0835L50.7995 32.4226C51.0977 32.7207 51.3251 33.0819 51.4649 33.4797C51.6047 33.8774 51.6533 34.3014 51.6072 34.7205C51.5612 35.1396 51.4215 35.5429 51.1986 35.9008C50.9757 36.2586 50.6752 36.5618 50.3194 36.7879C46.1603 39.4295 38.7651 43.5886 36.5297 41.3533C34.2944 39.118 38.4535 31.7225 41.0951 27.5636Z" fill="#F5F5F5"/>
<path d="M48.5001 34.8692C49.6239 33.4616 49.6331 31.2568 49.6331 31.2568L50.7991 32.4226C51.0972 32.7207 51.3246 33.0819 51.4644 33.4797C51.6042 33.8774 51.6529 34.3015 51.6068 34.7205C51.5607 35.1396 51.421 35.5429 51.1981 35.9008C50.9752 36.2586 50.6748 36.5618 50.3189 36.7879C46.1599 39.4295 38.7646 43.5886 36.5293 41.3533C36.5293 41.3533 43.1551 41.5639 48.5001 34.8692Z" fill="#E6E6E6"/>
<path d="M44.7476 32.1209L49.1712 27.6974L50.1851 28.7113L45.7616 33.1349C45.6951 33.202 45.616 33.2553 45.5289 33.2918C45.4418 33.3282 45.3483 33.3471 45.2539 33.3473C45.1594 33.3476 45.0659 33.3291 44.9786 33.2931C44.8913 33.257 44.8119 33.2041 44.7452 33.1373C44.6784 33.0705 44.6254 32.9912 44.5894 32.9039C44.5534 32.8166 44.5349 32.7231 44.5352 32.6286C44.5354 32.5342 44.5543 32.4407 44.5907 32.3536C44.6272 32.2665 44.6805 32.1874 44.7476 32.1209Z" fill="#BFBFBF"/>
<path d="M49.6785 28.2044L50.1855 28.7113L45.762 33.1349C45.6275 33.2693 45.4452 33.3448 45.255 33.3448C45.0649 33.3448 44.8825 33.2693 44.748 33.1349L49.6785 28.2044Z" fill="#8C8C8C"/>
<path d="M57.8193 23.2664C57.373 23.7128 51.4521 28.679 51.4521 28.679C50.7507 29.2294 49.8242 29.2999 49.2033 28.679C48.5824 28.0581 48.6422 27.1116 49.2033 26.4303C49.2033 26.4303 54.1695 20.5094 54.6159 20.063C55.0407 19.6382 55.6169 19.3995 56.2176 19.3995C56.8184 19.3995 57.3945 19.6382 57.8193 20.063C58.2441 20.4878 58.4828 21.0639 58.4828 21.6647C58.4828 22.2655 58.2441 22.8416 57.8193 23.2664Z" fill="#E48E66"/>
<path d="M57.8192 23.2664C57.3728 23.7128 51.4519 28.679 51.4519 28.679C50.7505 29.2293 49.824 29.2999 49.2031 28.679C49.2031 28.679 50.385 28.8545 50.9461 28.1732C50.9461 28.1732 56.6017 22.9788 57.0481 22.5324C57.9327 21.6478 57.8192 20.0633 57.8192 20.0633C58.2439 20.4881 58.4825 21.0642 58.4825 21.6648C58.4825 22.2655 58.2439 22.8416 57.8192 23.2664Z" fill="#CC7350"/>
<path d="M56.8463 39.407H46.6184C48.0404 38.628 49.3731 37.8174 50.4369 37.1417C50.8458 36.8819 51.1911 36.5334 51.4473 36.1222C51.7035 35.711 51.864 35.2475 51.917 34.7659C51.97 34.2843 51.914 33.7969 51.7534 33.3398C51.5927 32.8827 51.3314 32.4676 50.9887 32.1251L49.1232 30.2594L49.8685 29.5141C49.9647 29.5291 50.062 29.537 50.1595 29.5377C50.6867 29.5282 51.1954 29.3419 51.604 29.0086L51.6146 29.0002C51.857 28.7968 57.5548 24.0169 58.009 23.5628C58.2583 23.3134 58.4561 23.0174 58.591 22.6917C58.726 22.3659 58.7954 22.0167 58.7954 21.6641C58.7954 21.3115 58.726 20.9624 58.591 20.6366C58.4561 20.3108 58.2583 20.0148 58.009 19.7655C57.7596 19.5162 57.4636 19.3184 57.1379 19.1835C56.8121 19.0485 56.463 18.9791 56.1103 18.9791C55.7577 18.9791 55.4086 19.0485 55.0828 19.1835C54.757 19.3184 54.461 19.5162 54.2117 19.7655C53.7576 20.2197 48.9775 25.9174 48.7718 26.1628C48.5677 26.4008 48.4164 26.6795 48.3279 26.9804C48.2394 27.2812 48.2157 27.5974 48.2585 27.9081L47.515 28.6516L45.6496 26.7859C45.3071 26.4433 44.8919 26.1819 44.4348 26.0213C43.9777 25.8606 43.4904 25.8047 43.0088 25.8577C42.5272 25.9107 42.0637 26.0712 41.6524 26.3274C41.2412 26.5835 40.8928 26.9289 40.6329 27.3378C39.5965 28.9697 38.2428 31.2337 37.1721 33.4828H33.5483V29.2494C33.5478 28.8011 33.3694 28.3713 33.0524 28.0543C32.7354 27.7373 32.3056 27.559 31.8573 27.5585H17.706C17.308 27.5589 16.9265 27.7172 16.6452 27.9986C16.3638 28.28 16.2055 28.6615 16.2051 29.0594V56.5628C16.2055 56.949 16.3591 57.3194 16.6323 57.5925C16.9054 57.8657 17.2758 58.0193 17.662 58.0197H56.8463C57.2326 58.0193 57.6029 57.8657 57.8761 57.5925C58.1492 57.3194 58.3028 56.949 58.3033 56.5628V40.864C58.3028 40.4777 58.1492 40.1074 57.8761 39.8342C57.6029 39.5611 57.2326 39.4074 56.8463 39.407ZM57.4634 40.864V45.3313H50.0516V40.2469H56.846C57.0096 40.2469 57.1666 40.312 57.2823 40.4277C57.3981 40.5434 57.4632 40.7003 57.4634 40.864ZM17.0449 39.407V34.3226H24.457V39.407H17.0449ZM17.0449 40.2469H32.7084V45.3313H17.0449V40.2469ZM17.0449 46.1711H24.457V51.2555H17.0449V46.1711ZM25.2966 46.1711H40.9599V51.2555H25.2968L25.2966 46.1711ZM49.2118 52.0954V57.1799H33.5483V52.0954H49.2118ZM41.7999 51.2555V46.1711H57.4634V51.2555H41.7999ZM49.2118 40.2469V45.3313H33.5483V40.2469H35.4265C35.5087 40.7754 35.7527 41.2654 36.1251 41.6494C36.6352 42.1595 37.3574 42.4148 38.3039 42.4147C39.4515 42.4147 40.9288 42.0391 42.7551 41.2869C43.4994 40.9804 44.2623 40.6258 45.0189 40.2467L49.2118 40.2469ZM49.418 26.6994C50.796 25.0565 54.4503 20.7148 54.8058 20.3594C54.9772 20.188 55.1806 20.0521 55.4044 19.9594C55.6283 19.8666 55.8683 19.8189 56.1106 19.8189C56.3529 19.8189 56.5929 19.8666 56.8167 19.9594C57.0406 20.0521 57.244 20.188 57.4154 20.3594C57.5867 20.5307 57.7226 20.7341 57.8154 20.958C57.9081 21.1819 57.9558 21.4218 57.9558 21.6641C57.9558 21.9065 57.9081 22.1464 57.8154 22.3703C57.7226 22.5942 57.5867 22.7976 57.4154 22.9689C57.0602 23.324 52.7277 26.9705 51.0807 28.3523C50.5994 28.7271 49.8926 28.8814 49.3932 28.3818C48.9539 27.9422 48.9652 27.2494 49.418 26.6994ZM48.7993 28.9754C48.8702 29.0453 48.9462 29.1096 49.0268 29.1679L45.3574 32.8374C45.3008 32.8914 45.2256 32.9215 45.1474 32.9215C45.0692 32.9215 44.994 32.8914 44.9375 32.8374C44.8818 32.7817 44.8506 32.7062 44.8506 32.6275C44.8506 32.5487 44.8818 32.4732 44.9375 32.4175L48.6069 28.7481C48.6652 28.8286 48.7295 28.9046 48.7993 28.9753V28.9754ZM41.3415 27.7882C41.5339 27.4855 41.7919 27.2299 42.0963 27.0402C42.4008 26.8506 42.7439 26.7318 43.1004 26.6926C43.457 26.6534 43.8178 26.6948 44.1561 26.8138C44.4945 26.9327 44.8018 27.1262 45.0554 27.3799L46.921 29.2455L44.3435 31.8232C44.1302 32.0364 44.0105 32.3256 44.0104 32.6271C44.0104 32.9287 44.1302 33.2178 44.3434 33.4311C44.5566 33.6443 44.8458 33.7641 45.1473 33.7641C45.4489 33.7641 45.738 33.6443 45.9513 33.4311L48.5292 30.8532L50.3949 32.7188C50.6485 32.9724 50.842 33.2797 50.961 33.6181C51.0799 33.9565 51.1213 34.3173 51.0821 34.6738C51.0429 35.0303 50.9241 35.3735 50.7345 35.6779C50.5449 35.9824 50.2892 36.2403 49.9865 36.4327C48.009 37.6887 45.0936 39.4157 42.4355 40.5104C39.534 41.7053 37.5573 41.894 36.7189 41.0556C35.8806 40.2173 36.0691 38.2406 37.2641 35.339C38.3588 32.681 40.0859 29.7656 41.3419 27.7881L41.3415 27.7882ZM36.4872 35.0193C35.7487 36.8126 35.3738 38.2684 35.3604 39.4069H25.2968V34.3226H36.7859C36.6825 34.5561 36.583 34.7883 36.4876 35.0193L36.4872 35.0193ZM17.706 28.3983H31.8573C32.083 28.3986 32.2993 28.4883 32.4588 28.6479C32.6184 28.8074 32.7082 29.0237 32.7084 29.2494V33.4828H17.0449V29.0594C17.0451 28.8841 17.1148 28.7161 17.2388 28.5922C17.3627 28.4683 17.5307 28.3985 17.706 28.3983ZM17.0449 56.5628V52.0954H32.7084V57.1799H17.662C17.4984 57.1797 17.3416 57.1146 17.2259 56.9989C17.1102 56.8832 17.0451 56.7264 17.0449 56.5628ZM56.8463 57.1799H50.052V52.0954H57.4637V56.5628C57.4636 56.7264 57.3984 56.8833 57.2827 56.999C57.1669 57.1147 57.01 57.1798 56.8463 57.1799Z" fill="black"/>
</svg>
