<svg width="76" height="76" viewBox="0 0 76 76" fill="none" xmlns="http://www.w3.org/2000/svg">
<circle cx="38" cy="38" r="38" fill="#D9D8D8"/>
<g clip-path="url(#clip0_3093_39413)">
<path d="M26.9219 20.4375V57H50.0781V20.4375H26.9219ZM37.2812 55.1719H28.75V40.5469H37.2812V55.1719ZM37.2812 36.8906H28.75V22.2656H37.2812V36.8906ZM48.25 55.1719H39.7188V40.5469H48.25V55.1719ZM48.25 36.8906H39.7188V22.2656H48.25V36.8906Z" fill="#42484F"/>
<path d="M47.0312 35.6719V23.4844L48.25 22.2656V36.8906H39.7188L40.9375 35.6719H47.0312Z" fill="#616161"/>
<path d="M42.1562 24.7031V34.4531L40.9375 35.6719H47.0312V23.4844L45.8125 24.7031H42.1562Z" fill="#616161" fill-opacity="0.66"/>
<path d="M40.9375 23.4844H47.0312L48.25 22.2656H39.7188V36.8906L40.9375 35.6719V23.4844ZM31.1875 24.7031V34.4531L29.9688 35.6719H36.0625V23.4844L34.8438 24.7031H31.1875Z" fill="#616161" fill-opacity="0.66"/>
<path d="M29.9688 23.4844H36.0625L37.2812 22.2656H28.75V36.8906L29.9688 35.6719V23.4844Z" fill="#C0BECA"/>
<path d="M42.1562 24.7031V34.4531L40.9375 35.6719V23.4844H47.0312L45.8125 24.7031H42.1562Z" fill="#C0BECA"/>
<path d="M36.0625 35.6719V23.4844L37.2812 22.2656V36.8906H28.75L29.9688 35.6719H36.0625Z" fill="#616161"/>
<path d="M31.1875 24.7031V34.4531L29.9688 35.6719V23.4844H36.0625L34.8438 24.7031H31.1875Z" fill="#C0BECA"/>
<path d="M31.1875 42.9844V52.7344L29.9688 53.9531H36.0625V41.7656L34.8438 42.9844H31.1875Z" fill="#616161" fill-opacity="0.66"/>
<path d="M29.9688 41.7656H36.0625L37.2812 40.5469H28.75V55.1719L29.9688 53.9531V41.7656Z" fill="#C0BECA"/>
<path d="M36.0625 53.9531V41.7656L37.2812 40.5469V55.1719H28.75L29.9688 53.9531H36.0625Z" fill="#616161"/>
<path d="M31.1875 42.9844V52.7344L29.9688 53.9531V41.7656H36.0625L34.8438 42.9844H31.1875Z" fill="#C0BECA"/>
<path d="M42.1562 42.9844V52.7344L40.9375 53.9531H47.0312V41.7656L45.8125 42.9844H42.1562Z" fill="#616161" fill-opacity="0.66"/>
<path d="M40.9375 41.7656H47.0312L48.25 40.5469H39.7188V55.1719L40.9375 53.9531V41.7656Z" fill="#C0BECA"/>
<path d="M47.0312 53.9531V41.7656L48.25 40.5469V55.1719H39.7188L40.9375 53.9531H47.0312Z" fill="#616161"/>
<path d="M42.1562 42.9844V52.7344L40.9375 53.9531V41.7656H47.0312L45.8125 42.9844H42.1562Z" fill="#C0BECA"/>
<path d="M47.6406 38.1094H43.9844C43.8228 38.1094 43.6678 38.1736 43.5535 38.2879C43.4392 38.4021 43.375 38.5571 43.375 38.7188C43.375 38.8804 43.4392 39.0354 43.5535 39.1496C43.6678 39.2639 43.8228 39.3281 43.9844 39.3281H47.0312C47.0312 39.4897 47.0955 39.6447 47.2097 39.759C47.324 39.8733 47.479 39.9375 47.6406 39.9375C47.8022 39.9375 47.9572 39.8733 48.0715 39.759C48.1858 39.6447 48.25 39.4897 48.25 39.3281V38.7188C48.25 38.5571 48.1858 38.4021 48.0715 38.2879C47.9572 38.1736 47.8022 38.1094 47.6406 38.1094Z" fill="#FBFBFB"/>
<path d="M47.0312 39.3281H43.9844L44.5938 39.9375H47.6406C47.479 39.9375 47.324 39.8733 47.2097 39.759C47.0955 39.6447 47.0312 39.4897 47.0312 39.3281Z" fill="#616161"/>
<path d="M52.5156 55.1719H57.3906V57H52.5156V55.1719ZM19.6094 55.1719H24.4844V57H19.6094V55.1719Z" fill="#D0D7DA"/>
<path d="M52.5156 53.9531H57.3906V55.1719H52.5156V53.9531ZM19.6094 53.9531H24.4844V55.1719H19.6094V53.9531Z" fill="#E2E4E6"/>
<path d="M24.4844 18V57H26.9219V20.4375H50.0781V57H52.5156V18H24.4844Z" fill="#616161"/>
</g>
<defs>
<clipPath id="clip0_3093_39413">
<rect width="39" height="39" fill="white" transform="translate(19 18)"/>
</clipPath>
</defs>
</svg>
