<svg width="76" height="76" viewBox="0 0 76 76" fill="none" xmlns="http://www.w3.org/2000/svg">
<circle cx="38" cy="38" r="38" fill="#BBD0FF" fill-opacity="0.56"/>
<g clip-path="url(#clip0_3093_38537)">
<path d="M63.7734 45.2805L60.7879 48.1108L48.1709 47.663L45.0361 46.6956L46.2303 39.4767C46.2303 39.4767 48.995 35.6791 49.2159 35.4701C49.4368 35.2612 54.5899 34.4371 54.5899 34.4371C54.5899 34.4371 59.2174 35.2671 60.1848 35.7508C61.1521 36.2344 63.7734 45.2805 63.7734 45.2805ZM30.5922 45.1671L26.0602 47.6631L13.2284 46.033L10.84 42.7549L13.5509 36.2405L19.4921 33.1057C19.4921 33.1057 26.9022 32.1861 28.2815 35.8644C29.6606 39.5423 30.5922 45.1671 30.5922 45.1671Z" fill="#2F4859"/>
<path d="M10.0569 38.9094C10.3276 36.6869 10.7263 34.4819 11.2512 32.3054C20.0824 32.0845 23.4202 27.0389 33.7323 26.7403C44.0444 26.4417 49.2331 33.2249 49.2331 33.2249C54.7977 32.7693 60.3424 34.3126 64.8714 37.5777C65.2233 37.8295 65.5095 38.1622 65.7059 38.5477C65.9023 38.9332 66.0032 39.3604 65.9999 39.793V44.8266C66.0025 45.4469 65.7914 46.0491 65.402 46.5319C65.0127 47.0148 64.469 47.3488 63.8623 47.4778L60.811 48.1345C60.811 48.1345 64.9908 36.27 54.7981 35.6669C44.8981 35.0698 47.6328 47.7344 48.1941 47.6867H26.0593C30.7346 36.7058 21.384 35.225 21.384 35.225C11.4422 34.7055 13.2275 46.0565 13.2275 46.0565C10.1346 45.0656 9.83601 41.5069 10.0569 38.9094Z" fill="#654FBB"/>
<path d="M62.7642 37.8585L64.9555 38.7959C65.0144 38.8198 65.066 38.8589 65.1048 38.9092C65.1436 38.9596 65.1684 39.0194 65.1764 39.0825L65.3018 39.9363C65.3105 39.9897 65.3074 40.0443 65.2928 40.0964C65.2781 40.1485 65.2522 40.1967 65.2169 40.2377C65.1816 40.2786 65.1378 40.3114 65.0885 40.3336C65.0392 40.3558 64.9856 40.3669 64.9315 40.3662H62.9909C62.8911 40.3662 62.7954 40.3266 62.7249 40.256C62.6543 40.1854 62.6147 40.0897 62.6147 39.99C62.6072 39.4239 62.4917 38.8646 62.2743 38.3419C62.2454 38.2736 62.2377 38.1982 62.2521 38.1255C62.2665 38.0528 62.3024 37.9861 62.3552 37.934C62.408 37.8819 62.4752 37.8469 62.5481 37.8334C62.621 37.82 62.6963 37.8287 62.7642 37.8585Z" fill="#EBF0F3"/>
<path d="M20.0888 36.2404C23.6866 36.2305 26.6112 39.1391 26.6211 42.737C26.631 46.3348 23.7223 49.2594 20.1245 49.2693C16.529 49.2792 13.6054 46.3742 13.5922 42.7788C13.5789 39.1809 16.4848 36.2537 20.0827 36.2404H20.0888Z" fill="#3A556A"/>
<path d="M15.2517 42.7787C15.265 45.463 17.4518 47.6284 20.1361 47.6152C22.8204 47.602 24.9857 45.4152 24.9726 42.7309C24.9593 40.0466 22.7727 37.8812 20.0884 37.8943C17.4073 37.9042 15.2418 40.0855 15.2517 42.7666V42.7787Z" fill="#E1E6E9"/>
<path d="M15.6818 42.2353H18.8524L16.6073 39.9902L17.3478 39.2558L19.587 41.495V38.3243H20.6319V41.495L22.8711 39.2558L23.6116 39.9902L21.3724 42.2353H24.5371V43.2803H21.3724L23.6116 45.5195L22.8711 46.2539L20.6319 44.0147V47.1853H19.587V44.0147L17.3478 46.2539L16.6073 45.5195L18.8524 43.2803H15.6818V42.2353ZM19.0436 42.3128V43.1966L19.6407 43.7937H20.5245L21.1217 43.1966V42.3128L20.5245 41.7156H19.6407L19.0436 42.3128Z" fill="#3A556A"/>
<path d="M18.5714 42.7788C18.5814 43.6295 19.2791 44.3111 20.1299 44.3011C20.9807 44.291 21.6623 43.5934 21.6522 42.7425C21.6422 41.8916 20.9445 41.2102 20.0937 41.2202L20.088 41.2203C19.241 41.2366 18.5647 41.9314 18.5714 42.7788Z" fill="#EBF0F3"/>
<path d="M20.0884 37.8943C22.7727 37.8812 24.9595 40.0466 24.9726 42.7309C24.9857 45.4152 22.8204 47.602 20.1361 47.6151C17.4518 47.6282 15.2651 45.4629 15.2519 42.7786C15.2418 40.0957 17.4053 37.9107 20.0884 37.8943ZM20.0884 46.9585C22.4197 46.9815 24.3283 45.1101 24.3513 42.7787C24.3743 40.4474 22.5029 38.5388 20.1715 38.5158C17.8402 38.4928 15.9316 40.3642 15.9086 42.6956C15.9083 42.7232 15.9083 42.751 15.9086 42.7787C15.9312 45.0776 17.7893 46.9358 20.0884 46.9585Z" fill="#E1E6E9"/>
<path d="M54.5891 36.2404C58.187 36.2404 61.1035 39.157 61.1035 42.7549C61.1035 46.3527 58.1868 49.2692 54.589 49.2692C51.0005 49.2692 48.0878 46.3671 48.0746 42.7787C48.0581 39.1843 50.9587 36.257 54.5531 36.2405L54.5891 36.2404Z" fill="#3A556A"/>
<path d="M49.7282 42.7787C49.7282 45.463 51.9043 47.6392 54.5887 47.6392C57.2731 47.6392 59.4492 45.4632 59.4492 42.7787C59.4492 40.0944 57.2731 37.9182 54.5887 37.9182C51.9043 37.9182 49.7282 40.0943 49.7282 42.7787Z" fill="#E1E6E9"/>
<path d="M50.1645 42.2353H53.3291L51.0899 39.9902L51.8303 39.2558L54.0695 41.495V38.3243H55.1145V41.495L57.3535 39.2557L58.094 39.9902L55.8489 42.2353H59.0195V43.2803H55.8489L58.094 45.5193L57.3535 46.2537L55.1143 44.0145V47.1852H54.0694V44.0147L51.8302 46.2539L51.0897 45.5195L53.3289 43.2803H50.1642L50.1645 42.2353ZM53.5261 42.313V43.1967L54.1233 43.7939H55.0309L55.6281 43.1967V42.313L55.0309 41.7158H54.1233L53.5261 42.313Z" fill="#3A556A"/>
<path d="M53.0557 42.7787C53.0525 43.6296 53.7394 44.3219 54.5903 44.3251C55.4411 44.3284 56.1335 43.6414 56.1367 42.7906C56.14 41.9397 55.453 41.2474 54.6021 41.2441H54.5903C53.7441 41.2474 53.059 41.9325 53.0557 42.7787Z" fill="#EBF0F3"/>
<path d="M54.5888 37.8944C57.2731 37.8944 59.4492 40.0706 59.4492 42.7549C59.4492 45.4392 57.273 47.6153 54.5887 47.6153C51.9137 47.6153 49.7415 45.4538 49.7283 42.7788C49.7152 40.0945 51.8805 37.9077 54.5648 37.8945L54.5888 37.8944ZM54.5888 46.9763C56.9204 46.9796 58.8131 45.0922 58.8163 42.7607C58.8196 40.4292 56.9322 38.5365 54.6007 38.5332C52.2692 38.53 50.3765 40.4173 50.3732 42.7489V42.7786C50.3993 45.0901 52.2772 46.952 54.5888 46.9584V46.9763Z" fill="#E1E6E9"/>
<path d="M30.592 45.3163H44.415L44.5285 45.2625L44.5703 45.167C43.1252 38.7719 46.9587 33.8219 46.9587 33.7622C46.9724 33.7493 46.9835 33.7338 46.9912 33.7167C46.999 33.6995 47.0032 33.681 47.0038 33.6622C47.0044 33.6434 47.0013 33.6246 46.9946 33.607C46.988 33.5894 46.9779 33.5733 46.965 33.5596L46.9587 33.5531C46.9308 33.5257 46.8933 33.5104 46.8542 33.5104C46.8152 33.5104 46.7776 33.5257 46.7498 33.5531C46.708 33.6069 42.8686 38.5807 44.236 45.0235H30.6996L26.1974 32.7769C26.1914 32.7577 26.1817 32.7399 26.1687 32.7246C26.1558 32.7092 26.1399 32.6966 26.122 32.6874C26.1042 32.6782 26.0847 32.6727 26.0646 32.6712C26.0446 32.6697 26.0245 32.6722 26.0054 32.6785C25.9864 32.6849 25.9688 32.6949 25.9537 32.7082C25.9385 32.7214 25.9262 32.7375 25.9174 32.7556C25.9086 32.7736 25.9035 32.7932 25.9023 32.8133C25.9012 32.8333 25.9041 32.8534 25.9108 32.8723L30.4548 45.2145C30.4745 45.2741 30.5295 45.3146 30.592 45.3163Z" fill="#1C75A1"/>
<path d="M24.8111 30.1379C28.106 29.0697 31.5114 28.3786 34.962 28.0779C40.1807 27.5584 45.3577 31.2247 47.3878 32.8549C47.4564 32.911 47.5053 32.9874 47.5276 33.0731C47.5499 33.1589 47.5443 33.2495 47.5118 33.3319C47.4792 33.4142 47.4213 33.4841 47.3464 33.5315C47.2715 33.5788 47.1835 33.6011 47.0951 33.5952L26.2381 32.998C26.1637 32.9977 26.0906 32.9783 26.0258 32.9417C25.961 32.9051 25.9067 32.8526 25.8679 32.7891L24.602 30.7052C24.5754 30.6548 24.5596 30.5993 24.5558 30.5424C24.552 30.4855 24.5602 30.4284 24.5799 30.3749C24.5997 30.3214 24.6305 30.2726 24.6703 30.2318C24.7101 30.191 24.7581 30.159 24.8111 30.1379Z" fill="#FBFBFB"/>
<path d="M11.2455 32.3054L13.413 33.416C13.5244 33.4733 13.6214 33.5551 13.6967 33.6553C13.772 33.7554 13.8236 33.8713 13.8478 33.9942C13.8719 34.1172 13.8678 34.244 13.836 34.3651C13.8041 34.4863 13.7452 34.5987 13.6637 34.6938L10.0811 38.9094C10.2326 36.6729 10.6229 34.4589 11.2455 32.3054Z" fill="#EBF0F3"/>
</g>
<defs>
<clipPath id="clip0_3093_38537">
<rect width="56" height="56" fill="white" transform="matrix(-1 0 0 1 66 10)"/>
</clipPath>
</defs>
</svg>
