<svg width="19" height="17" viewBox="0 0 19 17" fill="none" xmlns="http://www.w3.org/2000/svg">
<path d="M13.9806 16.947C13.561 16.947 13.0227 16.8124 12.3498 16.4166L9.98268 15.0153C9.73727 14.8728 9.26227 14.8728 9.02477 15.0153L6.64977 16.4166C5.24852 17.2478 4.42518 16.9153 4.0531 16.6462C3.68893 16.377 3.11893 15.6883 3.49102 14.1049L4.0531 11.6745C4.11643 11.4212 3.98977 10.9858 3.79977 10.7958L1.83643 8.83242C0.854768 7.85076 0.933934 7.01159 1.06852 6.59992C1.2031 6.18826 1.6306 5.45992 2.99227 5.23034L5.51768 4.81076C5.75518 4.77117 6.0956 4.51784 6.19852 4.30409L7.59977 1.50951C8.2331 0.234922 9.06435 0.0449219 9.49977 0.0449219C9.93518 0.0449219 10.7664 0.234922 11.3998 1.50951L12.7931 4.29617C12.9039 4.50992 13.2444 4.76326 13.4819 4.80284L16.0073 5.22242C17.3769 5.45201 17.8043 6.18034 17.931 6.59201C18.0577 7.00367 18.1369 7.84284 17.1631 8.82451L15.1998 10.7958C15.0098 10.9858 14.891 11.4133 14.9464 11.6745L15.5085 14.1049C15.8727 15.6883 15.3106 16.377 14.9464 16.6462C14.7485 16.7887 14.4319 16.947 13.9806 16.947ZM9.49977 13.717C9.88768 13.717 10.2756 13.812 10.5844 13.9941L12.9514 15.3953C13.6402 15.807 14.0756 15.807 14.2419 15.6883C14.4081 15.5695 14.5268 15.1499 14.3527 14.3741L13.7906 11.9437C13.6402 11.2866 13.8856 10.4395 14.3606 9.95659L16.3239 7.99326C16.7119 7.60534 16.886 7.22534 16.8069 6.96409C16.7198 6.70284 16.3556 6.48909 15.8173 6.40201L13.2919 5.98242C12.6823 5.87951 12.0173 5.38867 11.7402 4.83451L10.3469 2.04784C10.0935 1.54117 9.77685 1.24034 9.49977 1.24034C9.22268 1.24034 8.90602 1.54117 8.6606 2.04784L7.25935 4.83451C6.98227 5.38867 6.31727 5.87951 5.70768 5.98242L3.19018 6.40201C2.65185 6.48909 2.28768 6.70284 2.2006 6.96409C2.11352 7.22534 2.2956 7.61326 2.68352 7.99326L4.64685 9.95659C5.12185 10.4316 5.36727 11.2866 5.21685 11.9437L4.65477 14.3741C4.47268 15.1578 4.59935 15.5695 4.7656 15.6883C4.93185 15.807 5.35935 15.7991 6.05602 15.3953L8.4231 13.9941C8.72393 13.812 9.11185 13.717 9.49977 13.717Z" fill="#BA94E8"/>
</svg>
