<svg width="76" height="76" viewBox="0 0 76 76" fill="none" xmlns="http://www.w3.org/2000/svg">
<circle cx="38" cy="38" r="38" fill="#BBD0FF" fill-opacity="0.56"/>
<g clip-path="url(#clip0_3093_38180)">
<path d="M22.556 44.0244H30.8473C31.0497 44.0244 31.208 43.8525 31.1952 43.6506C31.0025 40.6158 28.4802 38.2141 25.3968 38.2141C23.1486 38.2141 21.1998 39.4917 20.2339 41.3598C20.2001 41.4256 20.1881 41.5004 20.1995 41.5734C20.211 41.6464 20.2454 41.7139 20.2978 41.7662L22.556 44.0244Z" fill="#F3B0C3"/>
<path d="M25.3968 40.2253C23.2986 40.2253 21.5977 41.9262 21.5977 44.0245C21.5977 46.1228 23.2986 47.8237 25.3968 47.8237C27.4951 47.8237 29.1961 46.1228 29.1961 44.0245C29.196 41.9262 27.4951 40.2253 25.3968 40.2253Z" fill="#6A61B2"/>
<path d="M28.1181 41.3735C28.2355 41.7447 28.2951 42.1317 28.2949 42.521C28.2949 44.6193 26.5939 46.3203 24.4956 46.3203C23.4289 46.3203 22.4655 45.88 21.7754 45.1721C22.262 46.7093 23.6995 47.8237 25.3978 47.8237C27.4961 47.8237 29.1971 46.1227 29.1971 44.0244C29.197 42.9929 28.7853 42.058 28.1181 41.3735Z" fill="#514898"/>
<path d="M50.9418 40.2253C48.8435 40.2253 47.1426 41.9262 47.1426 44.0245C47.1426 46.1228 48.8435 47.8237 50.9418 47.8237C53.0401 47.8237 54.741 46.1228 54.741 44.0245C54.741 41.9262 53.0401 40.2253 50.9418 40.2253Z" fill="#6A61B2"/>
<path d="M53.661 41.3735C53.7785 41.7447 53.8381 42.1317 53.8379 42.521C53.8379 44.6193 52.1369 46.3203 50.0386 46.3203C48.9719 46.3203 48.0085 45.88 47.3184 45.1721C47.805 46.7093 49.2425 47.8237 50.9408 47.8237C53.0391 47.8237 54.74 46.1227 54.74 44.0244C54.74 42.9929 54.3282 42.058 53.661 41.3735Z" fill="#514898"/>
<path d="M48.2442 19.9908L48.5908 19.3155L47.5118 19.047L45.5898 19.3859L48.6703 36.856L50.5923 36.5171L47.9831 21.7199C47.8792 21.1305 47.9708 20.5232 48.2442 19.9908Z" fill="#6A61B2"/>
<path d="M42.5774 20.8602C42.7639 21.3727 43.3305 21.6369 43.843 21.4503L48.6917 19.6856C48.7605 19.6605 48.8237 19.6222 48.8776 19.5727C48.9316 19.5233 48.9753 19.4637 49.0062 19.3974C49.0372 19.331 49.0547 19.2593 49.0579 19.1862C49.0611 19.113 49.0499 19.04 49.0248 18.9712L48.7307 18.1629C48.7056 18.0941 48.6673 18.031 48.6179 17.977C48.5684 17.923 48.5088 17.8794 48.4425 17.8484C48.3762 17.8175 48.3044 17.7999 48.2313 17.7967C48.1581 17.7935 48.0851 17.8048 48.0163 17.8298L43.1675 19.5947C42.6551 19.7812 42.3909 20.3478 42.5774 20.8602Z" fill="#8A94DB"/>
<path d="M52.2531 43.5871L50.4322 33.2604C50.4272 33.232 50.4166 33.2047 50.4011 33.1803C50.3855 33.156 50.3654 33.1349 50.3417 33.1183C50.318 33.1017 50.2912 33.0899 50.263 33.0837C50.2348 33.0774 50.2056 33.0768 50.1771 33.0818L47.8862 33.4857C47.8286 33.4959 47.7775 33.5285 47.744 33.5763C47.7105 33.6242 47.6974 33.6834 47.7075 33.7409L47.9695 35.2268C48.001 35.4053 47.989 35.5887 47.9345 35.7616C47.88 35.9344 47.7846 36.0916 47.6564 36.2197L40.502 43.3742L41.9214 44.7936L47.9561 38.7589C48.1839 38.5311 48.5738 38.654 48.6298 38.9713L49.5645 44.2721L49.581 44.2692C49.6967 44.9163 50.2611 45.4078 50.9414 45.4078C51.7055 45.4078 52.3248 44.7884 52.3248 44.0244C52.3246 43.8757 52.3004 43.7281 52.2531 43.5871Z" fill="#F3B0C3"/>
<path d="M25.3971 42.6411C24.6163 42.6411 23.9866 43.2879 24.0146 44.075C24.0413 44.8246 24.6801 45.4079 25.4303 45.4079H30.0472C30.068 45.4079 30.0886 45.411 30.1085 45.417L34.0835 46.635C34.1497 46.6552 34.2185 46.6655 34.2877 46.6655H42.3925C42.5946 46.6655 42.7939 46.6184 42.9745 46.5278C43.1551 46.4373 43.3121 46.3058 43.433 46.1439L45.3315 43.6013C45.6274 43.2051 45.3446 42.6411 44.8501 42.6411H25.3971V42.6411Z" fill="#D6E0F4"/>
<path d="M45.0357 42.6702L43.433 44.8167C43.3121 44.9786 43.1551 45.1101 42.9744 45.2006C42.7938 45.2912 42.5945 45.3383 42.3925 45.3383H34.2876C34.2184 45.3383 34.1495 45.328 34.0834 45.3078L30.1084 44.0898C30.0886 44.0838 30.0679 44.0807 30.0471 44.0807H25.4302C24.9017 44.0807 24.4295 43.7904 24.1866 43.3571C24.065 43.5763 24.0055 43.8245 24.0146 44.075C24.0413 44.8246 24.6801 45.4079 25.4303 45.4079H30.0472C30.068 45.4079 30.0886 45.411 30.1085 45.4171L34.0835 46.635C34.1497 46.6553 34.2185 46.6656 34.2877 46.6656H42.3925C42.5946 46.6656 42.7939 46.6184 42.9745 46.5278C43.1551 46.4373 43.3121 46.3058 43.433 46.1439L45.3315 43.6013C45.5878 43.258 45.4095 42.7894 45.0357 42.6702Z" fill="#B8C9EA"/>
</g>
<defs>
<clipPath id="clip0_3093_38180">
<rect width="48.8951" height="48.8951" fill="white" transform="translate(20.1953 2.12585)"/>
</clipPath>
</defs>
</svg>
