<svg width="60" height="105" viewBox="0 0 60 105" fill="none" xmlns="http://www.w3.org/2000/svg">
<g clip-path="url(#clip0_3093_37838)">
<path d="M46.1665 75.0631C46.557 75.3336 46.8683 75.7031 47.0686 76.1338C47.2688 76.5645 47.3507 77.0408 47.3058 77.5136C47.5762 77.1231 47.9458 76.8118 48.3765 76.6115C48.8072 76.4113 49.2834 76.3294 49.7563 76.3743C49.3658 76.1039 49.0544 75.7343 48.8542 75.3036C48.6539 74.8729 48.572 74.3967 48.617 73.9238C48.0642 74.7148 47.1275 75.1503 46.1665 75.0631ZM22.2742 60.9416C21.8837 60.6712 21.5723 60.3016 21.3721 59.8709C21.1718 59.4402 21.09 58.964 21.1349 58.4911C20.5883 59.2843 19.6515 59.7198 18.6844 59.6304C19.0749 59.9008 19.3862 60.2704 19.5865 60.7011C19.7867 61.1318 19.8686 61.6081 19.8237 62.0809C20.0957 61.6921 20.4656 61.382 20.8958 61.182C21.3261 60.9819 21.8016 60.899 22.2742 60.9416Z" fill="#BA94E8"/>
<path d="M5.68627 87.7862C5.3242 88.7775 5.83428 89.8746 6.82557 90.2367C7.81687 90.5988 8.91398 90.0887 9.27605 89.0974C9.63813 88.1061 9.12804 87.009 8.13675 86.6469C7.14545 86.2848 6.04834 86.7949 5.68627 87.7862Z" fill="#BA94E8"/>
<path d="M29.5622 84.5373C29.9527 84.8077 30.2641 85.1772 30.4643 85.6079C30.6646 86.0386 30.7465 86.5149 30.7015 86.9877C30.972 86.5973 31.3415 86.2859 31.7722 86.0857C32.2029 85.8854 32.6792 85.8035 33.152 85.8484C32.7615 85.578 32.4502 85.2085 32.2499 84.7778C32.0497 84.3471 31.9678 83.8708 32.0127 83.398C31.4661 84.1912 30.5294 84.6267 29.5622 84.5373ZM37.9464 73.1023L36.8317 70.2233L38.5671 67.6772L35.4923 67.8456L33.6057 65.4068L32.8153 68.3884L29.9159 69.4262L32.505 71.1009L32.5947 74.1817L34.9856 72.2361L37.9464 73.1023ZM20.8409 83.0945L25.6424 82.5709L22.3087 79.0759L23.2933 74.3462L18.9403 76.4362L14.7481 74.037L15.3937 78.8276L11.8147 82.0681L16.5664 82.9358L18.5453 87.3454L20.8409 83.0945ZM32.779 97.7239L31.5882 100.566L34.5692 99.7803L36.9093 101.794L37.0814 98.719L39.7225 97.1147L36.8473 95.9952L36.1384 92.9937L34.1887 95.3851L31.1156 95.1306L32.779 97.7239Z" fill="#BA94E8"/>
<path d="M39.0924 79.6649C38.8452 80.3416 39.1934 81.0904 39.8701 81.3376C40.5467 81.5847 41.2956 81.2366 41.5427 80.5599C41.7899 79.8833 41.4417 79.1344 40.7651 78.8872C40.0884 78.6401 39.3395 78.9883 39.0924 79.6649Z" fill="#BA94E8"/>
<path d="M45.1139 65.0762C44.8667 65.7528 45.2149 66.5017 45.8915 66.7488C46.5682 66.996 47.3171 66.6478 47.5642 65.9712C47.8114 65.2945 47.4632 64.5456 46.7865 64.2985C46.1099 64.0513 45.361 64.3995 45.1139 65.0762Z" fill="#BA94E8"/>
<path d="M18.0142 95.0178C17.7671 95.6945 18.1153 96.4433 18.7919 96.6905C19.4686 96.9376 20.2175 96.5895 20.4646 95.9128C20.7118 95.2362 20.3636 94.4873 19.6869 94.2401C19.0103 93.993 18.2614 94.3412 18.0142 95.0178Z" fill="#BA94E8"/>
<path d="M10.1021 68.0908C9.85499 68.7675 10.2032 69.5163 10.8798 69.7635C11.5565 70.0106 12.3054 69.6625 12.5525 68.9858C12.7996 68.3092 12.4515 67.5603 11.7748 67.3131C11.0982 67.066 10.3493 67.4142 10.1021 68.0908Z" fill="#BA94E8"/>
<path d="M20.483 67.7651C20.2358 68.4418 20.584 69.1907 21.2607 69.4378C21.9373 69.685 22.6862 69.3368 22.9334 68.6601C23.1805 67.9835 22.8323 67.2346 22.1557 66.9874C21.479 66.7403 20.7301 67.0885 20.483 67.7651Z" fill="#BA94E8"/>
</g>
<g clip-path="url(#clip1_3093_37838)">
<path d="M51.5804 9.78204C51.9497 9.81725 52.3029 9.95021 52.6038 10.1672C52.9046 10.3843 53.1422 10.6776 53.2921 11.0169C53.3273 10.6476 53.4603 10.2944 53.6773 9.99351C53.8944 9.69266 54.1876 9.45507 54.527 9.30518C54.1577 9.26997 53.8044 9.13701 53.5036 8.91997C53.2027 8.70293 52.9652 8.40966 52.8153 8.07033C52.7406 8.82029 52.2685 9.4746 51.5804 9.78204ZM29.9098 9.27986C29.5405 9.24465 29.1873 9.11169 28.8864 8.89465C28.5856 8.67762 28.348 8.38434 28.1981 8.04501C28.1284 8.79416 27.6564 9.44847 26.9633 9.75672C27.3326 9.79193 27.6858 9.92489 27.9866 10.1419C28.2875 10.359 28.5251 10.6522 28.675 10.9916C28.7119 10.6228 28.8456 10.2703 29.0624 9.96979C29.2792 9.66923 29.5715 9.43123 29.9098 9.27986Z" fill="#BA94E8"/>
<path d="M28.8524 33.9039C28.9841 34.7176 29.7505 35.2704 30.5641 35.1387C31.3778 35.0071 31.9307 34.2407 31.799 33.427C31.6673 32.6133 30.9009 32.0605 30.0873 32.1922C29.2736 32.3239 28.7207 33.0902 28.8524 33.9039Z" fill="#BA94E8"/>
<path d="M43.8825 22.5758C44.2518 22.611 44.605 22.7439 44.9059 22.961C45.2067 23.178 45.4443 23.4713 45.5942 23.8106C45.6294 23.4413 45.7624 23.0881 45.9794 22.7872C46.1965 22.4864 46.4897 22.2488 46.8291 22.0989C46.4598 22.0637 46.1065 21.9307 45.8057 21.7137C45.5049 21.4967 45.2673 21.2034 45.1174 20.864C45.0477 21.6132 44.5757 22.2675 43.8825 22.5758ZM45.2305 11.5836L43.372 10.0474L43.5826 7.65008L41.5517 8.93851L39.3353 7.99689L39.9348 10.3302L38.3553 12.1441L40.7588 12.297L41.9959 14.362L42.8824 12.1236L45.2305 11.5836ZM37.3891 24.9218L40.461 22.7322L36.8553 21.6232L35.7208 18.0246L33.5524 21.1103L29.7801 21.0758L32.0487 24.0936L30.8469 27.6679L34.4159 26.4453L37.4476 28.6946L37.3891 24.9218ZM51.108 30.3331L51.3815 32.7244L53.1128 31.051L55.4762 31.5302L54.4195 29.369L55.6068 27.2676L53.2203 27.6022L51.5915 25.8277L51.1758 28.2014L48.9847 29.201L51.108 30.3331Z" fill="#BA94E8"/>
<path d="M48.5147 15.6185C48.6046 16.1739 49.1277 16.5513 49.6831 16.4614C50.2385 16.3715 50.6159 15.8484 50.526 15.293C50.4361 14.7376 49.913 14.3602 49.3576 14.4501C48.8022 14.54 48.4248 15.0631 48.5147 15.6185Z" fill="#BA94E8"/>
<path d="M47.0499 3.37877C47.1398 3.93417 47.6629 4.31155 48.2183 4.22167C48.7737 4.13178 49.1511 3.60867 49.0612 3.05326C48.9713 2.49785 48.4482 2.12047 47.8928 2.21036C47.3374 2.30025 46.96 2.82336 47.0499 3.37877Z" fill="#BA94E8"/>
<path d="M40.0147 34.1255C40.1046 34.6809 40.6277 35.0583 41.1831 34.9684C41.7385 34.8785 42.1159 34.3554 42.026 33.8C41.9361 33.2446 41.413 32.8672 40.8576 32.9571C40.3022 33.0469 39.9248 33.5701 40.0147 34.1255Z" fill="#BA94E8"/>
<path d="M24.3448 18.7976C24.4347 19.353 24.9578 19.7304 25.5132 19.6405C26.0686 19.5506 26.446 19.0275 26.3561 18.4721C26.2662 17.9167 25.7431 17.5393 25.1877 17.6292C24.6323 17.7191 24.2549 18.2422 24.3448 18.7976Z" fill="#BA94E8"/>
<path d="M31.294 14.613C31.3839 15.1684 31.907 15.5458 32.4624 15.4559C33.0178 15.366 33.3952 14.8429 33.3053 14.2875C33.2154 13.7321 32.6923 13.3547 32.1369 13.4446C31.5815 13.5345 31.2041 14.0576 31.294 14.613Z" fill="#BA94E8"/>
</g>
<defs>
<clipPath id="clip0_3093_37838">
<rect width="43.0436" height="43.0436" fill="white" transform="translate(55.1992 65.7675) rotate(110.065)"/>
</clipPath>
<clipPath id="clip1_3093_37838">
<rect width="33.6184" height="33.6184" fill="white" transform="translate(54.1875) rotate(80.8071)"/>
</clipPath>
</defs>
</svg>
