<svg width="282" height="308" viewBox="0 0 282 308" fill="none" xmlns="http://www.w3.org/2000/svg">
<path d="M48.2393 129.869C48.0601 123.367 50.8086 115.135 55.2897 114.12C59.7709 113.106 58.3369 118.654 56.8432 121.995C55.3495 125.336 56.3055 130.108 59.1137 132.375C61.9219 134.642 71.0038 138.281 69.3308 133.091C67.7176 127.841 66.3433 124.262 69.1515 123.307C71.9597 122.353 77.2177 125.336 77.0384 133.628C76.8592 141.92 74.7082 151.882 71.3622 158.504C68.0163 165.126 67.0603 179.443 67.0006 183.261C67.0006 184.096 67.0006 184.752 66.9408 185.289C66.8811 187.317 66.8811 187.616 66.8811 187.616C66.8811 187.616 84.0888 181.292 87.2555 180.576C90.4222 179.861 104.344 219.531 104.344 219.531C104.344 219.531 85.1045 220.724 79.0101 221.5C72.9157 222.275 56.0067 223.767 50.5098 222.991C44.9531 222.216 26.4907 222.156 30.1951 205.095C33.8996 188.033 39.3367 178.727 41.0097 175.506C42.6229 172.284 46.6261 160.532 46.3274 158.623C46.0286 156.774 36.2298 146.812 41.4279 141.92C41.4279 141.92 42.2047 136.67 45.1921 135.537C45.1921 135.537 43.6387 131.54 47.4029 131.182L48.2393 129.869Z" fill="white" stroke="black" stroke-width="3.1462" stroke-miterlimit="10"/>
<path d="M66.1641 201.277C66.1641 201.277 66.881 191.971 66.9408 187.616L66.1641 201.277Z" fill="white"/>
<path d="M66.1641 201.277C66.1641 201.277 66.881 191.971 66.9408 187.616" stroke="black" stroke-width="3.1462" stroke-miterlimit="10" stroke-linecap="round" stroke-linejoin="round"/>
<path d="M55.7081 149.913C55.3496 149.913 54.9911 149.675 54.8119 149.317C52.8999 144.246 47.5822 143.65 43.6985 143.232C42.6828 143.113 41.8463 143.053 41.1293 142.874C40.6513 142.755 40.2928 142.278 40.4123 141.741C40.5318 141.263 41.0098 140.906 41.5475 141.025C42.145 141.144 42.9815 141.263 43.9375 141.383C48.0602 141.86 54.2741 142.516 56.6043 148.661C56.7836 149.138 56.5446 149.675 56.0666 149.854C55.9471 149.913 55.8276 149.913 55.7081 149.913Z" fill="black"/>
<path d="M57.7396 144.485C57.2616 144.485 56.9031 144.127 56.7836 143.709C55.9472 137.684 48.4188 136.849 45.6106 136.551C45.3716 136.551 45.1326 136.491 44.9533 136.491C44.4156 136.431 44.0571 135.954 44.1168 135.417C44.1766 134.88 44.6546 134.523 45.1923 134.582C45.3716 134.582 45.5508 134.642 45.7898 134.642C48.7175 134.94 57.5604 135.954 58.6359 143.411C58.6956 143.948 58.3371 144.425 57.8591 144.485C57.8591 144.485 57.7994 144.485 57.7396 144.485Z" fill="black"/>
<path d="M244.933 210.941C261.305 225.318 247.443 245.66 229.219 243.632L228.383 243.692C220.376 247.211 179.986 189.047 179.986 189.047L170.845 153.553C170.845 153.553 152.083 129.75 166.782 118.774C170.426 116.029 173.892 114.359 177.058 113.524C186.26 111.018 193.25 115.194 197.134 118.774C201.974 123.307 203.408 134.284 204.662 151.226C208.008 167.333 222.229 172.344 234.955 177.355C244.814 181.292 253.776 185.23 256.047 194.476C259.213 205.512 244.933 210.941 244.933 210.941Z" fill="#FEACD0" stroke="black" stroke-width="3.1462" stroke-miterlimit="10"/>
<path d="M234.179 178.309C204.663 177.415 200.301 158.265 199.465 154.328C198.509 149.794 197.971 131.898 194.625 123.427C192.474 117.879 182.974 115.492 176.401 114.777C185.304 111.794 192.713 116.328 196.298 119.609C200.839 123.725 202.571 135.119 203.826 152.061C207.172 168.168 221.452 173.298 234.179 178.309Z" fill="#FEF8DC"/>
<path d="M68.6735 76.5974H65.0288V79.2819H68.6735V76.5974Z" fill="#BBD0FF"/>
<path d="M61.384 71.2285H60.4878C59.4721 71.2285 58.6953 72.0637 58.6953 73.0182C58.6953 74.0323 59.5318 74.8078 60.4878 74.8078H63.1765V73.0182C63.2362 72.004 62.3998 71.2285 61.384 71.2285Z" fill="#BBD0FF"/>
<path d="M68.6735 81.1311H65.0288V99.2066H68.6735V81.1311Z" fill="#BBD0FF"/>
<path d="M58.6953 106.664C58.6953 107.499 59.4123 108.215 60.2488 108.215H73.4533C74.2898 108.215 75.0068 107.499 75.0068 106.664V105.47H58.6953V106.664Z" fill="#BBD0FF"/>
<path d="M95.7397 37.8215C96.7297 37.8215 97.5322 37.0202 97.5322 36.0318C97.5322 35.0434 96.7297 34.2422 95.7397 34.2422C94.7498 34.2422 93.9473 35.0434 93.9473 36.0318C93.9473 37.0202 94.7498 37.8215 95.7397 37.8215Z" fill="#BBD0FF"/>
<path d="M37.9025 104.635C40.9054 104.635 43.3397 102.205 43.3397 99.2067C43.3397 96.2086 40.9054 93.7781 37.9025 93.7781C34.8996 93.7781 32.4653 96.2086 32.4653 99.2067C32.4653 102.205 34.8996 104.635 37.9025 104.635Z" fill="#BBD0FF"/>
<path d="M63.2363 110.959C63.2363 111.913 64.0131 112.689 64.9691 112.689H68.6735C69.6295 112.689 70.4062 111.913 70.4062 110.959V110.004H63.2363V110.959Z" fill="#BBD0FF"/>
<path d="M74.9471 100.996H58.6953V103.681H74.9471V100.996Z" fill="#BBD0FF"/>
<path d="M100.281 86.5597C102.294 86.5597 103.926 84.9305 103.926 82.9207C103.926 80.911 102.294 79.2817 100.281 79.2817C98.268 79.2817 96.6362 80.911 96.6362 82.9207C96.6362 84.9305 98.268 86.5597 100.281 86.5597Z" fill="#BBD0FF"/>
<path d="M79.7272 79.5801C76.919 81.668 75.246 84.949 75.246 88.409V88.588C75.246 89.0652 74.8278 89.4828 74.3498 89.4828C73.8718 89.4828 73.4535 89.0652 73.4535 88.588V88.409C73.4535 84.3525 75.3655 80.5345 78.6517 78.1483C83.6706 74.3901 86.7178 68.4245 86.7178 62.2204C86.7178 51.2438 77.8152 42.2955 66.7019 42.3552C55.8276 42.4149 46.9847 51.3035 46.9847 62.1607C46.9847 68.4842 49.8527 74.3304 54.9911 78.1483C58.2773 80.5942 60.249 84.4718 60.249 88.4687V88.6477C60.249 89.1249 59.8308 89.5425 59.3528 89.5425C58.8748 89.5425 58.4565 89.1249 58.4565 88.6477V88.4687C58.4565 85.0087 56.7835 81.7276 53.9753 79.5801C48.4784 75.4638 45.252 68.9614 45.252 62.1607C45.252 50.2893 54.9911 40.5655 66.9409 40.5655C78.9505 40.5655 88.6298 50.2297 88.6298 62.2204C88.5103 69.0211 85.2241 75.5235 79.7272 79.5801ZM66.8214 33.2876H66.5824C50.8086 33.4069 37.9028 46.2924 37.9028 62.1011C37.9028 71.3476 42.0853 79.8187 49.5539 85.307C53.9753 88.588 56.7238 93.778 56.903 99.147H63.2365V81.1311H62.3402C61.8622 81.1311 61.444 80.7135 61.444 80.2363C61.444 79.759 61.8622 79.3414 62.3402 79.3414H63.2365V76.657H60.5477C58.576 76.657 56.903 75.0463 56.903 73.018C56.903 70.9897 58.5163 69.379 60.5477 69.379H61.444C63.4157 69.379 65.0887 70.9897 65.0887 73.018V74.8077H68.7334V73.018C68.7334 71.0494 70.3466 69.379 72.3781 69.379H73.2743C75.246 69.379 76.919 70.9897 76.919 73.018C76.919 75.0463 75.3058 76.657 73.2743 76.657H70.5856V79.3414H71.4818C71.9598 79.3414 72.3781 79.759 72.3781 80.2363C72.3781 80.7135 71.9598 81.1311 71.4818 81.1311H70.5856V99.2066H76.919C77.0982 93.778 79.787 88.6477 84.2084 85.4263C91.5575 79.9977 95.9192 71.3476 95.9192 62.2204C95.74 46.2924 82.7744 33.2876 66.8214 33.2876Z" fill="#BBD0FF"/>
<path d="M74.947 73.0182C74.947 72.004 74.1105 71.2285 73.1545 71.2285H72.2583C71.2426 71.2285 70.4658 72.0637 70.4658 73.0182V74.8078H73.1545C74.1703 74.8078 74.947 74.0323 74.947 73.0182Z" fill="#BBD0FF"/>
<path d="M37.9026 35.5546C37.9026 37.3443 35.2139 37.3443 35.2139 35.5546C35.2139 33.765 37.9026 33.765 37.9026 35.5546Z" fill="#BBD0FF"/>
<path d="M28.8806 56.3147C28.8806 58.1043 26.1919 58.1043 26.1919 56.3147C26.1919 54.525 28.8806 54.525 28.8806 56.3147Z" fill="#BBD0FF"/>
<path d="M37.9026 83.3982C37.9026 85.1878 35.2139 85.1878 35.2139 83.3982C35.2139 81.6085 37.9026 81.6085 37.9026 83.3982Z" fill="#BBD0FF"/>
<path d="M102.969 68.9614C102.969 70.751 100.281 70.751 100.281 68.9614C100.281 67.1717 102.969 67.1717 102.969 68.9614Z" fill="#BBD0FF"/>
<path d="M91.2585 96.0449C91.2585 97.8346 88.5698 97.8346 88.5698 96.0449C88.5101 94.1956 91.2585 94.1956 91.2585 96.0449Z" fill="#BBD0FF"/>
<path d="M52.362 108.632C52.362 110.422 49.6733 110.422 49.6733 108.632C49.6733 106.843 52.362 106.843 52.362 108.632Z" fill="#BBD0FF"/>
<path d="M87.614 32.8701C87.614 34.6597 84.9253 34.6597 84.9253 32.8701C84.9253 31.0804 87.614 31.0804 87.614 32.8701Z" fill="#BBD0FF"/>
<path d="M101.416 283.959C101.416 283.959 109.004 265.704 110.378 263.199C111.753 260.693 188.112 264.094 188.112 264.094L201.615 284.854L101.416 283.959Z" fill="#BBD0FF" stroke="black" stroke-width="3.1462" stroke-miterlimit="10" stroke-linecap="round" stroke-linejoin="round"/>
<path d="M87.1961 179.562C87.1961 179.562 119.64 172.225 121.074 184.812L163.257 184.514C163.257 184.514 198.509 181.889 213.087 217.563L188.112 264.094L110.379 263.199C110.379 263.199 103.508 248.106 103.508 243.871C103.508 239.635 80.4445 236.414 96.0987 211.836C96.0987 211.836 84.3879 199.964 87.1961 179.562Z" fill="black"/>
<path d="M207.053 215.893L206.575 215.117C192.534 193.224 173.952 189.644 164.153 189.465C163.854 189.465 163.675 189.465 163.556 189.465L162.6 189.406L162.719 187.616L163.675 187.676C163.795 187.676 163.974 187.676 164.213 187.676C174.37 187.855 193.669 191.553 208.188 214.222L208.666 214.998L207.053 215.893Z" fill="black"/>
<path d="M207.053 216.787C206.754 216.787 206.455 216.608 206.276 216.37L205.798 215.594C191.996 194.059 173.773 190.539 164.153 190.36C163.854 190.36 163.615 190.36 163.496 190.36L162.54 190.3C162.301 190.3 162.062 190.181 161.883 190.002C161.703 189.823 161.644 189.584 161.644 189.346L161.763 187.556C161.823 187.079 162.241 186.661 162.719 186.721L163.675 186.781C163.735 186.781 163.854 186.781 164.034 186.781H164.153C174.549 186.96 194.147 190.718 208.845 213.745L209.323 214.52C209.443 214.759 209.503 214.998 209.443 215.236C209.383 215.475 209.204 215.713 209.025 215.833L207.411 216.787C207.411 216.787 207.232 216.787 207.053 216.787ZM197.911 202.947C201.197 206.109 204.364 209.927 207.352 214.58C204.364 209.987 201.197 206.109 197.911 202.947Z" fill="#BA94E8"/>
<path d="M116.533 184.514C116.413 184.514 116.234 184.454 116.115 184.394C106.495 179.443 89.2275 183.738 89.0483 183.798C88.5703 183.917 88.0326 183.619 87.9131 183.142C87.7936 182.664 88.0923 182.128 88.5703 182.008C89.2873 181.829 106.734 177.474 116.951 182.784C117.429 183.022 117.608 183.559 117.369 184.036C117.19 184.335 116.832 184.514 116.533 184.514Z" fill="#BA94E8"/>
<path d="M115.577 244.809H184.647V243.023H183.691V239.35C183.691 238.432 182.795 237.667 181.659 237.667H115.577V231.647H184.647V229.862H115.577C110.737 229.862 106.854 233.178 106.854 237.31C106.854 241.493 110.737 244.809 115.577 244.809Z" fill="#BA94E8"/>
<path d="M180.643 247.053H111.573V248.839H180.643V254.501C180.584 254.501 180.524 254.501 180.464 254.501H115.636C114.561 254.501 113.605 255.266 113.605 256.184V260.214H111.514V262H180.584C185.423 262 189.307 258.684 189.307 254.552C189.367 250.369 185.483 247.053 180.643 247.053Z" fill="#BA94E8"/>
<path d="M187.336 220.119C188.411 220.119 189.367 219.354 189.367 218.435V214.456H191.458V212.671H122.388C117.549 212.671 113.665 215.987 113.665 220.119C113.665 224.251 117.549 227.567 122.388 227.567H191.458V225.781H122.329V220.068L187.336 220.119Z" fill="#BA94E8"/>
<path d="M114.203 250.194C113.964 247.45 122.448 247.927 127.885 250.194C133.322 252.461 148.319 252.7 148.558 249.478C148.797 246.257 142.046 241.365 142.165 240.53C142.285 239.695 141.926 237.13 146.168 238.621C150.411 240.053 162.36 249.836 162.36 249.836L195.88 249.001C195.88 249.001 190.98 245.481 192.833 243.155C194.625 240.888 196.836 237.01 189.666 236.056C189.666 236.056 195.222 232.655 194.625 224.721L212.072 218.1C212.072 218.1 232.028 247.092 233.223 249.478C234.418 251.864 241.349 272.923 230.295 276.025C219.301 279.187 199.943 277.337 189.785 275.19C179.628 273.042 159.552 269.164 153.518 269.522C147.483 269.88 116.174 271.014 114.203 250.194Z" fill="white" stroke="black" stroke-width="3.1462" stroke-miterlimit="10"/>
<path d="M144.854 164.887L113.725 132.912C113.725 132.912 113.904 128.199 116.234 122.651C119.042 116.149 125.017 108.513 137.505 106.485C148.2 104.755 157.64 108.453 164.81 114.061C173.055 120.504 178.254 129.512 178.791 135.417C179.688 146.454 176.64 166.856 144.854 164.887Z" fill="#FEACD0" stroke="black" stroke-width="3.1462" stroke-miterlimit="10"/>
<path d="M124.718 159.637C124.718 159.637 136.489 189.704 118.266 181.233C118.266 181.233 111.992 203.245 130.873 202.231C149.753 201.217 163.257 185.528 163.257 185.528C163.257 185.528 150.351 186.9 147.961 180.338C145.571 173.776 143.599 152.479 143.599 152.479L124.718 159.637Z" fill="white" stroke="black" stroke-width="3.1462" stroke-miterlimit="10" stroke-linecap="round" stroke-linejoin="round"/>
<path d="M164.332 115.075C138.222 103.8 123.523 115.433 116.891 123.665C119.64 117.163 125.435 109.527 137.684 107.499C148.08 105.709 157.341 109.467 164.332 115.075Z" fill="#FEF8DC"/>
<path d="M133.92 115.194C131.41 117.282 125.077 119.907 121.133 125.455C117.13 131.003 109.781 130.884 109.781 132.793C109.781 134.702 111.275 136.849 111.574 137.207C111.872 137.505 108.407 145.678 109.781 151.226C111.155 156.774 126.332 171.569 145.69 152.717C145.69 152.717 159.253 159.757 161.404 147.766C161.404 147.766 160.568 138.639 149.634 142.755L133.92 115.194Z" fill="#FDFFFF" stroke="black" stroke-width="3.1462" stroke-miterlimit="10"/>
<path d="M47.8211 131.003C49.9123 130.884 55.8872 133.21 57.9187 135C60.1294 136.968 61.3841 140.965 61.0256 142.278C60.6074 143.59 57.7394 143.531 57.7394 143.531C57.7394 143.531 59.3527 148.959 55.708 148.959C55.708 148.959 54.3935 154.149 51.0475 152.896C47.7016 151.644 46.8053 148.064 44.9531 148.422" stroke="black" stroke-width="3.1462" stroke-miterlimit="10" stroke-linecap="round" stroke-linejoin="round"/>
<path d="M130.493 134.397C131.566 133.325 131.982 132.003 131.422 131.444C130.862 130.885 129.538 131.3 128.465 132.372C127.392 133.444 126.975 134.766 127.535 135.325C128.095 135.884 129.42 135.469 130.493 134.397Z" fill="black"/>
<path d="M153.637 148.601C155.551 148.601 157.102 148.014 157.102 147.289C157.102 146.564 155.551 145.976 153.637 145.976C151.723 145.976 150.171 146.564 150.171 147.289C150.171 148.014 151.723 148.601 153.637 148.601Z" fill="black"/>
<path d="M137.863 134.702C137.266 134.702 136.907 134.224 136.907 133.687C137.027 131.659 136.489 130.048 135.413 128.975C133.442 127.006 130.215 127.125 130.215 127.125C129.678 127.125 129.259 126.767 129.259 126.23C129.259 125.694 129.618 125.276 130.156 125.276C130.335 125.276 134.218 125.157 136.788 127.722C138.281 129.213 138.939 131.301 138.819 133.866C138.819 134.284 138.401 134.702 137.863 134.702Z" fill="black"/>
<path d="M118.325 148.601C117.25 148.601 116.055 148.482 114.8 148.303C114.262 148.243 113.904 147.766 114.023 147.229C114.083 146.692 114.561 146.334 115.099 146.454C119.102 147.05 122.209 146.573 124.061 145.141C124.539 144.783 124.898 144.366 125.137 144.008C119.102 146.096 114.501 143.65 114.262 143.531C113.784 143.292 113.605 142.695 113.904 142.278C114.143 141.801 114.74 141.681 115.159 141.92C115.338 142.039 120.237 144.545 126.391 141.502C126.69 141.323 127.049 141.383 127.347 141.562C127.646 141.741 127.766 142.099 127.766 142.397C127.766 142.516 127.527 144.843 125.316 146.633C123.583 147.885 121.253 148.601 118.325 148.601Z" fill="black"/>
<path d="M133.143 258.427C119.938 258.427 114.382 251.626 114.143 251.268C113.844 250.85 113.904 250.254 114.322 249.955C114.74 249.657 115.338 249.717 115.636 250.134C115.696 250.254 121.97 257.77 136.847 256.398C137.385 256.339 137.803 256.756 137.863 257.233C137.923 257.77 137.505 258.188 137.027 258.248C135.652 258.367 134.338 258.427 133.143 258.427Z" fill="black"/>
<path d="M134.218 263.736C128.243 263.736 116.772 262.781 114.382 255.563C114.202 255.086 114.501 254.549 114.979 254.37C115.457 254.191 115.995 254.489 116.174 254.966C118.923 263.199 137.445 261.767 137.684 261.767C138.222 261.707 138.64 262.125 138.7 262.602C138.759 263.139 138.341 263.557 137.863 263.616C137.564 263.616 136.19 263.736 134.218 263.736Z" fill="black"/>
</svg>
