<svg width="31" height="30" viewBox="0 0 31 30" fill="none" xmlns="http://www.w3.org/2000/svg">
<path d="M28.5755 14.7593C28.5755 22.0558 22.541 28.0185 15.0377 28.0185C7.53449 28.0185 1.5 22.0558 1.5 14.7593C1.5 7.46268 7.53449 1.5 15.0377 1.5C22.541 1.5 28.5755 7.46268 28.5755 14.7593Z" fill="#BA94E8" stroke="white" stroke-width="3"/>
<path d="M18.3785 14.8985H11.6951C11.4667 14.8985 11.2773 14.7092 11.2773 14.4808C11.2773 14.2525 11.4667 14.0631 11.6951 14.0631H18.3785C18.6068 14.0631 18.7962 14.2525 18.7962 14.4808C18.7962 14.7092 18.6068 14.8985 18.3785 14.8985Z" fill="#FBFBFB"/>
<path d="M15.0369 18.2402C14.8085 18.2402 14.6191 18.0509 14.6191 17.8225V11.1391C14.6191 10.9107 14.8085 10.7214 15.0369 10.7214C15.2652 10.7214 15.4546 10.9107 15.4546 11.1391V17.8225C15.4546 18.0509 15.2652 18.2402 15.0369 18.2402Z" fill="#FBFBFB"/>
</svg>
