<svg width="76" height="76" viewBox="0 0 76 76" fill="none" xmlns="http://www.w3.org/2000/svg">
<circle cx="38" cy="38" r="38" fill="#BBD0FF" fill-opacity="0.56"/>
<g clip-path="url(#clip0_3093_39093)">
<path d="M67.9397 47.173L62.221 32.0592C62.1526 31.8792 62.0305 31.7241 61.8709 31.6146C61.7114 31.5051 61.522 31.4463 61.3279 31.4462H29.8748C29.622 31.4462 29.3795 31.5457 29.2008 31.7228C29.022 31.9 28.9216 32.1403 28.9216 32.3908V37.1138H21.2966V32.3908C21.2966 32.1403 21.1962 31.9 21.0175 31.7228C20.8387 31.5457 20.5963 31.4462 20.3435 31.4462H13.6716C13.2742 31.4462 12.9187 31.6908 12.7786 32.0592L7.0598 47.173C7.0062 47.316 6.98825 47.4697 7.00749 47.621C7.02672 47.7723 7.08257 47.9168 7.17027 48.0421C7.25798 48.1675 7.37494 48.2699 7.5112 48.3408C7.64746 48.4117 7.79899 48.4489 7.95288 48.4492H67.0466C67.2006 48.4491 67.3523 48.412 67.4886 48.3412C67.625 48.2704 67.7421 48.1679 67.8298 48.0425C67.9176 47.9171 67.9734 47.7726 67.9925 47.6212C68.0117 47.4698 67.9935 47.316 67.9397 47.173Z" fill="#654FBB"/>
<path d="M29.875 25.7784H19.3906V38.0584C19.3906 38.3089 19.491 38.5492 19.6698 38.7264C19.8485 38.9035 20.091 39.003 20.3438 39.003H29.875C30.1278 39.003 30.3702 38.9035 30.549 38.7264C30.7277 38.5492 30.8281 38.3089 30.8281 38.0584V26.7231C30.8281 26.4725 30.7277 26.2323 30.549 26.0551C30.3702 25.878 30.1278 25.7784 29.875 25.7784Z" fill="#F0E8DE"/>
<path d="M30.8281 22H19.3906C19.1378 22 18.8954 22.0995 18.7167 22.2767C18.5379 22.4538 18.4375 22.6941 18.4375 22.9446V26.7231C18.4375 26.9736 18.5379 27.2139 18.7167 27.391C18.8954 27.5682 19.1378 27.6677 19.3906 27.6677H30.8281C31.0809 27.6677 31.3233 27.5682 31.5021 27.391C31.6808 27.2139 31.7812 26.9736 31.7812 26.7231V22.9446C31.7812 22.6941 31.6808 22.4538 31.5021 22.2767C31.3233 22.0995 31.0809 22 30.8281 22ZM39.4062 63.563H35.5938C35.341 63.563 35.0985 63.6625 34.9198 63.8397C34.741 64.0168 34.6406 64.2571 34.6406 64.5076V68.2861C34.6406 68.5366 34.741 68.7769 34.9198 68.954C35.0985 69.1312 35.341 69.2307 35.5938 69.2307H39.4062C39.659 69.2307 39.9015 69.1312 40.0802 68.954C40.259 68.7769 40.3594 68.5366 40.3594 68.2861V64.5076C40.3594 64.2571 40.259 64.0168 40.0802 63.8397C39.9015 63.6625 39.659 63.563 39.4062 63.563Z" fill="#654FBB"/>
</g>
<defs>
<clipPath id="clip0_3093_39093">
<rect width="61" height="33" fill="white" transform="translate(7 22)"/>
</clipPath>
</defs>
</svg>
