<svg width="76" height="76" viewBox="0 0 76 76" fill="none" xmlns="http://www.w3.org/2000/svg">
<circle cx="38" cy="38" r="38" fill="#E7C6FF"/>
<path d="M37.7988 36.7875C37.7426 36.7875 37.7051 36.7875 37.6488 36.7875C37.5551 36.7687 37.4238 36.7687 37.3113 36.7875C31.8738 36.6187 27.7676 32.3438 27.7676 27.075C27.7676 21.7125 32.1363 17.3438 37.4988 17.3438C42.8613 17.3438 47.2301 21.7125 47.2301 27.075C47.2113 32.3438 43.0863 36.6187 37.8551 36.7875C37.8363 36.7875 37.8176 36.7875 37.7988 36.7875ZM37.4988 20.1562C33.6926 20.1562 30.5801 23.2688 30.5801 27.075C30.5801 30.825 33.5051 33.8437 37.2363 33.975C37.3301 33.9562 37.5926 33.9562 37.8363 33.975C41.5113 33.8062 44.3988 30.7875 44.4176 27.075C44.4176 23.2688 41.3051 20.1562 37.4988 20.1562Z" fill="#FBFBFB"/>
<path d="M37.8187 57.2812C34.1437 57.2812 30.45 56.3437 27.6562 54.4687C25.05 52.7437 23.625 50.3812 23.625 47.8125C23.625 45.2437 25.05 42.8625 27.6562 41.1188C33.2812 37.3875 42.3937 37.3875 47.9812 41.1188C50.5687 42.8438 52.0125 45.2062 52.0125 47.775C52.0125 50.3437 50.5875 52.725 47.9812 54.4687C45.1687 56.3437 41.4937 57.2812 37.8187 57.2812ZM29.2125 43.4812C27.4125 44.6812 26.4375 46.2188 26.4375 47.8313C26.4375 49.425 27.4312 50.9625 29.2125 52.1437C33.8812 55.275 41.7562 55.275 46.425 52.1437C48.225 50.9437 49.2 49.4062 49.2 47.7937C49.2 46.2 48.2062 44.6625 46.425 43.4812C41.7562 40.3687 33.8812 40.3687 29.2125 43.4812Z" fill="#FBFBFB"/>
</svg>
