<svg width="24" height="24" viewBox="0 0 24 24" fill="none" xmlns="http://www.w3.org/2000/svg">
<path d="M12.3972 8V2L10.4888 4" stroke="#999999" stroke-width="1.5" stroke-linecap="round" stroke-linejoin="round"/>
<path d="M12.3972 2L14.3056 4" stroke="#999999" stroke-width="1.5" stroke-linecap="round" stroke-linejoin="round"/>
<path d="M7.62612 12C3.80933 12 3.80933 13.79 3.80933 16V17C3.80933 19.76 3.80933 22 8.58032 22H16.2139C20.0307 22 20.9849 19.76 20.9849 17V16C20.9849 13.79 20.9849 12 17.1681 12C16.2139 12 15.9467 12.21 15.4505 12.6L14.4773 13.68C13.3513 14.94 11.4429 14.94 10.3074 13.68L9.34368 12.6C8.84749 12.21 8.58032 12 7.62612 12Z" stroke="#999999" stroke-width="1.5" stroke-miterlimit="10" stroke-linecap="round" stroke-linejoin="round"/>
<path d="M5.71777 12V10C5.71777 7.99004 5.71777 6.33004 8.58037 6.04004" stroke="#999999" stroke-width="1.5" stroke-miterlimit="10" stroke-linecap="round" stroke-linejoin="round"/>
<path d="M19.0765 12V10C19.0765 7.99004 19.0765 6.33004 16.2139 6.04004" stroke="#999999" stroke-width="1.5" stroke-miterlimit="10" stroke-linecap="round" stroke-linejoin="round"/>
</svg>
