<svg width="24" height="24" viewBox="0 0 24 24" fill="none" xmlns="http://www.w3.org/2000/svg">
<path d="M12.1067 14.9139C13.6877 14.9139 14.9693 13.5785 14.9693 11.9311C14.9693 10.2838 13.6877 8.94834 12.1067 8.94834C10.5258 8.94834 9.24414 10.2838 9.24414 11.9311C9.24414 13.5785 10.5258 14.9139 12.1067 14.9139Z" stroke="#999999" stroke-width="1.5" stroke-miterlimit="10" stroke-linecap="round" stroke-linejoin="round"/>
<path d="M2.56445 12.8061V11.0562C2.56445 10.0221 3.37552 9.16708 4.37743 9.16708C6.10453 9.16708 6.81064 7.89443 5.94232 6.33344C5.44613 5.4386 5.74193 4.27532 6.61025 3.7583L8.26102 2.77399C9.01483 2.30668 9.98812 2.58508 10.4366 3.37054L10.5416 3.55945C11.4003 5.12044 12.8125 5.12044 13.6809 3.55945L13.7858 3.37054C14.2343 2.58508 15.2076 2.30668 15.9614 2.77399L17.6122 3.7583C18.4805 4.27532 18.7763 5.4386 18.2801 6.33344C17.4118 7.89443 18.1179 9.16708 19.845 9.16708C20.8374 9.16708 21.658 10.0122 21.658 11.0562V12.8061C21.658 13.8401 20.8469 14.6952 19.845 14.6952C18.1179 14.6952 17.4118 15.9678 18.2801 17.5288C18.7763 18.4336 18.4805 19.5869 17.6122 20.1039L15.9614 21.0883C15.2076 21.5556 14.2343 21.2772 13.7858 20.4917L13.6809 20.3028C12.8221 18.7418 11.4099 18.7418 10.5416 20.3028L10.4366 20.4917C9.98812 21.2772 9.01483 21.5556 8.26102 21.0883L6.61025 20.1039C5.74193 19.5869 5.44613 18.4236 5.94232 17.5288C6.81064 15.9678 6.10453 14.6952 4.37743 14.6952C3.37552 14.6952 2.56445 13.8401 2.56445 12.8061Z" stroke="#999999" stroke-width="1.5" stroke-miterlimit="10" stroke-linecap="round" stroke-linejoin="round"/>
</svg>
