<svg width="318" height="227" viewBox="0 0 318 227" fill="none" xmlns="http://www.w3.org/2000/svg">
<path d="M305.722 192.716H6.3252V195.656H305.722V192.716Z" fill="black"/>
<path d="M194.476 84.613C194.476 84.613 190.458 76.8702 195.22 70.1696C199.982 63.469 206.531 55.9495 204.149 50.7752C201.768 45.6009 202.81 39.6448 212.484 34.5822C224.762 28.1422 249.392 28.6261 249.838 47.2388C250.285 65.8515 240.165 64.0646 242.248 67.6383C244.332 71.2119 252.257 84.3152 249.838 91.9092C247.42 99.5031 194.476 84.613 194.476 84.613Z" fill="#FEACD0"/>
<path d="M242.769 94.8129C236.705 94.8129 228.185 93.2866 221.153 91.8348C207.721 89.0802 194.439 85.3576 194.327 85.3204C194.141 85.2832 193.955 85.1343 193.881 84.9481C193.695 84.6131 189.714 76.7213 194.662 69.723C195.332 68.7924 196.076 67.7873 196.746 66.8566C200.987 61.0867 205.377 55.1307 203.517 51.0731C201.396 46.4199 201.136 39.6822 212.186 33.9122C220.371 29.6313 234.026 28.254 242.732 33.3911C247.755 36.3319 250.471 41.1339 250.62 47.2017C250.918 59.7466 246.416 63.3947 244.034 65.3676C242.621 66.5216 242.583 66.6333 242.956 67.2661L243.179 67.6756C245.597 71.8448 253.001 84.4642 250.62 92.1326C249.95 94.1056 246.937 94.8129 242.769 94.8129ZM195.034 84.0175C197.155 84.6131 209.247 87.9262 221.45 90.4203C229.264 92.021 235.589 92.9888 240.277 93.2494C247.718 93.6961 248.983 92.3188 249.169 91.6859C251.364 84.6876 244.221 72.4404 241.877 68.4573L241.616 68.0479C240.574 66.261 241.839 65.256 243.067 64.2509C245.448 62.3152 249.392 59.1138 249.132 47.2761C248.983 41.6551 246.602 37.4114 241.988 34.694C233.728 29.8174 220.706 31.1576 212.856 35.2523C204.819 39.4588 202.14 44.5587 204.857 50.4775C207.089 55.3168 202.438 61.6451 197.936 67.75C197.229 68.6807 196.522 69.6858 195.853 70.6164C191.909 76.163 194.402 82.6029 195.034 84.0175Z" fill="black"/>
<path d="M221.488 40.2778C221.488 40.2778 220.967 57.5504 233.617 59.0394C233.617 59.0394 237.337 56.5081 239.421 59.635C241.504 62.7619 238.9 68.2713 230.454 66.9312C230.454 66.9312 227.961 74.7113 228.408 78.9177C228.854 83.1614 234.51 82.1935 238.007 83.8687C241.504 85.5438 234.361 102.072 234.361 102.072L197.899 85.246L200.503 79.4016L207.349 79.1411C207.349 79.1411 218.734 83.4592 217.544 70.0581C217.544 70.0581 206.233 72.0683 208.019 50.8126C208.019 50.8126 210.549 41.6179 221.488 40.2778Z" fill="white"/>
<path d="M234.361 102.779C234.249 102.779 234.138 102.742 234.063 102.705L197.601 85.8788C197.229 85.6927 197.081 85.2832 197.229 84.9109L199.834 79.0666C199.945 78.806 200.206 78.6199 200.466 78.6199L207.312 78.3593C207.424 78.3593 207.498 78.3593 207.61 78.3965C207.647 78.3965 212 80.0344 214.679 77.987C216.316 76.7214 217.06 74.339 216.874 70.8025C215.684 70.8398 213.414 70.542 211.33 68.6435C207.908 65.5166 206.568 59.4861 207.275 50.7009C207.275 50.6637 207.275 50.6264 207.312 50.552C207.349 50.4403 208.019 48.0579 210.103 45.5266C212 43.1814 215.535 40.2033 221.413 39.4961C221.637 39.4588 221.86 39.5333 222.009 39.6822C222.157 39.8311 222.269 40.0544 222.269 40.2406C222.269 40.3895 221.934 56.6197 233.468 58.2204C234.101 57.8481 235.738 57.0292 237.449 57.3642C238.528 57.5876 239.384 58.1832 240.054 59.1883C241.133 60.7889 241.133 62.948 240.016 64.6604C239.272 65.8516 236.891 68.4574 230.975 67.7128C230.417 69.5741 228.78 75.4557 229.152 78.806C229.375 81.0023 231.236 81.449 234.249 82.0446C235.626 82.3052 237.077 82.603 238.305 83.1614C240.202 84.0548 240.165 87.4423 238.193 93.7706C236.854 98.0887 235.068 102.258 235.031 102.332C234.956 102.519 234.807 102.667 234.621 102.742C234.547 102.779 234.473 102.779 234.361 102.779ZM198.904 84.8737L233.989 101.067C237.858 91.9465 239.049 85.1715 237.71 84.5387C236.631 84.0175 235.291 83.7942 234.026 83.5336C231.236 83.0125 228.073 82.3796 227.701 78.9921C227.255 74.6368 229.673 67.0056 229.785 66.7078C229.896 66.3727 230.231 66.1494 230.603 66.1866C236.11 67.0428 238.156 64.8837 238.789 63.8786C239.57 62.6502 239.607 61.1612 238.826 60.0444C238.379 59.3744 237.858 59.0021 237.189 58.8532C235.7 58.5554 234.101 59.635 234.063 59.635C233.915 59.7466 233.729 59.7839 233.542 59.7466C222.083 58.4065 220.892 44.7448 220.781 41.0967C211.517 42.623 209.024 50.0681 208.8 50.9242C208.131 59.0394 209.359 64.8093 212.335 67.5639C214.716 69.7602 217.358 69.3135 217.469 69.3135C217.693 69.2763 217.879 69.3135 218.065 69.4624C218.214 69.5741 218.325 69.7602 218.362 69.9836C218.772 74.4506 217.842 77.5403 215.646 79.2155C212.595 81.5234 208.168 80.1833 207.312 79.8855L201.099 80.1461L198.904 84.8737Z" fill="black"/>
<path d="M214.233 59.2999C213.972 59.2999 213.712 59.151 213.563 58.8905C213.377 58.5182 213.526 58.0715 213.86 57.8854C213.898 57.8854 217.023 56.173 218.102 53.0461C219.032 50.3286 213.972 48.0951 213.898 48.0579C213.526 47.909 213.34 47.4623 213.488 47.09C213.637 46.7178 214.084 46.5317 214.456 46.6806C214.716 46.7922 220.892 49.4352 219.479 53.53C218.214 57.2153 214.642 59.1138 214.493 59.1883C214.493 59.2627 214.344 59.2999 214.233 59.2999Z" fill="black"/>
<path d="M215.907 67.7872C215.497 67.7872 215.162 67.4522 215.162 67.0427C215.162 66.6332 215.497 66.2982 215.907 66.2982C217.097 66.2982 218.437 65.3303 219.478 64.3252C215.721 64.7719 212.93 62.6873 212.781 62.5756C212.446 62.3151 212.409 61.8684 212.632 61.5333C212.856 61.1983 213.339 61.1611 213.674 61.3844C213.823 61.4961 217.209 63.9902 221.301 62.2778C221.599 62.1662 221.971 62.2406 222.157 62.5012C222.38 62.7618 222.38 63.134 222.194 63.3946C222.083 63.618 219.106 67.7872 215.907 67.7872Z" fill="black"/>
<path d="M223.124 59.635C224.029 59.635 224.761 58.9016 224.761 57.997C224.761 57.0925 224.029 56.3591 223.124 56.3591C222.22 56.3591 221.487 57.0925 221.487 57.997C221.487 58.9016 222.22 59.635 223.124 59.635Z" fill="black"/>
<path d="M214.344 54.1257C215.145 54.1257 215.795 53.4758 215.795 52.674C215.795 51.8722 215.145 51.2222 214.344 51.2222C213.543 51.2222 212.893 51.8722 212.893 52.674C212.893 53.4758 213.543 54.1257 214.344 54.1257Z" fill="black"/>
<path d="M176.505 134.905C176.505 134.905 177.882 151.135 189.379 153.704C200.875 156.272 205.117 156.458 205.117 156.458L194.104 136.022L176.505 134.905Z" fill="white"/>
<path d="M205.117 157.203C204.894 157.203 200.652 156.979 189.23 154.411C184.281 153.294 180.375 149.571 177.956 143.615C176.17 139.186 175.798 135.128 175.761 134.979C175.761 134.756 175.836 134.532 175.984 134.384C176.133 134.235 176.357 134.16 176.58 134.16L194.178 135.277C194.439 135.277 194.662 135.426 194.774 135.649L205.786 156.086C205.898 156.309 205.898 156.607 205.749 156.83C205.638 157.091 205.377 157.203 205.117 157.203ZM177.361 135.686C177.845 138.999 180.226 150.874 189.565 152.959C197.341 154.709 201.805 155.341 203.815 155.565L193.657 136.691L177.361 135.686Z" fill="black"/>
<path d="M265.391 210.286H177.659C177.584 207.271 177.622 204.367 177.733 201.538C179.408 163.829 198.085 143.02 198.085 143.02L183.054 107.47C184.84 82.3797 198.122 79.0666 204.261 78.9177C204.782 78.9177 205.266 78.9177 205.675 78.9177C206.717 78.9549 207.349 79.1039 207.349 79.1039C208.317 85.6555 210.995 90.3087 222.046 91.9094C233.059 93.51 238.007 83.8687 238.007 83.8687C264.051 87.2562 262.489 128.874 262.489 128.874C254.378 125.598 245.151 131.964 245.151 131.964L243.03 122.322C241.281 129.06 236.482 131.405 236.482 131.405C253.41 135.24 265.391 210.286 265.391 210.286Z" fill="#BA94E8"/>
<path d="M265.391 211.03H177.659C177.25 211.03 176.915 210.695 176.915 210.323C176.84 207.382 176.877 204.404 176.989 201.501C177.845 181.883 183.389 166.918 187.89 157.798C192.095 149.236 196.113 144.211 197.229 142.871L182.384 107.767C182.347 107.656 182.31 107.544 182.31 107.432C183.091 96.3391 186.179 88.2239 191.499 83.3102C195.927 79.2526 200.838 78.2848 204.224 78.1731C204.708 78.1731 205.191 78.1731 205.712 78.1731C206.791 78.2103 207.461 78.3592 207.498 78.3592C207.796 78.4337 208.056 78.657 208.093 78.9921C209.023 85.3576 211.702 89.6385 222.157 91.1647C232.538 92.691 237.3 83.608 237.337 83.4963C237.486 83.1985 237.784 83.0496 238.081 83.0868C249.057 84.5386 256.87 92.9515 260.703 107.432C263.568 118.228 263.195 128.762 263.195 128.874C263.195 129.135 263.047 129.321 262.861 129.47C262.675 129.618 262.414 129.618 262.191 129.544C258.247 127.943 253.931 128.837 251.029 129.842C247.829 130.959 245.56 132.522 245.523 132.522C245.337 132.671 245.076 132.708 244.816 132.597C244.592 132.522 244.406 132.299 244.369 132.075L242.807 125.04C241.43 128.241 239.421 130.14 238.081 131.145C244.89 134.272 251.55 148.008 257.912 172.055C262.972 191.115 265.986 209.951 266.023 210.137C266.06 210.36 265.986 210.584 265.837 210.732C265.688 210.881 265.614 211.03 265.391 211.03ZM178.403 209.541H264.535C263.865 205.633 261 189.142 256.573 172.465C248.239 141.009 240.946 133.155 236.296 132.113C235.998 132.038 235.775 131.778 235.737 131.48C235.7 131.182 235.886 130.847 236.147 130.735C236.184 130.698 240.686 128.465 242.286 122.136C242.36 121.801 242.658 121.578 243.03 121.578C243.365 121.578 243.662 121.838 243.737 122.173L245.634 130.772C248.09 129.321 255.085 125.747 261.744 127.832C261.744 124.965 261.558 116.478 259.252 107.804C255.568 93.9939 248.574 86.2138 238.379 84.6503C237.263 86.4371 232.798 92.8399 224.427 92.8399C223.608 92.8399 222.79 92.7654 221.897 92.6537C210.884 91.0531 207.758 86.3254 206.68 79.7738C206.419 79.7366 206.047 79.6993 205.638 79.6993C205.154 79.6621 204.708 79.6621 204.261 79.6993C201.136 79.7738 196.559 80.6672 192.504 84.427C187.481 89.0429 184.579 96.7858 183.798 107.395L198.755 142.759C198.866 143.02 198.829 143.317 198.606 143.541C198.42 143.764 180.077 164.648 178.44 201.612C178.366 204.181 178.329 206.861 178.403 209.541Z" fill="black"/>
<path d="M190.83 110.373C190.42 110.373 190.085 110.038 190.085 109.629C190.123 101.476 192.132 95.7063 196.076 92.3933C199.089 89.8619 202.066 89.8247 202.215 89.8247C202.624 89.8247 202.959 90.1597 202.959 90.5692C202.959 90.9787 202.624 91.3137 202.215 91.3137C201.768 91.3137 191.648 91.6115 191.611 109.629C191.574 110.038 191.239 110.373 190.83 110.373Z" fill="black"/>
<path d="M187.519 108.81C192.281 132.001 202.773 143.429 202.773 143.429C202.773 143.429 183.575 168.929 178.478 201.91C180.152 164.201 198.829 143.392 198.829 143.392L183.798 107.842C185.584 82.752 198.866 79.4389 205.005 79.29C205.526 79.29 206.01 79.774 206.419 79.774C195.741 80.4813 184.021 91.7233 187.519 108.81Z" fill="white"/>
<path d="M227.552 133.639C227.292 133.788 226.957 133.713 226.771 133.453C225.99 132.373 224.055 129.321 224.204 126.119C224.39 122.099 223.236 118.414 222.046 117.148C220.855 115.882 218.958 113.463 220.446 113.128C221.897 112.793 224.688 114.058 226.25 116.218C227.329 117.669 228.743 119.084 229.562 119.791C229.859 120.052 230.343 119.977 230.529 119.605L233.096 114.766C233.208 114.542 233.17 114.282 233.022 114.096L230.529 110.001C230.343 109.778 229.562 108.028 229.748 107.805L230.827 106.762C231.05 106.464 232.129 107.358 232.389 107.618C232.91 108.102 233.729 107.47 233.357 106.874L232.389 105.236C232.24 105.013 231.533 103.189 231.719 102.965L232.612 101.662C232.873 101.327 234.659 102.481 234.882 102.816L241.021 112.532C241.058 112.569 241.095 112.607 241.133 112.644C241.393 112.904 242.509 114.133 241.095 116.366C239.57 118.712 231.347 130.735 230.417 132.075C230.38 132.15 230.306 132.224 230.194 132.262L227.552 133.639Z" fill="white"/>
<path d="M227.255 134.458C226.845 134.458 226.399 134.272 226.138 133.9C225.283 132.671 223.273 129.507 223.422 126.082C223.571 122.322 222.529 118.786 221.488 117.632C219.702 115.696 218.92 114.245 219.218 113.314C219.292 113.053 219.553 112.569 220.26 112.383C222.157 111.937 225.208 113.5 226.845 115.734C227.813 117.074 229.152 118.377 229.896 119.084L232.352 114.431L229.859 110.336C229.599 109.926 228.557 108.065 229.115 107.321C229.152 107.283 229.152 107.246 229.189 107.209L230.268 106.204C230.417 106.018 230.64 105.943 230.864 105.906C231.31 105.869 231.868 106.204 232.315 106.539L231.756 105.571C231.756 105.534 230.603 103.3 231.087 102.519L231.98 101.216L232.017 101.179C232.129 101.03 232.389 100.806 232.835 100.843C233.654 100.881 235.179 101.923 235.514 102.407L241.653 112.123C241.951 112.383 243.439 114.058 241.69 116.776C240.128 119.196 231.384 131.964 231.012 132.522C230.901 132.708 230.715 132.857 230.529 132.932L227.961 134.309C227.701 134.383 227.478 134.458 227.255 134.458ZM220.632 113.798C220.706 114.207 221.302 115.212 222.567 116.59C223.832 117.967 225.097 121.764 224.911 126.119C224.799 128.986 226.473 131.778 227.292 132.894L229.71 131.592C230.305 130.735 238.826 118.302 240.351 115.92C241.43 114.207 240.76 113.351 240.5 113.128C240.425 113.053 240.351 112.979 240.277 112.867L234.175 103.189C233.989 103.003 233.319 102.556 232.91 102.37L232.389 103.151C232.501 103.561 232.873 104.603 232.984 104.827L233.952 106.465C234.286 107.06 234.175 107.805 233.617 108.214C233.059 108.624 232.315 108.586 231.831 108.14C231.645 107.954 231.273 107.656 231.05 107.507L230.454 108.065C230.566 108.512 230.938 109.331 231.05 109.517C231.087 109.554 231.087 109.554 231.087 109.591L233.542 113.649C233.84 114.058 233.914 114.617 233.654 115.101L231.087 119.977C230.901 120.35 230.529 120.61 230.119 120.685C229.71 120.759 229.301 120.647 228.966 120.35C228.185 119.642 226.696 118.19 225.58 116.664C224.166 114.617 221.711 113.612 220.632 113.798Z" fill="black"/>
<path d="M230.789 114.728C230.789 114.728 235.663 113.91 237.746 114.728C239.83 115.547 240.537 125.636 237.746 130.549C234.956 135.463 248.313 145.067 248.611 145.923C248.908 146.779 245.039 134.867 245.15 131.964C245.262 129.06 255.68 127.757 255.68 127.757L262.526 126.976C262.526 126.976 266.99 150.502 266.135 155.937C265.316 161.372 259.437 170.566 251.252 167.477C243.03 164.424 227.031 139.334 227.031 139.334C227.031 139.334 225.506 133.304 227.031 131.108C228.631 128.837 234.472 121.429 235.254 120.387C235.254 120.387 237.225 118.563 235.737 117.781C234.212 117.111 228.036 116.888 230.789 114.728Z" fill="white"/>
<path d="M254.489 168.854C253.336 168.854 252.145 168.631 250.992 168.184C242.658 165.057 227.068 140.786 226.399 139.744C226.361 139.669 226.324 139.595 226.287 139.521C226.138 138.888 224.724 133.118 226.399 130.698C227.478 129.172 230.417 125.375 232.575 122.62C233.579 121.317 234.398 120.275 234.621 119.94C234.658 119.903 234.696 119.866 234.696 119.828C235.105 119.456 235.514 118.823 235.477 118.563C235.477 118.525 235.403 118.488 235.328 118.451C234.993 118.265 234.175 118.116 233.393 117.93C231.459 117.52 229.598 117.148 229.338 115.92C229.189 115.287 229.524 114.654 230.305 114.058C230.417 113.984 230.529 113.947 230.64 113.91C231.161 113.835 235.775 113.053 238.007 113.947C238.639 114.207 239.16 114.877 239.532 115.994C240.649 119.233 240.76 126.603 238.379 130.847C236.556 134.086 243.699 140.451 247.048 143.392C245.783 139.185 244.295 133.788 244.369 131.889C244.518 128.613 252.964 127.311 255.568 126.976L262.414 126.194C262.786 126.157 263.158 126.417 263.233 126.789C263.419 127.757 267.697 150.502 266.842 156.011C266.246 159.846 263.493 164.983 259.363 167.44C257.801 168.37 256.163 168.854 254.489 168.854ZM227.738 139.074C228.854 140.823 243.885 163.94 251.513 166.807C253.968 167.737 256.387 167.514 258.619 166.211C262.302 164.052 264.87 159.25 265.391 155.862C266.135 151.135 262.6 131.74 261.893 127.832L255.754 128.539C251.029 129.135 245.932 130.661 245.857 132.038C245.783 133.564 247.048 138.627 249.243 145.551C249.243 145.588 249.28 145.625 249.28 145.663C249.429 146.184 249.243 146.556 248.834 146.668C248.573 146.742 248.127 146.705 247.904 146.258C247.718 146.035 247.011 145.402 246.304 144.807C242.211 141.233 234.621 134.57 237.077 130.214C239.235 126.38 239.123 119.493 238.119 116.59C237.784 115.585 237.449 115.473 237.449 115.436C235.961 114.84 232.538 115.212 231.087 115.436C230.975 115.547 230.901 115.622 230.863 115.696C231.273 116.031 232.91 116.404 233.765 116.553C234.733 116.739 235.551 116.925 236.072 117.185C236.779 117.52 236.965 118.042 237.04 118.414C237.188 119.531 236.147 120.61 235.849 120.908C235.551 121.317 234.77 122.285 233.803 123.551C231.794 126.157 228.743 130.065 227.701 131.554C226.696 132.969 227.18 136.84 227.738 139.074Z" fill="black"/>
<path d="M84.6382 172.164L85.0094 170.943L83.9078 171.586C76.405 175.965 71.8595 175.466 69.0294 173.623C66.2308 171.801 64.9313 168.571 64.1648 166.667C64.1378 166.6 64.1115 166.534 64.0857 166.47C63.9386 166.106 63.8494 165.422 63.8436 164.4C63.8378 163.398 63.9111 162.135 64.0473 160.656C64.3198 157.7 64.8399 153.923 65.4608 149.733C65.7324 147.9 66.0231 145.989 66.3205 144.034C67.3807 137.065 68.5246 129.546 69.1796 123.08C70.0165 114.818 70.8609 108.27 71.8829 103.403C72.3938 100.969 72.9464 98.9697 73.5589 97.3925C74.1735 95.8098 74.8356 94.6867 75.5468 93.975C75.7511 93.7707 76.1147 93.5033 76.626 93.1855C77.1298 92.8723 77.7505 92.5264 78.4481 92.1623C79.8431 91.4342 81.5247 90.6442 83.151 89.913C84.7762 89.1823 86.3407 88.5128 87.4993 88.0258C88.0784 87.7824 88.5558 87.5847 88.8883 87.4479C89.0545 87.3795 89.1845 87.3264 89.2728 87.2903L89.338 87.2638L89.3478 87.263L89.5982 87.2415L90.5624 87.1587C91.4006 87.0868 92.6153 86.9824 94.1216 86.8526C97.1343 86.5932 101.313 86.2326 105.978 85.8278C115.307 85.0181 126.582 84.0316 134.359 83.3242L134.36 83.3241C141.851 82.6248 146.337 87.1332 149.048 92.2054C151.447 96.6942 152.398 101.527 152.76 103.365C152.808 103.609 152.846 103.8 152.875 103.931C152.923 104.144 153.049 104.402 153.197 104.666C153.353 104.944 153.563 105.28 153.817 105.662C154.324 106.428 155.024 107.408 155.855 108.544C156.618 109.588 157.496 110.769 158.445 112.046L158.701 112.391C159.749 113.8 160.876 115.318 162.028 116.894C166.653 123.219 171.621 130.393 173.434 135.084C175.235 139.79 175.912 144.695 174.84 148.889C173.774 153.054 170.972 156.566 165.691 158.52C163.189 159.446 160.427 158.693 157.608 156.896C154.797 155.104 152.021 152.328 149.56 149.399C147.104 146.474 144.981 143.421 143.472 141.097C142.717 139.935 142.117 138.957 141.706 138.27C141.5 137.927 141.342 137.656 141.235 137.472C141.182 137.379 141.142 137.309 141.115 137.261L141.084 137.208L141.077 137.195L141.075 137.192L141.075 137.191C141.075 137.191 141.075 137.191 141.039 137.211L141.075 137.191L140.408 136.003L140.148 137.34C139.219 142.117 139.688 145.147 140.993 148.01C141.637 149.423 142.48 150.786 143.429 152.278C143.541 152.453 143.654 152.63 143.768 152.81C144.632 154.164 145.578 155.648 146.565 157.409L146.565 157.411C147.668 159.363 149.171 163.697 150.815 169.164C152.451 174.61 154.21 181.122 155.828 187.387C157.445 193.651 158.921 199.665 159.993 204.113C160.528 206.337 160.963 208.169 161.264 209.445C161.401 210.027 161.51 210.493 161.588 210.828H74.509C74.5339 210.615 74.5695 210.341 74.6166 210.008C74.7167 209.3 74.8625 208.364 75.0447 207.264C75.4089 205.067 75.9173 202.227 76.4931 199.284C77.069 196.34 77.7116 193.297 78.344 190.69C78.9796 188.07 79.5961 185.929 80.1146 184.767C81.2035 182.325 82.335 179.17 83.1918 176.636C83.6208 175.367 83.9823 174.249 84.2364 173.449C84.3635 173.049 84.4639 172.728 84.5325 172.507C84.5668 172.396 84.5931 172.311 84.611 172.253L84.6312 172.186L84.6364 172.17L84.6377 172.165L84.6381 172.164L84.6382 172.164C84.6382 172.164 84.6382 172.164 84.1599 172.018L84.6382 172.164Z" fill="#BBD0FF" stroke="black"/>
<path d="M78.8394 119.195L78.2441 115.771C78.2441 115.771 78.5046 112.867 81.3322 111.862C84.1599 110.857 115.599 106.018 115.599 106.018C115.599 106.018 122.445 104.678 124.119 110.857C125.793 117.036 132.491 163.866 132.491 163.866C132.491 163.866 134.5 171.05 124.64 171.571C114.78 172.018 78.8394 119.195 78.8394 119.195Z" fill="white"/>
<path d="M80.03 115.026C80.03 115.026 76.0117 115.51 76.0117 120.871C76.0117 126.231 85.2016 175.704 85.2016 175.704C85.2016 175.704 85.6853 178.868 89.8896 178.198C94.0566 177.528 126.128 172.502 126.128 172.502C126.128 172.502 129.477 172.018 129.477 165.653C129.477 159.287 121.961 113.314 121.961 113.314C121.961 113.314 121.143 107.953 116.938 108.475C112.734 108.996 80.03 115.026 80.03 115.026Z" fill="#FEACD0"/>
<path d="M70.022 154.708C70.022 154.708 84.6812 145.625 91.7131 144.099C91.7131 144.099 87.9181 160.367 97.4056 162.005C97.4056 162.005 86.5042 170.79 84.1975 172.018C81.8907 173.247 70.022 154.708 70.022 154.708Z" fill="#BBD0FF"/>
<path d="M83.9368 172.837C82.8578 172.837 80.8487 171.423 75.6399 164.238C72.4029 159.771 69.4264 155.118 69.3892 155.081C69.2776 154.895 69.2404 154.708 69.2776 154.522C69.3148 154.336 69.4265 154.15 69.6125 154.038C70.2078 153.666 84.4949 144.881 91.5268 143.355L94.6521 142.685C95.0614 142.61 95.4335 142.871 95.5451 143.243C95.5451 143.28 95.5451 143.355 95.5451 143.392C95.5451 143.727 95.3218 144.062 94.9498 144.136L92.3082 144.695C91.9361 146.668 90.6339 154.411 93.4243 158.617C94.3917 160.069 95.7311 160.925 97.4798 161.223C97.7774 161.26 98.0007 161.483 98.0751 161.781C98.1495 162.079 98.0379 162.377 97.8147 162.563C97.3682 162.935 86.8389 171.423 84.4949 172.651C84.3833 172.763 84.16 172.837 83.9368 172.837ZM71.0635 154.932C76.1607 162.824 82.3369 171.088 83.8996 171.311C85.7971 170.269 92.9779 164.573 95.7683 162.302C94.3173 161.744 93.1267 160.813 92.1965 159.436C89.3317 155.118 90.2246 147.896 90.7083 145.067C84.4949 146.928 73.7796 153.294 71.0635 154.932Z" fill="#BBD0FF"/>
<path d="M91.713 144.099C91.713 144.099 102.391 142.759 103.433 139.744C104.475 136.729 105.479 131.889 108.195 129.73C110.911 127.571 112.065 119.196 112.065 119.196C112.065 119.196 115.488 119.679 114.483 126.231C113.479 132.783 113.813 129.246 113.813 129.246C113.813 129.246 127.208 123.402 128.919 126.231C130.631 129.06 130.779 138.255 127.394 141.27C124.008 144.285 114.26 148.12 112.065 148.79C109.87 149.46 97.48 161.967 97.48 161.967C97.48 161.967 88.6621 161.148 91.713 144.099Z" fill="white"/>
<path d="M97.4799 162.749C97.4427 162.749 97.4427 162.749 97.4055 162.749C97.2938 162.749 94.801 162.489 92.7919 159.808C90.2991 156.532 89.6666 151.172 90.9688 143.988C91.0432 143.653 91.3037 143.429 91.6013 143.392C95.8428 142.871 102.093 141.307 102.689 139.558C102.875 139.037 103.061 138.404 103.247 137.771C104.14 134.793 105.293 131.108 107.674 129.172C109.721 127.534 110.948 121.355 111.283 119.121C111.321 118.935 111.432 118.749 111.581 118.637C111.73 118.525 111.953 118.451 112.139 118.488C112.251 118.488 113.367 118.712 114.297 119.94C115.339 121.355 115.636 123.514 115.19 126.38C115.116 126.976 115.004 127.497 114.93 127.981C119.208 126.231 127.84 123.104 129.514 125.896C131.3 128.874 131.635 138.515 127.84 141.903C124.231 145.104 114.037 149.013 112.251 149.571C110.8 150.018 102.726 157.798 98.0008 162.6C97.8891 162.637 97.7031 162.749 97.4799 162.749ZM92.3454 144.769C91.006 152.81 92.4571 156.868 93.9453 158.84C95.1731 160.478 96.5869 161 97.2194 161.148C99.8239 158.505 109.646 148.715 111.804 148.045C113.925 147.375 123.599 143.578 126.835 140.674C128.175 139.483 129.068 136.915 129.254 133.602C129.403 130.735 128.993 127.869 128.212 126.566C127.431 125.263 120.659 127.05 114.595 129.619C114.446 130.363 114.297 130.959 113.59 130.847C112.809 130.735 112.883 130.028 112.958 129.097C112.995 128.911 113.069 128.725 113.218 128.576C113.33 128.018 113.441 127.199 113.627 126.045C114.223 122.322 113.255 120.833 112.548 120.238C112.139 122.657 110.948 128.353 108.567 130.251C106.521 131.889 105.479 135.351 104.623 138.106C104.437 138.739 104.251 139.372 104.065 139.93C103.098 143.02 95.0615 144.397 92.3454 144.769Z" fill="black"/>
<path d="M84.1973 90.3088L95.0614 78.2106L99.3029 39.9429L122.482 30.6738L137.439 38.4539V45.08C137.439 45.08 139.597 69.5371 121.552 68.7181C121.552 68.7181 120.51 80.0346 121.552 81.3003C122.594 82.5659 138.779 83.7199 138.779 83.7199C138.779 83.7199 134.314 97.9772 121.18 99.5779C108.084 101.179 88.0667 97.7539 84.1973 90.3088Z" fill="white"/>
<path d="M114.371 100.695C109.311 100.695 103.954 100.136 99.0798 99.0566C94.3546 98.0143 86.0949 95.5202 83.5649 90.6437C83.4161 90.3831 83.4533 90.0481 83.6765 89.7875L94.3546 77.8382L98.5217 39.8311C98.5589 39.5706 98.7449 39.31 98.9682 39.2355L122.148 29.9664C122.334 29.892 122.557 29.892 122.78 30.0037L137.737 37.7838C137.997 37.8954 138.146 38.156 138.146 38.4538V45.0427C138.221 45.9361 139.151 58.5927 132.677 65.3677C130.035 68.1596 126.501 69.537 122.222 69.4997C121.813 74.4135 121.664 79.9228 122.11 80.8162C123.189 81.4863 131.412 82.4541 138.853 82.9753C139.076 82.9753 139.3 83.1242 139.411 83.3103C139.523 83.4965 139.56 83.7198 139.523 83.9432C139.486 84.0921 134.76 98.6844 121.329 100.322C119.134 100.583 116.79 100.695 114.371 100.695ZM85.0903 90.4204C86.9878 93.3984 92.1223 96.0042 99.3774 97.6049C106.409 99.1683 114.558 99.615 121.106 98.8333C131.709 97.5304 136.509 87.4423 137.737 84.3899C136.286 84.2782 133.384 84.0548 130.444 83.7198C121.775 82.7892 121.217 82.1191 120.957 81.7841C119.841 80.444 120.473 72.18 120.808 68.6808C120.845 68.2713 121.18 67.9735 121.589 68.0107C125.757 68.1968 129.142 66.9684 131.635 64.3626C137.737 57.9599 136.695 45.266 136.695 45.1544C136.695 45.1171 136.695 45.1171 136.695 45.0799V38.9005L122.408 31.4927L99.9355 40.464L95.7685 78.2849C95.7685 78.4338 95.694 78.5827 95.5824 78.6944L85.0903 90.4204Z" fill="black"/>
<path d="M141.978 47.7231C141.978 47.7231 141.532 47.4997 140.787 47.1275C137.476 45.3779 128.398 40.0174 127.244 33.8752L126.724 43.1816C126.724 43.1816 110.948 39.6824 108.493 52.674C108.493 52.674 103.991 46.3457 101.237 49.7704C98.4842 53.1952 100.419 56.7316 101.907 57.6622C103.395 58.5928 108.753 59.0023 108.753 59.0023C108.753 59.0023 109.423 76.8705 108.865 78.4712C108.307 80.0719 102.465 87.1819 78.2441 91.9467C78.2441 91.9467 94.9496 74.0786 94.9496 60.5658C94.9496 47.053 90.3733 25.3506 117.683 21.7026C142.797 18.3523 141.978 47.7231 141.978 47.7231Z" fill="#BA94E8"/>
<path d="M78.2443 92.6539C77.9838 92.6539 77.7234 92.505 77.6118 92.2817C77.4629 91.9839 77.5001 91.6488 77.7234 91.4255C77.8722 91.2394 94.2429 73.6318 94.2429 60.5657C94.2429 58.965 94.1684 57.2154 94.094 55.3914C93.6103 42.2508 92.9034 24.2338 117.608 20.9579C124.603 20.0273 130.333 21.5163 134.574 25.3505C139.039 29.3709 141.011 35.2525 141.867 39.4962C142.797 44.0376 142.722 47.6113 142.722 47.7602C142.722 48.0208 142.574 48.2441 142.35 48.3558C142.127 48.5047 141.867 48.5047 141.643 48.393C141.606 48.393 141.16 48.1697 140.416 47.7602C137.29 46.085 130.668 42.1764 127.765 37.2626L127.431 43.1815C127.431 43.4048 127.319 43.5909 127.133 43.7398C126.947 43.8887 126.724 43.926 126.538 43.8888C126.463 43.8888 118.799 42.2508 113.664 45.6383C111.32 47.2018 109.795 49.5842 109.2 52.7856C109.162 53.0834 108.902 53.3068 108.642 53.3812C108.344 53.4557 108.046 53.344 107.86 53.0834C107.153 52.1155 104.958 49.5098 103.21 49.4725C102.689 49.4725 102.242 49.6959 101.796 50.2171C100.531 51.7805 100.493 53.2695 100.642 54.2002C100.866 55.5031 101.647 56.5826 102.279 56.9921C103.247 57.5877 106.781 58.0716 108.79 58.2205C109.162 58.2577 109.46 58.5555 109.46 58.9278C109.572 61.943 110.13 77.0193 109.535 78.6944C109.088 79.9229 107.042 82.1936 102.763 84.6505C96.9961 87.9263 88.7736 90.6065 78.3931 92.6539C78.3559 92.6539 78.3187 92.6539 78.2443 92.6539ZM121.515 22.1864C120.324 22.1864 119.096 22.2608 117.794 22.447C94.4289 25.5367 95.0614 42.0647 95.5823 55.3541C95.6567 57.1782 95.7311 58.9278 95.7311 60.5657C95.7311 66.3356 92.8662 73.4457 87.2481 81.7469C84.6065 85.6556 81.9277 88.8942 80.3278 90.7554C89.5549 88.7825 96.8473 86.2884 102.093 83.3476C106.484 80.8535 108.009 78.8061 108.195 78.2105C108.53 77.2426 108.381 68.048 108.046 59.6723C106.484 59.5234 102.837 59.1139 101.535 58.295C100.605 57.7366 99.5261 56.322 99.1913 54.498C98.968 53.2323 99.0424 51.2966 100.642 49.3236C101.349 48.4302 102.242 48.0208 103.247 48.0208C105.144 48.058 107.005 49.8076 108.121 51.036C108.976 48.1697 110.539 45.9734 112.883 44.4471C117.571 41.3574 123.784 41.9903 126.054 42.3253L126.538 33.8751C126.575 33.5029 126.873 33.2051 127.245 33.1679C127.617 33.1306 127.952 33.3912 128.026 33.7635C129.142 39.6823 138.369 45.0055 141.197 46.4945C141.234 46.4945 141.234 46.5317 141.271 46.5317C141.16 42.9953 140.192 32.3861 133.607 26.4673C130.407 23.6009 126.352 22.1864 121.515 22.1864Z" fill="black"/>
<path d="M141.978 46.6433C141.978 46.6433 141.532 46.4572 140.788 46.085C140.267 39.6822 138.183 24.3826 117.683 22.5585C142.797 19.4688 141.978 46.6433 141.978 46.6433Z" fill="white"/>
<path d="M153.512 128.39C153.512 128.39 155.856 118.042 155.67 109.517C155.521 100.993 156.34 96.7488 155.67 95.8182C155 94.8875 152.619 91.3139 155.931 86.0279C159.205 80.7419 155.931 73.7436 155.931 73.7436C155.931 73.7436 158.275 73.1107 159.986 75.9399C161.698 78.7318 161.846 84.7995 161.846 84.7995L183.017 73.7063C183.017 73.7063 189.565 73.2969 185.361 78.2851C181.156 83.2732 178.812 85.4323 178.812 85.4323C178.812 85.4323 179.854 87.4425 175.836 90.4205C171.818 93.3985 166.683 93.8452 166.348 97.27C166.051 100.695 170.106 136.022 170.106 136.022C170.106 136.022 156.824 137.324 153.512 128.39Z" fill="white"/>
<path d="M168.209 136.766C166.869 136.766 164.972 136.654 162.925 136.245C157.754 135.165 154.256 132.559 152.843 128.651C152.805 128.502 152.768 128.353 152.805 128.241C152.843 128.13 155.112 117.855 154.963 109.517C154.889 105.459 155.038 102.37 155.149 100.136C155.224 98.3122 155.335 96.5626 155.112 96.2276C152.954 93.1379 153.029 89.3409 155.335 85.6183C158.386 80.7418 155.335 74.1157 155.298 74.0413C155.187 73.8551 155.187 73.5946 155.298 73.4084C155.41 73.2223 155.559 73.0734 155.782 72.999C155.894 72.9617 158.684 72.2544 160.693 75.4931C162.033 77.6893 162.479 81.598 162.591 83.5709L182.719 72.999C182.794 72.9617 182.905 72.9245 183.017 72.9245C183.352 72.8873 186.44 72.7756 187.333 74.5252C187.891 75.6047 187.444 76.9821 185.956 78.7317C182.607 82.6775 180.487 84.8738 179.705 85.6183C179.854 86.549 179.668 88.5219 176.32 90.9788C174.794 92.0955 173.083 92.8773 171.595 93.5846C168.916 94.813 167.279 95.6692 167.13 97.3071C166.907 99.9501 169.474 123.7 170.888 135.91C170.925 136.096 170.85 136.319 170.739 136.468C170.627 136.617 170.441 136.729 170.218 136.729C170.181 136.691 169.399 136.766 168.209 136.766ZM154.294 128.316C155.596 131.666 158.61 133.825 163.223 134.756C165.79 135.277 168.172 135.277 169.325 135.202C168.73 129.879 165.381 100.285 165.679 97.0837C165.902 94.478 168.395 93.3612 170.999 92.1328C172.487 91.4255 174.05 90.7182 175.464 89.6759C178.812 87.219 178.217 85.6183 178.217 85.6183C178.068 85.3205 178.143 84.9855 178.366 84.7622C178.403 84.7249 180.71 82.5286 184.84 77.6521C186.216 76.0142 186.105 75.3069 185.993 75.0836C185.696 74.488 184.245 74.2646 183.24 74.3018L162.219 85.3205C161.995 85.4322 161.735 85.4322 161.512 85.3205C161.288 85.2089 161.14 84.9483 161.14 84.6877C161.14 84.6133 160.954 78.7689 159.391 76.2003C158.61 74.9347 157.717 74.488 157.047 74.3763C157.865 76.6098 159.316 81.933 156.563 86.3256C154.554 89.5642 154.443 92.6911 156.303 95.2969C156.786 96.0042 156.749 97.2699 156.6 100.136C156.489 102.37 156.34 105.422 156.414 109.443C156.6 117.297 154.629 126.752 154.294 128.316Z" fill="black"/>
<path d="M160.135 94.1057C160.135 94.1057 161.511 86.8096 165.641 86.4001C169.771 85.9906 175.65 84.6133 175.873 79.5134C176.096 74.4135 176.096 73.4084 177.064 73.5946C178.031 73.7807 179.817 80.5185 178.812 85.3205" fill="white"/>
<path d="M160.135 94.8501C160.098 94.8501 160.06 94.8501 159.986 94.8501C159.577 94.7757 159.316 94.3662 159.391 93.9939C159.465 93.6589 160.916 86.1394 165.567 85.6927C169.808 85.2832 174.943 83.8687 175.129 79.5133L175.166 78.9177C175.352 74.8229 175.389 73.7061 176.096 73.1478C176.394 72.9244 176.766 72.85 177.212 72.9244C177.547 72.9989 177.808 73.2222 178.068 73.5945C179.259 75.344 180.412 81.2629 179.556 85.5438C179.482 85.9533 179.073 86.2138 178.663 86.1394C178.254 86.0649 177.994 85.6555 178.068 85.246C178.887 81.1512 177.659 75.8652 176.915 74.5623C176.766 75.2324 176.691 76.8703 176.617 78.9921L176.58 79.5877C176.431 82.603 174.459 86.3627 165.678 87.1817C162.739 87.4795 161.176 92.3932 160.804 94.2545C160.804 94.6268 160.507 94.8501 160.135 94.8501Z" fill="black"/>
<path d="M123.822 48.0208C123.636 48.0208 123.412 47.9463 123.263 47.7602C121.738 46.085 117.794 47.3135 116.38 47.9463C116.008 48.0952 115.562 47.9463 115.413 47.5741C115.264 47.2018 115.413 46.7551 115.785 46.6062C116.045 46.4945 121.812 44.0004 124.342 46.7923C124.603 47.0901 124.603 47.5741 124.305 47.8346C124.194 47.9463 124.008 48.0208 123.822 48.0208Z" fill="black"/>
<path d="M126.649 59.0766C126.277 59.0766 125.942 58.7788 125.905 58.3693C125.868 57.9598 126.203 57.5876 126.612 57.5876C127.059 57.5503 127.393 57.4387 127.542 57.1781C127.765 56.8431 127.728 56.3591 127.654 56.0241C127.617 55.9496 127.617 55.838 127.579 55.7635C127.282 54.8701 127.021 54.0512 127.654 49.5469C127.84 48.2068 128.435 47.2017 129.477 46.6061C131.97 45.0799 136.1 46.5316 136.286 46.5689C136.658 46.7178 136.881 47.1272 136.732 47.5367C136.583 47.909 136.174 48.1323 135.765 47.9834C134.76 47.6112 131.821 46.9039 130.258 47.8718C129.626 48.244 129.254 48.8768 129.142 49.733C128.584 53.9023 128.807 54.6095 129.03 55.2796C129.068 55.3913 129.105 55.4657 129.142 55.5774C129.403 56.4708 129.291 57.3642 128.844 57.997C128.547 58.4065 127.952 58.9649 126.798 59.0394C126.686 59.0766 126.649 59.0766 126.649 59.0766Z" fill="black"/>
<path d="M124.342 63.4692C123.338 63.4692 122.445 63.2458 121.664 62.8364C119.729 61.794 119.245 59.8956 119.245 59.8211C119.134 59.4116 119.394 59.0021 119.803 58.9277C120.213 58.816 120.585 59.0766 120.696 59.4488C120.696 59.4861 121.068 60.8262 122.408 61.5335C123.598 62.1663 125.198 62.1291 127.207 61.4218C127.579 61.2729 128.026 61.4962 128.175 61.8685C128.323 62.2407 128.1 62.6875 127.728 62.8364C126.463 63.2458 125.347 63.4692 124.342 63.4692Z" fill="black"/>
<path d="M121.068 52.8599C121.808 52.8599 122.408 51.9433 122.408 50.8125C122.408 49.6818 121.808 48.7651 121.068 48.7651C120.329 48.7651 119.729 49.6818 119.729 50.8125C119.729 51.9433 120.329 52.8599 121.068 52.8599Z" fill="black"/>
<path d="M132.602 54.349C133.301 54.349 133.867 53.549 133.867 52.5622C133.867 51.5754 133.301 50.7754 132.602 50.7754C131.904 50.7754 131.337 51.5754 131.337 52.5622C131.337 53.549 131.904 54.349 132.602 54.349Z" fill="black"/>
<path d="M164.748 115.771L163.595 110.559C163.595 110.559 162.628 105.869 168.208 105.869C173.789 105.869 207.721 105.869 207.721 105.869C207.721 105.869 212.93 104.789 214.865 112.681C216.799 120.573 221.413 137.362 221.413 137.362C221.413 137.362 224.315 143.578 217.544 143.355C210.772 143.131 171.297 142.573 171.297 142.573L164.748 115.771Z" fill="#D6D6D6"/>
<path d="M217.916 144.137C217.804 144.137 217.692 144.137 217.544 144.137C210.884 143.913 171.668 143.355 171.296 143.355C170.962 143.355 170.664 143.131 170.589 142.796L164.041 115.994L162.888 110.783C162.851 110.671 162.441 108.549 163.781 106.911C164.711 105.757 166.199 105.199 168.246 105.199H207.721C208.502 105.087 213.711 104.678 215.646 112.569C217.506 120.163 221.897 136.133 222.194 137.175C222.38 137.622 223.534 140.451 222.231 142.424C221.413 143.541 219.962 144.137 217.916 144.137ZM171.892 141.829C176.803 141.903 211.367 142.424 217.618 142.61C219.329 142.685 220.446 142.312 220.966 141.531C221.748 140.377 221.115 138.367 220.78 137.659C220.78 137.622 220.743 137.585 220.743 137.548C220.706 137.362 216.092 120.647 214.195 112.83C212.483 105.757 208.13 106.539 207.944 106.576C207.907 106.576 207.833 106.576 207.796 106.576H168.208C166.646 106.576 165.529 106.948 164.897 107.73C164.004 108.81 164.302 110.373 164.302 110.373L165.455 115.547L171.892 141.829Z" fill="black"/>
<path d="M161.213 113.351C161.213 113.351 158.646 115.92 160.134 117.26C161.623 118.6 162.032 119.047 164.302 119.158C166.571 119.27 172.673 120.089 172.673 120.089C172.673 120.089 175.091 118.823 171.445 116.701C167.836 114.617 161.213 113.351 161.213 113.351Z" fill="white"/>
<path d="M172.673 120.871C172.636 120.871 172.599 120.871 172.561 120.871C172.487 120.871 166.497 120.052 164.265 119.94C161.772 119.828 161.176 119.27 159.763 117.967L159.614 117.855C159.167 117.446 158.907 116.925 158.907 116.329C158.87 114.728 160.47 113.053 160.656 112.867C160.842 112.681 161.065 112.607 161.325 112.644C161.586 112.681 168.097 113.947 171.817 116.106C173.454 117.036 174.199 118.004 174.199 119.009C174.161 120.163 173.12 120.722 173.008 120.796C172.896 120.833 172.785 120.871 172.673 120.871ZM161.474 114.17C160.99 114.728 160.395 115.622 160.432 116.255C160.432 116.441 160.507 116.59 160.656 116.739L160.804 116.85C162.107 118.041 162.441 118.339 164.376 118.451C166.423 118.563 171.259 119.195 172.524 119.344C172.636 119.233 172.748 119.121 172.748 118.972C172.748 118.86 172.673 118.302 171.11 117.409C168.097 115.659 162.962 114.505 161.474 114.17Z" fill="black"/>
<path d="M161.399 118.749C161.399 118.749 158.832 121.317 160.321 122.657C161.809 123.998 162.218 124.444 164.488 124.556C166.757 124.668 172.859 125.487 172.859 125.487C172.859 125.487 175.277 124.221 171.631 122.099C168.022 119.977 161.399 118.749 161.399 118.749Z" fill="white"/>
<path d="M172.859 126.231C172.822 126.231 172.785 126.231 172.748 126.231C172.673 126.231 166.683 125.412 164.451 125.3C161.958 125.189 161.362 124.63 159.949 123.327L159.8 123.216C159.353 122.806 159.093 122.285 159.093 121.689C159.056 120.089 160.656 118.414 160.842 118.228C161.028 118.041 161.251 117.967 161.511 118.004C161.772 118.041 168.283 119.307 172.003 121.466C173.64 122.397 174.385 123.365 174.385 124.37C174.347 125.524 173.306 126.082 173.194 126.157C173.082 126.194 172.971 126.231 172.859 126.231ZM161.66 119.568C161.176 120.126 160.581 121.019 160.618 121.652C160.618 121.838 160.693 121.987 160.842 122.136L160.99 122.248C162.293 123.439 162.627 123.737 164.562 123.849C166.609 123.96 171.445 124.593 172.71 124.742C172.822 124.63 172.934 124.519 172.934 124.37C172.934 124.258 172.859 123.7 171.297 122.806C168.32 121.019 163.148 119.865 161.66 119.568Z" fill="black"/>
<path d="M160.804 123.365C160.804 123.365 158.237 125.933 159.725 127.273C161.214 128.614 161.623 129.06 163.892 129.172C166.162 129.284 172.264 130.103 172.264 130.103C172.264 130.103 174.682 128.837 171.036 126.715C167.39 124.63 160.804 123.365 160.804 123.365Z" fill="white"/>
<path d="M172.264 130.847C172.227 130.847 172.19 130.847 172.152 130.847C172.078 130.847 166.088 130.028 163.855 129.916C161.363 129.805 160.767 129.246 159.353 127.943L159.205 127.832C158.758 127.422 158.498 126.901 158.498 126.305C158.461 124.705 160.06 123.03 160.246 122.844C160.432 122.657 160.656 122.583 160.916 122.62C161.177 122.657 167.688 123.923 171.408 126.082C173.045 127.013 173.789 127.981 173.789 128.986C173.752 130.14 172.71 130.698 172.599 130.772C172.487 130.81 172.376 130.847 172.264 130.847ZM161.065 124.184C160.581 124.742 159.986 125.635 160.023 126.268C160.023 126.454 160.098 126.603 160.246 126.752L160.395 126.864C161.697 128.055 162.032 128.353 163.967 128.465C166.013 128.576 170.85 129.209 172.115 129.358C172.227 129.246 172.338 129.135 172.338 128.986C172.338 128.874 172.264 128.316 170.701 127.422C167.688 125.635 162.516 124.481 161.065 124.184Z" fill="black"/>
<path d="M128.994 129.358C122.334 131.74 120.399 132.485 120.399 132.485L128.994 129.358Z" fill="white"/>
<path d="M120.399 133.229C120.101 133.229 119.804 133.043 119.692 132.745C119.543 132.373 119.729 131.926 120.101 131.778C120.138 131.778 122.11 130.996 128.733 128.651C129.142 128.502 129.552 128.725 129.7 129.097C129.849 129.47 129.626 129.916 129.254 130.065C122.668 132.41 120.697 133.155 120.659 133.192C120.585 133.229 120.473 133.229 120.399 133.229Z" fill="black"/>
<path d="M129.477 133.862C122.817 136.245 120.882 136.989 120.882 136.989L129.477 133.862Z" fill="white"/>
<path d="M120.845 137.734C120.548 137.734 120.25 137.548 120.138 137.25C119.989 136.878 120.175 136.431 120.548 136.282C120.585 136.282 122.557 135.5 129.179 133.155C129.589 133.006 129.998 133.229 130.147 133.602C130.296 133.974 130.072 134.421 129.7 134.57C123.115 136.915 121.143 137.659 121.106 137.697C121.031 137.697 120.957 137.734 120.845 137.734Z" fill="black"/>
<path d="M224.762 31.0831C224.762 31.0831 246.155 35.1779 233.766 58.3693L238.826 57.9598C238.826 57.9598 248.871 47.3506 240.388 33.056C240.388 33.056 233.58 30.8597 224.762 31.0831Z" fill="black"/>
</svg>
