<svg width="91" height="91" viewBox="0 0 91 91" fill="none" xmlns="http://www.w3.org/2000/svg">
<circle cx="45" cy="45" r="45" fill="#C7C3C3"/>
<path d="M19.1915 8.25783C10.4506 14.4028 4.18141 23.4575 1.50564 33.8018C-1.17012 44.1461 -0.0778446 55.105 4.58704 64.7177C9.25193 74.3304 17.185 81.9695 26.9669 86.2683C36.7487 90.5672 47.7411 91.2451 57.977 88.1809C68.213 85.1166 77.0247 78.5102 82.8354 69.5436C88.6462 60.577 91.0768 49.8354 89.6924 39.2407C88.308 28.6459 83.199 18.8895 75.2794 11.717C67.3598 4.54449 57.1465 0.423973 46.4669 0.0927136L45.0717 45.0711L19.1915 8.25783Z" fill="#BBD0FF"/>
<circle cx="45.0001" cy="44.3706" r="41.2238" fill="#E9E5E5"/>
<path d="M52.0633 55.4034C53.1855 54.1065 54.8208 52.1792 56.2397 50.3544C59.9169 45.6252 60.2663 42.8419 60.2793 42.7254C60.2377 42.7892 55.6795 49.4402 51.7194 53.0693L50.9984 53.7303L50.9457 52.7541C50.8736 51.4014 50.6774 50.0582 50.3597 48.7414L50.3301 48.6203L50.3652 48.5001C51.713 43.9641 56.1473 35.8378 70.711 32.3741L72.4174 31.9674L71.1316 33.1626C69.7635 34.4337 67.7372 36.961 65.8616 41.7779C62.9554 49.2609 58.8816 53.6258 51.0003 56.8501L52.0633 55.4034Z" fill="#616161"/>
<path d="M48.3111 58.6831C46.2054 58.513 38.8481 57.2355 32.6242 47.8992C26.4549 38.6442 21.3495 35.3821 18.8555 34.2608L17.6445 33.7154L18.9322 33.3919C20.2448 33.0591 22.4051 32.6635 25.2291 32.6635C30.1469 32.6635 35.1617 33.8347 40.134 36.1428C50.269 41.2113 51.3431 50.3267 51.0806 55.3091L51.0001 56.8501L50.2209 55.5189C49.1856 53.7534 47.0299 50.3692 44.2151 47.5387C40.1608 43.4658 36.087 41.4054 35.9151 41.3194C35.9862 41.3638 43.2196 45.9737 48.7678 58.0296L49.0987 58.7469L48.3111 58.6831Z" fill="#616161"/>
</svg>
