<svg width="76" height="76" viewBox="0 0 76 76" fill="none" xmlns="http://www.w3.org/2000/svg">
<circle cx="38" cy="38" r="38" fill="#D6D5D5"/>
<g clip-path="url(#clip0_2919_22295)">
<path d="M37.9998 58.9931C49.594 58.9931 58.9929 49.5942 58.9929 38.0001C58.9929 26.406 49.594 17.0071 37.9998 17.0071C26.4057 17.0071 17.0068 26.406 17.0068 38.0001C17.0068 49.5942 26.4057 58.9931 37.9998 58.9931Z" fill="#D9D9D9"/>
<path fill-rule="evenodd" clip-rule="evenodd" d="M36.7939 17.0412C47.8268 17.6662 56.5807 26.8109 56.5807 38.0001C56.5807 49.1894 47.8268 58.3341 36.7939 58.9591C37.1931 58.9817 37.5954 58.9932 38.0002 58.9932C49.5943 58.9932 58.9932 49.5942 58.9932 38.0002C58.9932 26.4062 49.5943 17.0072 38.0002 17.0072C37.5979 17.0071 37.1956 17.0184 36.7939 17.0412Z" fill="#616161"/>
<path fill-rule="evenodd" clip-rule="evenodd" d="M37.0185 51.8063C37.4826 48.0536 41.1735 47.3088 41.5125 42.8435C41.7125 40.2086 34.1459 38.0534 33.3051 38.1202C29.8448 38.3956 30.3653 38.988 28.4338 35.8909C26.0118 32.0074 32.1702 34.3186 32.6591 31.8147C33.0625 29.7487 34.6548 29.4182 35.7697 28.7218C36.6616 28.1647 38.2883 27.9957 39.5134 27.6659C40.5155 27.3962 40.5005 26.2506 40.6296 25.3478C40.9129 23.3696 40.4861 23.0723 38.7485 22.8248C35.8552 22.4127 36.8252 20.4041 32.9322 21.2236C29.0786 22.0349 30.1767 21.7443 26.2963 20.5695C23.1039 22.7172 20.5337 25.7189 18.9131 29.2472C21.0703 35.6974 25.5011 36.9299 26.2585 37.7108C26.9138 38.3865 27.8479 38.9043 27.8718 41.0384C27.9485 47.8963 31.0648 43.1624 32.4629 51.001C33.7863 58.4199 36.4778 56.1776 37.0185 51.8063ZM45.6617 39.7371C40.9713 36.6618 46.1613 34.423 45.2582 32.4786C45.1162 32.173 46.1675 30.7621 46.8545 30.9851C48.4304 31.4966 52.4555 31.5634 53.0469 31.4013C53.7866 31.1985 54.9588 28.3817 52.4183 28.2822C51.8756 28.2609 47.4696 28.8781 47.2161 28.3817C46.9649 27.7524 46.463 25.4206 47.594 24.3866C48.8964 23.1958 51.5134 22.7714 51.988 22.3457C56.2871 26.1898 58.9932 31.7789 58.9932 37.9999C58.9932 42.5236 57.5624 46.713 55.1286 50.1404C53.6496 51.5523 50.7801 51.4003 51.1802 49.7909C51.8492 47.0985 51.4102 46.3482 51.4456 44.669C51.5801 38.2911 48.7806 40.8813 45.6617 39.7371Z" fill="#939393"/>
<path fill-rule="evenodd" clip-rule="evenodd" d="M50.2881 23.0144C54.171 26.824 56.5797 32.1308 56.5797 38.0002C56.5797 42.9257 54.8833 47.4549 52.0431 51.0357C52.9272 51.2561 54.2643 50.9648 55.1277 50.1406C57.5614 46.7132 58.9922 42.5238 58.9922 38.0001C58.9922 31.7791 56.2863 26.19 51.987 22.3459C51.7669 22.5435 51.0854 22.7407 50.2881 23.0144Z" fill="#616161"/>
<path d="M58.7772 22.4214C59.832 22.4214 60.6871 21.5662 60.6871 20.5114C60.6871 19.4566 59.832 18.6014 58.7772 18.6014C57.7223 18.6014 56.8672 19.4566 56.8672 20.5114C56.8672 21.5662 57.7223 22.4214 58.7772 22.4214Z" fill="#EDEDED"/>
<path d="M47.7551 13.5159C48.2975 13.5159 48.733 13.9513 48.733 14.4938C48.733 15.0362 48.2975 15.4793 47.7551 15.4793C47.2126 15.4793 46.7695 15.0362 46.7695 14.4938C46.7695 13.9513 47.2126 13.5159 47.7551 13.5159Z" fill="#616161"/>
</g>
<defs>
<clipPath id="clip0_2919_22295">
<rect width="52.0839" height="50.4895" fill="white" transform="translate(17.0068 8.50354)"/>
</clipPath>
</defs>
</svg>
