<svg width="76" height="76" viewBox="0 0 76 76" fill="none" xmlns="http://www.w3.org/2000/svg">
<circle cx="38" cy="38" r="38" fill="#DBDADA"/>
<g clip-path="url(#clip0_2919_22059)">
<path d="M19.7148 38.2406C19.7148 28.9101 24.4825 20.8365 33.1404 18.6668C34.6961 18.2769 36.3243 18.0699 38.0008 18.0699C41.8085 18.0699 45.3669 19.1377 48.3927 20.9903C49.5503 21.6991 48.0025 22.8817 48.9884 23.8044C49.6638 24.4364 52.9228 24.756 53.5051 25.476C55.7268 28.2229 57.2333 31.572 57.7413 35.2403C57.8663 36.1423 54.6827 36.5023 54.6827 37.4386C54.6827 37.7259 57.9248 38.5731 57.9127 38.8575C57.8563 40.2042 57.6633 41.5417 57.3367 42.8495C56.7453 45.2151 53.2276 47.1332 51.8756 48.9876C48.2764 53.9246 44.7864 57.088 38.0008 57.088C26.9937 57.088 19.7148 49.2477 19.7148 38.2406Z" fill="#999999"/>
<path d="M56.0068 46.5535C54.8046 49.0799 53.0866 51.3127 50.9894 53.1172H50.9886C49.9757 53.216 47.8844 54.4493 46.8229 54.5216C44.2047 54.6998 42.5009 53.6474 39.6545 53.6474C34.1543 53.6474 28.9877 53.2913 24.5076 52.6681C23.5103 51.7503 25.8015 51.133 25.0081 50.0303C24.1771 48.8754 20.2723 47.227 19.7012 45.9055C25.0963 47.0323 32.0562 47.7109 39.6545 47.7109C45.6552 47.7109 51.2581 47.2874 56.0068 46.5535Z" fill="#292D32"/>
<path d="M51.1213 53.0017C48.9799 54.8757 46.4343 56.299 43.6324 57.1231C41.8464 57.6483 41.0792 56.286 39.1232 56.286C38.3724 56.286 36.5085 57.8886 35.7793 57.8077C31.4535 57.328 27.5451 55.4638 24.5074 52.6679C23.9594 52.1636 25.5766 51.154 25.0879 50.5917C23.756 49.059 20.5175 47.7957 19.6999 45.9059C18.6515 43.4821 18.0703 40.8089 18.0703 38C18.0703 37.5843 19.2081 37.0461 19.2332 36.6366C19.2785 35.899 18.2387 35.2977 18.3619 34.5839C18.6563 32.8788 19.1731 31.2197 19.8991 29.6491C20.7677 27.7695 22.7437 26.9164 24.1255 25.4084C25.3869 24.0318 26.016 21.9648 27.6172 20.9856C29.3301 19.9375 31.1923 19.1558 33.1402 18.6675C28.9665 22.3207 26.3311 27.6869 26.3311 33.6692C26.3311 44.676 35.2851 54.4224 46.2611 53.5992C47.8652 53.4789 49.5654 53.3923 51.1213 53.0017Z" fill="#616161"/>
<path d="M57.9306 38C57.9306 38.2875 57.9247 38.5732 57.9119 38.8574C52.7887 39.7852 46.4789 40.3322 39.6543 40.3322C31.2667 40.3322 23.6568 39.5053 18.0713 38.162C18.0705 38.1077 20.9978 37.172 20.9978 37.1177C20.9978 35.9525 18.1706 35.694 18.3623 34.5839C23.9197 35.8874 31.4118 36.6855 39.6544 36.6855C46.4026 36.6855 52.6479 36.1503 57.7407 35.2403C57.8675 36.1547 57.931 37.0768 57.9306 38Z" fill="#292D32"/>
<path d="M52.7146 33.7172C52.7146 34.1171 52.6518 34.5023 52.5353 34.8634C52.0516 36.3635 49.0493 36.5478 49.0493 36.5478L46.1279 33.5173C46.1279 33.5173 46.3368 30.6485 47.8369 30.1649C48.2073 30.0457 48.594 29.9852 48.983 29.9856C51.044 29.9856 52.7146 31.6563 52.7146 33.7172Z" fill="#292D32"/>
<path d="M42.2837 39.8234C42.2837 40.5119 42.1372 41.1661 41.8737 41.7567C41.1332 43.4161 39.4541 44.4162 37.5196 44.4162C34.8966 44.4162 33.0283 42.3073 33.0283 39.6843C33.0283 37.7497 33.9417 36.2245 35.6012 35.4841C36.2095 35.213 36.8683 35.0732 37.5344 35.0741C40.1574 35.0741 42.2837 37.2004 42.2837 39.8234ZM52.5357 34.8634C52.0521 36.3639 50.6446 37.4491 48.9836 37.4491C46.9224 37.4491 45.2518 35.7785 45.2518 33.7173C45.2518 32.0563 46.337 30.6488 47.8375 30.1652C47.7179 30.5354 47.6572 30.9222 47.6579 31.3112C47.6579 33.3724 49.3285 35.043 51.3897 35.043C51.7899 35.043 52.1748 34.9805 52.5357 34.8634Z" fill="#999999"/>
<path d="M41.8736 41.7567C41.1333 43.4161 39.4691 44.5726 37.5339 44.5726C34.9113 44.5726 32.7852 42.4464 32.7852 39.8238C32.7852 37.8886 33.9417 36.2244 35.601 35.4841C35.3301 36.0927 35.1905 36.7516 35.1912 37.4178C35.1912 40.0404 37.3173 42.1665 39.9399 42.1665C40.6289 42.1665 41.2825 42.0198 41.8736 41.7567Z" fill="#616161"/>
<path d="M47.1178 47.753C47.118 47.9455 47.0934 48.1372 47.0447 48.3234C46.7923 49.2884 45.9423 49.6292 44.8981 49.6292C43.6569 49.6292 43.5347 49.2663 43.5347 48.0251C43.5347 46.981 43.3349 45.831 44.2999 45.5786C44.4861 45.53 44.6778 45.5055 44.8703 45.5056C46.1116 45.5056 47.1178 46.5118 47.1178 47.753Z" fill="#999999"/>
<path d="M47.0444 48.3235C46.7917 49.2884 45.9135 50.0006 44.8693 50.0006C43.6286 50.0006 42.6221 48.994 42.6221 47.7533C42.6221 46.7091 43.3343 45.8309 44.2991 45.5782C44.2518 45.7611 44.2261 45.952 44.2261 46.1493C44.2261 47.39 45.2326 48.3965 46.4733 48.3965C46.6706 48.3965 46.8615 48.3709 47.0444 48.3235Z" fill="#616161"/>
<path d="M53.5047 25.4764C49.0572 25.9699 43.8559 26.2541 38.2976 26.2541C32.511 26.2541 27.1113 25.9462 22.5469 25.4144C23.2754 24.5206 25.7412 24.3189 26.6121 23.5638C27.4435 22.843 26.674 21.5623 27.6176 20.9857C30.8607 21.2113 34.3744 21.3352 38.0432 21.3352C41.6832 21.3352 45.1705 21.213 48.3924 20.9909C50.3402 22.183 52.0693 23.7001 53.5047 25.4764Z" fill="#292D32"/>
<path d="M19.8069 46.1469C19.8791 46.3073 19.9529 46.4669 20.029 46.6249C19.9529 46.4669 19.8783 46.3073 19.8069 46.1469ZM18.085 37.2446C18.0922 37.0392 18.1026 36.8339 18.117 36.6302C18.1034 36.8339 18.0922 37.0392 18.085 37.2446ZM18.1235 36.5476C18.1371 36.3439 18.1547 36.1418 18.1764 35.9413C18.1555 36.1426 18.1379 36.3447 18.1235 36.5476Z" fill="#616161"/>
<path d="M44.7372 53.6393C43.0762 53.7075 41.3928 53.6473 39.654 53.6473C34.1538 53.6473 28.9872 53.2912 24.5072 52.6681C22.4566 50.7826 20.8045 48.4638 19.7007 45.9055C23.1894 46.6345 27.3327 47.1751 31.8793 47.4662C35.182 50.9077 39.6869 53.2624 44.7372 53.6393ZM27.2581 39.6923C23.8286 39.3209 20.7216 38.7996 18.071 38.162C18.0612 36.9631 18.1586 35.7658 18.3621 34.5842C20.7385 35.1416 23.4693 35.606 26.4609 35.9557C26.6051 37.2241 26.8721 38.4755 27.2581 39.6923ZM30.7396 21.1665C29.5775 22.6066 28.6219 24.2016 27.9005 25.9056C26.0173 25.7757 24.2256 25.6097 22.547 25.414C23.9747 23.662 25.6891 22.1648 27.6174 20.9861C28.6327 21.0567 29.6753 21.1168 30.7396 21.1665Z" fill="#999999"/>
<path d="M22.5892 25.3618C22.5748 25.3795 22.5603 25.3963 22.5467 25.4139H22.5459C22.5603 25.3963 22.5748 25.3787 22.5892 25.3618Z" fill="#616161"/>
<path d="M37.0255 27.4838C37.0255 28.0893 36.8796 28.6608 36.621 29.165C36.0097 30.3572 34.9415 30.782 33.5095 30.782C31.4719 30.782 29.9004 29.4511 29.9004 27.4135C29.9004 25.9815 30.4629 24.8104 31.6552 24.1991C32.1754 23.9325 32.7517 23.7938 33.3362 23.7947C35.3738 23.7946 37.0255 25.4463 37.0255 27.4838Z" fill="#999999"/>
<path d="M36.6208 29.1651C36.0089 30.3568 34.7673 31.1733 33.3358 31.1733C31.2986 31.1733 29.6465 29.5211 29.6465 27.484C29.6465 26.0516 30.4629 24.8101 31.6547 24.199C31.3883 24.7192 31.2497 25.2955 31.2505 25.88C31.2505 27.9171 32.9027 29.5693 34.9398 29.5693C35.5453 29.5693 36.1163 29.4233 36.6208 29.1651Z" fill="#616161"/>
<path d="M45.2481 26.0345C45.235 26.1954 45.2017 26.354 45.1488 26.5064C44.8701 27.3087 43.2069 27.1147 43.2069 27.1147L41.8008 25.7359C41.8008 25.7359 41.9625 24.3992 42.5871 24.1277C42.8749 24.0027 43.1892 23.9509 43.5019 23.977C44.5523 24.063 45.3341 24.9842 45.2481 26.0345Z" fill="#999999"/>
<path d="M45.1476 26.5064C44.8693 27.3084 44.0762 27.853 43.1899 27.7808C42.1401 27.695 41.3581 26.7735 41.4439 25.7236C41.5033 24.997 41.962 24.3995 42.5868 24.1284C42.5332 24.2809 42.4995 24.4397 42.4866 24.6008C42.4007 25.6506 43.1827 26.5722 44.2325 26.658C44.5566 26.6844 44.8685 26.6283 45.1476 26.5064Z" fill="#616161"/>
<path d="M57.336 42.8494C57.0279 44.0835 56.6012 45.2849 56.062 46.4369C55.8929 46.7983 54.9523 46.3929 54.7626 46.742C54.6188 47.0066 55.2302 48.0285 55.0751 48.2857C53.8131 47.9447 53.5596 46.7491 53.5596 45.3786C53.5596 44.1491 53.632 43.1364 54.6973 42.6857C55.0629 42.5313 55.4558 42.452 55.8527 42.4525C56.3929 42.4525 56.9001 42.5967 57.336 42.8494Z" fill="#292D32"/>
<path d="M56.0606 46.4364C55.7646 47.0716 55.435 47.6891 55.0749 48.2858C53.8125 47.945 52.8838 46.7909 52.8838 45.421C52.8838 44.1851 53.6393 43.1249 54.714 42.679C54.5641 43.0396 54.4872 43.4264 54.4878 43.817C54.4878 44.9511 55.1246 45.9375 56.0606 46.4364Z" fill="#999999"/>
<path d="M54.2379 20.9509C54.2379 21.2832 54.5072 21.5524 54.8394 21.5524C55.1716 21.5524 55.4409 21.2832 55.4409 20.9509V20.5499H55.8419C56.1741 20.5499 56.4434 20.2807 56.4434 19.9484C56.4434 19.6161 56.1741 19.3469 55.8419 19.3469H55.4409V18.9459C55.4409 18.6136 55.1716 18.3444 54.8394 18.3444C54.5072 18.3444 54.2379 18.6136 54.2379 18.9459V19.3469H53.8369C53.5047 19.3469 53.2354 19.6161 53.2354 19.9484C53.2354 20.2807 53.5047 20.5499 53.8369 20.5499H54.2379V20.9509Z" fill="#292D32"/>
<path d="M19.2701 23.0362C19.2701 23.3685 19.5394 23.6377 19.8716 23.6377C20.2038 23.6377 20.4731 23.3685 20.4731 23.0362V22.6352H20.8741C21.2063 22.6352 21.4756 22.366 21.4756 22.0337C21.4756 21.7014 21.2063 21.4322 20.8741 21.4322H20.4731V21.0312C20.4731 20.6989 20.2038 20.4297 19.8716 20.4297C19.5394 20.4297 19.2701 20.6989 19.2701 21.0312V21.4322H18.8691C18.5369 21.4322 18.2676 21.7014 18.2676 22.0337C18.2676 22.366 18.5369 22.6352 18.8691 22.6352H19.2701V23.0362Z" fill="#999999"/>
<path d="M21.837 53.9138H21.436V53.5128C21.436 53.1805 21.1667 52.9113 20.8345 52.9113C20.5023 52.9113 20.233 53.1805 20.233 53.5128V53.9138H19.832C19.4998 53.9138 19.2305 54.183 19.2305 54.5153C19.2305 54.8476 19.4998 55.1168 19.832 55.1168H20.233V55.5178C20.233 55.8501 20.5023 56.1193 20.8345 56.1193C21.1667 56.1193 21.436 55.8501 21.436 55.5178V55.1168H21.837C22.1692 55.1168 22.4385 54.8476 22.4385 54.5153C22.4385 54.183 22.1693 53.9138 21.837 53.9138Z" fill="#999999"/>
<path d="M56.5636 54.8762H56.1626V54.4752C56.1626 54.1429 55.8933 53.8737 55.5611 53.8737C55.2289 53.8737 54.9595 54.1429 54.9595 54.4752V54.8762H54.5585C54.2263 54.8762 53.957 55.1454 53.957 55.4777C53.957 55.81 54.2263 56.0792 54.5585 56.0792H54.9595V56.4802C54.9595 56.8125 55.2289 57.0817 55.5611 57.0817C55.8933 57.0817 56.1626 56.8125 56.1626 56.4802V56.0792H56.5636C56.8958 56.0792 57.1651 55.81 57.1651 55.4777C57.1651 55.1454 56.8959 54.8762 56.5636 54.8762Z" fill="#999999"/>
<path d="M43.6335 57.1049C43.6335 57.1109 43.6326 57.1177 43.6326 57.1236C41.8465 57.6486 39.9562 57.9301 38.0005 57.9301C37.25 57.9301 36.5087 57.8886 35.7793 57.808C35.6866 57.4243 35.6514 57.029 35.675 56.635C35.8047 54.4377 37.6908 52.761 39.8891 52.8908C42.0866 53.0205 43.7633 54.9067 43.6335 57.1049ZM26.2545 40.7139C26.2545 40.9844 26.2116 41.2448 26.1322 41.4887C25.806 42.4912 24.7558 42.4111 23.6444 42.4111C22.2627 42.4111 22.4414 42.1887 22.4414 40.807C22.4414 39.696 21.975 38.6609 22.9771 38.3345C23.2276 38.2531 23.4893 38.2118 23.7526 38.212C25.1343 38.2121 26.2545 39.3322 26.2545 40.7139Z" fill="#999999"/>
<path d="M26.1319 41.4888C25.8054 42.4913 24.8639 43.2155 23.7523 43.2155C22.3704 43.2155 21.25 42.0959 21.25 40.7141C21.25 39.6033 21.9742 38.6609 22.9767 38.3345C22.8973 38.5783 22.854 38.8389 22.854 39.11C22.854 40.4919 23.9744 41.6115 25.3563 41.6115C25.6274 41.6115 25.8881 41.5682 26.1319 41.4888Z" fill="#616161"/>
<path d="M31.5974 48.0922C31.5975 48.1871 31.5905 48.2818 31.5765 48.3756C31.4396 49.2951 29.6788 49.6292 29.6788 49.6292L28.5862 48.3425C28.5862 48.3425 28.4865 46.3416 29.4062 46.2048C29.4985 46.1911 29.593 46.184 29.6893 46.184C30.743 46.184 31.5974 47.0383 31.5974 48.0922Z" fill="#999999"/>
<path d="M31.5764 48.3756C31.4392 49.2956 30.6468 50.0005 29.6892 50.0005C28.6354 50.0005 27.7812 49.1464 27.7812 48.0925C27.7812 47.1349 28.4862 46.3417 29.4061 46.2046C29.3925 46.2968 29.3853 46.3923 29.3853 46.4885C29.3853 47.5424 30.2394 48.3965 31.2933 48.3965C31.3895 48.3965 31.4842 48.3893 31.5764 48.3756Z" fill="#616161"/>
<path d="M24.6865 27.2531C24.6865 29.0332 23.4992 29.6591 21.7191 29.6591C21.0253 29.6591 20.4234 30.0212 19.8984 29.6489C20.073 29.2713 20.8806 29.2214 21.0775 28.8571C21.279 28.4843 20.8704 27.7975 21.0945 27.4395C21.7953 26.3202 22.6055 25.2731 23.513 24.3136C24.3482 24.8554 24.9167 25.776 24.9766 26.8319C24.9801 26.8933 24.6865 27.1908 24.6865 27.2531Z" fill="#999999"/>
<path d="M24.9816 27.0172C24.9816 28.7976 23.5388 30.2397 21.7591 30.2397C21.0654 30.2397 20.423 30.0215 19.8984 29.6486C20.2513 28.8851 20.6515 28.1472 21.095 27.4398C21.553 27.6909 22.0807 27.8336 22.6413 27.8336C23.5604 27.8336 24.3897 27.4487 24.976 26.8319C24.98 26.8937 24.9816 26.9554 24.9816 27.0172Z" fill="#616161"/>
</g>
<defs>
<clipPath id="clip0_2919_22059">
<rect width="39.8601" height="39.8601" fill="white" transform="translate(18.0703 18.0699)"/>
</clipPath>
</defs>
</svg>
