<svg width="76" height="76" viewBox="0 0 76 76" fill="none" xmlns="http://www.w3.org/2000/svg">
<circle cx="38" cy="38" r="38" fill="#C7C3C3"/>
<path d="M16.1456 6.91316C8.76433 12.1023 3.47033 19.7485 1.2108 28.4837C-1.04874 37.2188 -0.126369 46.473 3.81287 54.5904C7.75211 62.7078 14.4512 69.1586 22.7114 72.7887C30.9716 76.4188 40.254 76.9913 48.8977 74.4037C57.5415 71.8162 64.9824 66.2374 69.8893 58.6656C74.7961 51.0938 76.8487 42.0231 75.6796 33.0764C74.5106 24.1298 70.1963 15.891 63.5087 9.83423C56.821 3.77745 48.1964 0.297905 39.1781 0.0181741L37.9999 37.9999L16.1456 6.91316Z" fill="#BBD0FF"/>
<circle cx="37.9997" cy="38" r="34.8112" fill="#E9E5E5"/>
<g clip-path="url(#clip0_2919_21573)">
<path d="M62.1639 37.2224L55.3107 34.8242C53.9572 34.3504 52.5223 34.1533 51.0912 34.2446C49.66 34.3359 48.2618 34.7137 46.9794 35.3556C45.6971 35.9976 44.5568 36.8906 43.6261 37.9817C42.6954 39.0727 41.9933 40.3396 41.5615 41.7071L39.7684 47.3856L38.003 48.7094V36.8508C38.002 36.0726 38.1937 35.3063 38.5609 34.6202C38.9281 33.9341 39.4594 33.3496 40.1074 32.9188L39.1931 31.548C38.3194 32.1292 37.603 32.9175 37.1079 33.8428C36.6128 34.768 36.3543 35.8014 36.3554 36.8508V38.4826L35.2903 37.4176L34.1255 38.5824L36.3554 40.8125V58.9098L34.7079 58.0859V56.3913C34.7077 54.3484 34.2221 52.3348 33.2912 50.5165C32.3603 48.6981 31.0107 47.1269 29.3535 45.9324C27.6962 44.7381 25.7789 43.9546 23.7595 43.6467C21.7401 43.3388 19.6764 43.5151 17.7385 44.1612L13.8537 45.456C13.6888 45.5102 13.5453 45.6151 13.4436 45.7556C13.3419 45.8962 13.2871 46.0653 13.2871 46.2388C13.2871 46.4123 13.3419 46.5814 13.4436 46.7219C13.5453 46.8625 13.6888 46.9674 13.8537 47.0216L14.7357 47.3157C18.9641 48.7216 22.9093 50.8671 26.3878 53.6522L33.3692 59.2374C33.4163 59.2704 33.4673 59.2982 33.5209 59.3199L33.5157 59.3307L36.3553 60.7519V62.7141H38.0028V50.7689L40.9681 48.5445L40.9592 48.5332C40.993 48.5136 41.0256 48.4918 41.0565 48.4681C46.273 43.2682 53.0666 39.9453 60.3734 39.0197L61.994 38.8173C62.3733 38.7695 62.6698 38.467 62.7103 38.0869C62.7509 37.7068 62.5246 37.3488 62.1638 37.2224H62.1639Z" fill="#616161" fill-opacity="0.65"/>
<path d="M44.9781 20.2625L44.592 14.0587C44.58 13.8694 44.5032 13.6899 44.3744 13.5506C44.2456 13.4113 44.0727 13.3207 43.8849 13.294C43.6973 13.269 43.5069 13.3089 43.345 13.4069C43.1832 13.5049 43.0596 13.6552 42.9948 13.833L40.3305 21.2898C39.334 24.0754 38.825 27.0119 38.8257 29.9703V32.2334C38.8257 32.3963 38.874 32.5556 38.9645 32.691C39.055 32.8265 39.1837 32.932 39.3341 32.9944C39.4847 33.0566 39.6503 33.0728 39.8101 33.041C39.9698 33.0093 40.1166 32.9309 40.2319 32.8159C41.8676 31.1795 43.1367 29.2139 43.955 27.0497C44.7732 24.8854 45.122 22.5719 44.978 20.2625H44.9781ZM25.59 24.2061L20.1397 22.3941C20.0013 22.3479 19.8531 22.3393 19.7103 22.369C19.5675 22.3988 19.4351 22.4659 19.3267 22.5635C19.2184 22.6613 19.138 22.786 19.0936 22.925C19.0493 23.064 19.0427 23.2123 19.0744 23.3547L19.9808 27.4424C21.4316 34.1121 27.3503 38.8573 34.1757 38.824H34.707C34.9255 38.824 35.135 38.7372 35.2895 38.5827C35.444 38.4282 35.5307 38.2186 35.5307 38.0002C35.536 31.7403 31.5299 26.1817 25.5901 24.2063L25.59 24.2061Z" fill="#999999"/>
<path d="M29.6416 35.1991C26.4851 33.2562 23.8973 30.5145 22.1397 27.251L19.5418 22.4241C19.3677 22.4991 19.2256 22.633 19.1403 22.8023C19.0551 22.9716 19.0322 23.1655 19.0756 23.35L19.9817 27.4377C21.431 34.1094 27.3502 38.8567 34.1767 38.8237H34.708C34.8953 38.8206 35.0757 38.7525 35.2184 38.631L29.6416 35.1991ZM47.2438 41.0478C45.5082 42.287 44.1362 43.9685 43.2702 45.9174L42.8893 46.7741C47.834 42.5352 53.9127 39.8387 60.3736 39.018L61.9431 38.8237H54.1882C51.6982 38.8231 49.2702 39.6007 47.2438 41.0478ZM34.3159 59.7317L34.2994 59.6412C32.6612 50.6292 24.4606 44.3253 15.3309 45.0598L14.9475 45.0903L13.8539 45.4551C13.689 45.5093 13.5454 45.6141 13.4437 45.7547C13.3419 45.8953 13.2871 46.0644 13.2871 46.2379C13.2871 46.4114 13.3419 46.5805 13.4436 46.721C13.5454 46.8615 13.689 46.9663 13.8539 47.0203L14.7359 47.3148C18.9643 48.721 22.9095 50.8668 26.388 53.6522L33.3694 59.2373C33.4165 59.2703 33.4675 59.2981 33.5211 59.3198L33.5159 59.3306L34.3159 59.7317Z" fill="#D1D1D1"/>
</g>
<defs>
<clipPath id="clip0_2919_21573">
<rect width="49.4266" height="49.4266" fill="white" transform="translate(13.2871 13.2867)"/>
</clipPath>
</defs>
</svg>
