<svg width="76" height="76" viewBox="0 0 76 76" fill="none" xmlns="http://www.w3.org/2000/svg">
<circle cx="38" cy="38" r="38" fill="#D7D6D6"/>
<g clip-path="url(#clip0_3093_39483)">
<path d="M57.4062 33.6875H18.5938C18.4031 33.6875 18.2203 33.7632 18.0855 33.898C17.9507 34.0328 17.875 34.2156 17.875 34.4062V55.9688C17.875 56.1594 17.9507 56.3422 18.0855 56.477C18.2203 56.6118 18.4031 56.6875 18.5938 56.6875H57.4062C57.5969 56.6875 57.7797 56.6118 57.9145 56.477C58.0493 56.3422 58.125 56.1594 58.125 55.9688V34.4062C58.125 34.2156 58.0493 34.0328 57.9145 33.898C57.7797 33.7632 57.5969 33.6875 57.4062 33.6875Z" fill="#F0E8DE"/>
<path d="M60.9545 34.154L56.642 22.654C56.5905 22.517 56.4984 22.399 56.3781 22.3156C56.2578 22.2323 56.1149 22.1876 55.9686 22.1875H32.2498C32.0592 22.1875 31.8764 22.2632 31.7416 22.398C31.6068 22.5328 31.5311 22.7156 31.5311 22.9062V26.5H25.7811V22.9062C25.7811 22.7156 25.7053 22.5328 25.5705 22.398C25.4358 22.2632 25.2529 22.1875 25.0623 22.1875H20.0311C19.7313 22.1875 19.4633 22.3737 19.3576 22.654L15.0451 34.154C15.0047 34.2628 14.9911 34.3797 15.0056 34.4948C15.0202 34.61 15.0623 34.7199 15.1284 34.8153C15.1945 34.9106 15.2827 34.9886 15.3855 35.0425C15.4883 35.0964 15.6025 35.1247 15.7186 35.125H60.2811C60.3972 35.1249 60.5115 35.0967 60.6144 35.0428C60.7172 34.9889 60.8055 34.911 60.8717 34.8156C60.9378 34.7202 60.9799 34.6102 60.9944 34.4949C61.0088 34.3797 60.9951 34.2627 60.9545 34.154Z" fill="#616161"/>
<path d="M32.25 17.875H24.3438V27.2188C24.3438 27.4094 24.4195 27.5922 24.5543 27.727C24.6891 27.8618 24.8719 27.9375 25.0625 27.9375H32.25C32.4406 27.9375 32.6234 27.8618 32.7582 27.727C32.893 27.5922 32.9688 27.4094 32.9688 27.2188V18.5938C32.9688 18.4031 32.893 18.2203 32.7582 18.0855C32.6234 17.9507 32.4406 17.875 32.25 17.875Z" fill="#F0E8DE"/>
<path d="M32.9688 15H24.3438C24.1531 15 23.9703 15.0757 23.8355 15.2105C23.7007 15.3453 23.625 15.5281 23.625 15.7188V18.5938C23.625 18.7844 23.7007 18.9672 23.8355 19.102C23.9703 19.2368 24.1531 19.3125 24.3438 19.3125H32.9688C33.1594 19.3125 33.3422 19.2368 33.477 19.102C33.6118 18.9672 33.6875 18.7844 33.6875 18.5938V15.7188C33.6875 15.5281 33.6118 15.3453 33.477 15.2105C33.3422 15.0757 33.1594 15 32.9688 15ZM39.4375 46.625H36.5625C36.3719 46.625 36.1891 46.7007 36.0543 46.8355C35.9195 46.9703 35.8438 47.1531 35.8438 47.3438V50.2188C35.8438 50.4094 35.9195 50.5922 36.0543 50.727C36.1891 50.8618 36.3719 50.9375 36.5625 50.9375H39.4375C39.6281 50.9375 39.8109 50.8618 39.9457 50.727C40.0805 50.5922 40.1562 50.4094 40.1562 50.2188V47.3438C40.1562 47.1531 40.0805 46.9703 39.9457 46.8355C39.8109 46.7007 39.6281 46.625 39.4375 46.625Z" fill="#616161"/>
<path d="M58.8438 55.25H17.1562C16.9656 55.25 16.7828 55.3257 16.648 55.4605C16.5132 55.5953 16.4375 55.7781 16.4375 55.9688V60.2812C16.4375 60.4719 16.5132 60.6547 16.648 60.7895C16.7828 60.9243 16.9656 61 17.1562 61H58.8438C59.0344 61 59.2172 60.9243 59.352 60.7895C59.4868 60.6547 59.5625 60.4719 59.5625 60.2812V55.9688C59.5625 55.7781 59.4868 55.5953 59.352 55.4605C59.2172 55.3257 59.0344 55.25 58.8438 55.25Z" fill="#616161"/>
<g clip-path="url(#clip1_3093_39483)">
<path d="M31.1605 40.3509V49.484H23.0459V39.126H30.8765L31.1605 40.3509Z" fill="#616161"/>
<path d="M26.0686 39.126C25.3231 39.3672 24.6528 39.7972 24.123 40.3741C23.5933 40.9511 23.2222 41.6552 23.0459 42.418V39.126H26.0686ZM26.0686 44.305C25.3231 44.5462 24.6528 44.9762 24.123 45.5532C23.5933 46.1301 23.2222 46.8343 23.0459 47.5971V44.305H26.0686ZM30.1259 44.305C29.3804 44.5462 28.7101 44.9762 28.1804 45.5532C27.6506 46.1301 27.2795 46.8343 27.1032 47.5971V44.305H30.1259ZM30.1259 39.126C29.3804 39.3672 28.7101 39.7972 28.1804 40.3741C27.6506 40.9511 27.2795 41.6552 27.1032 42.418V39.126H30.1259Z" fill="#848A8B"/>
<path d="M23.948 40.9273C23.9034 40.9273 23.8599 40.9141 23.8228 40.8893C23.7858 40.8646 23.7569 40.8294 23.7398 40.7883C23.7228 40.7472 23.7183 40.7019 23.727 40.6582C23.7357 40.6145 23.7571 40.5744 23.7887 40.5429L24.4649 39.8674C24.5074 39.8264 24.5643 39.8037 24.6234 39.8042C24.6825 39.8047 24.7391 39.8284 24.7809 39.8702C24.8226 39.9119 24.8464 39.9684 24.8469 40.0274C24.8474 40.0865 24.8247 40.1433 24.7836 40.1858L24.1074 40.8613C24.0651 40.9036 24.0078 40.9273 23.948 40.9273ZM23.948 42.0532C23.9034 42.0532 23.8599 42.04 23.8228 42.0152C23.7858 41.9905 23.7569 41.9553 23.7398 41.9142C23.7228 41.873 23.7183 41.8278 23.727 41.7841C23.7357 41.7404 23.7571 41.7003 23.7887 41.6688L25.5919 39.8674C25.6344 39.8264 25.6914 39.8037 25.7505 39.8042C25.8096 39.8047 25.8661 39.8284 25.9079 39.8702C25.9497 39.9119 25.9734 39.9684 25.9739 40.0274C25.9744 40.0865 25.9517 40.1433 25.9106 40.1858L24.1074 41.9872C24.0651 42.0294 24.0078 42.0532 23.948 42.0532ZM28.0053 46.1063C27.9608 46.1063 27.9172 46.0931 27.8801 46.0684C27.8431 46.0436 27.8142 46.0085 27.7971 45.9673C27.7801 45.9262 27.7756 45.8809 27.7843 45.8372C27.793 45.7936 27.8145 45.7534 27.846 45.722L28.5222 45.0464C28.5647 45.0054 28.6216 44.9827 28.6807 44.9832C28.7398 44.9837 28.7964 45.0074 28.8382 45.0492C28.88 45.0909 28.9037 45.1474 28.9042 45.2064C28.9047 45.2655 28.882 45.3224 28.8409 45.3648L28.1647 46.0404C28.1224 46.0826 28.0651 46.1063 28.0053 46.1063ZM28.0053 47.2322C27.9608 47.2322 27.9172 47.219 27.8801 47.1942C27.8431 47.1695 27.8142 47.1343 27.7971 47.0932C27.7801 47.0521 27.7756 47.0068 27.7843 46.9631C27.793 46.9194 27.8145 46.8793 27.846 46.8478L29.6492 45.0464C29.6917 45.0054 29.7487 44.9827 29.8078 44.9832C29.8669 44.9837 29.9234 45.0074 29.9652 45.0492C30.007 45.0909 30.0307 45.1474 30.0312 45.2064C30.0317 45.2655 30.009 45.3224 29.968 45.3648L28.1647 47.1662C28.1224 47.2085 28.0651 47.2322 28.0053 47.2322Z" fill="white"/>
<path d="M31.612 44.0797H27.3292V38.6755H26.8784V44.0797H22.5957V44.5301H26.8784V49.9343H27.3292V44.5301H31.612V44.0797Z" fill="#C0BECA"/>
<path d="M32.0624 39.5806V49.9342C32.0621 50.0535 32.0145 50.1679 31.93 50.2522C31.8455 50.3366 31.7311 50.3842 31.6116 50.3845H22.5953C22.4759 50.3842 22.3614 50.3366 22.277 50.2522C22.1925 50.1679 22.1449 50.0535 22.1445 49.9342V38.6754C22.1449 38.5561 22.1925 38.4418 22.277 38.3574C22.3614 38.273 22.4759 38.2255 22.5953 38.2251H31.6116C31.5034 38.5699 31.3068 38.8804 31.0413 39.1258H23.0462V49.4838H31.1608V39.5761L32.0624 39.5806Z" fill="#ECF0F1"/>
<path d="M32.8859 39.624C32.6058 39.73 32.3515 39.8945 32.14 40.1066C31.9286 40.3186 31.7648 40.5732 31.6597 40.8534C31.6514 40.875 31.6366 40.8935 31.6173 40.9064C31.5981 40.9193 31.5753 40.9259 31.5522 40.9254C31.529 40.9249 31.5066 40.9173 31.4879 40.9036C31.4692 40.8899 31.4552 40.8708 31.4478 40.8489C31.3416 40.5698 31.1774 40.3164 30.966 40.1053C30.7547 39.8941 30.501 39.7301 30.2216 39.624C30.1991 39.6169 30.1794 39.6028 30.1655 39.5837C30.1515 39.5647 30.144 39.5417 30.144 39.5181C30.144 39.4946 30.1515 39.4716 30.1655 39.4526C30.1794 39.4335 30.1991 39.4194 30.2216 39.4123C30.5015 39.3071 30.7557 39.1434 30.9672 38.9321C31.1786 38.7209 31.3425 38.467 31.4478 38.1874C31.4549 38.1649 31.4691 38.1452 31.4881 38.1313C31.5072 38.1174 31.5301 38.1099 31.5538 38.1099C31.5774 38.1099 31.6004 38.1174 31.6194 38.1313C31.6385 38.1452 31.6526 38.1649 31.6597 38.1874C31.7651 38.4676 31.9296 38.722 32.1419 38.9334C32.3542 39.1447 32.6095 39.308 32.8904 39.4123C32.912 39.4207 32.9305 39.4354 32.9434 39.4547C32.9563 39.4739 32.963 39.4966 32.9625 39.5197C32.962 39.5429 32.9544 39.5653 32.9407 39.5839C32.927 39.6026 32.9078 39.6166 32.8859 39.624ZM29.9484 42.1545C29.6375 42.3065 29.386 42.5577 29.2339 42.8683C29.2256 42.8883 29.2115 42.9055 29.1934 42.9175C29.1754 42.9296 29.1542 42.936 29.1324 42.936C29.1107 42.936 29.0895 42.9296 29.0714 42.9175C29.0534 42.9055 29.0393 42.8883 29.031 42.8683C28.8793 42.5573 28.6278 42.306 28.3165 42.1545C28.2965 42.1461 28.2794 42.132 28.2674 42.114C28.2554 42.096 28.249 42.0748 28.249 42.0532C28.249 42.0315 28.2554 42.0103 28.2674 41.9923C28.2794 41.9743 28.2965 41.9602 28.3165 41.9518C28.6278 41.8003 28.8793 41.549 29.031 41.238C29.0394 41.2181 29.0535 41.201 29.0715 41.189C29.0896 41.1771 29.1108 41.1707 29.1324 41.1707C29.1541 41.1707 29.1753 41.1771 29.1933 41.189C29.2114 41.201 29.2255 41.2181 29.2339 41.238C29.386 41.5487 29.6375 41.7998 29.9484 41.9518C29.9685 41.9601 29.9856 41.9742 29.9977 41.9922C30.0098 42.0103 30.0162 42.0315 30.0162 42.0532C30.0162 42.0749 30.0098 42.0961 29.9977 42.1141C29.9856 42.1321 29.9685 42.1462 29.9484 42.1545Z" fill="#211D0F"/>
</g>
<g clip-path="url(#clip2_3093_39483)">
<path d="M45.9883 43.1587V55.2158H53.6245V43.1587H45.9883ZM49.4045 54.613H46.5911V49.7901H49.4045V54.613ZM49.4045 48.5844H46.5911V43.7615H49.4045V48.5844ZM53.0216 54.613H50.2083V49.7901H53.0216V54.613ZM53.0216 48.5844H50.2083V43.7615H53.0216V48.5844Z" fill="#392D23"/>
<path d="M52.6204 48.1827V44.1636L53.0223 43.7617V48.5846H50.209L50.6109 48.1827H52.6204Z" fill="#C0BECA"/>
<path d="M51.0123 44.5655V47.7807L50.6104 48.1826H52.6199V44.1636L52.218 44.5655H51.0123Z" fill="#616161"/>
<path d="M50.6103 44.1636H52.6198L53.0217 43.7617H50.2084V48.5846L50.6103 48.1827V44.1636ZM47.3951 44.5655V47.7808L46.9932 48.1827H49.0027V44.1636L48.6008 44.5655H47.3951Z" fill="#616161"/>
<path d="M46.9937 44.1636H49.0032L49.4051 43.7617H46.5918V48.5846L46.9937 48.1827V44.1636Z" fill="#616161"/>
<path d="M51.0123 44.5655V47.7807L50.6104 48.1826V44.1636H52.6199L52.218 44.5655H51.0123Z" fill="#392D23"/>
<path d="M49.0032 48.1827V44.1636L49.4051 43.7617V48.5846H46.5918L46.9937 48.1827H49.0032Z" fill="#C0BECA"/>
<path d="M47.3951 44.5655V47.7807L46.9932 48.1826V44.1636H49.0027L48.6008 44.5655H47.3951Z" fill="#392D23"/>
<path d="M47.3951 50.594V53.8093L46.9932 54.2112H49.0027V50.1921L48.6008 50.594H47.3951Z" fill="#616161"/>
<path d="M46.9937 50.1922H49.0032L49.4051 49.7903H46.5918V54.6131L46.9937 54.2112V50.1922Z" fill="#616161"/>
<path d="M49.0032 54.2112V50.1922L49.4051 49.7903V54.6131H46.5918L46.9937 54.2112H49.0032Z" fill="#C0BECA"/>
<path d="M47.3951 50.594V53.8093L46.9932 54.2112V50.1921H49.0027L48.6008 50.594H47.3951Z" fill="#392D23"/>
<path d="M51.0123 50.594V53.8093L50.6104 54.2112H52.6199V50.1921L52.218 50.594H51.0123Z" fill="#616161"/>
<path d="M50.6109 50.1922H52.6204L53.0223 49.7903H50.209V54.6131L50.6109 54.2112V50.1922Z" fill="#616161"/>
<path d="M52.6204 54.2112V50.1922L53.0223 49.7903V54.6131H50.209L50.6109 54.2112H52.6204Z" fill="#C0BECA"/>
<path d="M51.0123 50.594V53.8093L50.6104 54.2112V50.1921H52.6199L52.218 50.594H51.0123Z" fill="#392D23"/>
<path d="M52.8207 48.9863H51.615C51.5617 48.9863 51.5106 49.0075 51.4729 49.0452C51.4352 49.0829 51.4141 49.134 51.4141 49.1873C51.4141 49.2406 51.4352 49.2917 51.4729 49.3294C51.5106 49.3671 51.5617 49.3882 51.615 49.3882H52.6198C52.6198 49.4415 52.6409 49.4926 52.6786 49.5303C52.7163 49.568 52.7674 49.5892 52.8207 49.5892C52.874 49.5892 52.9251 49.568 52.9628 49.5303C53.0005 49.4926 53.0217 49.4415 53.0217 49.3882V49.1873C53.0217 49.134 53.0005 49.0829 52.9628 49.0452C52.9251 49.0075 52.874 48.9863 52.8207 48.9863Z" fill="#FBFBFB"/>
<path d="M52.62 49.3884H51.6152L51.8162 49.5894H52.8209C52.7677 49.5894 52.7165 49.5682 52.6789 49.5305C52.6412 49.4928 52.62 49.4417 52.62 49.3884Z" fill="#C0BECA"/>
<path d="M54.4286 54.613H56.0362V55.2159H54.4286V54.613ZM43.5771 54.613H45.1848V55.2159H43.5771V54.613Z" fill="#D0D7DA"/>
<path d="M54.4286 54.2112H56.0362V54.6131H54.4286V54.2112ZM43.5771 54.2112H45.1848V54.6131H43.5771V54.2112Z" fill="#E2E4E6"/>
<path d="M45.1846 42.355V55.2159H45.9884V43.1588H53.6246V55.2159H54.4284V42.355H45.1846Z" fill="#616161"/>
</g>
</g>
<defs>
<clipPath id="clip0_3093_39483">
<rect width="46" height="46" fill="white" transform="translate(15 15)"/>
</clipPath>
<clipPath id="clip1_3093_39483">
<rect width="10.8195" height="12.3846" fill="white" transform="translate(22.1445 38)"/>
</clipPath>
<clipPath id="clip2_3093_39483">
<rect width="12.8609" height="12.8609" fill="white" transform="translate(43.376 42.355)"/>
</clipPath>
</defs>
</svg>
