<svg width="76" height="76" viewBox="0 0 76 76" fill="none" xmlns="http://www.w3.org/2000/svg">
<circle cx="38" cy="38" r="38" fill="#D8D7D7"/>
<g clip-path="url(#clip0_2919_22155)">
<path d="M39.6471 51.5524C41.7889 51.5524 43.867 52.2592 45.5624 53.5719C43.2939 54.6945 40.7963 55.2766 38.2653 55.2726C34.3112 55.2726 30.6759 53.8802 27.8379 51.5524H39.6471Z" fill="#939393"/>
<path d="M46.8341 48.3636H51.6811C50.1013 50.5763 48.0002 52.3652 45.5639 53.572C43.8685 52.2592 41.7904 51.5524 39.6486 51.5524H27.8394C26.7069 50.6265 25.7024 49.5542 24.8525 48.3636H33.7493C34.6103 48.3636 35.45 48.0819 36.1409 47.5664C36.8318 47.0508 37.6716 46.7692 38.5325 46.7692H42.9862C43.709 46.7692 44.4 47.0562 44.9102 47.5664C45.4204 48.0766 46.1113 48.3636 46.8341 48.3636Z" fill="#616161"/>
<path d="M31.3566 46.2377C32.8242 46.2377 34.0139 45.0479 34.0139 43.5803C34.0139 42.1127 32.8242 40.923 31.3566 40.923C29.889 40.923 28.6992 42.1127 28.6992 43.5803C28.6992 45.0479 29.889 46.2377 31.3566 46.2377Z" fill="#9BA1AA"/>
<path d="M38.7973 44.6433C39.3844 44.6433 39.8602 44.1674 39.8602 43.5804C39.8602 42.9933 39.3844 42.5175 38.7973 42.5175C38.2103 42.5175 37.7344 42.9933 37.7344 43.5804C37.7344 44.1674 38.2103 44.6433 38.7973 44.6433Z" fill="#9BA1AA"/>
<path d="M45.6172 42.5174H54.3227C53.8284 44.6539 52.9196 46.6309 51.6813 48.3635H46.8343C46.1115 48.3635 45.4206 48.0765 44.9104 47.5663C44.4002 47.0561 43.7093 46.7691 42.9865 46.7691H38.5328C37.6718 46.7691 36.8321 47.0508 36.1412 47.5663C35.4502 48.0818 34.6105 48.3635 33.7495 48.3635H24.8528C23.3115 46.2111 22.2805 43.6707 21.9297 40.923H23.9652C24.6402 40.923 25.2992 40.806 25.921 40.5828C26.5428 40.3596 27.1221 40.0248 27.6377 39.5943C28.6687 38.7333 29.9655 38.2656 31.3101 38.2656H32.3146C33.4147 38.2656 34.483 38.643 35.344 39.3286C36.2049 40.0142 37.2732 40.3915 38.3733 40.3915H40.4833C41.4452 40.3915 42.37 40.7742 43.0502 41.4544C43.7305 42.1347 44.6553 42.5174 45.6172 42.5174ZM39.55 44.3318C39.9635 43.9183 39.9635 43.2418 39.55 42.8288C39.1365 42.4159 38.46 42.4153 38.047 42.8288C37.6341 43.2423 37.6335 43.9189 38.047 44.3318C38.4605 44.7448 39.137 44.7453 39.55 44.3318ZM34.0153 43.5803C34.0153 42.1135 32.8248 40.923 31.3579 40.923C29.8911 40.923 28.7006 42.1135 28.7006 43.5803C28.7006 45.0472 29.8911 46.2377 31.3579 46.2377C32.8248 46.2377 34.0153 45.0472 34.0153 43.5803Z" fill="#999999"/>
<path d="M48.3642 39.8601C49.5382 39.8601 50.49 38.9084 50.49 37.7343C50.49 36.5602 49.5382 35.6084 48.3642 35.6084C47.1901 35.6084 46.2383 36.5602 46.2383 37.7343C46.2383 38.9084 47.1901 39.8601 48.3642 39.8601Z" fill="#9BA1AA"/>
<path d="M51.2871 28.6993H48.6882C47.8963 28.6993 47.1204 28.5611 46.3923 28.29C45.6641 28.019 44.9785 27.6204 44.378 27.1049C43.1769 26.0738 41.6462 25.5105 40.0678 25.5105H36.2678C34.8245 25.5108 33.4405 26.0843 32.4199 27.1049C31.3995 28.1253 30.0124 28.6993 28.5721 28.6993H25.2451C28.2585 24.8196 32.9727 22.3217 38.2661 22.3217C43.5595 22.3217 48.2736 24.8196 51.2871 28.6993Z" fill="#616161"/>
<path d="M40.3915 32.4195C41.5656 32.4195 42.5174 31.4677 42.5174 30.2936C42.5174 29.1195 41.5656 28.1677 40.3915 28.1677C39.2174 28.1677 38.2656 29.1195 38.2656 30.2936C38.2656 31.4677 39.2174 32.4195 40.3915 32.4195Z" fill="#9BA1AA"/>
<path d="M33.4829 32.4196C34.0699 32.4196 34.5458 31.9437 34.5458 31.3566C34.5458 30.7696 34.0699 30.2937 33.4829 30.2937C32.8958 30.2937 32.4199 30.7696 32.4199 31.3566C32.4199 31.9437 32.8958 32.4196 33.4829 32.4196Z" fill="#9BA1AA"/>
<path d="M53.6739 32.9511H46.6798C45.7178 32.9511 44.7931 33.3337 44.1128 34.014C43.4325 34.6943 42.5078 35.0769 41.5458 35.0769H32.3301C31.3682 35.0769 30.4434 34.6943 29.7632 34.014C29.0829 33.3337 28.1581 32.9511 27.1962 32.9511H22.8594C23.444 31.4098 24.2518 29.9801 25.2457 28.6993H28.5727C30.0129 28.6993 31.4001 28.1253 32.4205 27.1049C33.441 26.0843 34.8251 25.5108 36.2683 25.5105H40.0683C41.6468 25.5105 43.1774 26.0739 44.3785 27.1049C44.9791 27.6204 45.6647 28.019 46.3928 28.2901C47.1209 28.5611 47.8969 28.6993 48.6887 28.6993H51.2876C52.2815 29.9801 53.0893 31.4098 53.6739 32.9511ZM42.5184 30.2937C42.5184 29.1192 41.5671 28.1678 40.3925 28.1678C39.218 28.1678 38.2666 29.1192 38.2666 30.2937C38.2666 31.4683 39.218 32.4196 40.3925 32.4196C41.5671 32.4196 42.5184 31.4683 42.5184 30.2937ZM34.5464 31.3567C34.5464 30.772 34.068 30.2937 33.4834 30.2937C32.8988 30.2937 32.4205 30.772 32.4205 31.3567C32.4205 31.9413 32.8988 32.4196 33.4834 32.4196C34.068 32.4196 34.5464 31.9413 34.5464 31.3567Z" fill="#999999"/>
<path d="M54.7411 38.7972C54.7411 40.078 54.5976 41.3217 54.3212 42.5175H45.6158C44.6538 42.5175 43.7291 42.1348 43.0488 41.4545C42.3685 40.7743 41.4437 40.3916 40.4818 40.3916H38.3719C37.2717 40.3916 36.2035 40.0143 35.3425 39.3287C34.4815 38.6431 33.4133 38.2657 32.3131 38.2657H31.3086C29.964 38.2657 28.6672 38.7334 27.6362 39.5944C27.1207 40.0249 26.5414 40.3597 25.9195 40.5829C25.2977 40.8062 24.6387 40.9231 23.9637 40.9231H21.9282C21.8379 40.2269 21.79 39.5147 21.79 38.7972C21.79 36.7404 22.1674 34.7687 22.8583 32.951H27.1951C28.157 32.951 29.0818 33.3337 29.7621 34.014C30.4423 34.6943 31.3671 35.0769 32.3291 35.0769H41.5447C42.5067 35.0769 43.4314 34.6943 44.1117 34.014C44.792 33.3337 45.7168 32.951 46.6787 32.951H53.6728C54.3638 34.7687 54.7411 36.7404 54.7411 38.7972ZM50.4893 37.7343C50.4893 36.5597 49.538 35.6084 48.3635 35.6084C47.1889 35.6084 46.2376 36.5597 46.2376 37.7343C46.2376 38.9088 47.1889 39.8601 48.3635 39.8601C49.538 39.8601 50.4893 38.9088 50.4893 37.7343ZM26.2618 35.9198C25.8483 35.5064 25.1718 35.5064 24.7588 35.9198C24.3459 36.3333 24.3453 37.0099 24.7588 37.4228C25.1723 37.8358 25.8489 37.8363 26.2618 37.4228C26.6748 37.0093 26.6753 36.3328 26.2618 35.9198Z" fill="#616161"/>
<path d="M25.5102 37.7343C26.0972 37.7343 26.5731 37.2584 26.5731 36.6713C26.5731 36.0843 26.0972 35.6084 25.5102 35.6084C24.9232 35.6084 24.4473 36.0843 24.4473 36.6713C24.4473 37.2584 24.9232 37.7343 25.5102 37.7343Z" fill="#9BA1AA"/>
<path d="M54.17 32.7623C53.5713 31.1852 52.7411 29.706 51.7066 28.3735C48.4572 24.1897 43.5582 21.7902 38.2658 21.7902C32.9734 21.7902 28.0744 24.1897 24.825 28.3735C23.7906 29.7059 22.9604 31.1849 22.3616 32.7618C21.6294 34.6894 21.2557 36.7346 21.2588 38.7966C21.2588 39.5237 21.3066 40.2619 21.4012 40.9895C21.7576 43.7602 22.7946 46.3995 24.4195 48.6718C25.2965 49.9004 26.3331 51.0069 27.502 51.9622C30.5218 54.4393 34.3441 55.8031 38.2663 55.8031C40.912 55.8031 43.4466 55.2121 45.7999 54.0471C48.3135 52.8005 50.4817 50.9545 52.1132 48.6718C54.1773 45.7933 55.2829 42.3381 55.2733 38.7961C55.2765 36.7341 54.9027 34.6889 54.1705 32.7613L54.17 32.7623ZM29.4657 52.0839H39.6476C41.36 52.0839 43.0485 52.5776 44.493 53.4795C42.5243 54.3179 40.4056 54.7471 38.2658 54.7412C35.1353 54.7375 32.0751 53.8134 29.4657 52.0839ZM53.8033 42.3979C53.3529 44.3451 52.537 46.1891 51.3989 47.8321H46.8331C46.2485 47.8321 45.6984 47.6041 45.2849 47.1906C44.9836 46.8876 44.6253 46.6474 44.2305 46.4838C43.8358 46.3202 43.4125 46.2366 42.9852 46.2377H38.5315C37.5548 46.2407 36.6049 46.5572 35.8216 47.1407C35.2223 47.5871 34.4956 47.8295 33.7483 47.8321H30.2938C30.1528 47.8321 30.0176 47.8881 29.918 47.9878C29.8183 48.0875 29.7623 48.2226 29.7623 48.3636C29.7623 48.5045 29.8183 48.6397 29.918 48.7394C30.0176 48.8391 30.1528 48.8951 30.2938 48.8951H33.7483C34.725 48.8921 35.675 48.5755 36.4583 47.9921C37.0575 47.5456 37.7843 47.3033 38.5315 47.3006H42.9852C43.5699 47.3006 44.1199 47.5287 44.5334 47.9421C44.8347 48.2451 45.193 48.4854 45.5878 48.649C45.9825 48.8125 46.4058 48.8962 46.8331 48.8951H50.6022C49.2263 50.5699 47.5254 51.9488 45.6022 52.9486C43.867 51.7006 41.785 51.0265 39.6476 51.0209H28.0377C26.998 50.1526 26.0727 49.1557 25.2842 48.0543C23.8831 46.0908 22.9485 43.8336 22.5513 41.4545H23.9645C24.6948 41.4545 25.4133 41.3296 26.1 41.083C26.7847 40.8363 27.4204 40.4703 27.9776 40.002C28.9134 39.2232 30.0925 38.7967 31.3099 38.7966H32.3144C33.2875 38.7966 34.2458 39.133 35.0127 39.7437C35.968 40.504 37.1522 40.9194 38.3732 40.9225H40.4831C41.2989 40.9225 42.0977 41.2531 42.6743 41.8297C43.4566 42.6075 44.514 43.0453 45.6171 43.0484H51.5536C51.6945 43.0484 51.8297 42.9924 51.9294 42.8927C52.0291 42.793 52.085 42.6579 52.085 42.5169C52.085 42.3759 52.0291 42.2408 51.9294 42.1411C51.8297 42.0414 51.6945 41.9854 51.5536 41.9854H45.6171C44.7957 41.9832 44.0084 41.6572 43.4258 41.0782C42.6436 40.3005 41.5862 39.8626 40.4831 39.8596H38.3732C37.3927 39.857 36.4419 39.5232 35.6749 38.9125C34.7195 38.1521 33.5354 37.7368 32.3144 37.7337H31.3099C29.8436 37.7337 28.4188 38.2492 27.2968 39.1857C26.835 39.5737 26.3081 39.8771 25.7407 40.0817C25.171 40.2867 24.57 40.3914 23.9645 40.391H22.4105C22.3545 39.8614 22.3249 39.3292 22.3217 38.7966C22.3217 36.9694 22.6311 35.1842 23.2337 33.4819H27.1953C28.0111 33.4819 28.8099 33.8125 29.3866 34.3892C30.1688 35.1669 31.2262 35.6048 32.3293 35.6078H36.6714C36.8124 35.6078 36.9475 35.5518 37.0472 35.4521C37.1469 35.3525 37.2029 35.2173 37.2029 35.0763C37.2029 34.9354 37.1469 34.8002 37.0472 34.7005C36.9475 34.6009 36.8124 34.5449 36.6714 34.5449H32.3293C31.5079 34.5427 30.7206 34.2167 30.1381 33.6377C29.3558 32.8599 28.2984 32.422 27.1953 32.419H23.6595C24.1846 31.2088 24.8582 30.0685 25.6647 29.0245C28.7111 25.1028 33.304 22.8531 38.2658 22.8531C42.8524 22.8531 47.1211 24.7791 50.1473 28.1678H48.6884C47.9577 28.1678 47.2476 28.0413 46.5774 27.792C45.9 27.5411 45.2725 27.1718 44.7242 26.7015C43.4275 25.5896 41.7756 24.9786 40.0675 24.979H36.268C35.4841 24.979 34.7156 25.132 33.9811 25.4339C33.2563 25.7338 32.598 26.174 32.0439 26.7291C31.1209 27.6468 29.8734 28.1637 28.5718 28.1678C28.4309 28.1678 28.2957 28.2238 28.196 28.3234C28.0963 28.4231 28.0403 28.5583 28.0403 28.6993C28.0403 28.8402 28.0963 28.9754 28.196 29.0751C28.2957 29.1747 28.4309 29.2307 28.5718 29.2307C30.1439 29.2307 31.683 28.593 32.7954 27.4806C33.7165 26.5601 34.9653 26.0427 36.2675 26.0419H40.0669C41.5216 26.0419 42.93 26.5627 44.0312 27.5082C44.6748 28.0603 45.4113 28.4936 46.2065 28.788C47.0005 29.0828 47.8409 29.2328 48.6879 29.2307H51.0147C51.7554 30.218 52.3788 31.2881 52.8722 32.4195H46.6789C45.5758 32.4224 44.5184 32.8604 43.7362 33.6382C43.1537 34.2172 42.3663 34.5432 41.545 34.5454H39.3287C39.1878 34.5454 39.0526 34.6014 38.9529 34.7011C38.8533 34.8007 38.7973 34.9359 38.7973 35.0769C38.7973 35.2178 38.8533 35.353 38.9529 35.4527C39.0526 35.5523 39.1878 35.6083 39.3287 35.6083H41.545C42.6481 35.6054 43.7055 35.1675 44.4877 34.3897C45.0702 33.8107 45.8576 33.4847 46.6789 33.4825H53.2979C53.9028 35.189 54.2112 36.9865 54.2099 38.7972C54.2099 40.0211 54.0733 41.2329 53.8033 42.3979Z" fill="#28252D"/>
<path d="M48.3645 35.0769C48.2235 35.0769 48.0883 35.1329 47.9887 35.2326C47.889 35.3322 47.833 35.4674 47.833 35.6084C47.833 35.7493 47.889 35.8845 47.9887 35.9842C48.0883 36.0839 48.2235 36.1398 48.3645 36.1398C49.2435 36.1398 49.9589 36.8552 49.9589 37.7343C49.9589 38.6133 49.2435 39.3287 48.3645 39.3287C48.0848 39.3281 47.8102 39.2542 47.5682 39.1142C47.3261 38.9742 47.125 38.7731 46.9851 38.531C46.8452 38.2889 46.7713 38.0142 46.7709 37.7346C46.7705 37.455 46.8435 37.1801 46.9826 36.9376C47.0506 36.8158 47.0679 36.6722 47.031 36.5378C46.994 36.4033 46.9057 36.2888 46.7851 36.2189C46.6645 36.1489 46.5212 36.1292 46.3861 36.1639C46.2511 36.1987 46.1351 36.2851 46.0632 36.4045C45.8594 36.7575 45.7395 37.1526 45.7128 37.5593C45.6861 37.9661 45.7534 38.3735 45.9093 38.75C46.0653 39.1266 46.3057 39.4623 46.6122 39.731C46.9186 39.9998 47.2827 40.1945 47.6764 40.3C48.0701 40.4056 48.4828 40.4191 48.8826 40.3397C49.2823 40.2602 49.6585 40.0898 49.9819 39.8417C50.3053 39.5936 50.5673 39.2745 50.7476 38.909C50.9279 38.5434 51.0217 38.1413 51.0218 37.7337C51.0218 36.2685 49.8297 35.0769 48.3645 35.0769ZM43.0498 30.2937C43.0498 28.8284 41.8577 27.6364 40.3924 27.6364C38.9272 27.6364 37.7351 28.8284 37.7351 30.2937C37.7351 31.759 38.9272 32.951 40.3924 32.951C41.8577 32.951 43.0498 31.759 43.0498 30.2937ZM38.798 30.2937C38.798 29.4146 39.5134 28.6993 40.3924 28.6993C41.2715 28.6993 41.9868 29.4146 41.9868 30.2937C41.9868 31.1727 41.2715 31.8881 40.3924 31.8881C39.5134 31.8881 38.798 31.1727 38.798 30.2937ZM34.0148 43.0489C33.8739 43.0489 33.7387 43.1049 33.639 43.2046C33.5393 43.3043 33.4833 43.4395 33.4833 43.5804C33.4833 44.7528 32.5299 45.7063 31.3575 45.7063C30.185 45.7063 29.2316 44.7528 29.2316 43.5804C29.2316 42.408 30.185 41.4545 31.3575 41.4545C31.8214 41.4545 32.262 41.6018 32.6325 41.8797C32.6882 41.9228 32.7519 41.9544 32.8199 41.9726C32.8879 41.9909 32.9589 41.9954 33.0287 41.986C33.0985 41.9766 33.1657 41.9534 33.2264 41.9178C33.2872 41.8821 33.3403 41.8348 33.3826 41.7785C33.4249 41.7222 33.4555 41.658 33.4728 41.5898C33.4901 41.5215 33.4936 41.4505 33.4832 41.3808C33.4728 41.3112 33.4487 41.2443 33.4122 41.184C33.3757 41.1238 33.3277 41.0714 33.2708 41.0299C32.7197 40.6138 32.0475 40.3896 31.3569 40.3916C29.5983 40.3916 28.1681 41.8218 28.1681 43.5804C28.1681 45.339 29.5983 46.7692 31.3569 46.7692C33.1156 46.7692 34.5457 45.339 34.5457 43.5804C34.5457 43.4395 34.4897 43.3043 34.3901 43.2046C34.2904 43.1049 34.1558 43.0489 34.0148 43.0489ZM37.6708 42.4532C37.6214 42.5025 37.5822 42.5611 37.5555 42.6256C37.5288 42.6901 37.515 42.7592 37.515 42.829C37.5149 42.8988 37.5287 42.9679 37.5553 43.0324C37.582 43.0969 37.6212 43.1555 37.6705 43.2049C37.7199 43.2543 37.7784 43.2935 37.8429 43.3202C37.9074 43.347 37.9765 43.3607 38.0463 43.3608C38.1161 43.3608 38.1853 43.3471 38.2498 43.3204C38.3143 43.2937 38.3729 43.2545 38.4223 43.2052C38.5239 43.1093 38.6583 43.0559 38.798 43.0559C38.9377 43.0559 39.0722 43.1093 39.1738 43.2052C39.2737 43.3046 39.3284 43.438 39.3284 43.5809C39.3284 43.7239 39.2732 43.8573 39.1738 43.9567C39.074 44.0563 39.0179 44.1916 39.0178 44.3326C39.0177 44.4736 39.0736 44.6089 39.1732 44.7087C39.2729 44.8085 39.4081 44.8646 39.5491 44.8647C39.6902 44.8648 39.8255 44.8089 39.9253 44.7092C40.2255 44.409 40.3914 44.0082 40.3914 43.5815C40.3914 43.1547 40.2255 42.7545 39.9253 42.4542C39.3252 41.8537 38.2708 41.8537 37.6708 42.4542V42.4532ZM24.3841 35.5435C24.0838 35.8438 23.918 36.2445 23.918 36.6713C23.918 37.0981 24.0838 37.4983 24.3841 37.7991C24.4333 37.8486 24.4919 37.8878 24.5564 37.9146C24.6209 37.9414 24.6901 37.9551 24.7599 37.9551C24.8298 37.955 24.8989 37.9412 24.9634 37.9143C25.0278 37.8875 25.0864 37.8481 25.1356 37.7986C25.185 37.7492 25.2242 37.6906 25.2509 37.6261C25.2777 37.5616 25.2914 37.4924 25.2914 37.4225C25.2914 37.3527 25.2777 37.2835 25.2509 37.219C25.2242 37.1545 25.185 37.0959 25.1356 37.0465C25.0356 36.9472 24.9809 36.8138 24.9809 36.6708C24.9809 36.5278 25.0362 36.3944 25.1356 36.295C25.2372 36.1991 25.3716 36.1457 25.5113 36.1457C25.651 36.1457 25.7855 36.1991 25.8871 36.295C25.9364 36.3444 25.9951 36.3835 26.0596 36.4102C26.1241 36.4369 26.1932 36.4506 26.263 36.4506C26.3328 36.4506 26.4019 36.4368 26.4664 36.4101C26.5309 36.3833 26.5895 36.3442 26.6388 36.2948C26.6882 36.2454 26.7273 36.1868 26.754 36.1223C26.7807 36.0578 26.7944 35.9886 26.7944 35.9188C26.7944 35.849 26.7806 35.7799 26.7538 35.7154C26.7271 35.6509 26.6879 35.5924 26.6386 35.543C26.0385 34.9425 24.9841 34.9435 24.3841 35.5435ZM33.4833 29.7622C32.6043 29.7622 31.8889 30.4776 31.8889 31.3566C31.8889 31.4976 31.9449 31.6328 32.0446 31.7324C32.1443 31.8321 32.2794 31.8881 32.4204 31.8881C32.5614 31.8881 32.6965 31.8321 32.7962 31.7324C32.8959 31.6328 32.9519 31.4976 32.9519 31.3566C32.9519 31.2157 33.0079 31.0805 33.1075 30.9808C33.2072 30.8812 33.3424 30.8252 33.4833 30.8252C33.6243 30.8252 33.7595 30.8812 33.8591 30.9808C33.9588 31.0805 34.0148 31.2157 34.0148 31.3566C34.0148 31.4976 34.0708 31.6328 34.1705 31.7324C34.2701 31.8321 34.4053 31.8881 34.5463 31.8881C34.6872 31.8881 34.8224 31.8321 34.9221 31.7324C35.0218 31.6328 35.0777 31.4976 35.0777 31.3566C35.0777 30.4776 34.3624 29.7622 33.4833 29.7622Z" fill="#28252D"/>
<path d="M28.1682 48.8951C28.4617 48.8951 28.6997 48.6571 28.6997 48.3636C28.6997 48.0701 28.4617 47.8322 28.1682 47.8322C27.8747 47.8322 27.6367 48.0701 27.6367 48.3636C27.6367 48.6571 27.8747 48.8951 28.1682 48.8951Z" fill="#28252D"/>
<path d="M20.7435 22.7595H20.9777V22.9466C20.9777 23.0628 21.0354 23.1741 21.138 23.2563C21.2406 23.3384 21.3798 23.3845 21.5249 23.3845C21.67 23.3845 21.8092 23.3384 21.9118 23.2563C22.0145 23.1741 22.0721 23.0628 22.0721 22.9466V22.7595H22.3064C22.4516 22.7595 22.5907 22.7134 22.6934 22.6313C22.796 22.5491 22.8536 22.4377 22.8536 22.3216C22.8536 22.2055 22.796 22.0941 22.6934 22.0119C22.5907 21.9298 22.4516 21.8837 22.3064 21.8837H22.0721V21.6966C22.0721 21.5804 22.0145 21.4691 21.9118 21.3869C21.8092 21.3048 21.67 21.2587 21.5249 21.2587C21.3798 21.2587 21.2406 21.3048 21.138 21.3869C21.0354 21.4691 20.9777 21.5804 20.9777 21.6966V21.8837H20.7435C20.5984 21.8837 20.4592 21.9298 20.3566 22.0119C20.2539 22.0941 20.1963 22.2055 20.1963 22.3216C20.1963 22.4377 20.2539 22.5491 20.3566 22.6313C20.4592 22.7134 20.5984 22.7595 20.7435 22.7595Z" fill="#999999"/>
<path d="M53.4286 22.8371V22.6033H53.6629C53.9652 22.6033 54.2101 22.3582 54.2101 22.0558C54.2101 21.7535 53.9652 21.5084 53.6629 21.5084H53.4286V21.2746C53.4286 20.9723 53.1837 20.7272 52.8814 20.7272C52.5792 20.7272 52.3343 20.9723 52.3343 21.2746V21.5084H52.0999C51.7977 21.5084 51.5527 21.7535 51.5527 22.0558C51.5527 22.3582 51.7977 22.6033 52.0999 22.6033H52.3343V22.8371C52.3343 23.1394 52.5792 23.3845 52.8814 23.3845C53.1837 23.3845 53.4286 23.1394 53.4286 22.8371Z" fill="#616161"/>
<path d="M55.2512 50.5779H55.0297V50.4011C55.0297 50.1564 54.7819 49.958 54.4761 49.958C54.1703 49.958 53.9225 50.1564 53.9225 50.4011V50.5779H53.7011C53.3953 50.5779 53.1475 50.7762 53.1475 51.0209C53.1475 51.2656 53.3953 51.464 53.7011 51.464H53.9225V51.6408C53.9225 51.8855 54.1703 52.0839 54.4761 52.0839C54.7819 52.0839 55.0297 51.8855 55.0297 51.6408V51.464H55.2512C55.557 51.464 55.8048 51.2656 55.8048 51.0209C55.8048 50.7762 55.557 50.5779 55.2512 50.5779Z" fill="#999999"/>
<path d="M22.3064 53.9281H22.0722V53.6943C22.0722 53.5491 22.0145 53.4098 21.9119 53.3072C21.8093 53.2045 21.6701 53.1469 21.525 53.1469C21.3798 53.1469 21.2407 53.2045 21.138 53.3072C21.0354 53.4098 20.9778 53.5491 20.9778 53.6943V53.9281H20.7435C20.5984 53.9281 20.4592 53.9858 20.3566 54.0884C20.2539 54.1911 20.1963 54.3303 20.1963 54.4755C20.1963 54.6207 20.2539 54.7599 20.3566 54.8626C20.4592 54.9653 20.5984 55.0229 20.7435 55.0229H20.9778V55.2568C20.9778 55.402 21.0354 55.5412 21.138 55.6439C21.2407 55.7465 21.3798 55.8042 21.525 55.8042C21.6701 55.8042 21.8093 55.7465 21.9119 55.6439C22.0145 55.5412 22.0722 55.402 22.0722 55.2568V55.0229H22.3064C22.4516 55.0229 22.5907 54.9653 22.6934 54.8626C22.796 54.7599 22.8536 54.6207 22.8536 54.4755C22.8536 54.3303 22.796 54.1911 22.6934 54.0884C22.5907 53.9858 22.4516 53.9281 22.3064 53.9281Z" fill="#616161"/>
</g>
<defs>
<clipPath id="clip0_2919_22155">
<rect width="35.6084" height="38.2657" fill="white" transform="translate(20.1963 19.1328)"/>
</clipPath>
</defs>
</svg>
