<svg width="23" height="24" viewBox="0 0 23 24" fill="none" xmlns="http://www.w3.org/2000/svg">
<path d="M8.58759 21.8737H14.3128C19.0838 21.8737 20.9922 19.8852 20.9922 14.9139V8.94834C20.9922 3.97704 19.0838 1.98852 14.3128 1.98852H8.58759C3.8166 1.98852 1.9082 3.97704 1.9082 8.94834V14.9139C1.9082 19.8852 3.8166 21.8737 8.58759 21.8737Z" stroke="#999999" stroke-width="1.5" stroke-linecap="round" stroke-linejoin="round"/>
<path d="M8.68311 11.9311V10.4596C8.68311 8.56058 9.97127 7.795 11.5457 8.73955L12.7671 9.4753L13.9884 10.2111C15.5629 11.1556 15.5629 12.7066 13.9884 13.6512L12.7671 14.3869L11.5457 15.1227C9.97127 16.0672 8.68311 15.2917 8.68311 13.4026V11.9311Z" stroke="#999999" stroke-width="1.5" stroke-miterlimit="10" stroke-linecap="round" stroke-linejoin="round"/>
</svg>
