<svg width="76" height="77" viewBox="0 0 76 77" fill="none" xmlns="http://www.w3.org/2000/svg">
<circle cx="38" cy="38.5" r="38" fill="#BBD0FF" fill-opacity="0.56"/>
<g clip-path="url(#clip0_3093_37561)">
<path d="M47.6904 16.5418C45.7061 15.7459 43.6115 15.2244 41.4067 15.0048H41.2138L41.076 14.9774H40.8555L40.7177 14.9499H40.5248L40.4145 14.9225H39.8358L39.698 14.895H38.2924L38.1546 14.9225H37.6585C37.6034 14.9499 37.5207 14.9499 37.438 14.9499H37.2175L37.0246 14.9774H36.9695L36.8317 15.0048H36.6112L36.5285 15.0323H36.3356C36.06 15.0871 35.7568 15.1146 35.4812 15.1695H35.4537C35.3159 15.1695 35.1781 15.1969 35.0403 15.2244C32.3118 15.691 29.7211 16.6242 27.4061 17.9416C26.91 18.2161 26.4414 18.518 26.0005 18.8199H25.9729C25.3942 19.2316 24.7878 19.6433 24.2366 20.1099C23.8783 20.3844 23.5201 20.6863 23.1893 21.0157C22.9137 21.2353 22.6381 21.5097 22.3901 21.7567C21.3703 22.7723 20.4333 23.8976 19.6065 25.0778C19.3584 25.4621 19.1104 25.8189 18.8899 26.2031C18.5868 26.6972 18.2836 27.2187 18.0355 27.7402C17.8426 28.1519 17.6221 28.5361 17.4568 28.9753C16.63 30.8417 16.0512 32.8178 15.748 34.9038C15.6929 35.343 15.6378 35.7821 15.5827 36.2487C15.5827 36.331 15.5827 36.4134 15.5551 36.5232C15.5551 36.7153 15.5276 36.9074 15.5276 37.0996V37.127C15.5 37.5113 15.5 37.923 15.5 38.3072V39.0757L15.5276 39.1581V39.6796L15.5551 39.7345V40.0913L15.5827 40.1462V40.3108C15.6654 41.3813 15.8307 42.4517 16.0788 43.4947L16.4095 44.8121C17.1536 47.3372 18.2836 49.6702 19.7443 51.7562L20.5711 52.8266C21.1223 53.5402 21.7011 54.199 22.335 54.8302C22.6657 55.1596 23.024 55.489 23.3547 55.7909C24.8981 57.1632 26.6344 58.3435 28.5085 59.2766C29.0321 59.5237 29.5282 59.7707 30.0794 59.9903H30.0518C30.1621 60.0177 30.2723 60.0726 30.3826 60.1001L30.4101 60.1275C30.5755 60.1824 30.7409 60.2373 30.9338 60.3196C31.1267 60.3745 31.2921 60.4569 31.4574 60.5118H31.485C31.6503 60.5667 31.8433 60.6215 32.0086 60.6764H32.0362C32.2015 60.7313 32.3945 60.7862 32.5598 60.8411H32.5874C32.7803 60.896 32.9457 60.9509 33.1386 61.0058C33.3315 61.0607 33.5244 61.0881 33.6898 61.143H33.7174C33.9103 61.1705 34.0757 61.2254 34.2686 61.2528C34.4615 61.3077 34.6544 61.3352 34.8473 61.3626H34.8749C35.0403 61.4175 35.2332 61.445 35.4261 61.4724H35.4537C35.6466 61.4998 35.812 61.5273 36.0049 61.5547H36.0324C36.2254 61.5822 36.4183 61.6096 36.6112 61.6096C36.8041 61.6371 36.997 61.6645 37.19 61.6645H37.2175C37.4104 61.692 37.6034 61.692 37.7963 61.7194H37.8239C38.2097 61.7194 38.6231 61.7469 39.0089 61.7469C39.2294 61.7469 39.4224 61.7469 39.6153 61.7194H40.2492C40.4421 61.692 40.635 61.692 40.8279 61.6645C41.0209 61.6645 41.2138 61.6371 41.4067 61.6096H41.4343C41.6272 61.6096 41.8201 61.5822 41.9855 61.5547H42.0406C42.2059 61.5273 42.3989 61.4998 42.5918 61.4724H42.6193C42.7847 61.445 42.9776 61.4175 43.1706 61.3626H43.1981C43.5564 61.3077 43.9422 61.2254 44.3281 61.143C44.521 61.0881 44.7139 61.0607 44.8793 61.0058H44.9069C45.0722 60.9509 45.2651 60.896 45.4305 60.8411H45.4856C45.651 60.7862 45.8163 60.7313 46.0093 60.6764C46.2022 60.6215 46.3676 60.5667 46.5605 60.5118C46.7534 60.4569 46.9188 60.3745 47.0841 60.3196H47.1117C47.277 60.2373 47.47 60.1824 47.6353 60.1275V60.1001C47.8282 60.0452 47.9936 59.9628 48.159 59.9079H48.1865C48.3519 59.8256 48.5173 59.7432 48.7102 59.6609C48.8755 59.5786 49.0409 59.5237 49.2063 59.4413L49.2338 59.4139L49.7299 59.1669L50.226 58.9198C50.3087 58.8649 50.3914 58.8375 50.4465 58.7826C50.9426 58.5081 51.4386 58.2062 51.9072 57.9043C52.6237 57.4377 53.3128 56.9437 53.9466 56.3947C54.3325 56.1203 54.6632 55.7909 55.0215 55.489C55.242 55.2968 55.4349 55.0773 55.6554 54.8851C56.8129 53.7049 57.8602 52.4149 58.7697 51.0151C59.0177 50.6309 59.2658 50.2466 59.4863 49.8624C59.817 49.286 60.1201 48.7096 60.3958 48.1058C60.5887 47.6941 60.754 47.2824 60.9194 46.8707C61.5257 45.3062 61.9667 43.6868 62.2423 42.0126L62.2699 41.8479L62.2974 41.7106V41.6832C62.325 41.546 62.325 41.3813 62.3525 41.244V41.2166C62.3801 41.0245 62.4077 40.8049 62.4352 40.6128V40.4206L62.4628 40.2834V40.0638L62.4903 39.9815V39.6247C62.5179 39.5149 62.5179 39.4051 62.5179 39.2953V38.8287L62.5455 38.7738V38.2798C62.5455 37.8132 62.5179 37.3466 62.4903 36.9074C62.3801 35.0685 62.0494 33.2844 61.5533 31.5827C61.4155 31.1436 61.2777 30.7044 61.1123 30.2653C60.2579 27.9597 59.0453 25.8189 57.557 23.925C57.2814 23.5682 57.0058 23.2114 56.7027 22.8821C56.3719 22.4978 56.0137 22.1136 55.6554 21.7567C55.49 21.5921 55.2971 21.4274 55.1317 21.2627C54.7734 20.9333 54.4427 20.6314 54.0844 20.3295C52.5962 19.0944 50.9701 18.0514 49.2338 17.2006C48.7102 16.981 48.2141 16.734 47.6904 16.5418Z" fill="#6CBAE5"/>
<path d="M43.1152 19.9453C45.2924 19.314 47.3319 18.3808 49.2336 17.2006C48.7099 16.981 48.2138 16.734 47.6902 16.5419C46.1468 17.4202 44.4656 18.1338 42.7293 18.6553C40.6072 19.2591 38.4024 19.5885 36.0873 19.5885C34.351 19.5885 32.6423 19.3963 31.0162 19.0395C29.776 18.7651 28.5633 18.4083 27.4058 17.9417C26.9097 18.2161 26.4412 18.518 25.9727 18.82C27.4885 19.4787 29.087 20.0002 30.7406 20.357C32.4493 20.7412 34.2408 20.9334 36.0873 20.9334C38.5126 20.9334 40.8828 20.604 43.1152 19.9453Z" fill="#50A7E3"/>
<path d="M48.4071 22.5802C45.7614 23.2389 42.647 23.6232 39.3122 23.6232C35.8672 23.6232 32.6702 23.2115 29.9693 22.5253C27.5991 21.9215 25.6148 21.0706 24.2367 20.11C23.8785 20.3845 23.5202 20.6864 23.1895 21.0157C24.7328 22.1685 26.9377 23.1291 29.611 23.8153C32.4222 24.5564 35.757 24.9681 39.3122 24.9681C42.7573 24.9681 45.9818 24.5838 48.7103 23.8977C51.3285 23.2664 53.5334 22.3332 55.1319 21.2628C54.7736 20.9334 54.4429 20.6315 54.0846 20.3296C52.6514 21.2353 50.6946 22.0313 48.4071 22.5802Z" fill="#65AFDC"/>
<path d="M49.5653 26.5051C46.2305 27.5481 42.2618 28.2342 37.9624 28.4264C33.9661 28.591 30.2179 28.3166 26.9658 27.6853C23.9617 27.0815 21.4537 26.2032 19.6072 25.0778C19.3592 25.4621 19.1111 25.8189 18.8906 26.2032C20.8474 27.4108 23.5483 28.3715 26.7178 29.0027C30.0526 29.6615 33.911 29.9634 38.0175 29.7713C42.4547 29.5791 46.5612 28.8655 49.9787 27.7951C53.1757 26.7795 55.8214 25.4346 57.5577 23.9251C57.2821 23.5683 57.0065 23.2114 56.7034 22.8821C55.1049 24.2819 52.6244 25.5444 49.5653 26.5051Z" fill="#50A7E3"/>
<path d="M51.494 33.3943C47.2773 34.0256 42.3716 34.1079 37.1627 33.5041C33.194 33.0649 29.4733 32.2964 26.1661 31.2534C22.9967 30.2653 20.2406 29.0851 18.0358 27.7402C17.8153 28.1245 17.6224 28.5362 17.457 28.9753C19.7445 30.3202 22.5557 31.5554 25.7527 32.5434C29.1426 33.5864 32.9459 34.4098 36.9973 34.849C42.344 35.4528 47.3875 35.3705 51.6869 34.7392C55.7383 34.1354 59.1282 33.0649 61.5535 31.5828C61.4157 31.1436 61.2779 30.7045 61.1126 30.2653C58.8526 31.72 55.5178 32.8179 51.494 33.3943Z" fill="#65AFDC"/>
<path d="M62.4897 36.9074C59.3478 37.4564 44.355 39.9266 39.2839 37.7034C34.0199 35.3704 19.2751 34.9587 15.7474 34.9038C15.6923 35.343 15.6372 35.7821 15.582 36.2487C18.8066 36.3036 33.634 36.6879 38.7327 38.9385C44.0518 41.2715 58.9344 38.8836 62.5448 38.2798C62.5448 37.8132 62.5172 37.3466 62.4897 36.9074Z" fill="#50A7E3"/>
<path d="M52.1821 43.2475C48.682 42.2045 44.7684 41.3811 40.6068 40.9145C35.5081 40.3381 30.6575 40.3656 26.3857 40.8596C22.3343 41.3262 18.8066 42.232 16.0781 43.4945L16.4088 44.812C19.0271 43.5769 22.4997 42.6711 26.551 42.2045C30.7127 41.7105 35.4806 41.7105 40.469 42.2594C44.5479 42.726 48.3788 43.522 51.7963 44.5375C55.1035 45.553 57.9974 46.7607 60.3951 48.1056C60.588 47.6939 60.7534 47.2822 60.9188 46.8705C58.4659 45.4707 55.5169 44.263 52.1821 43.2475Z" fill="#65AFDC"/>
<path d="M51.1649 47.1177C47.7198 46.4589 43.7236 46.1845 39.5344 46.3766C35.235 46.5687 31.2387 47.2 27.8213 48.1881C24.5416 49.0938 21.7856 50.329 19.7461 51.7562C20.0217 52.113 20.2697 52.4698 20.5729 52.8266C22.4746 51.5092 25.0652 50.3564 28.1795 49.4781C31.5143 48.5449 35.4279 47.9136 39.5895 47.7215C43.696 47.5568 47.5544 47.8038 50.9168 48.4351C54.0587 49.0115 56.7596 49.9173 58.7715 51.0151C59.0195 50.6309 59.2676 50.2466 59.4881 49.8624C57.3384 48.6821 54.4721 47.7215 51.1649 47.1177Z" fill="#50A7E3"/>
<path d="M48.1304 52.6618C45.209 51.9482 41.7916 51.5365 38.126 51.5365C34.8464 51.5365 31.732 51.8659 29.0036 52.4422C26.3854 53.0186 24.0978 53.842 22.334 54.8301C22.6647 55.1595 23.023 55.4889 23.3537 55.7908C24.9522 54.9674 26.9641 54.2812 29.2792 53.7871C31.925 53.2108 34.929 52.8814 38.126 52.8814C41.6813 52.8814 44.9886 53.2657 47.7997 53.9793C50.3077 54.5831 52.4023 55.4065 53.9457 56.3946C54.3315 56.1201 54.6622 55.7908 55.0205 55.4889C53.3118 54.3086 50.9416 53.348 48.1304 52.6618Z" fill="#65AFDC"/>
<path d="M47.0559 56.422C45.292 56.0377 43.4731 55.8456 41.599 55.8456C39.2012 55.8456 36.8861 56.1749 34.6538 56.7788C32.4765 57.3552 30.4095 58.206 28.5078 59.2764C29.0315 59.5235 29.5275 59.7705 30.0512 59.9901C31.6221 59.1941 33.2757 58.5354 35.012 58.0688C37.1066 57.5198 39.3115 57.2179 41.599 57.2179C43.3904 57.2179 45.1267 57.3826 46.7803 57.7394C48.0481 57.9864 49.2607 58.3432 50.4458 58.7824C50.9419 58.5079 51.438 58.206 51.9065 57.9041C50.3631 57.2728 48.7371 56.7513 47.0559 56.422Z" fill="#50A7E3"/>
<path d="M16.6024 43.2477C16.5473 43.0555 16.4922 42.836 16.4095 42.6438C16.2992 42.2047 16.189 41.7655 16.0788 41.2989C15.8307 40.256 15.6654 39.213 15.5827 38.1151V37.9504L15.5551 37.923V37.5387L15.5276 37.4838V37.2094C15.5 37.5936 15.5 37.9504 15.5 38.3072V39.0757L15.5276 39.1581V39.6796L15.5551 39.7345V40.0913L15.5827 40.1462V40.3108C15.6654 41.3813 15.8307 42.4517 16.0788 43.4947C16.2441 43.4123 16.4371 43.33 16.6024 43.2477Z" fill="#61A7CE"/>
<path d="M16.6018 43.2478C16.4364 43.3301 16.2435 43.4125 16.0781 43.4948L16.4088 44.8123C16.6293 44.7299 16.8498 44.6201 17.0703 44.5378C16.9049 44.0987 16.7396 43.687 16.6018 43.2478Z" fill="#5B9EC6"/>
<path d="M17.0697 44.5378C16.8492 44.6202 16.6287 44.73 16.4082 44.8123C17.1523 47.3374 18.2823 49.6704 19.743 51.7564C20.0186 52.1132 20.2666 52.47 20.5698 52.8268C21.121 53.5404 21.6998 54.1991 22.3337 54.8304C22.8022 54.556 23.3258 54.3089 23.877 54.0619C23.7117 53.9247 23.5463 53.76 23.3534 53.6228C23.0227 53.2934 22.6644 52.964 22.3337 52.6347C22.1407 52.4425 21.9478 52.2504 21.7825 52.0583C21.3415 52.3053 20.9281 52.5798 20.5698 52.8268L19.743 51.7564C20.1013 51.5094 20.4871 51.2623 20.873 51.0428C20.7627 50.9055 20.6525 50.7683 20.5698 50.6585C20.2666 50.3017 20.0186 49.9449 19.743 49.5606C18.6681 48.0236 17.7587 46.3219 17.0697 44.5378Z" fill="#61A7CE"/>
<path d="M19.7461 51.7561L20.5729 52.8265C20.9312 52.5795 21.3446 52.305 21.7856 52.058C21.4824 51.7287 21.1792 51.3718 20.8761 51.0425C20.4902 51.2621 20.1044 51.5091 19.7461 51.7561Z" fill="#4896CC"/>
<path d="M23.8774 54.0619L22.334 54.8304C22.6647 55.1598 23.023 55.4891 23.3537 55.791C23.9049 55.5166 24.4837 55.2696 25.1176 55.0225C24.6766 54.7206 24.2908 54.3913 23.8774 54.0619Z" fill="#5B9EC6"/>
<path d="M25.1174 55.0223C24.4835 55.2694 23.9047 55.5164 23.3535 55.7909C24.8969 57.1632 26.6332 58.3434 28.5073 59.2766C29.279 58.8375 30.0507 58.4532 30.8499 58.0964C30.7121 58.0415 30.5468 57.9866 30.409 57.9317H30.3814L30.0507 57.7945C29.527 57.5749 29.0309 57.3553 28.5073 57.0809C27.3222 56.5045 26.1647 55.7909 25.1174 55.0223Z" fill="#61A7CE"/>
<path d="M30.8504 58.0966C30.0512 58.4534 29.2795 58.8376 28.5078 59.2768C29.0315 59.5238 29.5275 59.7708 30.0788 59.9904C30.9607 59.5238 31.9253 59.1121 32.8899 58.7553C32.7797 58.7278 32.697 58.7004 32.5867 58.6729H32.5592C32.3938 58.618 32.2009 58.5632 32.0355 58.5083H32.008C31.8426 58.4534 31.6497 58.371 31.4843 58.3161H31.4568C31.2914 58.2612 31.126 58.2063 30.9331 58.124C30.9056 58.124 30.878 58.124 30.8504 58.0966Z" fill="#4896CC"/>
<path d="M32.8914 58.7551C31.9268 59.1119 30.9622 59.5236 30.0803 59.9902H30.0527L30.3835 60.1L30.411 60.1274C30.5764 60.1823 30.7417 60.2372 30.9347 60.3195C31.1276 60.3744 31.2929 60.4568 31.4583 60.5117H31.4859C31.6512 60.5666 31.8442 60.6215 32.0095 60.6764H32.0371C32.2024 60.7312 32.3954 60.7861 32.5607 60.841H32.5883C32.7812 60.8959 32.9466 60.9508 33.1395 61.0057C33.3324 61.0606 33.5253 61.0881 33.6907 61.143H33.7183C33.9112 61.1704 34.0765 61.2253 34.2695 61.2527C34.4624 61.3076 34.6553 61.3351 34.8482 61.3625H34.8758C35.0412 61.4174 35.2341 61.4449 35.427 61.4723H35.4546C35.6475 61.4998 35.8128 61.5272 36.0058 61.5547H36.0333C36.2262 61.5821 36.4192 61.6095 36.6121 61.6095C36.805 61.637 36.9979 61.6644 37.1909 61.6644H37.2184C37.4113 61.6919 37.6043 61.6919 37.7972 61.7193H37.8247C38.2106 61.7193 38.624 61.7468 39.0098 61.7468C39.2303 61.7468 39.4232 61.7468 39.6162 61.7193H40.2501C40.443 61.6919 40.6359 61.6919 40.8288 61.6644C41.0217 61.6644 41.2147 61.637 41.4076 61.6095H41.4351C41.6281 61.6095 41.821 61.5821 41.9864 61.5547H42.0415C42.2068 61.5272 42.3998 61.4998 42.5927 61.4723H42.6202C42.7856 61.4449 42.9785 61.4174 43.1714 61.3625H43.199C43.5573 61.3076 43.9431 61.2253 44.329 61.143C44.5219 61.0881 44.7148 61.0606 44.8802 61.0057H44.9077C45.0731 60.9508 45.266 60.8959 45.4314 60.841H45.4865C45.6519 60.7861 45.8172 60.7312 46.0102 60.6764C46.2031 60.6215 46.3684 60.5666 46.5614 60.5117C46.7543 60.4568 46.9196 60.3744 47.085 60.3195H47.1126C47.2779 60.2372 47.4709 60.1823 47.6362 60.1274V60.1C47.8291 60.0451 47.9945 59.9627 48.1599 59.9078H48.1874C48.3528 59.8255 48.5181 59.7432 48.7111 59.6608C48.8764 59.5785 49.0418 59.5236 49.2072 59.4412L49.2347 59.4138L49.7308 59.1668L50.2269 58.9198L50.4474 58.7825C49.5379 58.4532 48.6008 58.1512 47.6362 57.9317C47.4709 57.9866 47.2779 58.0689 47.1126 58.1238H47.085C46.9196 58.2061 46.7543 58.261 46.5614 58.3159C46.3684 58.3708 46.2031 58.4532 46.0102 58.5081C45.8172 58.5629 45.6519 58.6178 45.4865 58.6453L45.4314 58.6727C45.266 58.7276 45.0731 58.7551 44.9077 58.81H44.8802C44.7148 58.8649 44.5219 58.9198 44.329 58.9472C43.9431 59.0295 43.5573 59.1119 43.199 59.1942H43.1714C42.9785 59.2217 42.7856 59.2491 42.6202 59.2766H42.5927C42.3998 59.304 42.2068 59.3315 42.0415 59.3589H41.9864C41.821 59.3864 41.6281 59.4138 41.4351 59.4412H41.4076C41.2147 59.4412 41.0217 59.4687 40.8288 59.4687V59.4961C40.6359 59.4961 40.443 59.5236 40.2501 59.5236H40.2225C40.0296 59.5236 39.8366 59.551 39.6437 59.551H39.0098C38.624 59.551 38.2106 59.551 37.8247 59.5236H37.7972C37.6043 59.5236 37.4113 59.4961 37.2184 59.4961L37.1909 59.4687C36.9979 59.4687 36.805 59.4412 36.6121 59.4412L36.0333 59.3589H36.0058C35.8128 59.3315 35.6475 59.304 35.4546 59.2766H35.427C35.2341 59.2491 35.0412 59.2217 34.8758 59.1942H34.8482C34.6553 59.1393 34.4624 59.1119 34.2695 59.0844C34.0765 59.0295 33.9112 59.0021 33.7183 58.9472H33.6907C33.5253 58.9198 33.3324 58.8649 33.1395 58.81C33.0568 58.7825 32.9741 58.7825 32.8914 58.7551ZM49.593 57.0534C50.3647 57.3004 51.1364 57.6023 51.9081 57.9042C52.6246 57.4376 53.3136 56.9436 53.9475 56.3946C53.4514 56.0927 52.8727 55.7634 52.2663 55.4889C52.1561 55.5712 52.0183 55.6536 51.9081 55.7359C51.4395 56.0378 50.9435 56.3123 50.4474 56.6142L50.2269 56.724C50.0615 56.8063 49.8962 56.8887 49.7308 56.9985C49.6757 57.0259 49.6206 57.0259 49.593 57.0534Z" fill="#61A7CE"/>
<path d="M51.9086 57.9043L49.5935 57.0535C49.4557 57.1084 49.3455 57.1907 49.2352 57.2456H49.2077L48.7116 57.4926C48.5186 57.5475 48.3533 57.6299 48.1879 57.7122H48.1604C47.995 57.7945 47.8296 57.8494 47.6367 57.9318C47.7194 57.9043 48.1328 58.0416 48.6289 58.1788C49.1525 58.3435 49.6486 58.5082 50.1723 58.6728C50.3101 58.7277 50.3927 58.7552 50.4479 58.7826C50.944 58.5082 51.44 58.2062 51.9086 57.9043Z" fill="#4896CC"/>
<path d="M52.2656 55.4889C52.872 55.7633 53.4507 56.0927 53.9468 56.3946C54.3326 56.1202 54.6634 55.7908 55.0217 55.4889C54.5531 55.1595 54.057 54.8576 53.5058 54.5831L52.2656 55.4889Z" fill="#5B9EC6"/>
<path d="M53.5059 54.5832C54.0571 54.8577 54.5532 55.1596 55.0217 55.489C55.2422 55.2968 55.4351 55.0773 55.6556 54.8851C56.8131 53.7049 57.8604 52.4149 58.7699 51.0151C59.0179 50.6309 59.266 50.2466 59.4864 49.8624C59.8172 49.286 60.1203 48.7096 60.3959 48.1058C60.0928 47.9411 59.8172 47.7764 59.514 47.6392L59.4864 47.6666C59.266 48.0783 59.0179 48.4626 58.7699 48.8468L58.4392 49.3409C58.7974 49.5055 59.1557 49.6702 59.4864 49.8624C59.266 50.2466 59.0179 50.6309 58.7699 51.0151C58.4116 50.823 58.0258 50.6309 57.6399 50.4387C57.006 51.2347 56.3446 51.9758 55.6556 52.6894C55.4351 52.909 55.2422 53.1011 55.0217 53.2932C54.6634 53.6226 54.3327 53.9245 53.9468 54.2264C53.809 54.3362 53.6437 54.4734 53.5059 54.5832Z" fill="#61A7CE"/>
<path d="M57.6406 50.4387C58.0265 50.6308 58.4123 50.823 58.7706 51.0151C59.0186 50.6308 59.2667 50.2466 59.4872 49.8623C59.1564 49.6702 58.7982 49.5055 58.4399 49.3408C58.1918 49.7251 57.9162 50.0819 57.6406 50.4387Z" fill="#4896CC"/>
<path d="M59.5137 47.6393C59.8168 47.7765 60.0924 47.9412 60.3956 48.1059C60.5885 47.6942 60.7539 47.2825 60.9192 46.8708C60.6712 46.7061 60.3956 46.5689 60.1476 46.4316C59.9546 46.8433 59.7342 47.2276 59.5137 47.6393Z" fill="#5B9EC6"/>
<path d="M60.1484 46.4315C60.3965 46.5687 60.6721 46.706 60.9201 46.8707C61.5265 45.3062 61.9674 43.6868 62.243 42.0126L62.2706 41.8479L62.2981 41.7106V41.6832C62.3257 41.546 62.3257 41.3813 62.3533 41.244V41.2166C62.3808 41.0245 62.4084 40.8049 62.4359 40.6128V40.4206L62.4635 40.2834V40.0638L62.4911 39.9815V39.6247L62.5186 39.2953V38.8287L62.5462 38.7738V38.2798H62.4359V38.417C62.4084 38.6091 62.3808 38.8287 62.3533 39.0209V39.0483C62.3257 39.213 62.3257 39.3502 62.2981 39.5149L62.2706 39.6521V39.6796L62.243 39.8168C61.9674 41.5185 61.5265 43.1379 60.9201 44.6749C60.7548 45.0866 60.5894 45.5258 60.3965 45.9375L60.1484 46.4315Z" fill="#61A7CE"/>
<path d="M14.9879 14.2161C14.9879 20.1574 19.2493 20.1574 19.2493 20.1574C14.9879 20.1574 14.9879 26.9475 14.9879 26.9475C14.9879 20.1574 10.7266 20.1574 10.7266 20.1574C14.9879 20.1574 14.9879 14.2161 14.9879 14.2161Z" fill="white"/>
<path d="M61.3532 53.5988C61.3532 59.5401 65.6145 59.5401 65.6145 59.5401C61.3532 59.5401 61.3532 66.3302 61.3532 66.3302C61.3532 59.5401 57.0918 59.5401 57.0918 59.5401C61.3532 59.5401 61.3532 53.5988 61.3532 53.5988Z" fill="white"/>
</g>
<defs>
<clipPath id="clip0_3093_37561">
<rect width="60" height="55" fill="white" transform="translate(8 11.5)"/>
</clipPath>
</defs>
</svg>
