<svg width="76" height="76" viewBox="0 0 76 76" fill="none" xmlns="http://www.w3.org/2000/svg">
<circle cx="38" cy="38" r="38" fill="#BBD0FF" fill-opacity="0.56"/>
<path d="M42.1552 59.8366C41.6087 60.0875 40.9634 59.838 40.726 59.2855C38.3754 53.8162 37.1846 48.0231 37.1846 42.049V37.4239C37.1846 36.8336 37.6631 36.3551 38.2534 36.3551C38.8436 36.3551 39.3221 36.8336 39.3221 37.4239V42.049C39.3221 47.7319 40.4551 53.2427 42.6915 58.4454C42.9203 58.9776 42.6817 59.595 42.1552 59.8366Z" fill="url(#paint0_linear_2919_21687)"/>
<path d="M38.2534 36.3552C37.6631 36.3552 37.1846 36.8338 37.1846 37.424V42.0491C37.1846 43.9877 37.3108 45.9072 37.5605 47.8028H39.7172C39.4543 45.9086 39.3221 43.9889 39.3221 42.0491V37.424C39.322 36.8338 38.8436 36.3552 38.2534 36.3552Z" fill="url(#paint1_linear_2919_21687)"/>
<path d="M48.4525 54.3036L48.6157 54.3352C51.7289 54.9461 54.8684 53.3245 56.1272 50.4123C56.1425 50.3776 56.1574 50.3427 56.1715 50.3086C56.2165 50.2002 56.2593 50.0908 56.2996 49.9805C56.9364 48.231 56.9033 46.3486 56.2067 44.6798C56.0826 44.3821 55.9379 44.0935 55.7735 43.8159C56.0778 43.7091 56.3743 43.581 56.6606 43.4326C58.2669 42.6021 59.5023 41.1814 60.1391 39.4318C60.1791 39.3214 60.2166 39.2102 60.2517 39.0982C60.2629 39.0631 60.274 39.0267 60.2844 38.9903C61.1922 35.9503 59.8295 32.6899 57.052 31.1568L56.9066 31.0761C53.7717 29.346 49.8777 29.7761 47.217 32.1721C47.1684 32.2159 47.119 32.2605 47.07 32.3053C44.5231 34.6309 41.7809 36.3936 39.109 36.8074C38.3259 36.9287 37.9809 37.8765 38.5028 38.4729C40.2835 40.5073 41.2512 43.6203 41.7073 47.0389C41.716 47.1046 41.7253 47.1706 41.7343 47.2355C42.2325 50.7813 44.9389 53.6139 48.4525 54.3036Z" fill="url(#paint2_linear_2919_21687)"/>
<path d="M38.5047 38.473C40.2854 40.5074 41.2531 43.6204 41.7092 47.039C41.718 47.1048 41.7272 47.1708 41.7363 47.2356C42.2344 50.7813 44.9408 53.6138 48.4544 54.3035L48.6176 54.3351C51.7308 54.946 54.8703 53.3244 56.1291 50.4121C56.1444 50.3775 56.1593 50.3426 56.1734 50.3084C56.2184 50.2 56.2612 50.0907 56.3015 49.9804C56.9383 48.2308 56.9052 46.3484 56.2086 44.6797C56.0845 44.382 55.9398 44.0933 55.7755 43.8158L38.3186 37.462C38.1995 37.7888 38.2438 38.1749 38.5047 38.473Z" fill="url(#paint3_linear_2919_21687)"/>
<path d="M48.4525 54.3035L48.6157 54.3352C51.0449 54.8119 53.49 53.9292 55.0453 52.1349L46.1679 33.0973C43.882 35.0248 41.468 36.4422 39.109 36.8075C38.3259 36.9288 37.9809 37.8767 38.5028 38.473C40.2835 40.5074 41.2512 43.6204 41.7073 47.039C41.716 47.1048 41.7253 47.1707 41.7343 47.2356C42.2325 50.7813 44.9389 53.6139 48.4525 54.3035Z" fill="url(#paint4_linear_2919_21687)"/>
<path d="M53.9688 30.1018C51.5703 29.7742 49.0886 30.4869 47.217 32.1722C47.1684 32.216 47.119 32.2606 47.07 32.3054C44.5231 34.631 41.7809 36.3937 39.109 36.8075C38.3259 36.9288 37.9809 37.8766 38.5028 38.473C40.2835 40.5074 41.2512 43.6204 41.7073 47.0389C41.716 47.1047 41.7253 47.1707 41.7343 47.2355C42.0847 49.7295 43.5277 51.8708 45.5757 53.1615L53.9688 30.1018Z" fill="url(#paint5_linear_2919_21687)"/>
<path d="M28.0558 54.3036L27.8926 54.3352C24.7794 54.9461 21.6399 53.3245 20.3811 50.4123C20.3659 50.3779 20.3511 50.3433 20.3368 50.3086C20.2917 50.2002 20.249 50.0908 20.2087 49.9805C19.5719 48.231 19.605 46.3486 20.3016 44.6798C20.4257 44.3821 20.5704 44.0935 20.7347 43.8159C20.4304 43.7091 20.134 43.581 19.8477 43.4326C18.2413 42.6021 17.006 41.1814 16.3692 39.4318C16.3165 39.2861 16.268 39.1388 16.2238 38.9903C15.316 35.9503 16.6787 32.6899 19.4562 31.1568L19.6016 31.0761C22.7365 29.346 26.6305 29.7761 29.2912 32.1721C29.3398 32.2159 29.3892 32.2605 29.4382 32.3053C31.9851 34.6309 34.7273 36.3936 37.3992 36.8074C38.1823 36.9287 38.5273 37.8765 38.0054 38.4729C36.2247 40.5073 35.257 43.6203 34.8009 47.0389C34.7922 47.1046 34.7829 47.1706 34.7739 47.2355C34.2757 50.7813 31.5693 53.6139 28.0558 54.3036Z" fill="url(#paint6_linear_2919_21687)"/>
<path d="M38.0054 38.473C36.2247 40.5074 35.257 43.6204 34.8009 47.039C34.7921 47.1048 34.7829 47.1708 34.7738 47.2356C34.2757 50.7813 31.5693 53.6138 28.0557 54.3035L27.8925 54.3351C24.7793 54.946 21.6398 53.3244 20.381 50.4121C20.3658 50.3778 20.351 50.3432 20.3367 50.3084C20.2916 50.2 20.2489 50.0907 20.2086 49.9804C19.5718 48.2308 19.6049 46.3484 20.3015 44.6797C20.4256 44.382 20.5703 44.0933 20.7346 43.8158L38.1915 37.462C38.3106 37.7888 38.2663 38.1749 38.0054 38.473Z" fill="url(#paint7_linear_2919_21687)"/>
<path d="M28.0576 54.3036L27.8944 54.3352C25.4652 54.8119 23.0201 53.9293 21.4648 52.1349L30.3422 33.0974C32.6281 35.025 35.0421 36.4423 37.4011 36.8077C38.1842 36.929 38.5292 37.8768 38.0073 38.4731C36.2266 40.5075 35.2589 43.6205 34.8028 47.0391C34.7941 47.1049 34.7848 47.1709 34.7757 47.2357C34.2775 50.7813 31.5711 53.6139 28.0576 54.3036Z" fill="url(#paint8_linear_2919_21687)"/>
<path d="M22.54 30.1019C24.9385 29.7743 27.4202 30.487 29.2918 32.1722C29.3405 32.2161 29.3899 32.2607 29.4389 32.3055C31.9858 34.631 34.728 36.3938 37.3998 36.8076C38.1829 36.9289 38.528 37.8767 38.006 38.473C36.2253 40.5074 35.2576 43.6204 34.8015 47.039C34.7928 47.1048 34.7836 47.1708 34.7745 47.2356C34.4242 49.7296 32.9812 51.8708 30.9332 53.1616L22.54 30.1019Z" fill="url(#paint9_linear_2919_21687)"/>
<path d="M50.6128 22.3709L50.5868 22.2066C50.0961 19.0723 47.4984 16.6767 44.3313 16.4899C44.2938 16.4874 44.2563 16.4853 44.2187 16.4837C44.1014 16.4784 43.9841 16.4757 43.8667 16.4755C42.0048 16.4755 40.2473 17.1504 38.9175 18.3758C38.6801 18.5942 38.4584 18.8289 38.2539 19.0783C38.0493 18.8289 37.8276 18.5941 37.5902 18.3758C36.2605 17.1506 34.5029 16.4757 32.6411 16.4757C32.5244 16.4757 32.4062 16.4787 32.2891 16.4839C32.2522 16.4855 32.2144 16.4875 32.1765 16.4901C29.0094 16.6768 26.4117 19.0724 25.921 22.2068L25.895 22.3711C25.3413 25.9087 27.0774 29.4207 30.2388 31.1014C30.2966 31.1321 30.3555 31.1633 30.4144 31.194C33.4707 32.7919 36.065 34.7659 37.3677 37.1351C37.7495 37.8295 38.7583 37.8295 39.1401 37.1351C40.4428 34.766 43.0371 32.792 46.0934 31.194C46.1523 31.1634 46.2111 31.1322 46.2689 31.1014C49.4304 29.4205 51.1665 25.9085 50.6128 22.3709Z" fill="url(#paint10_linear_2919_21687)"/>
<path d="M39.1421 37.135C40.4448 34.7658 43.0391 32.7919 46.0954 31.1939C46.1543 31.1632 46.2131 31.132 46.271 31.1013C49.4324 29.4204 51.1685 25.9085 50.6148 22.371L50.5888 22.2067C50.0981 19.0723 47.5004 16.6767 44.3333 16.49C44.2958 16.4875 44.2583 16.4854 44.2207 16.4838C44.1035 16.4785 43.9861 16.4758 43.8687 16.4756C42.0068 16.4756 40.2493 17.1505 38.9195 18.3759C38.6821 18.5943 38.4604 18.829 38.2559 19.0784V37.6557C38.6035 37.6558 38.9511 37.4822 39.1421 37.135Z" fill="url(#paint11_linear_2919_21687)"/>
<path d="M50.6146 22.3709L50.5886 22.2067C50.2058 19.7609 48.54 17.7652 46.3219 16.9175L31.4688 31.7706C34.0618 33.2595 36.2194 35.0431 37.3695 37.1349C37.7513 37.8293 38.7601 37.8293 39.1419 37.1349C40.4446 34.7657 43.0389 32.7918 46.0952 31.1938C46.1541 31.1631 46.2129 31.1319 46.2708 31.1012C49.4322 29.4205 51.1683 25.9085 50.6146 22.3709Z" fill="url(#paint12_linear_2919_21687)"/>
<path d="M25.9863 25.4648C26.4988 27.8307 28.0173 29.919 30.2412 31.1013C30.2989 31.1319 30.3578 31.1631 30.4167 31.1939C33.473 32.7918 36.0674 34.7657 37.37 37.1349C37.7518 37.8293 38.7606 37.8293 39.1424 37.1349C40.4451 34.7658 43.0394 32.7918 46.0957 31.1939C46.1546 31.1632 46.2134 31.132 46.2713 31.1013C48.4951 29.919 50.0136 27.8307 50.5261 25.4648H25.9863Z" fill="url(#paint13_linear_2919_21687)"/>
<defs>
<linearGradient id="paint0_linear_2919_21687" x1="37.5159" y1="48.4969" x2="40.2744" y2="48.1028" gradientUnits="userSpaceOnUse">
<stop stop-color="#8BC727"/>
<stop offset="0.132" stop-color="#83C528"/>
<stop offset="0.343" stop-color="#6BBD2B"/>
<stop offset="0.607" stop-color="#45B131"/>
<stop offset="0.911" stop-color="#11A038"/>
<stop offset="1" stop-color="#009B3A"/>
</linearGradient>
<linearGradient id="paint1_linear_2919_21687" x1="38.4565" y1="45.473" x2="38.3381" y2="37.5031" gradientUnits="userSpaceOnUse">
<stop stop-color="#026841" stop-opacity="0"/>
<stop offset="0.208" stop-color="#016241" stop-opacity="0.208"/>
<stop offset="0.492" stop-color="#015140" stop-opacity="0.492"/>
<stop offset="0.817" stop-color="#00343E" stop-opacity="0.817"/>
<stop offset="1" stop-color="#00213D"/>
</linearGradient>
<linearGradient id="paint2_linear_2919_21687" x1="56.8079" y1="41.2925" x2="45.5686" y2="43.3" gradientUnits="userSpaceOnUse">
<stop stop-color="#8BC727"/>
<stop offset="0.132" stop-color="#83C528"/>
<stop offset="0.343" stop-color="#6BBD2B"/>
<stop offset="0.607" stop-color="#45B131"/>
<stop offset="0.911" stop-color="#11A038"/>
<stop offset="1" stop-color="#009B3A"/>
</linearGradient>
<linearGradient id="paint3_linear_2919_21687" x1="47.094" y1="46.2895" x2="48.3231" y2="34.1557" gradientUnits="userSpaceOnUse">
<stop stop-color="#026841" stop-opacity="0"/>
<stop offset="0.238" stop-color="#026441" stop-opacity="0.238"/>
<stop offset="0.474" stop-color="#015840" stop-opacity="0.475"/>
<stop offset="0.711" stop-color="#01443F" stop-opacity="0.711"/>
<stop offset="0.946" stop-color="#00283D" stop-opacity="0.946"/>
<stop offset="1" stop-color="#00213D"/>
</linearGradient>
<linearGradient id="paint4_linear_2919_21687" x1="47.2793" y1="43.9572" x2="41.0356" y2="51.9364" gradientUnits="userSpaceOnUse">
<stop stop-color="#026841" stop-opacity="0"/>
<stop offset="0.238" stop-color="#026441" stop-opacity="0.238"/>
<stop offset="0.474" stop-color="#015840" stop-opacity="0.475"/>
<stop offset="0.711" stop-color="#01443F" stop-opacity="0.711"/>
<stop offset="0.946" stop-color="#00283D" stop-opacity="0.946"/>
<stop offset="1" stop-color="#00213D"/>
</linearGradient>
<linearGradient id="paint5_linear_2919_21687" x1="45.6108" y1="40.1819" x2="38.2546" y2="37.5045" gradientUnits="userSpaceOnUse">
<stop stop-color="#026841" stop-opacity="0"/>
<stop offset="0.238" stop-color="#026441" stop-opacity="0.238"/>
<stop offset="0.474" stop-color="#015840" stop-opacity="0.475"/>
<stop offset="0.711" stop-color="#01443F" stop-opacity="0.711"/>
<stop offset="0.946" stop-color="#00283D" stop-opacity="0.946"/>
<stop offset="1" stop-color="#00213D"/>
</linearGradient>
<linearGradient id="paint6_linear_2919_21687" x1="19.6259" y1="41.28" x2="30.8652" y2="43.2875" gradientUnits="userSpaceOnUse">
<stop stop-color="#8BC727"/>
<stop offset="0.132" stop-color="#83C528"/>
<stop offset="0.343" stop-color="#6BBD2B"/>
<stop offset="0.607" stop-color="#45B131"/>
<stop offset="0.911" stop-color="#11A038"/>
<stop offset="1" stop-color="#009B3A"/>
</linearGradient>
<linearGradient id="paint7_linear_2919_21687" x1="29.3418" y1="46.2769" x2="28.1126" y2="34.1432" gradientUnits="userSpaceOnUse">
<stop stop-color="#026841" stop-opacity="0"/>
<stop offset="0.238" stop-color="#026441" stop-opacity="0.238"/>
<stop offset="0.474" stop-color="#015840" stop-opacity="0.475"/>
<stop offset="0.711" stop-color="#01443F" stop-opacity="0.711"/>
<stop offset="0.946" stop-color="#00283D" stop-opacity="0.946"/>
<stop offset="1" stop-color="#00213D"/>
</linearGradient>
<linearGradient id="paint8_linear_2919_21687" x1="29.1562" y1="43.9447" x2="35.4" y2="51.9238" gradientUnits="userSpaceOnUse">
<stop stop-color="#026841" stop-opacity="0"/>
<stop offset="0.238" stop-color="#026441" stop-opacity="0.238"/>
<stop offset="0.474" stop-color="#015840" stop-opacity="0.475"/>
<stop offset="0.711" stop-color="#01443F" stop-opacity="0.711"/>
<stop offset="0.946" stop-color="#00283D" stop-opacity="0.946"/>
<stop offset="1" stop-color="#00213D"/>
</linearGradient>
<linearGradient id="paint9_linear_2919_21687" x1="30.8236" y1="40.1694" x2="38.1798" y2="37.492" gradientUnits="userSpaceOnUse">
<stop stop-color="#026841" stop-opacity="0"/>
<stop offset="0.238" stop-color="#026441" stop-opacity="0.238"/>
<stop offset="0.474" stop-color="#015840" stop-opacity="0.475"/>
<stop offset="0.711" stop-color="#01443F" stop-opacity="0.711"/>
<stop offset="0.946" stop-color="#00283D" stop-opacity="0.946"/>
<stop offset="1" stop-color="#00213D"/>
</linearGradient>
<linearGradient id="paint10_linear_2919_21687" x1="35.4678" y1="18.9268" x2="41.1983" y2="28.8017" gradientUnits="userSpaceOnUse">
<stop stop-color="#8BC727"/>
<stop offset="0.132" stop-color="#83C528"/>
<stop offset="0.343" stop-color="#6BBD2B"/>
<stop offset="0.607" stop-color="#45B131"/>
<stop offset="0.911" stop-color="#11A038"/>
<stop offset="1" stop-color="#009B3A"/>
</linearGradient>
<linearGradient id="paint11_linear_2919_21687" x1="43.4884" y1="26.3478" x2="31.6661" y2="29.3428" gradientUnits="userSpaceOnUse">
<stop stop-color="#026841" stop-opacity="0"/>
<stop offset="0.238" stop-color="#026441" stop-opacity="0.238"/>
<stop offset="0.474" stop-color="#015840" stop-opacity="0.475"/>
<stop offset="0.711" stop-color="#01443F" stop-opacity="0.711"/>
<stop offset="0.946" stop-color="#00283D" stop-opacity="0.946"/>
<stop offset="1" stop-color="#00213D"/>
</linearGradient>
<linearGradient id="paint12_linear_2919_21687" x1="41.2326" y1="26.9694" x2="50.8661" y2="30.1076" gradientUnits="userSpaceOnUse">
<stop stop-color="#026841" stop-opacity="0"/>
<stop offset="0.238" stop-color="#026441" stop-opacity="0.238"/>
<stop offset="0.474" stop-color="#015840" stop-opacity="0.475"/>
<stop offset="0.711" stop-color="#01443F" stop-opacity="0.711"/>
<stop offset="0.946" stop-color="#00283D" stop-opacity="0.946"/>
<stop offset="1" stop-color="#00213D"/>
</linearGradient>
<linearGradient id="paint13_linear_2919_21687" x1="38.2562" y1="29.8286" x2="38.2562" y2="37.6569" gradientUnits="userSpaceOnUse">
<stop stop-color="#026841" stop-opacity="0"/>
<stop offset="0.238" stop-color="#026441" stop-opacity="0.238"/>
<stop offset="0.474" stop-color="#015840" stop-opacity="0.475"/>
<stop offset="0.711" stop-color="#01443F" stop-opacity="0.711"/>
<stop offset="0.946" stop-color="#00283D" stop-opacity="0.946"/>
<stop offset="1" stop-color="#00213D"/>
</linearGradient>
</defs>
</svg>
