<svg width="60" height="105" viewBox="0 0 60 105" fill="none" xmlns="http://www.w3.org/2000/svg">
<g clip-path="url(#clip0_3093_37859)">
<path d="M13.3921 75.0631C13.0016 75.3336 12.6903 75.7031 12.49 76.1338C12.2898 76.5645 12.2079 77.0408 12.2528 77.5136C11.9824 77.1231 11.6128 76.8118 11.1821 76.6115C10.7514 76.4113 10.2752 76.3294 9.80233 76.3743C10.1928 76.1039 10.5042 75.7343 10.7044 75.3036C10.9047 74.8729 10.9865 74.3967 10.9416 73.9238C11.4944 74.7148 12.4311 75.1503 13.3921 75.0631ZM37.2844 60.9416C37.6749 60.6712 37.9863 60.3016 38.1865 59.8709C38.3868 59.4402 38.4686 58.964 38.4237 58.4911C38.9703 59.2843 39.907 59.7198 40.8742 59.6304C40.4837 59.9008 40.1724 60.2704 39.9721 60.7011C39.7719 61.1318 39.69 61.6081 39.7349 62.0809C39.4629 61.6921 39.093 61.382 38.6628 61.182C38.2325 60.9819 37.757 60.899 37.2844 60.9416Z" fill="#BA94E8"/>
<path d="M53.8723 87.7862C54.2344 88.7775 53.7243 89.8746 52.733 90.2367C51.7417 90.5988 50.6446 90.0887 50.2825 89.0974C49.9205 88.1061 50.4306 87.009 51.4218 86.6469C52.4131 86.2848 53.5103 86.7949 53.8723 87.7862Z" fill="#BA94E8"/>
<path d="M29.9964 84.5373C29.6059 84.8077 29.2945 85.1772 29.0943 85.6079C28.894 86.0386 28.8121 86.5149 28.8571 86.9877C28.5866 86.5973 28.2171 86.2859 27.7864 86.0857C27.3557 85.8854 26.8794 85.8035 26.4066 85.8484C26.797 85.578 27.1084 85.2085 27.3087 84.7778C27.5089 84.3471 27.5908 83.8708 27.5459 83.398C28.0925 84.1912 29.0292 84.6267 29.9964 84.5373ZM21.6122 73.1023L22.7269 70.2233L20.9915 67.6772L24.0663 67.8456L25.9529 65.4068L26.7433 68.3884L29.6427 69.4262L27.0536 71.1009L26.9638 74.1817L24.573 72.2361L21.6122 73.1023ZM38.7177 83.0945L33.9162 82.5709L37.2499 79.0759L36.2653 74.3462L40.6183 76.4362L44.8105 74.037L44.1648 78.8276L47.7438 82.0681L42.9922 82.9358L41.0133 87.3454L38.7177 83.0945ZM26.7795 97.7239L27.9704 100.566L24.9894 99.7803L22.6493 101.794L22.4772 98.719L19.8361 97.1147L22.7113 95.9952L23.4202 92.9937L25.3699 95.3851L28.443 95.1306L26.7795 97.7239Z" fill="#BA94E8"/>
<path d="M20.4662 79.6649C20.7134 80.3416 20.3652 81.0904 19.6885 81.3376C19.0119 81.5847 18.263 81.2366 18.0159 80.5599C17.7687 79.8833 18.1169 79.1344 18.7935 78.8872C19.4702 78.6401 20.2191 78.9883 20.4662 79.6649Z" fill="#BA94E8"/>
<path d="M14.4447 65.0762C14.6919 65.7528 14.3437 66.5017 13.6671 66.7488C12.9904 66.996 12.2415 66.6478 11.9944 65.9712C11.7472 65.2945 12.0954 64.5456 12.7721 64.2985C13.4487 64.0513 14.1976 64.3995 14.4447 65.0762Z" fill="#BA94E8"/>
<path d="M41.5444 95.0178C41.7915 95.6945 41.4433 96.4433 40.7667 96.6905C40.09 96.9376 39.3411 96.5895 39.094 95.9128C38.8468 95.2362 39.195 94.4873 39.8717 94.2401C40.5483 93.993 41.2972 94.3412 41.5444 95.0178Z" fill="#BA94E8"/>
<path d="M49.4565 68.0908C49.7036 68.7675 49.3554 69.5163 48.6788 69.7635C48.0021 70.0106 47.2532 69.6625 47.0061 68.9858C46.7589 68.3092 47.1071 67.5603 47.7838 67.3131C48.4604 67.066 49.2093 67.4142 49.4565 68.0908Z" fill="#BA94E8"/>
<path d="M39.0756 67.7651C39.3227 68.4418 38.9746 69.1907 38.2979 69.4378C37.6213 69.685 36.8724 69.3368 36.6252 68.6601C36.3781 67.9835 36.7263 67.2346 37.4029 66.9874C38.0796 66.7403 38.8285 67.0885 39.0756 67.7651Z" fill="#BA94E8"/>
</g>
<g clip-path="url(#clip1_3093_37859)">
<path d="M7.97818 9.78204C7.60889 9.81725 7.25565 9.95021 6.9548 10.1672C6.65395 10.3843 6.41636 10.6776 6.26647 11.0169C6.23126 10.6476 6.0983 10.2944 5.88126 9.99351C5.66423 9.69266 5.37095 9.45507 5.03162 9.30518C5.40091 9.26997 5.75415 9.13701 6.055 8.91997C6.35585 8.70293 6.59344 8.40966 6.74333 8.07033C6.81804 8.82029 7.29006 9.4746 7.97818 9.78204ZM29.6488 9.27986C30.0181 9.24465 30.3713 9.11169 30.6721 8.89465C30.973 8.67762 31.2106 8.38434 31.3605 8.04501C31.4302 8.79416 31.9022 9.44847 32.5953 9.75672C32.226 9.79193 31.8728 9.92489 31.572 10.1419C31.2711 10.359 31.0335 10.6522 30.8836 10.9916C30.8467 10.6228 30.713 10.2703 30.4962 9.96979C30.2794 9.66923 29.987 9.43123 29.6488 9.27986Z" fill="#BA94E8"/>
<path d="M30.7062 33.9039C30.5745 34.7176 29.8081 35.2704 28.9945 35.1387C28.1808 35.0071 27.6279 34.2407 27.7596 33.427C27.8913 32.6133 28.6577 32.0605 29.4713 32.1922C30.285 32.3239 30.8379 33.0902 30.7062 33.9039Z" fill="#BA94E8"/>
<path d="M15.6761 22.5758C15.3068 22.611 14.9535 22.7439 14.6527 22.961C14.3518 23.178 14.1143 23.4713 13.9644 23.8106C13.9292 23.4413 13.7962 23.0881 13.5792 22.7872C13.3621 22.4864 13.0688 22.2488 12.7295 22.0989C13.0988 22.0637 13.452 21.9307 13.7529 21.7137C14.0537 21.4967 14.2913 21.2034 14.4412 20.864C14.5109 21.6132 14.9829 22.2675 15.6761 22.5758ZM14.3281 11.5836L16.1866 10.0474L15.976 7.65008L18.0069 8.93851L20.2233 7.99689L19.6238 10.3302L21.2033 12.1441L18.7998 12.297L17.5627 14.362L16.6762 12.1236L14.3281 11.5836ZM22.1695 24.9218L19.0976 22.7322L22.7033 21.6232L23.8378 18.0246L26.0061 21.1103L29.7785 21.0758L27.5099 24.0936L28.7117 27.6679L25.1427 26.4453L22.111 28.6946L22.1695 24.9218ZM8.45056 30.3331L8.17708 32.7244L6.44583 31.051L4.08241 31.5302L5.1391 29.369L3.95183 27.2676L6.33834 27.6022L7.96712 25.8277L8.38275 28.2014L10.5739 29.201L8.45056 30.3331Z" fill="#BA94E8"/>
<path d="M11.0439 15.6185C10.954 16.1739 10.4309 16.5513 9.87546 16.4614C9.32005 16.3715 8.94267 15.8484 9.03256 15.293C9.12245 14.7376 9.64556 14.3602 10.201 14.4501C10.7564 14.54 11.1338 15.0631 11.0439 15.6185Z" fill="#BA94E8"/>
<path d="M12.5087 3.37877C12.4188 3.93417 11.8957 4.31155 11.3403 4.22167C10.7849 4.13178 10.4075 3.60867 10.4974 3.05326C10.5873 2.49785 11.1104 2.12047 11.6658 2.21036C12.2212 2.30025 12.5986 2.82336 12.5087 3.37877Z" fill="#BA94E8"/>
<path d="M19.5439 34.1255C19.454 34.6809 18.9309 35.0583 18.3755 34.9684C17.8201 34.8785 17.4427 34.3554 17.5326 33.8C17.6224 33.2446 18.1456 32.8672 18.701 32.9571C19.2564 33.0469 19.6338 33.5701 19.5439 34.1255Z" fill="#BA94E8"/>
<path d="M35.2138 18.7976C35.1239 19.353 34.6008 19.7304 34.0454 19.6405C33.49 19.5506 33.1126 19.0275 33.2025 18.4721C33.2924 17.9167 33.8155 17.5393 34.3709 17.6292C34.9263 17.7191 35.3037 18.2422 35.2138 18.7976Z" fill="#BA94E8"/>
<path d="M28.2646 14.613C28.1747 15.1684 27.6516 15.5458 27.0962 15.4559C26.5408 15.366 26.1634 14.8429 26.2533 14.2875C26.3431 13.7321 26.8663 13.3547 27.4217 13.4446C27.9771 13.5345 28.3545 14.0576 28.2646 14.613Z" fill="#BA94E8"/>
</g>
<defs>
<clipPath id="clip0_3093_37859">
<rect width="43.0436" height="43.0436" fill="white" transform="matrix(0.343082 0.939305 0.939305 -0.343082 4.35938 65.7675)"/>
</clipPath>
<clipPath id="clip1_3093_37859">
<rect width="33.6184" height="33.6184" fill="white" transform="matrix(-0.159759 0.987156 0.987156 0.159759 5.37109 0)"/>
</clipPath>
</defs>
</svg>
