<svg width="76" height="77" viewBox="0 0 76 77" fill="none" xmlns="http://www.w3.org/2000/svg">
<circle cx="38" cy="38.5" r="38" fill="#BBD0FF" fill-opacity="0.56"/>
<g clip-path="url(#clip0_3093_37262)">
<path d="M12.3105 38.838C12.3105 25.7294 19.0087 14.3868 31.1723 11.3385C33.3579 10.7908 35.6453 10.5 38.0007 10.5C43.3502 10.5 48.3494 12.0002 52.6003 14.6029C54.2267 15.5986 52.0522 17.2601 53.4373 18.5563C54.3863 19.4443 58.9649 19.8934 59.7829 20.9048C62.9041 24.764 65.0206 29.4692 65.7344 34.6228C65.91 35.8901 61.4373 36.3958 61.4373 37.7113C61.4373 38.1149 65.9921 39.3052 65.9752 39.7046C65.8959 41.5967 65.6248 43.4758 65.166 45.3131C64.3351 48.6366 59.393 51.3313 57.4936 53.9366C52.437 60.8726 47.5339 65.3169 38.0007 65.3169C22.5367 65.3169 12.3105 54.302 12.3105 38.838Z" fill="#D16161"/>
<path d="M63.2972 50.5169C61.6082 54.0662 59.1947 57.2031 56.2482 59.7383H56.2471C54.8241 59.8771 51.8859 61.6097 50.3947 61.7112C46.7164 61.9616 44.3227 60.4831 40.3237 60.4831C32.5964 60.4831 25.3378 59.9828 19.0437 59.1073C17.6425 57.8178 20.8614 56.9506 19.7468 55.4014C18.5794 53.7788 13.0934 51.463 12.291 49.6064C19.8707 51.1895 29.6488 52.1428 40.3237 52.1428C48.7541 52.1428 56.6257 51.5479 63.2972 50.5169Z" fill="#E5936A"/>
<path d="M56.4338 59.5761C53.4252 62.2089 49.8489 64.2084 45.9124 65.3662C43.4034 66.1041 42.3254 64.1902 39.5775 64.1902C38.5227 64.1902 35.904 66.4417 34.8795 66.3281C28.8021 65.6542 23.3112 63.035 19.0436 59.1071C18.2737 58.3986 20.5457 56.9801 19.8592 56.1902C17.9878 54.0368 13.4381 52.2621 12.2895 49.6071C10.8165 46.2018 10 42.4463 10 38.5C10 37.9159 11.5985 37.1598 11.6338 36.5845C11.6974 35.5483 10.2365 34.7035 10.4097 33.7007C10.8232 31.3052 11.5493 28.9743 12.5692 26.7676C13.7896 24.1271 16.5657 22.9285 18.507 20.8099C20.2792 18.8759 21.1629 15.9719 23.4125 14.5963C25.819 13.1237 28.4353 12.0256 31.1718 11.3395C25.3082 16.4719 21.6056 24.011 21.6056 32.4155C21.6056 47.8792 34.1852 61.572 49.6056 60.4155C51.8592 60.2465 54.2479 60.1248 56.4338 59.5761Z" fill="#CA4646"/>
<path d="M66.0008 38.5C66.0008 38.904 65.9925 39.3054 65.9746 39.7046C58.7768 41.0082 49.9122 41.7766 40.3242 41.7766C28.5403 41.7766 17.8492 40.6149 10.002 38.7276C10.0008 38.6513 14.1135 37.3369 14.1135 37.2606C14.1135 35.6235 10.1414 35.2603 10.4107 33.7007C18.2185 35.532 28.7442 36.6532 40.3243 36.6532C49.805 36.6532 58.5791 35.9014 65.734 34.6229C65.9122 35.9076 66.0013 37.203 66.0008 38.5Z" fill="#E5936A"/>
<path d="M58.6717 32.483C58.6717 33.0448 58.5834 33.5859 58.4198 34.0932C57.7402 36.2008 53.5223 36.4597 53.5223 36.4597L49.418 32.202C49.418 32.202 49.7114 28.1717 51.819 27.4923C52.3393 27.3248 52.8826 27.2398 53.4291 27.2404C56.3246 27.2404 58.6717 29.5875 58.6717 32.483Z" fill="#E5936A"/>
<path d="M44.0166 41.0617C44.0166 42.0289 43.8109 42.948 43.4406 43.7777C42.4004 46.1091 40.0414 47.5141 37.3235 47.5141C33.6385 47.5141 31.0137 44.5513 31.0137 40.8662C31.0137 38.1483 32.2969 36.0056 34.6283 34.9654C35.483 34.5844 36.4085 34.3881 37.3443 34.3894C41.0293 34.3894 44.0166 37.3766 44.0166 41.0617ZM58.4199 34.0932C57.7404 36.2014 55.763 37.7259 53.4294 37.7259C50.5337 37.7259 48.1866 35.3789 48.1866 32.4831C48.1866 30.1496 49.7111 28.1721 51.8193 27.4927C51.6512 28.0128 51.566 28.5562 51.5669 29.1028C51.5669 31.9986 53.914 34.3456 56.8097 34.3456C57.372 34.3456 57.9128 34.2577 58.4199 34.0932Z" fill="#E27C48"/>
<path d="M43.4403 43.7777C42.4003 46.109 40.0623 47.7338 37.3434 47.7338C33.6589 47.7338 30.6719 44.7467 30.6719 41.0622C30.6719 38.3434 32.2967 36.0053 34.6279 34.9653C34.2473 35.8204 34.0511 36.746 34.0522 37.682C34.0522 41.3665 37.0392 44.3535 40.7237 44.3535C41.6916 44.3535 42.6099 44.1473 43.4403 43.7777Z" fill="#DF6937"/>
<path d="M50.808 52.2021C50.8082 52.4725 50.7737 52.7418 50.7053 53.0034C50.3506 54.3592 49.1565 54.8379 47.6896 54.8379C45.9458 54.8379 45.7741 54.3282 45.7741 52.5844C45.7741 51.1175 45.4934 49.5018 46.8491 49.1472C47.1107 49.0789 47.3801 49.0445 47.6505 49.0447C49.3943 49.0447 50.808 50.4583 50.808 52.2021Z" fill="#E27C48"/>
<path d="M50.7071 53.0036C50.3522 54.3591 49.1184 55.3597 47.6513 55.3597C45.9082 55.3597 44.4941 53.9456 44.4941 52.2025C44.4941 50.7355 45.4947 49.5017 46.8502 49.1467C46.7837 49.4036 46.7477 49.6718 46.7477 49.949C46.7477 51.6921 48.1617 53.1062 49.9048 53.1062C50.182 53.1062 50.4502 53.0701 50.7071 53.0036Z" fill="#DF6937"/>
<path d="M59.782 20.9053C53.5338 21.5987 46.2264 21.9979 38.4174 21.9979C30.2878 21.9979 22.7017 21.5653 16.2891 20.8183C17.3126 19.5625 20.7768 19.2791 22.0004 18.2183C23.1684 17.2057 22.0874 15.4063 23.413 14.5963C27.9693 14.9133 32.9056 15.0872 38.06 15.0872C43.1739 15.0872 48.0733 14.9156 52.5997 14.6035C55.3362 16.2784 57.7655 18.4098 59.782 20.9053Z" fill="#E5936A"/>
<path d="M12.4387 49.9456C12.5401 50.1709 12.6438 50.3952 12.7508 50.6171C12.6438 50.3952 12.539 50.1709 12.4387 49.9456ZM10.0195 37.4385C10.0297 37.1501 10.0443 36.8616 10.0646 36.5754C10.0454 36.8616 10.0297 37.1501 10.0195 37.4385ZM10.0736 36.4594C10.0928 36.1732 10.1176 35.8892 10.148 35.6075C10.1187 35.8904 10.0939 36.1743 10.0736 36.4594Z" fill="#DF6937"/>
<path d="M47.4646 60.4719C45.1311 60.5676 42.766 60.4831 40.3232 60.4831C32.5959 60.4831 25.3373 59.9828 19.0432 59.1074C16.1623 56.4585 13.8413 53.2008 12.2905 49.6065C17.1919 50.6307 23.0128 51.3902 29.4004 51.7992C34.0404 56.6341 40.3694 59.9423 47.4646 60.4719ZM22.908 40.8775C18.09 40.3558 13.7249 39.6234 10.0009 38.7276C9.98717 37.0433 10.1241 35.3611 10.41 33.7012C13.7485 34.4842 17.5852 35.1366 21.788 35.6279C21.9907 37.4099 22.3658 39.168 22.908 40.8775ZM27.7993 14.8504C26.1666 16.8735 24.8241 19.1145 23.8105 21.5085C21.1649 21.3259 18.6477 21.0927 16.2894 20.8178C18.2951 18.3564 20.7037 16.253 23.4128 14.5969C24.8393 14.6961 26.304 14.7806 27.7993 14.8504Z" fill="#E27C48"/>
<path d="M16.3499 20.7445C16.3296 20.7693 16.3093 20.793 16.2902 20.8177H16.2891C16.3093 20.793 16.3296 20.7682 16.3499 20.7445Z" fill="#DF6937"/>
<path d="M36.6293 23.7256C36.6293 24.5763 36.4243 25.3792 36.0611 26.0875C35.2021 27.7624 33.7014 28.3593 31.6896 28.3593C28.827 28.3593 26.6191 26.4894 26.6191 23.6269C26.6191 21.6151 27.4095 19.9698 29.0845 19.1108C29.8153 18.7363 30.625 18.5415 31.4462 18.5427C34.3088 18.5426 36.6293 20.8631 36.6293 23.7256Z" fill="#E27C48"/>
<path d="M36.062 26.0876C35.2023 27.762 33.458 28.909 31.4468 28.909C28.5848 28.909 26.2637 26.5879 26.2637 23.7259C26.2637 21.7135 27.4107 19.9693 29.0851 19.1107C28.7108 19.8416 28.5161 20.6512 28.5172 21.4724C28.5172 24.3344 30.8383 26.6555 33.7003 26.6555C34.551 26.6555 35.3532 26.4504 36.062 26.0876Z" fill="#DF6937"/>
<path d="M48.183 21.6896C48.1647 21.9156 48.1178 22.1384 48.0435 22.3526C47.652 23.4797 45.3153 23.2072 45.3153 23.2072L43.3398 21.2702C43.3398 21.2702 43.567 19.3922 44.4445 19.0108C44.8488 18.8351 45.2904 18.7624 45.7297 18.7991C47.2054 18.9198 48.3038 20.214 48.183 21.6896Z" fill="#D16161"/>
<path d="M48.0425 22.3524C47.6515 23.4792 46.5372 24.2443 45.2921 24.1429C43.8172 24.0223 42.7186 22.7277 42.8391 21.2527C42.9225 20.2319 43.567 19.3924 44.4448 19.0116C44.3694 19.2258 44.3221 19.4489 44.3039 19.6753C44.1834 21.1502 45.2819 22.4448 46.7569 22.5654C47.2121 22.6026 47.6504 22.5237 48.0425 22.3524Z" fill="#CA4646"/>
<path d="M65.165 45.313C64.7321 47.0468 64.1327 48.7347 63.3751 50.3531C63.1375 50.8608 61.8161 50.2913 61.5495 50.7817C61.3475 51.1535 62.2065 52.5892 61.9885 52.9504C60.2155 52.4714 59.8594 50.7917 59.8594 48.8662C59.8594 47.1389 59.9611 45.7162 61.4578 45.083C61.9714 44.8661 62.5234 44.7546 63.081 44.7554C63.84 44.7554 64.5526 44.958 65.165 45.313Z" fill="#E5936A"/>
<path d="M63.3733 50.3524C62.9575 51.2448 62.4944 52.1124 61.9885 52.9507C60.2149 52.4718 58.9102 50.8504 58.9102 48.9259C58.9102 47.1895 59.9716 45.7 61.4814 45.0735C61.2708 45.5802 61.1628 46.1236 61.1637 46.6724C61.1637 48.2656 62.0583 49.6515 63.3733 50.3524Z" fill="#E27C48"/>
<path d="M60.8127 14.5476C60.8127 15.0144 61.1911 15.3927 61.6578 15.3927C62.1245 15.3927 62.5029 15.0144 62.5029 14.5476V13.9842H63.0663C63.533 13.9842 63.9113 13.606 63.9113 13.1391C63.9113 12.6723 63.533 12.2941 63.0663 12.2941H62.5029V11.7307C62.5029 11.2639 62.1245 10.8856 61.6578 10.8856C61.1911 10.8856 60.8127 11.2639 60.8127 11.7307V12.2941H60.2494C59.7827 12.2941 59.4043 12.6723 59.4043 13.1391C59.4043 13.606 59.7827 13.9842 60.2494 13.9842H60.8127V14.5476Z" fill="#E5936A"/>
<path d="M11.6858 17.4772C11.6858 17.944 12.0642 18.3222 12.5309 18.3222C12.9976 18.3222 13.3759 17.944 13.3759 17.4772V16.9138H13.9393C14.406 16.9138 14.7844 16.5355 14.7844 16.0687C14.7844 15.6019 14.406 15.2236 13.9393 15.2236H13.3759V14.6603C13.3759 14.1934 12.9976 13.8152 12.5309 13.8152C12.0642 13.8152 11.6858 14.1934 11.6858 14.6603V15.2236H11.1224C10.6557 15.2236 10.2773 15.6019 10.2773 16.0687C10.2773 16.5355 10.6557 16.9138 11.1224 16.9138H11.6858V17.4772Z" fill="#F3D332"/>
<path d="M15.2909 60.8574H14.7275V60.294C14.7275 59.8272 14.3491 59.449 13.8824 59.449C13.4157 59.449 13.0374 59.8272 13.0374 60.294V60.8574H12.474C12.0073 60.8574 11.6289 61.2357 11.6289 61.7025C11.6289 62.1693 12.0073 62.5476 12.474 62.5476H13.0374V63.1109C13.0374 63.5778 13.4157 63.956 13.8824 63.956C14.3491 63.956 14.7275 63.5778 14.7275 63.1109V62.5476H15.2909C15.7576 62.5476 16.1359 62.1693 16.1359 61.7025C16.1359 61.2357 15.7577 60.8574 15.2909 60.8574Z" fill="#D16161"/>
<path d="M64.0799 62.2095H63.5166V61.6461C63.5166 61.1793 63.1382 60.801 62.6715 60.801C62.2048 60.801 61.8264 61.1793 61.8264 61.6461V62.2095H61.263C60.7963 62.2095 60.418 62.5877 60.418 63.0545C60.418 63.5214 60.7963 63.8996 61.263 63.8996H61.8264V64.463C61.8264 64.9298 62.2048 65.3081 62.6715 65.3081C63.1382 65.3081 63.5166 64.9298 63.5166 64.463V63.8996H64.0799C64.5466 63.8996 64.925 63.5214 64.925 63.0545C64.925 62.5877 64.5468 62.2095 64.0799 62.2095Z" fill="#F3D332"/>
<path d="M45.9136 65.3407C45.9136 65.3491 45.9124 65.3586 45.9124 65.367C43.4031 66.1044 40.7473 66.5001 37.9997 66.5001C36.9453 66.5001 35.9038 66.4417 34.8791 66.3284C34.7489 65.7895 34.6995 65.2341 34.7325 64.6806C34.9149 61.5935 37.5647 59.2379 40.6531 59.4202C43.7403 59.6025 46.0959 62.2524 45.9136 65.3407ZM21.4976 42.3128C21.4976 42.6927 21.4373 43.0586 21.3258 43.4013C20.8675 44.8097 19.392 44.6971 17.8307 44.6971C15.8895 44.6971 16.1405 44.3848 16.1405 42.4436C16.1405 40.8827 15.4853 39.4285 16.8932 38.9699C17.2451 38.8556 17.6127 38.7975 17.9827 38.7979C19.9239 38.798 21.4976 40.3716 21.4976 42.3128Z" fill="#E27C48"/>
<path d="M21.3254 43.4014C20.8668 44.8098 19.544 45.8273 17.9823 45.8273C16.0409 45.8273 14.4668 44.2544 14.4668 42.3129C14.4668 40.7524 15.4843 39.4284 16.8927 38.9698C16.7812 39.3124 16.7203 39.6786 16.7203 40.0594C16.7203 42.0008 18.2944 43.5738 20.2358 43.5738C20.6167 43.5738 20.9829 43.5129 21.3254 43.4014Z" fill="#DF6937"/>
<path d="M29.0045 52.6787C29.0046 52.812 28.9947 52.9451 28.9751 53.0769C28.7828 54.3686 26.309 54.838 26.309 54.838L24.774 53.0304C24.774 53.0304 24.6339 50.2192 25.926 50.0271C26.0558 50.0078 26.1885 49.9978 26.3237 49.9978C27.8042 49.9979 29.0045 51.1981 29.0045 52.6787Z" fill="#D16161"/>
<path d="M28.9744 53.0769C28.7817 54.3693 27.6685 55.3597 26.3231 55.3597C24.8426 55.3597 23.6426 54.1597 23.6426 52.6791C23.6426 51.3338 24.633 50.2194 25.9254 50.0267C25.9062 50.1563 25.8961 50.2904 25.8961 50.4256C25.8961 51.9062 27.0961 53.1062 28.5767 53.1062C28.7119 53.1062 28.8448 53.096 28.9744 53.0769Z" fill="#CA4646"/>
<path d="M19.2952 23.4014C19.2952 25.9024 17.6272 26.7817 15.1262 26.7817C14.1516 26.7817 13.3058 27.2904 12.5684 26.7674C12.8135 26.2369 13.9482 26.1668 14.2248 25.6549C14.508 25.1312 13.9339 24.1663 14.2487 23.6634C15.2333 22.0908 16.3715 20.6197 17.6464 19.2717C18.8199 20.033 19.6186 21.3263 19.7028 22.8098C19.7076 22.896 19.2952 23.314 19.2952 23.4014Z" fill="#E27C48"/>
<path d="M19.7098 23.0701C19.7098 25.5715 17.6827 27.5974 15.1824 27.5974C14.2078 27.5974 13.3053 27.2909 12.5684 26.767C13.0641 25.6943 13.6264 24.6577 14.2495 23.6639C14.8929 24.0166 15.6343 24.2171 16.4219 24.2171C17.7131 24.2171 18.8782 23.6763 19.7019 22.8098C19.7075 22.8966 19.7098 22.9833 19.7098 23.0701Z" fill="#DF6937"/>
</g>
<defs>
<clipPath id="clip0_3093_37262">
<rect width="56" height="56" fill="white" transform="translate(10 10.5)"/>
</clipPath>
</defs>
</svg>
